<svg width="80" height="80" viewBox="0 0 24 25" fill="none" xmlns="http://www.w3.org/2000/svg" transform="rotate(0 0 0)"><path d="M3.25 6C3.25 4.75736 4.25736 3.75 5.5 3.75H18.5009C19.7435 3.75 20.7509 4.75736 20.7509 6V19C20.7509 20.2426 19.7435 21.25 18.5009 21.25H5.5C4.25736 21.25 3.25 20.2426 3.25 19V6ZM12.5016 9.15521C12.2213 9.27126 12.0385 9.54477 12.0385 9.84817L12.0385 11.749L8.55957 11.749C8.14536 11.749 7.80957 12.0847 7.80957 12.499C7.80957 12.9132 8.14536 13.249 8.55957 13.249L12.0385 13.249V15.152C12.0385 15.4554 12.2213 15.7289 12.5016 15.8449C12.7819 15.961 13.1046 15.8967 13.319 15.6821L15.9572 13.0423C16.1007 12.9057 16.1902 12.7128 16.1902 12.499C16.1902 12.2725 16.0898 12.0694 15.9311 11.9319L13.319 9.31802C13.1046 9.10341 12.782 9.03915 12.5016 9.15521Z" fill="#000000"/></svg>