<svg width="80" height="80" viewBox="0 0 24 24" fill="none" xmlns="http://www.w3.org/2000/svg" transform="rotate(0 0 0)"><path d="M9.87423 4.13198C10.4917 4.20059 10.9367 4.75681 10.8681 5.37433L10.5903 7.8751H14.3264L14.6319 5.12587C14.7005 4.50835 15.2567 4.06337 15.8742 4.13198C16.4917 4.20059 16.9367 4.75681 16.8681 5.37433L16.5903 7.8751H18C18.6213 7.8751 19.125 8.37878 19.125 9.0001C19.125 9.62142 18.6213 10.1251 18 10.1251H16.3403L15.9237 13.8751H18C18.6213 13.8751 19.125 14.3788 19.125 15.0001C19.125 15.6214 18.6213 16.1251 18 16.1251H15.6737L15.3681 18.8753C15.2995 19.4928 14.7433 19.9378 14.1258 19.8692C13.5083 19.8006 13.0633 19.2444 13.1319 18.6268L13.4098 16.1251H9.67368L9.36812 18.8753C9.29951 19.4928 8.7433 19.9378 8.12577 19.8692C7.50825 19.8006 7.06327 19.2444 7.13188 18.6268L7.40983 16.1251H6C5.37868 16.1251 4.875 15.6214 4.875 15.0001C4.875 14.3788 5.37868 13.8751 6 13.8751H7.65981L8.07645 10.1251H6C5.37868 10.1251 4.875 9.62142 4.875 9.0001C4.875 8.37878 5.37868 7.8751 6 7.8751H8.32643L8.63188 5.12587C8.70049 4.50835 9.25671 4.06337 9.87423 4.13198ZM10.3403 10.1251L9.92366 13.8751H13.6598L14.0765 10.1251H10.3403Z" fill="#000000"/></svg>