<svg width="80" height="80" viewBox="0 0 24 24" fill="none" xmlns="http://www.w3.org/2000/svg" transform="rotate(0 0 0)"><path d="M8.39849 4.79688C7.60093 4.79688 6.86297 5.2191 6.4588 5.90666L3.2463 11.3717C2.47297 12.2035 2 13.3183 2 14.5436C2 17.117 4.08615 19.2032 6.65955 19.2032C9.06426 19.2032 11.0435 17.3816 11.2927 15.043H12.7073C12.9565 17.3816 14.9357 19.2032 17.3404 19.2032C19.9138 19.2032 22 17.117 22 14.5436C22 13.3183 21.527 12.2035 20.7537 11.3717L17.5412 5.90666C17.137 5.2191 16.3991 4.79688 15.6015 4.79688H14.9309C13.829 4.79688 12.9121 5.58894 12.7186 6.63476C12.5039 6.59077 12.2649 6.56738 12 6.56738C11.7351 6.56738 11.4961 6.59077 11.2814 6.63476C11.0879 5.58894 10.171 4.79688 9.0691 4.79688H8.39849ZM11.3191 8.20371C11.3718 8.16494 11.5489 8.06738 12 8.06738C12.4511 8.06738 12.6282 8.16494 12.6809 8.20371V13.543H11.3191V8.20371ZM4.39825 12.337C4.97203 11.7491 5.77316 11.3841 6.65955 11.3841C8.40452 11.3841 9.8191 12.7987 9.8191 14.5436C9.8191 16.2886 8.40452 17.7032 6.65955 17.7032C4.91458 17.7032 3.5 16.2886 3.5 14.5436C3.5 13.6954 3.83424 12.9253 4.3782 12.3577C4.385 12.3509 4.39168 12.344 4.39825 12.337ZM19.6017 12.337C19.6083 12.344 19.615 12.3509 19.6218 12.3577C20.1658 12.9253 20.5 13.6954 20.5 14.5436C20.5 16.2886 19.0854 17.7032 17.3404 17.7032C15.5955 17.7032 14.1809 16.2886 14.1809 14.5436C14.1809 12.7987 15.5955 11.3841 17.3404 11.3841C18.2268 11.3841 19.028 11.7491 19.6017 12.337Z" fill="#000000"/></svg>