<svg width="80" height="80" viewBox="0 0 24 24" fill="none" xmlns="http://www.w3.org/2000/svg" transform="rotate(0 0 0)"><path d="M12.9512 18.8617C12.8723 18.9514 12.79 19.0392 12.7043 19.1249C10.5415 21.2878 7.03492 21.2878 4.87211 19.1249C2.7093 16.9621 2.7093 13.4555 4.87211 11.2927C4.89174 11.2731 4.91149 11.2536 4.93134 11.2343C6.29859 9.90677 8.181 9.42533 9.9207 9.7871C10.1987 9.8449 10.4732 9.92424 10.7414 10.0251L11.4877 9.27879C11.6284 9.13814 11.8054 9.04533 11.9797 9.02078L12.98 8.87991C13.3431 8.82877 13.6789 8.49299 13.73 8.12991L13.8709 7.12962C13.922 6.76654 14.2578 6.43075 14.6209 6.37962L15.6212 6.23875C15.9843 6.18762 16.32 5.85183 16.3712 5.48875L16.512 4.48846C16.5373 4.30908 16.6348 4.12716 16.7818 3.98489C16.9289 3.84262 17.1128 3.75235 17.2909 3.73502L19.9858 3.47281C20.324 3.4399 20.5581 3.674 20.5252 4.01219L20.263 6.70708C20.2452 6.89019 20.1503 7.07918 20.0015 7.22796L13.9725 13.257C14.0734 13.5256 14.1527 13.8005 14.2105 14.0789C14.5536 15.7329 14.1347 17.5156 12.9512 18.8617ZM8.94554 15.0504C8.45739 14.5623 7.66593 14.5623 7.17778 15.0504C6.68962 15.5386 6.68962 16.3301 7.17778 16.8182C7.66593 17.3064 8.45746 17.3064 8.94561 16.8183C9.43377 16.3301 9.4337 15.5386 8.94554 15.0504Z" fill="#000000"/></svg>