<svg width="80" height="80" viewBox="0 0 24 25" fill="none" xmlns="http://www.w3.org/2000/svg" transform="rotate(0 0 0)"><path d="M2 7C2 5.75736 3.00736 4.75 4.25 4.75H19.75C20.9926 4.75 22 5.75736 22 7V15.2255C22 15.7805 21.799 16.2887 21.4658 16.681C20.8037 15.1261 19.7062 13.8011 18.3263 12.8593C17.9852 12.6265 17.6269 12.4172 17.2536 12.2335C16.0854 11.6588 14.771 11.3359 13.3812 11.3359C12.6462 11.3359 11.9935 11.6884 11.5829 12.2335H6.36108C5.94687 12.2335 5.61108 12.5693 5.61108 12.9835C5.61108 13.3977 5.94687 13.7335 6.36108 13.7335H11.136C11.1716 14.2845 11.4057 14.7815 11.7674 15.1538C11.375 15.5349 11.1196 16.0592 11.0884 16.6485C11.0731 16.9374 11.113 17.2165 11.1988 17.4755H4.25C3.00736 17.4755 2 16.4681 2 15.2255V7ZM6.00073 9.2421C6.00073 9.68393 6.35891 10.0421 6.80073 10.0421H6.80973C7.25156 10.0421 7.60973 9.68393 7.60973 9.2421C7.60973 8.80027 7.25156 8.4421 6.80973 8.4421H6.80073C6.35891 8.4421 6.00073 8.80027 6.00073 9.2421ZM10.2638 8.44201C9.82198 8.44201 9.46381 8.80019 9.46381 9.24201C9.46381 9.68384 9.82198 10.042 10.2638 10.042H10.2728C10.7146 10.042 11.0728 9.68384 11.0728 9.24201C11.0728 8.80019 10.7146 8.44201 10.2728 8.44201H10.2638ZM12.9269 9.24201C12.9269 9.68384 13.2851 10.042 13.7269 10.042H13.7359C14.1777 10.042 14.5359 9.68384 14.5359 9.24201C14.5359 8.80019 14.1777 8.44201 13.7359 8.44201H13.7269C13.2851 8.44201 12.9269 8.80019 12.9269 9.24201ZM17.19 8.44201C16.7482 8.44201 16.39 8.80019 16.39 9.24201C16.39 9.68384 16.7482 10.042 17.19 10.042H17.199C17.6408 10.042 17.999 9.68384 17.999 9.24201C17.999 8.80019 17.6408 8.44201 17.199 8.44201H17.19Z" fill="#000000"/><path d="M19.1642 20.1188C19.1642 16.925 16.5751 14.3359 13.3813 14.3359C12.9671 14.3359 12.6313 14.0002 12.6313 13.5859C12.6313 13.1717 12.9671 12.8359 13.3813 12.8359C17.4036 12.8359 20.6642 16.0966 20.6642 20.1188C20.6642 20.533 20.3284 20.8688 19.9142 20.8688C19.5 20.8688 19.1642 20.533 19.1642 20.1188Z" fill="#000000"/><path d="M12.7983 19.5694C13.1107 19.257 13.6172 19.257 13.9297 19.5694C14.2421 19.8818 14.2428 20.389 13.9304 20.7015C13.618 21.0139 13.1114 21.0139 12.799 20.7015C12.4866 20.389 12.4859 19.8818 12.7983 19.5694Z" fill="#000000"/><path d="M13.2956 17.5166C14.7443 17.5934 15.9064 18.7555 15.9833 20.2042C16.0052 20.6178 16.3583 20.9354 16.7719 20.9134C17.1856 20.8915 17.5031 20.5384 17.4812 20.1248C17.3637 17.9101 15.5897 16.1361 13.3751 16.0187C12.9614 15.9968 12.6083 16.3143 12.5864 16.7279C12.5645 17.1415 12.882 17.4946 13.2956 17.5166Z" fill="#000000"/></svg>