<svg width="80" height="80" viewBox="0 0 24 24" fill="none" xmlns="http://www.w3.org/2000/svg" transform="rotate(0 0 0)"><path d="M10.875 2.75C10.875 2.12868 11.3787 1.625 12 1.625C17.73 1.625 22.375 6.27005 22.375 12C22.375 17.73 17.73 22.375 12 22.375C6.27005 22.375 1.625 17.73 1.625 12C1.625 9.13458 2.78808 6.53865 4.66524 4.66225C5.10467 4.223 5.81698 4.22315 6.25623 4.66258L12.7957 11.2047C13.2349 11.6441 13.2348 12.3564 12.7953 12.7957C12.3559 13.2349 11.6436 13.2348 11.2043 12.7953L5.51518 7.10385C4.69884 8.18306 4.14636 9.47151 3.95216 10.875H5.08064C5.70196 10.875 6.20564 11.3787 6.20564 12C6.20564 12.6213 5.70196 13.125 5.08064 13.125H3.95225C4.44911 16.7122 7.28783 19.5509 10.875 20.0477V18.9194C10.875 18.298 11.3787 17.7944 12 17.7944C12.6213 17.7944 13.125 18.298 13.125 18.9194V20.0477C16.7122 19.5509 19.5509 16.7122 20.0477 13.125H18.9194C18.298 13.125 17.7944 12.6213 17.7944 12C17.7944 11.3787 18.298 10.875 18.9194 10.875H20.0477C19.5509 7.28783 16.7122 4.44911 13.125 3.95225V5.08064C13.125 5.70196 12.6213 6.20564 12 6.20564C11.3787 6.20564 10.875 5.70196 10.875 5.08064V2.75Z" fill="#000000"/></svg>