<svg width="80" height="80" viewBox="0 0 25 25" fill="none" xmlns="http://www.w3.org/2000/svg" transform="rotate(0 0 0)"><path d="M14.5 3.68164C14.5 3.26743 14.8358 2.93164 15.25 2.93164C15.6642 2.93164 16 3.26743 16 3.68164V6.66455L19.5 6.66455C19.9142 6.66455 20.25 7.00034 20.25 7.41455C20.25 7.82876 19.9142 8.16455 19.5 8.16455H19L19 11.1361C18.4255 10.8865 17.7914 10.748 17.125 10.748C14.5243 10.748 12.416 12.8563 12.416 15.4571C12.416 16.6997 13.4234 17.7071 14.666 17.7071C14.9038 17.7071 15.1329 17.6702 15.3481 17.6018C15.1044 18.0486 14.9145 18.5886 14.8805 19.2148C14.1433 19.5051 13.3403 19.6646 12.5 19.6646C8.91015 19.6646 6 16.7544 6 13.1645L6 8.16455H5.5C5.08579 8.16455 4.75 7.82876 4.75 7.41455C4.75 7.00034 5.08579 6.66455 5.5 6.66455L9 6.66455L9 3.68164C9 3.26743 9.33579 2.93164 9.75 2.93164C10.1642 2.93164 10.5 3.26743 10.5 3.68164L10.5 6.66455L14.5 6.66455V3.68164Z" fill="#000000"/><path d="M17.125 13.748C16.1812 13.748 15.416 14.5132 15.416 15.4571C15.416 15.8713 15.0802 16.2071 14.666 16.2071C14.2518 16.2071 13.916 15.8713 13.916 15.4571C13.916 13.6848 15.3527 12.248 17.125 12.248C18.8973 12.248 20.334 13.6848 20.334 15.4571C20.334 16.5461 19.7908 17.5082 18.9639 18.0872C18.6428 18.312 18.3556 18.5451 18.1526 18.7903C17.9524 19.032 17.875 19.2351 17.875 19.4161C17.875 19.8303 17.5392 20.1661 17.125 20.1661C16.7108 20.1661 16.375 19.8303 16.375 19.4161C16.375 18.7686 16.6627 18.2376 16.9972 17.8336C17.3289 17.4331 17.7461 17.1087 18.1036 16.8584C18.5468 16.5481 18.834 16.0361 18.834 15.4571C18.834 14.5132 18.0689 13.748 17.125 13.748ZM16.375 22.1143C16.375 21.7 16.7108 21.3643 17.125 21.3643H17.135C17.5492 21.3643 17.885 21.7 17.885 22.1143C17.885 22.5285 17.5492 22.8643 17.135 22.8643H17.125C16.7108 22.8643 16.375 22.5285 16.375 22.1143Z" fill="#000000"/></svg>