<svg width="80" height="80" viewBox="0 0 24 24" fill="none" xmlns="http://www.w3.org/2000/svg" transform="rotate(0 0 0)"><path d="M3.6853 4.77222C5.93237 2.52515 9.5756 2.52515 11.8227 4.77222L12 4.94959L12.1773 4.77232C14.4244 2.52525 18.0676 2.52525 20.3147 4.77232C22.5618 7.01939 22.5618 10.6626 20.3147 12.9097L13.591 19.6334C12.7123 20.5121 11.2877 20.5121 10.409 19.6334L3.6853 12.9096C1.43823 10.6625 1.43823 7.01929 3.6853 4.77222ZM10.4533 12.2091L11.0004 11.0498L11.8088 14.3431C12.0564 15.3523 13.4245 15.5117 13.8976 14.5865L14.7844 12.8523H15.4418C15.856 12.8523 16.1918 12.5165 16.1918 12.1023C16.1918 11.688 15.856 11.3523 15.4418 11.3523H14.5532C14.1318 11.3523 13.746 11.5883 13.5541 11.9635L13.0238 13.0006L12.2032 9.65744C11.9513 8.63109 10.5498 8.49026 10.0987 9.44597L9.19902 11.3523H8.55811C8.14389 11.3523 7.80811 11.688 7.80811 12.1023C7.80811 12.5165 8.14389 12.8523 8.55811 12.8523H9.43855C9.87274 12.8523 10.268 12.6018 10.4533 12.2091Z" fill="#000000"/></svg>