<svg width="80" height="80" viewBox="0 0 24 24" fill="none" xmlns="http://www.w3.org/2000/svg" transform="rotate(0 0 0)"><path d="M16.0588 3.75098C16.0588 3.33676 15.723 3.00098 15.3088 3.00098C14.8945 3.00098 14.5588 3.33676 14.5588 3.75098V8.63216C14.5588 9.04637 14.8945 9.38216 15.3088 9.38216C15.723 9.38216 16.0588 9.04637 16.0588 8.63216V3.75098Z" fill="#000000"/><path d="M13.4541 5.55948C13.4541 5.14527 13.1183 4.80948 12.7041 4.80948C12.2899 4.80948 11.9541 5.14527 11.9541 5.55948V8.6327C11.9541 9.04691 12.2899 9.3827 12.7041 9.3827C13.1183 9.3827 13.4541 9.04691 13.4541 8.6327V5.55948Z" fill="#000000"/><path d="M18.6634 6.88942C18.6634 6.47521 18.3276 6.13942 17.9134 6.13942C17.4992 6.13942 17.1634 6.47521 17.1634 6.88942V8.6327C17.1634 9.04691 17.4992 9.3827 17.9134 9.3827C18.3276 9.3827 18.6634 9.04691 18.6634 8.6327V6.88942Z" fill="#000000"/><path d="M19.4265 11.0839C20.0838 10.5508 21.0446 10.6311 21.6042 11.2659C22.1113 11.841 22.1316 12.6974 21.6523 13.2959L17.7857 18.1245C17.4103 18.5934 16.8422 18.8663 16.2415 18.8663H10.0683C9.88238 18.8663 9.70304 18.9354 9.56514 19.0601L9.24091 19.3533C9.22557 19.3227 9.20925 19.2925 9.19195 19.2625L6.19328 14.0687C6.11945 13.9408 6.03193 13.8258 5.93363 13.7244L7.38752 12.5621C7.94102 12.1196 8.64045 11.8146 9.41265 11.8112C10.2258 11.8075 11.511 11.8794 12.6743 12.3037H15.6309C16.1953 12.3037 16.6724 12.6779 16.8276 13.1917C16.8623 13.3063 16.8809 13.4278 16.8809 13.5537C16.8809 14.2441 16.3212 14.8037 15.6309 14.8037H13.8345C13.5583 14.8037 13.3345 15.0276 13.3345 15.3037C13.3345 15.5799 13.5583 15.8037 13.8345 15.8037H15.6309C16.8735 15.8037 17.8809 14.7964 17.8809 13.5537C17.8809 13.187 17.7931 12.8408 17.6375 12.5349L19.4265 11.0839Z" fill="#000000"/><path d="M8.32592 19.7625C8.52709 20.1109 8.41691 20.5537 8.0817 20.7686L6.12367 21.899C5.76495 22.1062 5.30626 21.9832 5.09915 21.6245L2.10048 16.4307C2.00103 16.2584 1.97408 16.0537 2.02556 15.8616C2.07704 15.6694 2.20274 15.5056 2.375 15.4062L4.30273 14.2941C4.65191 14.0925 5.0958 14.2036 5.31019 14.5405C5.31605 14.5497 5.32174 14.5591 5.32725 14.5687L8.32592 19.7625Z" fill="#000000"/></svg>