<svg width="80" height="80" viewBox="0 0 25 25" fill="none" xmlns="http://www.w3.org/2000/svg" transform="rotate(0 0 0)"><path d="M12.4154 8.03331L12.2907 8.15814C12.6094 5.63385 14.7643 3.68164 17.3751 3.68164C20.2055 3.68164 22.5001 5.97618 22.5001 8.80664V12.4316C22.5001 12.8459 22.1643 13.1816 21.7501 13.1816C21.3358 13.1816 21.0001 12.8459 21.0001 12.4316V8.80664C21.0001 6.80461 19.3771 5.18164 17.3751 5.18164C15.9224 5.18164 14.6693 6.03613 14.091 7.26991C13.4805 7.31195 12.8819 7.56643 12.4154 8.03331Z" fill="#000000"/><path d="M13.5867 16.8307L13.709 16.7084C13.3888 19.2311 11.2347 21.1816 8.62506 21.1816C5.7946 21.1816 3.50006 18.8871 3.50006 16.0566V12.4316C3.50006 12.0174 3.83585 11.6816 4.25006 11.6816C4.66428 11.6816 5.00006 12.0174 5.00006 12.4316V16.0566C5.00006 18.0587 6.62303 19.6816 8.62506 19.6816C10.0777 19.6816 11.3308 18.8272 11.9091 17.5935C12.5202 17.5521 13.1196 17.2978 13.5867 16.8307Z" fill="#000000"/><path d="M15.0675 9.09283C15.507 9.53199 15.5073 10.2443 15.0682 10.6838L14.4333 11.3192C14.8221 11.3753 15.1584 11.6321 15.3117 12.0022C15.4858 12.4226 15.3896 12.9064 15.0678 13.2282L12.526 15.77C12.0867 16.2094 11.3743 16.2094 10.935 15.77C10.4957 15.3307 10.4957 14.6184 10.935 14.179L11.5681 13.546C11.18 13.4894 10.8444 13.233 10.6912 12.8634C10.517 12.4432 10.6131 11.9594 10.9347 11.6375L13.4765 9.09352C13.9157 8.65399 14.628 8.65368 15.0675 9.09283Z" fill="#000000"/><path d="M3.1753 11.0215C3.27886 11.2008 3.5082 11.2623 3.68756 11.1587C3.86692 11.0552 3.92838 10.8258 3.82482 10.6465L3.32482 9.78046C3.22127 9.6011 2.99192 9.53965 2.81256 9.6432C2.6332 9.74675 2.57175 9.9761 2.6753 10.1555L3.1753 11.0215Z" fill="#000000"/><path d="M4.6753 10.6465C4.57175 10.8258 4.6332 11.0552 4.81256 11.1587C4.99192 11.2623 5.22127 11.2008 5.32482 11.0215L5.82482 10.1555C5.92838 9.9761 5.86692 9.74675 5.68756 9.6432C5.5082 9.53965 5.27886 9.6011 5.1753 9.78046L4.6753 10.6465Z" fill="#000000"/><path d="M21.3248 14.2061C21.4284 14.0267 21.3669 13.7973 21.1876 13.6938C21.0082 13.5902 20.7789 13.6517 20.6753 13.8311L20.1753 14.6971C20.0718 14.8764 20.1332 15.1058 20.3126 15.2093C20.4919 15.3129 20.7213 15.2514 20.8248 15.0721L21.3248 14.2061Z" fill="#000000"/><path d="M22.3126 13.6938C22.4919 13.5902 22.7213 13.6517 22.8248 13.8311L23.3248 14.6971C23.4284 14.8764 23.3669 15.1058 23.1876 15.2093C23.0082 15.3129 22.7789 15.2514 22.6753 15.0721L22.1753 14.2061C22.0718 14.0267 22.1332 13.7973 22.3126 13.6938Z" fill="#000000"/></svg>