<svg width="80" height="80" viewBox="0 0 24 25" fill="none" xmlns="http://www.w3.org/2000/svg" transform="rotate(0 0 0)"><path d="M14.375 3.25V4H15.125C16.3676 4 17.375 5.00736 17.375 6.25V12.3823C16.4131 12.5303 15.6521 13.2876 15.4985 14.2476C15.2961 14.1879 15.0818 14.1558 14.86 14.1558C14.6486 14.1558 14.444 14.1849 14.25 14.2394V13.8457C14.25 12.6031 13.2426 11.5957 12 11.5957C10.7574 11.5957 9.75 12.6031 9.75 13.8457V18.9058C9.75 20.6039 10.8788 22.0385 12.427 22.5H8.875C7.63236 22.5 6.625 21.4926 6.625 20.25V6.25C6.625 5.00736 7.63236 4 8.875 4H9.625V3.25C9.625 2.83579 9.96079 2.5 10.375 2.5H13.625C14.0392 2.5 14.375 2.83579 14.375 3.25Z" fill="#000000"/><path d="M12 13.0957C12.4142 13.0957 12.75 13.4315 12.75 13.8457V18.9058C12.75 19.32 13.0858 19.6558 13.5 19.6558H21.25C21.6642 19.6558 22 19.9915 22 20.4058C22 20.82 21.6642 21.1558 21.25 21.1558H13.5C12.2574 21.1558 11.25 20.1484 11.25 18.9058V13.8457C11.25 13.4315 11.5858 13.0957 12 13.0957ZM17.7201 13.856C18.1343 13.856 18.4701 14.1917 18.4701 14.606V17.406C18.4701 17.8202 18.1343 18.156 17.7201 18.156C17.3059 18.156 16.9701 17.8202 16.9701 17.406V14.606C16.9701 14.1917 17.3059 13.856 17.7201 13.856ZM14.86 15.6558C15.2742 15.6558 15.61 15.9915 15.61 16.4058V17.4058C15.61 17.82 15.2742 18.1558 14.86 18.1558C14.4458 18.1558 14.11 17.82 14.11 17.4058V16.4058C14.11 15.9915 14.4458 15.6558 14.86 15.6558ZM20.5801 15.6558C20.9943 15.6558 21.3301 15.9915 21.3301 16.4058V17.4058C21.3301 17.82 20.9943 18.1558 20.5801 18.1558C20.1659 18.1558 19.8301 17.82 19.8301 17.4058V16.4058C19.8301 15.9915 20.1659 15.6558 20.5801 15.6558Z" fill="#000000"/></svg>