<svg width="80" height="80" viewBox="0 0 24 25" fill="none" xmlns="http://www.w3.org/2000/svg" transform="rotate(0 0 0)"><path d="M14.375 3.25V4H15.125C16.3676 4 17.375 5.00736 17.375 6.25V10.2904C17.1287 10.2637 16.8784 10.25 16.625 10.25C12.828 10.25 9.75 13.328 9.75 17.125C9.75 19.3006 10.7606 21.2403 12.338 22.5H8.875C7.63236 22.5 6.625 21.4926 6.625 20.25V6.25C6.625 5.00736 7.63236 4 8.875 4H9.625V3.25C9.625 2.83579 9.96079 2.5 10.375 2.5H13.625C14.0392 2.5 14.375 2.83579 14.375 3.25Z" fill="#000000"/><path d="M11.25 17.125C11.25 14.1565 13.6565 11.75 16.625 11.75C19.5935 11.75 22 14.1565 22 17.125C22 20.0935 19.5935 22.5 16.625 22.5C13.6565 22.5 11.25 20.0935 11.25 17.125ZM15.2099 14.9102C14.7681 14.9102 14.4099 15.2683 14.4099 15.7102C14.4099 16.152 14.7681 16.5102 15.2099 16.5102H15.2199C15.6617 16.5102 16.0199 16.152 16.0199 15.7102C16.0199 15.2683 15.6617 14.9102 15.2199 14.9102H15.2099ZM18.0388 17.7388C17.597 17.7388 17.2388 18.0969 17.2388 18.5388C17.2388 18.9806 17.597 19.3388 18.0388 19.3388H18.0488C18.4907 19.3388 18.8488 18.9806 18.8488 18.5388C18.8488 18.0969 18.4907 17.7388 18.0488 17.7388H18.0388ZM18.5696 16.2405C18.8625 15.9476 18.8625 15.4727 18.5696 15.1798C18.2768 14.8869 17.8019 14.8869 17.509 15.1798L14.6806 18.0083C14.3877 18.3011 14.3877 18.776 14.6806 19.0689C14.9735 19.3618 15.4483 19.3618 15.7412 19.0689L18.5696 16.2405Z" fill="#000000"/></svg>