<svg width="80" height="80" viewBox="0 0 24 25" fill="none" xmlns="http://www.w3.org/2000/svg" transform="rotate(0 0 0)"><path d="M14.3799 3.25V4H15.1299C16.3725 4 17.3799 5.00736 17.3799 6.25V10.7096C17.1441 10.6257 16.8902 10.5801 16.6257 10.5801C15.383 10.5801 14.3757 11.5874 14.3757 12.8301V13.8581H13.3479C12.1053 13.8581 11.0979 14.8655 11.0979 16.1081C11.0979 17.3507 12.1053 18.3581 13.3479 18.3581H14.3757V19.3863C14.3757 19.5382 14.3907 19.6866 14.4194 19.8301H13.344C12.1014 19.8301 11.094 20.8374 11.094 22.0801C11.094 22.2236 11.1074 22.364 11.1331 22.5H8.87988C7.63724 22.5 6.62988 21.4926 6.62988 20.25V6.25C6.62988 5.00736 7.63724 4 8.87988 4H9.62988V3.25C9.62988 2.83579 9.96567 2.5 10.3799 2.5H13.6299C14.0441 2.5 14.3799 2.83579 14.3799 3.25Z" fill="#000000"/><path d="M16.6257 12.0801C17.0399 12.0801 17.3757 12.4159 17.3757 12.8301V15.3581H19.9041C20.3184 15.3581 20.6541 15.6939 20.6541 16.1081C20.6541 16.5223 20.3184 16.8581 19.9041 16.8581H17.3757V19.3863C17.3757 19.8005 17.0399 20.1363 16.6257 20.1363C16.2115 20.1363 15.8757 19.8005 15.8757 19.3863V16.8581H13.3479C12.9337 16.8581 12.5979 16.5223 12.5979 16.1081C12.5979 15.6939 12.9337 15.3581 13.3479 15.3581H15.8757V12.8301C15.8757 12.4159 16.2115 12.0801 16.6257 12.0801ZM12.594 22.0801C12.594 21.6659 12.9298 21.3301 13.344 21.3301H19.906C20.3202 21.3301 20.656 21.6659 20.656 22.0801C20.656 22.4943 20.3202 22.8301 19.906 22.8301H13.344C12.9298 22.8301 12.594 22.4943 12.594 22.0801Z" fill="#000000"/></svg>