<svg width="80" height="80" viewBox="0 0 24 25" fill="none" xmlns="http://www.w3.org/2000/svg" transform="rotate(0 0 0)"><path d="M12.5642 2.75478C12.4267 2.59801 12.2249 2.49902 12 2.49902C11.7742 2.49902 11.5716 2.59886 11.4341 2.75681L7.46988 6.71828C7.25527 6.93273 7.19101 7.25536 7.30706 7.53568C7.42312 7.81601 7.69663 7.99879 8.00002 7.99879L11.25 7.99879L11.25 10.249H8.00002C7.58581 10.249 7.25002 10.5848 7.25002 10.999C7.25002 11.4132 7.58581 11.749 8.00002 11.749L16 11.749C16.4142 11.749 16.75 11.4132 16.75 10.999C16.75 10.5848 16.4142 10.249 16 10.249L12.75 10.249L12.75 7.99879L16 7.99879C16.3034 7.99879 16.5769 7.81601 16.693 7.5357C16.809 7.25538 16.7448 6.93276 16.5302 6.7183L12.5642 2.75478Z" fill="#000000"/><path d="M12.75 14.749L16 14.749C16.4142 14.749 16.75 14.4132 16.75 13.999C16.75 13.5848 16.4142 13.249 16 13.249L8.00002 13.249C7.58581 13.249 7.25002 13.5848 7.25002 13.999C7.25002 14.4132 7.58581 14.749 8.00002 14.749H11.25L11.25 16.9993L8.00002 16.9993C7.69663 16.9993 7.42312 17.182 7.30707 17.4623C7.19101 17.7427 7.25526 18.0653 7.46986 18.2797L11.4359 22.2433C11.5734 22.4 11.7751 22.499 12 22.499C12.2259 22.499 12.4284 22.3992 12.5659 22.2412L16.5302 18.2798C16.7448 18.0653 16.809 17.7427 16.693 17.4624C16.5769 17.182 16.3034 16.9993 16 16.9993L12.75 16.9993L12.75 14.749Z" fill="#000000"/></svg>