<svg width="80" height="80" viewBox="0 0 24 25" fill="none" xmlns="http://www.w3.org/2000/svg" transform="rotate(0 0 0)"><path d="M5.4375 5.95758C5.4375 4.26503 6.80956 2.89258 8.50229 2.89258C10.195 2.89258 11.5671 4.26503 11.5671 5.95757C11.5671 7.65012 10.195 9.02258 8.50229 9.02258C6.80956 9.02258 5.4375 7.65013 5.4375 5.95758Z" fill="#000000"/><path d="M2.75 12.7327C2.75 11.4902 3.75726 10.4826 5 10.4826H12.004C13.1458 10.4826 14.0888 11.3331 14.2345 12.4349L13.7268 12.8335H12.9992C11.2042 12.8335 9.74916 14.2886 9.74916 16.0835V18.952C9.74916 20.1404 10.3871 21.1799 11.3392 21.7466C10.9511 22.4353 10.2134 22.8928 9.37815 22.8928H7.62584C6.47656 22.8928 5.51201 22.0267 5.38881 20.884L5.06494 17.8804L4.3537 17.6671C3.40187 17.3816 2.75 16.5056 2.75 15.5119V12.7327Z" fill="#000000"/><path d="M18.9999 14.1977C18.9999 12.7377 17.3174 11.9197 16.1691 12.8213L14.3133 14.2785C14.2693 14.3131 14.2149 14.3319 14.159 14.3319H12.9992C12.0327 14.3319 11.2492 15.1154 11.2492 16.0819V18.9503C11.2492 19.9168 12.0327 20.7003 12.9992 20.7003H14.159C14.2149 20.7003 14.2693 20.7191 14.3133 20.7537L16.1691 22.2108C17.3174 23.1125 18.9999 22.2944 18.9999 20.8344V14.1977Z" fill="#000000"/><path d="M21.9999 16.0161C21.9999 15.6019 21.6641 15.2661 21.2499 15.2661C20.8356 15.2661 20.4999 15.6019 20.4999 16.0161V19.0161C20.4999 19.4303 20.8356 19.7661 21.2499 19.7661C21.6641 19.7661 21.9999 19.4303 21.9999 19.0161V16.0161Z" fill="#000000"/></svg>