<svg width="80" height="80" viewBox="0 0 25 25" fill="none" xmlns="http://www.w3.org/2000/svg" transform="rotate(0 0 0)"><path d="M10.5 3.68164C10.5 3.26743 10.1642 2.93164 9.75 2.93164C9.33579 2.93164 9 3.26743 9 3.68164L9 6.66455L5.5 6.66455C5.08579 6.66455 4.75 7.00034 4.75 7.41455C4.75 7.82876 5.08579 8.16455 5.5 8.16455H6L6 13.1645C6 16.5007 8.51342 19.2499 11.75 19.6217H11.8V13.9589C11.8 11.3708 14.66 9.80486 16.8404 11.1989L19 12.5797L19 8.16455H19.5C19.9142 8.16455 20.25 7.82876 20.25 7.41455C20.25 7.00034 19.9142 6.66455 19.5 6.66455L16 6.66455V3.68164C16 3.26743 15.6642 2.93164 15.25 2.93164C14.8358 2.93164 14.5 3.26743 14.5 3.68164V6.66455L10.5 6.66455L10.5 3.68164Z" fill="#000000"/><path d="M13.3 13.9584C13.3 12.5554 14.8504 11.7065 16.0324 12.4622L21.6592 16.0598C22.7515 16.7581 22.7515 18.3537 21.6592 19.052L16.0324 22.6496C14.8504 23.4053 13.3 22.5564 13.3 21.1534V13.9584Z" fill="#000000"/></svg>