<svg width="80" height="80" viewBox="0 0 24 25" fill="none" xmlns="http://www.w3.org/2000/svg" transform="rotate(0 0 0)"><path d="M11.9977 2.84412C12.185 2.84412 12.3616 2.88989 12.517 2.97086C12.5613 2.99395 12.6046 3.02026 12.6466 3.04985L18.9408 7.48482C19.2397 7.69548 19.4176 8.03834 19.4178 8.40408C19.4179 8.76982 19.2402 9.11279 18.9414 9.32366L13.9478 12.8472L18.9207 16.3562C19.2196 16.567 19.3973 16.91 19.3971 17.2757C19.397 17.6415 19.2191 17.9843 18.9201 18.195L12.8012 22.5065C12.597 22.7149 12.3125 22.8441 11.9977 22.8441C11.829 22.8441 11.669 22.807 11.5254 22.7405C11.3438 22.6609 11.1809 22.5323 11.0584 22.3583C10.8757 22.0991 10.818 21.7894 10.8727 21.5007L10.8727 15.017L6.37311 18.192C5.86544 18.5502 5.16351 18.4291 4.8053 17.9214C4.44708 17.4138 4.56823 16.7118 5.0759 16.3536L10.0452 12.8472L5.05527 9.32621C4.54761 8.968 4.42646 8.26607 4.78467 7.7584C5.14289 7.25074 5.84482 7.12959 6.35248 7.4878L10.8727 10.6774L10.8727 3.96912C10.8727 3.3478 11.3764 2.84412 11.9977 2.84412ZM16.3405 8.4051L13.1227 6.13776L13.1227 10.6756L16.3405 8.4051ZM16.3199 17.2747L13.1227 15.0187V19.5275L16.3199 17.2747Z" fill="#000000"/><path d="M5.71326 11.2392C4.82555 11.2392 4.10938 11.9596 4.10938 12.844C4.10938 13.7289 4.82633 14.4487 5.71345 14.4487C6.60058 14.4487 7.31753 13.7289 7.31753 12.844C7.31753 11.9584 6.5998 11.2392 5.71326 11.2392Z" fill="#000000"/><path d="M18.283 11.2392C17.3953 11.2392 16.6791 11.9596 16.6791 12.844C16.6791 13.7289 17.3961 14.4487 18.2832 14.4487C19.1703 14.4487 19.8873 13.7289 19.8873 12.844C19.8873 11.9584 19.1695 11.2392 18.283 11.2392Z" fill="#000000"/></svg>