<svg width="80" height="80" viewBox="0 0 24 24" fill="none" xmlns="http://www.w3.org/2000/svg" transform="rotate(0 0 0)"><path d="M9.03959 2.07934C9.41007 1.8941 9.86058 2.04427 10.0458 2.41475L10.582 3.48721C11.0264 3.3336 11.5034 3.25016 12 3.25016C12.4966 3.25016 12.9736 3.3336 13.418 3.48721L13.9542 2.41475C14.1394 2.04427 14.5899 1.8941 14.9604 2.07934C15.3309 2.26459 15.4811 2.71509 15.2958 3.08557L14.7302 4.21689C15.2663 4.65158 15.6966 5.21157 15.9767 5.85227C15.875 5.84265 15.7738 5.83789 15.6735 5.83789H8.32756C8.22692 5.83789 8.12529 5.84268 8.02329 5.85237C8.30335 5.21162 8.73372 4.6516 9.26984 4.21689L8.70418 3.08557C8.51894 2.71509 8.66911 2.26459 9.03959 2.07934Z" fill="#000000"/><path d="M6.50857 7.83527C6.50852 7.83535 6.50862 7.83518 6.50857 7.83527C6.34101 8.11829 6.1881 8.41478 6.05133 8.72258L4.07776 8.09235C3.68318 7.96635 3.26116 8.18407 3.13515 8.57865C3.00915 8.97324 3.22688 9.39526 3.62146 9.52126L5.55816 10.1397C5.38964 10.7905 5.28682 11.4751 5.25821 12.1818H3.09961C2.6854 12.1818 2.34961 12.5176 2.34961 12.9318C2.34961 13.346 2.6854 13.6818 3.09961 13.6818H5.31101C5.38802 14.3684 5.53649 15.0335 5.74838 15.6632L3.62146 16.3423C3.22688 16.4684 3.00915 16.8904 3.13515 17.285C3.26116 17.6795 3.68318 17.8973 4.07776 17.7713L6.34615 17.0469C7.5275 19.2453 9.56895 20.7502 12 20.7502C14.4159 20.7502 16.4471 19.264 17.6317 17.0878L19.7718 17.7713C20.1664 17.8973 20.5885 17.6795 20.7145 17.285C20.8405 16.8904 20.6227 16.4684 20.2282 16.3423L18.2369 15.7065C18.4566 15.064 18.6102 14.3842 18.689 13.6818H20.75C21.1642 13.6818 21.5 13.346 21.5 12.9318C21.5 12.5176 21.1642 12.1818 20.75 12.1818H18.7418C18.7125 11.4591 18.6057 10.7594 18.4302 10.0954L20.2282 9.52126C20.6227 9.39526 20.8405 8.97324 20.7145 8.57865C20.5885 8.18407 20.1664 7.96635 19.7718 8.09235L17.9299 8.68056C17.7979 8.3878 17.6515 8.10565 17.4916 7.83553C17.2108 7.36128 16.7681 7.05986 16.2873 6.92332C16.2873 6.92325 16.2873 6.92338 16.2873 6.92332C16.0863 6.8663 15.8787 6.83789 15.6735 6.83789H8.32756C7.63113 6.83789 6.9068 7.16264 6.50857 7.83527Z" fill="#000000"/></svg>