<svg width="80" height="80" viewBox="0 0 24 24" fill="none" xmlns="http://www.w3.org/2000/svg" transform="rotate(0 0 0)"><path d="M22 7.10217C21.9336 7.01205 21.8597 6.92576 21.7781 6.84418C20.9874 6.05293 19.7541 5.97354 18.8746 6.6063V4.5H19.75C20.9926 4.5 22 5.50736 22 6.75V7.10217Z" fill="#000000"/><path d="M22 9.76706V15.3438C22 16.5864 20.9926 17.5938 19.75 17.5938H12.75V19.25H15C15.4142 19.25 15.75 19.5858 15.75 20C15.75 20.4142 15.4142 20.75 15 20.75H9.00003C8.58582 20.75 8.25003 20.4142 8.25003 20C8.25003 19.5858 8.58582 19.25 9.00003 19.25H11.25V17.5938H4.25C3.00736 17.5938 2 16.5864 2 15.3438V6.75C2 5.50736 3.00736 4.5 4.25 4.5H14.3746V6.60847C13.4949 5.97338 12.2597 6.05201 11.4681 6.84412C10.5897 7.72308 10.5901 9.1477 11.4691 10.0261L15.0075 13.5622C15.4165 13.985 15.9899 14.2478 16.6246 14.2478C17.2847 14.2478 17.8785 13.9635 18.29 13.5107L21.777 10.0262C21.859 9.94424 21.9333 9.85758 22 9.76706Z" fill="#000000"/><path d="M20.7171 7.90446C21.0099 8.19746 21.0097 8.67233 20.7167 8.96512L17.1972 12.4821C17.0597 12.6446 16.8542 12.7478 16.6246 12.7478C16.4097 12.7478 16.2159 12.6574 16.0792 12.5126L12.5294 8.96511C12.2364 8.67231 12.2363 8.19743 12.5291 7.90445C12.8219 7.61146 13.2967 7.61131 13.5897 7.90411L15.8746 10.1875L15.8746 2.75195C15.8746 2.33774 16.2104 2.00195 16.6246 2.00195C17.0388 2.00195 17.3746 2.33774 17.3746 2.75195L17.3746 10.1843L19.6564 7.90409C19.9494 7.6113 20.4243 7.61147 20.7171 7.90446Z" fill="#000000"/></svg>