<svg width="80" height="80" viewBox="0 0 24 24" fill="none" xmlns="http://www.w3.org/2000/svg" transform="rotate(0 0 0)"><path d="M4 15.4971C4.41417 15.4971 4.75 15.8329 4.75 16.2471V17.748C4.75 18.1622 5.08582 18.498 5.5 18.498H6.16602V17.751C6.16603 17.708 6.17063 17.6654 6.17773 17.624C6.2027 17.4757 6.27133 17.3322 6.38574 17.2178C6.67873 16.925 7.15447 16.9248 7.44727 17.2178L8.94531 18.7178C9.02242 18.7949 9.07973 18.8847 9.11621 18.9805C9.14016 19.0432 9.15296 19.1102 9.15918 19.1797C9.16139 19.2032 9.16503 19.2269 9.16504 19.251C9.16499 19.3622 9.14116 19.4685 9.09766 19.5635C9.07105 19.6216 9.03636 19.6774 8.99414 19.7285C8.97749 19.7487 8.95906 19.7678 8.94043 19.7861L7.44727 21.2812C7.43655 21.292 7.42367 21.3 7.41211 21.3096C7.39901 21.3212 7.38576 21.3323 7.37207 21.3428C7.37025 21.3442 7.369 21.3463 7.36719 21.3477C7.36198 21.3516 7.35686 21.3556 7.35156 21.3594C7.34862 21.3615 7.34481 21.3623 7.3418 21.3643C7.33298 21.3704 7.32347 21.3752 7.31445 21.3809C7.31027 21.3833 7.30689 21.3871 7.30273 21.3896C7.27937 21.4038 7.25603 21.4173 7.23145 21.4287C7.22281 21.4327 7.21371 21.4356 7.20508 21.4395C7.20144 21.441 7.19799 21.4429 7.19434 21.4443C7.18871 21.4467 7.18347 21.45 7.17773 21.4521C7.14234 21.4654 7.10621 21.4757 7.06934 21.4834C7.05929 21.4855 7.04917 21.4866 7.03906 21.4883C7.00316 21.4943 6.96717 21.4983 6.93066 21.499C6.91891 21.4992 6.90726 21.4984 6.89551 21.498C6.86087 21.4971 6.82649 21.4941 6.79199 21.4883C6.78158 21.4865 6.77109 21.4856 6.76074 21.4834C6.71634 21.474 6.67186 21.4621 6.62891 21.4443C6.58786 21.4273 6.54929 21.4062 6.5127 21.3828C6.48779 21.3669 6.46372 21.3493 6.44043 21.3301C6.4365 21.3268 6.43257 21.3236 6.42871 21.3203C6.41425 21.3079 6.39945 21.2949 6.38574 21.2812C6.38068 21.2762 6.37598 21.2708 6.37109 21.2656C6.36285 21.2569 6.35546 21.2474 6.34766 21.2383C6.34523 21.2355 6.34319 21.2323 6.34082 21.2295C6.32049 21.2052 6.30291 21.1794 6.28613 21.1533C6.28414 21.1502 6.28124 21.1477 6.2793 21.1445C6.2606 21.1143 6.24473 21.0825 6.23047 21.0498C6.22977 21.0482 6.22921 21.0465 6.22852 21.0449C6.22335 21.0329 6.21838 21.021 6.21387 21.0088C6.20379 20.9814 6.19532 20.9535 6.18848 20.9248C6.18738 20.9202 6.18567 20.9157 6.18457 20.9111C6.17266 20.8574 6.16601 20.8028 6.16602 20.748V20.001H5.5C4.2574 20.0009 3.25 18.9936 3.25 17.751V16.25C3.25 16.2182 3.253 16.187 3.25684 16.1562C3.30174 15.7849 3.61658 15.4971 4 15.4971Z" fill="#000000"/><path d="M17.8262 10.6738C19.0688 10.6738 20.0762 11.6812 20.0762 12.9238V17.8262C20.0762 19.0688 19.0688 20.0762 17.8262 20.0762H12.9238C11.6812 20.0762 10.6738 19.0688 10.6738 17.8262V12.9238C10.6738 11.6812 11.6812 10.6738 12.9238 10.6738H17.8262ZM17.7734 16.709C17.2058 17.2342 16.3602 17.3249 15.6943 16.9316L14.9014 16.4629C14.2145 16.0572 13.3637 16.045 12.666 16.4316L12.6523 16.4395L12.1738 16.7178V17.8262C12.1738 18.0728 12.2928 18.292 12.4766 18.4287C12.6016 18.5216 12.7565 18.5762 12.9238 18.5762H17.8262C18.2404 18.5762 18.5762 18.2404 18.5762 17.8262V15.9658L17.7734 16.709ZM14.043 13.2451C13.6012 13.2452 13.2432 13.6032 13.2432 14.0449C13.2432 14.4867 13.6012 14.8446 14.043 14.8447H14.0488C14.4905 14.8446 14.8486 14.4866 14.8486 14.0449C14.8486 13.6032 14.4905 13.2453 14.0488 13.2451H14.043Z" fill="#000000"/><path d="M11.75 3.25C12.9926 3.25 14 4.25736 14 5.5V9.17383H12.9238C10.8528 9.17383 9.17383 10.8528 9.17383 12.9238V14H5.5C4.25736 14 3.25 12.9926 3.25 11.75V5.5C3.25 4.25736 4.25736 3.25 5.5 3.25H11.75Z" fill="#000000"/><path d="M18.875 2.94531C19.2891 2.94544 19.625 3.28118 19.625 3.69531C19.6252 4.48201 20.2631 5.11991 21.0498 5.12012C21.4639 5.12025 21.7998 5.45599 21.7998 5.87012C21.7997 6.28416 21.4638 6.61999 21.0498 6.62012C20.263 6.62033 19.625 7.25805 19.625 8.04492C19.625 8.45905 19.2891 8.79479 18.875 8.79492C18.4609 8.79482 18.125 8.45907 18.125 8.04492C18.125 7.258 17.4871 6.62025 16.7002 6.62012C16.286 6.62012 15.9503 6.28424 15.9502 5.87012C15.9502 5.4559 16.286 5.12012 16.7002 5.12012C17.487 5.11999 18.1248 4.48206 18.125 3.69531C18.125 3.28116 18.4609 2.94542 18.875 2.94531Z" fill="#000000"/></svg>