<svg width="80" height="80" viewBox="0 0 24 25" fill="none" xmlns="http://www.w3.org/2000/svg" transform="rotate(0 0 0)"><path d="M3.39854 11.7551C2.33012 11.1383 1.96404 9.77208 2.5809 8.70365L4.09689 6.07788C4.71388 5.00922 6.08042 4.64326 7.14894 5.26017C7.63842 5.54277 8.25011 5.18947 8.25011 4.62462C8.25011 3.39082 9.2503 2.39062 10.4841 2.39062H13.5165C14.7502 2.39062 15.7501 3.39086 15.7501 4.62439C15.7501 5.18919 16.3615 5.54201 16.8503 5.25979C17.9185 4.64304 19.2845 5.00905 19.9012 6.07729L21.4176 8.70373C22.0345 9.77214 21.6684 11.1383 20.6 11.7552C20.1108 12.0376 20.1108 12.7437 20.6 13.0261C21.6684 13.643 22.0344 15.0091 21.4176 16.0775L19.9012 18.704C19.2845 19.7722 17.9185 20.1382 16.8503 19.5215C16.3615 19.2393 15.7501 19.5921 15.7501 20.1569C15.7501 21.3904 14.7502 22.3906 13.5165 22.3906H10.4841C9.2503 22.3906 8.25011 21.3904 8.25011 20.1566C8.25011 19.5918 7.63844 19.2385 7.14896 19.5211C6.08044 20.138 4.71391 19.7721 4.09692 18.7034L2.58092 16.0776C1.96407 15.0092 2.33013 13.643 3.39856 13.0262C3.88776 12.7437 3.88777 12.0376 3.39854 11.7551ZM8.02591 11.8047C8.17179 11.9506 8.3628 12.0238 8.55399 12.0244L8.55624 12.0244H15.44C15.8542 12.0244 16.19 11.6886 16.19 11.2744C16.19 10.8601 15.8542 10.5244 15.44 10.5244H10.3669L10.6652 10.226C10.9581 9.93313 10.9581 9.45826 10.6652 9.16537C10.3723 8.87247 9.89746 8.87247 9.60457 9.16537L8.02591 10.744C7.95401 10.8159 7.89975 10.8988 7.86315 10.9873C7.82648 11.0757 7.80624 11.1727 7.80624 11.2744C7.80624 11.376 7.82648 11.473 7.86315 11.5614C7.89975 11.6499 7.95401 11.7328 8.02591 11.8047ZM13.3311 15.6157C13.624 15.9086 14.0989 15.9086 14.3918 15.6157L15.9705 14.0371C16.2634 13.7442 16.2634 13.2693 15.9705 12.9764C15.82 12.8259 15.6214 12.7527 15.4242 12.7569H8.55624C8.14203 12.7569 7.80624 13.0927 7.80624 13.5069C7.80624 13.9211 8.14203 14.2569 8.55624 14.2569H13.6293L13.3311 14.5551C13.0383 14.848 13.0383 15.3228 13.3311 15.6157Z" fill="#000000"/></svg>