<svg width="80" height="80" viewBox="0 0 24 24" fill="none" xmlns="http://www.w3.org/2000/svg" transform="rotate(0 0 0)"><path d="M19.853 11.0558C20.2801 12.0871 20.5 13.1924 20.5 14.3086C20.5 15.4248 20.2801 16.5301 19.853 17.5614C19.8067 17.673 19.7582 17.7836 19.7073 17.8929L18.6527 17.2841C18.294 17.077 17.8353 17.1999 17.6282 17.5586C17.4211 17.9173 17.544 18.376 17.9027 18.5831L19.5831 19.5533C19.5995 19.5646 19.6165 19.5753 19.6341 19.5855C19.9927 19.7927 20.4515 19.67 20.6587 19.3113C20.8771 18.9333 21.071 18.5405 21.2388 18.1354C21.7413 16.9222 22 15.6218 22 14.3086C22 12.9954 21.7413 11.695 21.2388 10.4818C20.7362 9.26851 19.9997 8.16611 19.0711 7.23753C18.1425 6.30894 17.0401 5.57235 15.8268 5.0698C14.6136 4.56725 13.3132 4.30859 12 4.30859C10.6868 4.30859 9.38642 4.56725 8.17317 5.0698C6.95991 5.57234 5.85752 6.30894 4.92893 7.23753C4.00035 8.16611 3.26375 9.2685 2.76121 10.4818C2.25866 11.695 2 12.9954 2 14.3086C2 15.6218 2.25866 16.9222 2.76121 18.1354C2.92173 18.523 3.10614 18.8992 3.31307 19.2621C3.32098 19.2784 3.32955 19.2946 3.33876 19.3105C3.54587 19.6693 4.00456 19.7922 4.36328 19.5851L6.09533 18.5851C6.45405 18.378 6.57696 17.9193 6.36985 17.5605C6.16274 17.2018 5.70405 17.0789 5.34533 17.286L4.293 17.8936C4.24203 17.784 4.19336 17.6733 4.14702 17.5614C3.71986 16.5301 3.5 15.4248 3.5 14.3086C3.5 13.1924 3.71986 12.0871 4.14702 11.0558C4.19327 10.9441 4.24184 10.8336 4.2927 10.7242L5.34729 11.3331C5.70601 11.5402 6.1647 11.4173 6.3718 11.0586C6.57891 10.6999 6.45601 10.2412 6.09729 10.0341L5.04277 9.42525C5.32453 9.02384 5.64116 8.64662 5.98959 8.29819C6.77889 7.50889 7.71592 6.88278 8.74719 6.45562C9.54676 6.12443 10.3908 5.91785 11.25 5.84175V7.05859C11.25 7.47281 11.5858 7.80859 12 7.80859C12.4142 7.80859 12.75 7.47281 12.75 7.05859V5.84175C13.6092 5.91785 14.4532 6.12443 15.2528 6.45562C16.2841 6.88278 17.2211 7.50889 18.0104 8.29819C18.3592 8.64702 18.6762 9.02471 18.9582 9.42664L17.9027 10.036C17.544 10.2431 17.4211 10.7018 17.6282 11.0605C17.8353 11.4193 18.294 11.5422 18.6527 11.3351L19.708 10.7258C19.7586 10.8346 19.8069 10.9447 19.853 11.0558Z" fill="#000000"/><path d="M16.22 16.7412C16.3591 16.5003 16.3534 16.2023 16.2053 15.9668L16.2036 15.9642L16.1994 15.9575L16.1836 15.9325L16.1242 15.8395C16.073 15.7596 15.9993 15.6454 15.9087 15.5074C15.7277 15.2316 15.4776 14.8581 15.2029 14.4696C14.9295 14.083 14.625 13.6721 14.3358 13.3254C14.0717 13.0088 13.7443 12.6503 13.4277 12.4675C12.3253 11.831 10.9156 12.2088 10.2791 13.3112C9.64255 14.4137 10.0203 15.8234 11.1227 16.4599C11.4393 16.6427 11.9135 16.7469 12.3198 16.8174C12.7645 16.8945 13.2726 16.9527 13.7442 16.9962C14.218 17.0398 14.6665 17.0696 14.9958 17.0885C15.1607 17.098 15.2964 17.1047 15.3912 17.1091L15.5015 17.114L15.531 17.1152L15.542 17.1157C15.82 17.1262 16.0809 16.9821 16.22 16.7412Z" fill="#000000"/></svg>