<svg width="80" height="80" viewBox="0 0 24 24" fill="none" xmlns="http://www.w3.org/2000/svg" transform="rotate(0 0 0)"><path d="M12 2C9.10051 2 6.75 4.3505 6.75 7.25V9.125H5.5C4.25736 9.125 3.25 10.1324 3.25 11.375V17.2495C3.25 19.8729 5.37665 21.9995 8 21.9995H16C18.6234 21.9995 20.75 19.8729 20.75 17.2495V11.375C20.75 10.1324 19.7426 9.125 18.5 9.125H17.25V7.25C17.25 4.35051 14.8995 2 12 2ZM12 3.5C14.0711 3.5 15.75 5.17893 15.75 7.25V9.125H8.25V7.25C8.25 5.17893 9.92893 3.5 12 3.5ZM12 14.5C12.8284 14.5 13.5 15.1716 13.5 16V17.5C13.5 18.3284 12.8284 19 12 19C11.1716 19 10.5 18.3284 10.5 17.5V16C10.5 15.1716 11.1716 14.5 12 14.5Z" fill="#000000"/></svg>