<svg width="80" height="80" viewBox="0 0 24 24" fill="none" xmlns="http://www.w3.org/2000/svg" transform="rotate(0 0 0)"><path d="M9.74907 2.75C9.74907 2.33579 10.0849 2 10.4991 2H13.4991C13.9133 2 14.2491 2.33579 14.2491 2.75C14.2491 3.16421 13.9133 3.5 13.4991 3.5H10.4991C10.0849 3.5 9.74907 3.16421 9.74907 2.75Z" fill="#000000"/><path d="M3.25 13.2509C3.25 8.419 7.16707 4.50193 11.999 4.50193C14.1448 4.50193 16.1102 5.27443 17.6322 6.55651L18.971 5.21772C19.2639 4.92482 19.7388 4.92482 20.0317 5.21772C20.3246 5.51061 20.3246 5.98548 20.0317 6.27838L18.6929 7.61712C19.9753 9.13923 20.748 11.1048 20.748 13.2509C20.748 18.0829 16.831 22 11.999 22C7.16707 22 3.25 18.0829 3.25 13.2509ZM12.7485 8.49414C12.7485 8.07993 12.4127 7.74414 11.9985 7.74414C11.5843 7.74414 11.2485 8.07993 11.2485 8.49414V13.2503C11.2485 13.6645 11.5843 14.0003 11.9985 14.0003C12.4127 14.0003 12.7485 13.6645 12.7485 13.2503V8.49414Z" fill="#000000"/></svg>