<svg width="80" height="80" viewBox="0 0 24 24" fill="none" xmlns="http://www.w3.org/2000/svg" transform="rotate(0 0 0)"><path d="M6.23596 3.3735C7.94212 2.23348 9.94802 1.625 12 1.625C12.6213 1.625 13.125 2.12868 13.125 2.75C13.125 3.37132 12.6213 3.875 12 3.875C10.393 3.875 8.82215 4.35152 7.486 5.24431C6.14985 6.1371 5.10845 7.40605 4.49348 8.8907C3.87852 10.3753 3.71762 12.009 4.03112 13.5851C4.34463 15.1612 5.11846 16.6089 6.25476 17.7452C7.39106 18.8815 8.8388 19.6554 10.4149 19.9689C11.991 20.2824 13.6247 20.1215 15.1093 19.5065C16.594 18.8916 17.8629 17.8502 18.7557 16.514C19.6485 15.1779 20.125 13.607 20.125 12C20.125 11.3787 20.6287 10.875 21.25 10.875C21.8713 10.875 22.375 11.3787 22.375 12C22.375 14.052 21.7665 16.0579 20.6265 17.764C19.4865 19.4702 17.8661 20.8 15.9703 21.5853C14.0746 22.3705 11.9885 22.576 9.97594 22.1756C7.96339 21.7753 6.11474 20.7872 4.66377 19.3362C3.2128 17.8853 2.22468 16.0366 1.82436 14.0241C1.42404 12.0115 1.6295 9.92544 2.41475 8.02966C3.20001 6.13387 4.5298 4.51352 6.23596 3.3735ZM15.9583 2.41124C16.5326 2.64826 16.8061 3.30599 16.5691 3.88033L16.5653 3.88957C16.3282 4.46391 15.6705 4.73736 15.0962 4.50034C14.5218 4.26333 14.2484 3.6056 14.4854 3.03126L14.4892 3.02202C14.7262 2.44768 15.384 2.17423 15.9583 2.41124ZM19.3247 4.6545C19.7648 5.09315 19.7659 5.80546 19.3272 6.24549L19.3202 6.25257C18.8815 6.6926 18.1692 6.69372 17.7292 6.25507C17.2891 5.81642 17.288 5.10411 17.7267 4.66408L17.7337 4.657C18.1724 4.21697 18.8847 4.21585 19.3247 4.6545ZM11.9999 5.375C12.6212 5.37499 13.1249 5.87865 13.1249 6.49998L13.125 10.875H16C16.6213 10.875 17.125 11.3787 17.125 12C17.125 12.6213 16.6213 13.125 16 13.125H12C11.3787 13.125 10.875 12.6213 10.875 12L10.8749 6.50002C10.8749 5.8787 11.3785 5.37501 11.9999 5.375ZM21.577 8.01447C21.8158 8.58805 21.5445 9.24664 20.9709 9.48547L20.9616 9.48931C20.3881 9.72814 19.7295 9.45676 19.4906 8.88318C19.2518 8.30959 19.5232 7.651 20.0968 7.41218L20.106 7.40833C20.6796 7.16951 21.3382 7.44088 21.577 8.01447Z" fill="#000000"/></svg>