<svg width="80" height="80" viewBox="0 0 24 25" fill="none" xmlns="http://www.w3.org/2000/svg" transform="rotate(0 0 0)"><path d="M19.8689 4.97127C20.3659 5.41194 20.75 5.99447 20.75 6.7002C20.75 7.06784 20.6458 7.40205 20.4756 7.7002C20.3192 7.97436 20.107 8.21802 19.8689 8.42913C19.371 8.87058 18.6933 9.23386 17.9202 9.52376C16.3685 10.1056 14.2753 10.4502 12 10.4502C9.72474 10.4502 7.63146 10.1056 6.0798 9.52376C5.30674 9.23386 4.62904 8.87058 4.13112 8.42913C3.89302 8.21802 3.68083 7.97436 3.52438 7.7002C3.35424 7.40205 3.25 7.06784 3.25 6.7002C3.25 5.99447 3.63408 5.41194 4.13112 4.97127C4.62904 4.52981 5.30674 4.16653 6.0798 3.87663C7.63146 3.29476 9.72474 2.9502 12 2.9502C14.2753 2.9502 16.3685 3.29476 17.9202 3.87663C18.6933 4.16653 19.371 4.52981 19.8689 4.97127Z" fill="#000000"/><path d="M20.75 8.97087V11.7002C20.75 12.3699 20.4041 12.9287 19.944 13.3606L19.8801 12.7251C19.7931 11.8603 19.2158 11.123 18.3972 10.831C18.1231 10.7333 17.8384 10.6913 17.5578 10.7018C17.8046 10.6264 18.0428 10.5458 18.2713 10.4601C19.11 10.1456 19.9103 9.72886 20.5323 9.17738C20.6054 9.11252 20.6783 9.04367 20.75 8.97087Z" fill="#000000"/><path d="M16.5932 10.9593C15.2184 11.2777 13.6445 11.4502 12 11.4502C9.63658 11.4502 7.41893 11.0939 5.72868 10.4601C4.88997 10.1456 4.08973 9.72886 3.46772 9.17738C3.39456 9.11252 3.32167 9.04367 3.25 8.97087V11.7002C3.25 12.4059 3.63408 12.9884 4.13112 13.4291C4.62904 13.8706 5.30674 14.2339 6.0798 14.5238C7.62225 15.1022 9.69989 15.4461 11.9595 15.4502L16.0504 11.3593C16.2128 11.1968 16.3962 11.0629 16.5932 10.9593Z" fill="#000000"/><path d="M10.9871 16.4282C9.00752 16.3416 7.17502 16.0025 5.72868 15.4601C4.88997 15.1456 4.08973 14.7289 3.46772 14.1774C3.39456 14.1125 3.32167 14.0437 3.25 13.9709V16.7061C3.25 17.412 3.63427 17.9942 4.13155 18.4344C4.62961 18.8753 5.30742 19.2378 6.08043 19.5269C7.632 20.1072 9.72509 20.4502 12 20.4502C12.3955 20.4502 12.7856 20.4398 13.1682 20.4196L13.1433 20.1716H12.67C11.7599 20.1716 10.9395 19.6234 10.5913 18.7827C10.2602 17.9834 10.4178 17.0693 10.9871 16.4282Z" fill="#000000"/><path d="M18.3876 12.8752C18.3587 12.5869 18.1662 12.3411 17.8933 12.2438C17.6205 12.1465 17.3159 12.215 17.1111 12.4199L12.1397 17.3913C11.9252 17.6058 11.861 17.9284 11.9771 18.2086C12.0932 18.4889 12.3667 18.6716 12.67 18.6716H14.5L14.8625 22.2753C14.8914 22.5635 15.0839 22.8093 15.3567 22.9066C15.6296 23.004 15.9342 22.9354 16.139 22.7306L21.1104 17.7592C21.3249 17.5447 21.3891 17.2221 21.273 16.9418C21.1569 16.6616 20.8834 16.4788 20.5801 16.4788H18.7501L18.3876 12.8752Z" fill="#000000"/></svg>