<svg width="80" height="80" viewBox="0 0 24 24" fill="none" xmlns="http://www.w3.org/2000/svg" transform="rotate(0 0 0)"><path d="M4.5 19.75V16H19.5V19.75C19.5 20.9927 18.4926 22 17.25 22H6.75C5.50736 22 4.5 20.9927 4.5 19.75ZM8.24922 17.4492C7.80739 17.4492 7.44922 17.8074 7.44922 18.2492C7.44922 18.6911 7.80739 19.0492 8.24922 19.0492H8.25922C8.70105 19.0492 9.05922 18.6911 9.05922 18.2492C9.05922 17.8074 8.70105 17.4492 8.25922 17.4492H8.24922ZM11.259 17.4492C10.8172 17.4492 10.459 17.8074 10.459 18.2492C10.459 18.6911 10.8172 19.0492 11.259 19.0492H11.269C11.7108 19.0492 12.069 18.6911 12.069 18.2492C12.069 17.8074 11.7108 17.4492 11.269 17.4492H11.259Z" fill="#000000"/><path d="M15.0302 4.34255C15.3231 4.63535 15.3233 5.11022 15.0305 5.4032L13.0603 7.37465L15.0305 9.34624C15.3233 9.63924 15.3231 10.1141 15.0301 10.4069C14.7371 10.6997 14.2623 10.6995 13.9695 10.4065L11.4695 7.90478C11.1768 7.61192 11.1768 7.13732 11.4695 6.84447L13.9695 4.34289C14.2623 4.0499 14.7372 4.04975 15.0302 4.34255ZM18.2198 4.34255C18.5128 4.04975 18.9877 4.0499 19.2805 4.34289L21.7805 6.84447C22.0732 7.13732 22.0732 7.61192 21.7805 7.90478L19.2805 10.4065C18.9877 10.6995 18.5129 10.6997 18.2199 10.4069C17.9269 10.1141 17.9267 9.63924 18.2195 9.34624L20.1897 7.37465L18.2195 5.4032C17.9267 5.11022 17.9269 4.63535 18.2198 4.34255Z" fill="#000000"/><path d="M4.5 4.25C4.5 3.00736 5.50736 2 6.75 2H14.1899L12.9085 3.28256L10.4085 5.78415C9.53052 6.66269 9.5305 8.08649 10.4085 8.96507L12.9085 11.4668C13.7868 12.3458 15.2114 12.3463 16.0904 11.4679C16.3387 11.2198 16.5169 10.9281 16.625 10.6175C16.7331 10.9281 16.9113 11.2198 17.1596 11.4679C17.7927 12.1006 18.7088 12.2773 19.5 11.9983V14.5H4.5V4.25Z" fill="#000000"/></svg>