<svg width="80" height="80" viewBox="0 0 24 24" fill="none" xmlns="http://www.w3.org/2000/svg" transform="rotate(0 0 0)"><path d="M19.0752 16.1484C19.4892 16.1487 19.8252 16.4844 19.8252 16.8984C19.8252 17.6853 20.4632 18.323 21.25 18.3232C21.6639 18.3235 21.9999 18.6593 22 19.0732C22 19.4873 21.664 19.823 21.25 19.8232C20.4633 19.8235 19.8254 20.4614 19.8252 21.248C19.8252 21.6621 19.4892 21.9978 19.0752 21.998C18.6611 21.9979 18.3252 21.6622 18.3252 21.248C18.325 20.4614 17.687 19.8235 16.9004 19.8232C16.4862 19.8232 16.1504 19.4875 16.1504 19.0732C16.1505 18.6591 16.4862 18.3232 16.9004 18.3232C17.6872 18.323 18.3252 17.6853 18.3252 16.8984C18.3252 16.4843 18.6611 16.1485 19.0752 16.1484Z" fill="#000000"/><path d="M18.502 3.25C19.7446 3.25 20.752 4.25736 20.752 5.5V15.4033C20.3884 14.9946 19.8792 14.7188 19.3047 14.6602L19.252 14.6572V11.7861C19.252 11.4706 19.1526 11.1629 18.9678 10.9072L18.1797 9.81738C17.145 8.38624 14.9397 8.65007 14.2725 10.2852L12.2949 15.1318C12.075 15.6701 11.3524 15.7639 11.002 15.2998L9.78613 13.6904C8.88893 12.5028 7.10669 12.4978 6.20312 13.6807L5.05957 15.1777C4.86 15.4392 4.75197 15.759 4.75195 16.0879V18.5C4.75195 18.9142 5.08774 19.25 5.50195 19.25H14.6582C14.7046 19.8464 14.9832 20.3753 15.4043 20.75H5.50195C4.25931 20.75 3.25195 19.7426 3.25195 18.5V5.5C3.25195 4.25736 4.25931 3.25 5.50195 3.25H18.502ZM8.64648 6.93457C7.74902 6.93457 7.02148 7.66211 7.02148 8.55957C7.02148 9.45703 7.74902 10.1846 8.64648 10.1846H8.65625C9.55371 10.1846 10.2812 9.45703 10.2812 8.55957C10.2812 7.66211 9.55371 6.93457 8.65625 6.93457H8.64648Z" fill="#000000"/></svg>