<svg width="80" height="80" viewBox="0 0 24 24" fill="none" xmlns="http://www.w3.org/2000/svg" transform="rotate(0 0 0)"><path d="M13.4475 2.59976C12.6478 1.80008 11.3513 1.80008 10.5516 2.59976L2.59976 10.5516C1.80008 11.3513 1.80008 12.6478 2.59976 13.4475L10.5525 21.4002C11.3522 22.1999 12.6487 22.1999 13.4484 21.4002L21.4002 13.4484C22.1999 12.6487 22.1999 11.3522 21.4002 10.5525L13.4475 2.59976ZM13.333 15.2237C13.0401 14.9308 13.0401 14.4559 13.333 14.163L13.6307 13.8652H8.55762C8.1434 13.8652 7.80762 13.5295 7.80762 13.1152C7.80762 12.701 8.1434 12.3652 8.55762 12.3652H15.4136C15.6149 12.3577 15.8186 12.4307 15.9723 12.5844C16.2652 12.8773 16.2652 13.3521 15.9723 13.645L14.3936 15.2237C14.1007 15.5166 13.6258 15.5166 13.333 15.2237ZM7.86453 11.1699C7.82786 11.0815 7.80762 10.9845 7.80762 10.8828C7.80762 10.7811 7.82786 10.6842 7.86453 10.5957C7.90113 10.5073 7.95538 10.4244 8.02729 10.3525L9.60594 8.77383C9.89884 8.48093 10.3737 8.48093 10.6666 8.77383C10.9595 9.06672 10.9595 9.54159 10.6666 9.83449L10.3683 10.1328H15.4413C15.8556 10.1328 16.1913 10.4686 16.1913 10.8828C16.1913 11.297 15.8556 11.6328 15.4413 11.6328L8.55537 11.6328C8.36418 11.6322 8.17316 11.559 8.02729 11.4131C7.95538 11.3412 7.90113 11.2584 7.86453 11.1699Z" fill="#000000"/></svg>