<svg width="80" height="80" viewBox="0 0 24 25" fill="none" xmlns="http://www.w3.org/2000/svg" transform="rotate(0 0 0)"><path d="M7.03123 7.97183C6.81678 7.75722 6.49415 7.69296 6.21383 7.80902C5.93351 7.92507 5.75072 8.19858 5.75072 8.50198L5.75072 11.752L2.75 11.752C2.33579 11.752 2 12.0878 2 12.502C2 12.9162 2.33579 13.252 2.75 13.252L5.75072 13.252L5.75072 16.502C5.75072 16.8054 5.9335 17.0789 6.21381 17.1949C6.49413 17.311 6.81675 17.2467 7.03122 17.0321L10.9984 13.0624C11.1528 12.9251 11.25 12.7249 11.25 12.502C11.25 12.278 11.1518 12.077 10.9962 11.9395L7.03123 7.97183Z" fill="#000000"/><path d="M18.2493 8.50198C18.2493 8.19859 18.0665 7.92508 17.7862 7.80902C17.5059 7.69297 17.1832 7.75722 16.9688 7.97182L13.0016 11.9415C12.8472 12.0789 12.75 12.2791 12.75 12.502C12.75 12.726 12.8482 12.927 13.0038 13.0644L16.9688 17.0321C17.1832 17.2467 17.5059 17.311 17.7862 17.1949C18.0665 17.0789 18.2493 16.8054 18.2493 16.502V13.252L21.25 13.252C21.6642 13.252 22 12.9162 22 12.502C22 12.0878 21.6642 11.752 21.25 11.752L18.2493 11.752L18.2493 8.50198Z" fill="#000000"/></svg>