<svg width="80" height="80" viewBox="0 0 24 24" fill="none" xmlns="http://www.w3.org/2000/svg" transform="rotate(0 0 0)"><path d="M19.5676 3.84125C19.48 3.43641 19.0808 3.17926 18.676 3.26689C18.2711 3.35451 18.014 3.75373 18.1016 4.15857C18.1966 4.59743 18.1802 5.02433 18.134 5.34613C18.0676 5.34319 18.001 5.34171 17.9343 5.34171C15.6827 5.34171 14.025 7.29336 13.8995 9.39337C13.7932 11.1711 13.4218 13.1656 12.4701 14.5156C11.5319 15.8465 9.91434 16.5616 8.41995 16.9334C7.68621 17.116 7.01414 17.2078 6.52554 17.2537C6.28191 17.2766 6.08568 17.2879 5.95237 17.2935C5.88576 17.2962 5.835 17.2976 5.80203 17.2982L5.76623 17.2988L5.75882 17.2989C5.38108 17.2992 5.06162 17.5805 5.01452 17.9554C4.96739 18.3305 5.20682 18.682 5.57313 18.7755L5.75867 18.0489C5.57313 18.7755 5.57292 18.7755 5.57313 18.7755L5.57574 18.7762L5.5811 18.7776L5.59993 18.7823C5.61604 18.7863 5.63921 18.7919 5.66911 18.7991C5.7289 18.8135 5.8156 18.8338 5.92646 18.8586C6.1481 18.9081 6.46672 18.9754 6.86017 19.0479C7.64587 19.1926 8.73599 19.3592 9.95174 19.4451C12.3327 19.6135 15.3946 19.4902 17.5269 18.0871C20.863 15.8918 22.3755 12.395 21.9209 8.56657C21.7529 7.1514 20.7845 6.14482 19.6024 5.66445C19.6848 5.16762 19.7143 4.51876 19.5676 3.84125Z" fill="#000000"/><path d="M6.46693 4.90687C6.29263 4.56798 5.8919 4.41368 5.53533 4.54816C4.20639 5.04935 2 6.96529 2 10.1663C2 12.5135 3.90279 14.4163 6.25 14.4163C8.59721 14.4163 10.5 12.5135 10.5 10.1663C10.5 8.92895 10.1676 7.87846 9.68394 7.03012C9.48345 6.67842 9.04002 6.54931 8.68206 6.7384L7.68098 7.26723L6.46693 4.90687Z" fill="#000000"/></svg>