<svg width="80" height="80" viewBox="0 0 24 24" fill="none" xmlns="http://www.w3.org/2000/svg" transform="rotate(0 0 0)"><path d="M2.5 5.53125C2.5 4.28861 3.50736 3.28125 4.75 3.28125H19.25C20.4926 3.28125 21.5 4.28861 21.5 5.53125V16.0796C21.5 17.3223 20.4926 18.3296 19.25 18.3296H15.1014L12.6025 21.6956C12.461 21.8861 12.2377 21.9985 12.0003 21.9985C11.763 21.9985 11.5396 21.8861 11.3981 21.6956L8.89931 18.3296H4.75C3.50736 18.3296 2.5 17.3223 2.5 16.0796V5.53125ZM12.7503 7.83496C12.7503 7.42075 12.4145 7.08496 12.0003 7.08496C11.5861 7.08496 11.2503 7.42075 11.2503 7.83496V12.0545C11.2503 12.4687 11.5861 12.8045 12.0003 12.8045C12.4145 12.8045 12.7503 12.4687 12.7503 12.0545V7.83496ZM11.9994 13.7045C11.5023 13.7045 11.0994 14.1075 11.0994 14.6045C11.0994 15.1016 11.5031 15.5045 12.0001 15.5045C12.4972 15.5045 12.9001 15.1016 12.9001 14.6045C12.9001 14.1075 12.4964 13.7045 11.9994 13.7045Z" fill="#000000"/></svg>