<svg width="80" height="80" viewBox="0 0 24 24" fill="none" xmlns="http://www.w3.org/2000/svg" transform="rotate(0 0 0)"><path d="M6.25 2C5.2835 2 4.5 2.7835 4.5 3.75V6.12838C4.5 7.09488 5.2835 7.87838 6.25 7.87838H7.5L7.5 17.75C7.5 18.9926 8.50736 20 9.75 20H14V20.25C14 21.2165 14.7835 22 15.75 22H17.75C18.7165 22 19.5 21.2165 19.5 20.25V18.25C19.5 17.2835 18.7165 16.5 17.75 16.5H15.75C14.7835 16.5 14 17.2835 14 18.25V18.5H9.75C9.33579 18.5 9 18.1642 9 17.75L9 13H11.75C12.1642 13 12.5 12.6642 12.5 12.25C12.5 11.8358 12.1642 11.5 11.75 11.5H9V7.87838H10.25C11.2165 7.87838 12 7.09488 12 6.12838V3.75C12 2.7835 11.2165 2 10.25 2H6.25Z" fill="#000000"/><path d="M15.6072 8.02121C15.3143 7.72832 14.8395 7.72832 14.5466 8.02121C14.2537 8.31411 14.2537 8.78898 14.5466 9.08187L16.7018 11.2371L14.5466 13.3923C14.2537 13.6852 14.2537 14.1601 14.5466 14.453C14.8395 14.7459 15.3143 14.7459 15.6072 14.453L17.7624 12.2977L19.9176 14.4529C20.2105 14.7458 20.6854 14.7458 20.9782 14.4529C21.2711 14.16 21.2711 13.6851 20.9782 13.3922L18.8231 11.2371L20.9782 9.08194C21.2711 8.78905 21.2711 8.31417 20.9782 8.02128C20.6854 7.72839 20.2105 7.72839 19.9176 8.02128L17.7624 10.1764L15.6072 8.02121Z" fill="#000000"/></svg>