<svg width="80" height="80" viewBox="0 0 25 25" fill="none" xmlns="http://www.w3.org/2000/svg" transform="rotate(0 0 0)"><path d="M13.1301 16.7511L18.9508 10.9304C19.2416 10.6396 19.2391 10.1581 18.9508 9.86976L12.5495 3.46853C12.2566 3.17564 11.7818 3.17564 11.4889 3.46853L5.66823 9.28919C4.78955 10.1679 4.78955 11.5925 5.66823 12.4712L6.0787 12.8816L9.53992 16.3429L9.94813 16.7511C10.8268 17.6297 12.2514 17.6298 13.1301 16.7511ZM13.8254 10.709L12.9087 10.7094L12.9917 10.7924C13.2062 11.0069 13.2704 11.3294 13.1543 11.6097C13.0382 11.89 12.7647 12.0727 12.4614 12.0727H9.73633C9.32211 12.0727 8.98633 11.7369 8.98633 11.3227C8.98633 10.9085 9.32211 10.5727 9.73633 10.5727H10.6507L10.5685 10.4905C10.3541 10.276 10.2899 9.95352 10.4059 9.67329C10.5219 9.39306 10.7952 9.21029 11.0985 9.21016L13.8248 9.20898C14.239 9.20881 14.5749 9.54445 14.5751 9.95866C14.5753 10.3729 14.2396 10.7088 13.8254 10.709Z" fill="#000000"/><path d="M19.3289 8.63021L19.2276 8.73153L13.6861 3.19002L13.7874 3.0887C14.6661 2.21002 16.0907 2.21002 16.9694 3.0887L19.3289 5.44823C20.2076 6.32691 20.2076 7.75153 19.3289 8.63021ZM5.372 13.5883L5.37002 13.5903C4.88187 14.0785 4.88187 14.8699 5.37002 15.3581L5.79908 15.7871C4.59487 17.8134 4.8639 20.4712 6.60699 22.2143C6.89988 22.5072 7.37475 22.5072 7.66765 22.2143C7.96054 21.9214 7.96054 21.4465 7.66765 21.1536C6.51655 20.0025 6.26319 18.2927 6.9082 16.8963L7.06347 17.0515C7.55163 17.5397 8.34309 17.5397 8.83124 17.0515L8.83322 17.0496L5.372 13.5883Z" fill="#000000"/></svg>