<svg width="80" height="80" viewBox="0 0 24 24" fill="none" xmlns="http://www.w3.org/2000/svg" transform="rotate(0 0 0)"><path d="M14.75 4.25V6.65675C14.435 6.55498 14.0989 6.5 13.75 6.5H6.75C6.40109 6.5 6.06503 6.55498 5.75 6.65675V4.25C5.75 3.00736 6.75736 2 8 2H12.5C13.7426 2 14.75 3.00736 14.75 4.25ZM9.5 3.5C9.08579 3.5 8.75 3.83579 8.75 4.25C8.75 4.66421 9.08579 5 9.5 5H11C11.4142 5 11.75 4.66421 11.75 4.25C11.75 3.83579 11.4142 3.5 11 3.5H9.5Z" fill="#000000"/><path d="M4.5 9.75C4.5 8.86657 5.00914 8.10206 5.75 7.73388C6.05124 7.58418 6.39079 7.5 6.75 7.5H13.75C14.1092 7.5 14.4488 7.58418 14.75 7.73388C15.4909 8.10206 16 8.86657 16 9.75V12.4459C15.1163 11.6542 13.7574 11.6832 12.9085 12.5326L10.4085 15.0342C9.53052 15.9127 9.5305 17.3365 10.4085 18.2151L12.9085 20.7168C13.6174 21.4262 14.6821 21.5634 15.5287 21.1281C15.1171 21.6586 14.4734 22 13.75 22H6.75C5.50736 22 4.5 20.9926 4.5 19.75V9.75Z" fill="#000000"/><path d="M15.0302 13.5925C15.3231 13.8853 15.3233 14.3602 15.0305 14.6532L13.0603 16.6247L15.0305 18.5962C15.3233 18.8892 15.3231 19.3641 15.0301 19.6569C14.7371 19.9497 14.2623 19.9495 13.9695 19.6565L11.4695 17.1548C11.1768 16.8619 11.1768 16.3873 11.4695 16.0945L13.9695 13.5929C14.2623 13.2999 14.7372 13.2997 15.0302 13.5925ZM18.2198 13.5925C18.5128 13.2997 18.9877 13.2999 19.2805 13.5929L21.7805 16.0945C22.0732 16.3873 22.0732 16.8619 21.7805 17.1548L19.2805 19.6565C18.9877 19.9495 18.5129 19.9497 18.2199 19.6569C17.9269 19.3641 17.9267 18.8892 18.2195 18.5962L20.1897 16.6247L18.2195 14.6532C17.9267 14.3602 17.9269 13.8853 18.2198 13.5925Z" fill="#000000"/></svg>