<svg width="80" height="80" viewBox="0 0 24 25" fill="none" xmlns="http://www.w3.org/2000/svg" transform="rotate(0 0 0)"><path d="M6.75 2.25C5.50736 2.25 4.5 3.25736 4.5 4.5V15H12.125V14.8754C11.2766 14.5755 10.6618 13.7813 10.6266 12.8388C10.3791 13.0188 10.0745 13.125 9.74512 13.125C8.91669 13.125 8.24512 12.4534 8.24512 11.625C8.24512 10.7966 8.91669 10.125 9.74512 10.125C10.445 10.125 11.033 10.6044 11.1986 11.2527C11.6105 10.7928 12.209 10.5034 12.875 10.5034H14.375C14.5919 10.5034 14.8016 10.5341 15 10.5914V4.5C15 3.25736 13.9926 2.25 12.75 2.25H6.75ZM9.74512 8.5C8.91669 8.5 8.24512 7.82843 8.24512 7C8.24512 6.17157 8.91669 5.5 9.74512 5.5C10.5735 5.5 11.2451 6.17157 11.2451 7C11.2451 7.82843 10.5735 8.5 9.74512 8.5Z" fill="#000000"/><path d="M12.1387 16.5C12.1473 16.5775 12.1598 16.6539 12.1761 16.7289C11.2456 17.3006 10.625 18.3278 10.625 19.5V21H7.5V21.5C7.5 21.9142 7.16421 22.25 6.75 22.25C6.33579 22.25 6 21.9142 6 21.5V21H5.25C4.83579 21 4.5 20.6642 4.5 20.25V16.5H12.1387Z" fill="#000000"/><path d="M16.625 13.75C16.625 12.7835 17.4085 12 18.375 12H19.375C20.3415 12 21.125 12.7835 21.125 13.75V15.25C21.125 16.2165 20.3415 17 19.375 17H18.375C17.4085 17 16.625 16.2165 16.625 15.25V13.75ZM18.375 13.5C18.2369 13.5 18.125 13.6119 18.125 13.75V15.25C18.125 15.3881 18.2369 15.5 18.375 15.5H19.375C19.5131 15.5 19.625 15.3881 19.625 15.25V13.75C19.625 13.6119 19.5131 13.5 19.375 13.5H18.375ZM12.125 12.7534C12.125 12.3392 12.4608 12.0034 12.875 12.0034H14.375C14.7892 12.0034 15.125 12.3392 15.125 12.7534V16.25C15.125 16.6642 14.7892 17 14.375 17C13.9608 17 13.625 16.6642 13.625 16.25V13.5034H12.875C12.4608 13.5034 12.125 13.1676 12.125 12.7534ZM12.125 19.5C12.125 18.5335 12.9085 17.75 13.875 17.75H14.875C15.8415 17.75 16.625 18.5335 16.625 19.5V21C16.625 21.9665 15.8415 22.75 14.875 22.75H13.875C12.9085 22.75 12.125 21.9665 12.125 21V19.5ZM13.875 19.25C13.7369 19.25 13.625 19.3619 13.625 19.5V21C13.625 21.1381 13.7369 21.25 13.875 21.25H14.875C15.0131 21.25 15.125 21.1381 15.125 21V19.5C15.125 19.3619 15.0131 19.25 14.875 19.25H13.875ZM18.125 18.5034C18.125 18.0892 18.4608 17.7534 18.875 17.7534H20.375C20.7892 17.7534 21.125 18.0892 21.125 18.5034V22C21.125 22.4142 20.7892 22.75 20.375 22.75C19.9608 22.75 19.625 22.4142 19.625 22V19.2534H18.875C18.4608 19.2534 18.125 18.9176 18.125 18.5034Z" fill="#000000"/></svg>