<svg width="80" height="80" viewBox="0 0 24 25" fill="none" xmlns="http://www.w3.org/2000/svg" transform="rotate(0 0 0)"><path d="M13.125 3.875C13.125 3.25368 12.6213 2.75 12 2.75C11.3787 2.75 10.875 3.25368 10.875 3.875V14.1128C10.875 14.7341 11.3787 15.2378 12 15.2378C12.6213 15.2378 13.125 14.7341 13.125 14.1128V3.875Z" fill="#000000"/><path d="M2.83887 13.5885C2.83887 9.44144 5.59466 5.93729 9.375 4.80859V7.19296C6.85997 8.22652 5.08887 10.7008 5.08887 13.5885C5.08887 17.4051 8.18292 20.4991 11.9996 20.4991C15.8162 20.4991 18.9103 17.4051 18.9103 13.5885C18.9103 10.7012 17.1396 8.22709 14.625 7.19332V4.80886C18.4049 5.93783 21.1603 9.44176 21.1603 13.5885C21.1603 18.6477 17.0588 22.7491 11.9996 22.7491C6.94031 22.7491 2.83887 18.6477 2.83887 13.5885Z" fill="#000000"/></svg>