<svg width="80" height="80" viewBox="0 0 24 25" fill="none" xmlns="http://www.w3.org/2000/svg" transform="rotate(0 0 0)"><path d="M3.25 5.89062C3.25 4.64798 4.25736 3.64062 5.5 3.64062H18.5C19.7426 3.64062 20.75 4.64798 20.75 5.89062V18.8906C20.75 20.1333 19.7426 21.1406 18.5 21.1406H5.5C4.25736 21.1406 3.25 20.1333 3.25 18.8906V5.89062ZM8.78362 10.2354L10.9388 12.3906L8.78362 14.5458C8.49073 14.8387 8.49073 15.3136 8.78362 15.6065C9.07652 15.8994 9.55139 15.8994 9.84428 15.6065L11.9995 13.4513L14.1546 15.6064C14.4475 15.8993 14.9224 15.8993 15.2153 15.6064C15.5082 15.3135 15.5082 14.8387 15.2153 14.5458L13.0602 12.3906L15.2153 10.2355C15.5082 9.94258 15.5082 9.46771 15.2153 9.17482C14.9224 8.88192 14.4475 8.88192 14.1546 9.17482L11.9995 11.33L9.84428 9.17475C9.55139 8.88186 9.07652 8.88186 8.78362 9.17475C8.49073 9.46764 8.49073 9.94251 8.78362 10.2354Z" fill="#000000"/></svg>