<svg width="80" height="80" viewBox="0 0 24 24" fill="none" xmlns="http://www.w3.org/2000/svg" transform="rotate(0 0 0)"><path d="M10.1361 13.0405L13.864 13.0406L12.0001 8.84664L10.1361 13.0405Z" fill="#000000"/><path d="M5.5 3.25C4.25736 3.25 3.25 4.25736 3.25 5.5V18.5C3.25 19.7426 4.25736 20.75 5.5 20.75H18.5C19.7426 20.75 20.75 19.7426 20.75 18.5V5.5C20.75 4.25736 19.7426 3.25 18.5 3.25H5.5ZM12.0001 6.25C12.2965 6.25 12.5651 6.42455 12.6854 6.6954L17.1298 16.6954C17.298 17.0739 17.1276 17.5171 16.749 17.6854C16.3705 17.8536 15.9273 17.6831 15.7591 17.3046L14.5307 14.5406L9.46938 14.5405L8.24091 17.3044C8.07268 17.6829 7.62945 17.8534 7.25094 17.6851C6.87243 17.5169 6.70197 17.0737 6.8702 16.6952L11.3147 6.69539C11.4351 6.42454 11.7037 6.25 12.0001 6.25Z" fill="#000000"/></svg>