<svg width="80" height="80" viewBox="0 0 24 24" fill="none" xmlns="http://www.w3.org/2000/svg" transform="rotate(0 0 0)"><path d="M12.752 15.8756L12.752 9H14.75C15.1642 9 15.5 8.66421 15.5 8.25V2.75C15.5 2.55109 15.421 2.36032 15.2804 2.21967C15.1397 2.07902 14.9489 2 14.75 2H9.25002C8.83581 2 8.50002 2.33579 8.50002 2.75L8.50002 8.25C8.50002 8.44891 8.57904 8.63968 8.71969 8.78033C8.86034 8.92098 9.05111 9 9.25002 9H11.252L11.252 15.8756H7.37502C7.07163 15.8756 6.79812 16.0584 6.68207 16.3387C6.56601 16.6191 6.63026 16.9417 6.84486 17.1561L11.4585 21.7669C11.5951 21.9105 11.7881 22 12.002 22C12.234 22 12.4415 21.8946 12.5791 21.7291L17.1552 17.1562C17.3698 16.9417 17.434 16.6191 17.318 16.3388C17.2019 16.0584 16.9284 15.8756 16.625 15.8756H12.752Z" fill="#000000"/></svg>