<svg width="80" height="80" viewBox="0 0 25 25" fill="none" xmlns="http://www.w3.org/2000/svg" transform="rotate(0 0 0)"><path d="M12.4889 2.92383C8.95113 2.92383 6.08319 5.79177 6.08319 9.32956C6.08319 11.6495 6.94359 13.7621 7.97903 15.4696C9.01631 17.18 10.2563 18.5287 11.0825 19.3353C11.8807 20.1145 13.1282 20.1132 13.9244 19.3314C14.7468 18.5241 15.9797 17.1754 17.0107 15.4655C18.04 13.7585 18.8947 11.6473 18.8947 9.32956C18.8947 5.79177 16.0267 2.92383 12.4889 2.92383ZM9.48926 9.32812C9.48926 7.67127 10.8324 6.32812 12.4893 6.32812C14.1461 6.32812 15.4893 7.67127 15.4893 9.32812C15.4893 10.985 14.1461 12.3281 12.4893 12.3281C10.8324 12.3281 9.48926 10.985 9.48926 9.32812Z" fill="#000000"/><path d="M7.31371 17.1784C6.76303 17.2689 6.24955 17.3736 5.78108 17.4908C4.91231 17.7082 4.15604 17.9791 3.59889 18.3087C3.09172 18.6088 2.50391 19.1072 2.50391 19.8553C2.50391 20.6034 3.09172 21.1018 3.59889 21.4019C4.15604 21.7316 4.91231 22.0024 5.78108 22.2198C7.53015 22.6576 9.90669 22.9203 12.5039 22.9203C15.1011 22.9203 17.4777 22.6576 19.2267 22.2198C20.0955 22.0024 20.8518 21.7316 21.4089 21.4019C21.9161 21.1018 22.5039 20.6034 22.5039 19.8553C22.5039 19.1072 21.9161 18.6088 21.4089 18.3087C20.8518 17.9791 20.0955 17.7082 19.2267 17.4908C18.7614 17.3743 18.2516 17.2703 17.7051 17.1802C17.3665 17.6735 17.0202 18.13 16.6821 18.5456C17.4948 18.6518 18.2296 18.7875 18.8626 18.9459C19.6677 19.1474 20.2661 19.3754 20.6451 19.5997C20.8474 19.7194 20.9387 19.8073 20.9787 19.8553C20.9387 19.9033 20.8474 19.9912 20.6451 20.111C20.2661 20.3352 19.6677 20.5632 18.8626 20.7647C17.2638 21.1648 15.0153 21.4203 12.5039 21.4203C9.99249 21.4203 7.74403 21.1648 6.14526 20.7647C5.3401 20.5632 4.74175 20.3352 4.36274 20.111C4.16036 19.9912 4.06907 19.9033 4.02909 19.8553C4.06907 19.8073 4.16036 19.7194 4.36274 19.5997C4.74175 19.3754 5.3401 19.1474 6.14526 18.9459C6.78223 18.7865 7.52232 18.6501 8.34109 18.5436C8.00146 18.128 7.65369 17.6715 7.31371 17.1784Z" fill="#000000"/></svg>