<svg width="80" height="80" viewBox="0 0 24 25" fill="none" xmlns="http://www.w3.org/2000/svg" transform="rotate(0 0 0)"><path d="M7.75 10.4531C7.05964 10.4531 6.5 11.0128 6.5 11.7031C6.5 12.3935 7.05964 12.9531 7.75 12.9531C8.44036 12.9531 9 12.3935 9 11.7031C9 11.0128 8.44036 10.4531 7.75 10.4531Z" fill="#000000"/><path d="M14.75 10.4531C14.0596 10.4531 13.5 11.0128 13.5 11.7031C13.5 12.3935 14.0596 12.9531 14.75 12.9531C15.4404 12.9531 16 12.3935 16 11.7031C16 11.0128 15.4404 10.4531 14.75 10.4531Z" fill="#000000"/><path d="M11.25 3.69336C5.90631 3.69336 1.25 7.1217 1.25 11.7056C1.25 13.8608 2.30353 15.7825 3.95373 17.1914V19.0573C3.95373 20.3 4.96109 21.3073 6.20373 21.3073H8.25L8.25 21.3047V18.3047C8.25 17.8905 8.58579 17.5547 9 17.5547C9.41421 17.5547 9.75 17.8905 9.75 18.3047V21.3047L9.75 21.3073H12.75L12.75 21.3047V18.3047C12.75 17.8905 13.0858 17.5547 13.5 17.5547C13.9142 17.5547 14.25 17.8905 14.25 18.3047V21.3047L14.25 21.3073H16.2965C17.5392 21.3073 18.5465 20.3 18.5465 19.0573V17.1912C20.1966 15.7823 21.25 13.8607 21.25 11.7056C21.25 7.1217 16.5937 3.69336 11.25 3.69336ZM5 11.7031C5 10.1843 6.23122 8.95312 7.75 8.95312C9.26878 8.95312 10.5 10.1843 10.5 11.7031C10.5 13.2219 9.26878 14.4531 7.75 14.4531C6.23122 14.4531 5 13.2219 5 11.7031ZM12 11.7031C12 10.1843 13.2312 8.95312 14.75 8.95312C16.2688 8.95312 17.5 10.1843 17.5 11.7031C17.5 13.2219 16.2688 14.4531 14.75 14.4531C13.2312 14.4531 12 13.2219 12 11.7031Z" fill="#000000"/></svg>