<svg width="80" height="80" viewBox="0 0 24 24" fill="none" xmlns="http://www.w3.org/2000/svg" transform="rotate(0 0 0)"><path d="M7 2.75C7 2.33579 7.33579 2 7.75 2H16.25C16.6642 2 17 2.33579 17 2.75C17 3.16421 16.6642 3.5 16.25 3.5H15.75L15.75 18.25C15.75 20.3211 14.0711 22 12 22C9.92893 22 8.25 20.3211 8.25 18.25L8.25 3.5H7.75C7.33579 3.5 7 3.16421 7 2.75ZM12.25 15.25C12.25 15.6642 12.5858 16 13 16H14.25L14.25 14.5H13C12.5858 14.5 12.25 14.8358 12.25 15.25ZM12.25 11.25C12.25 11.6642 12.5858 12 13 12H14.25V10.5H13C12.5858 10.5 12.25 10.8358 12.25 11.25ZM12.25 7.25C12.25 7.66421 12.5858 8 13 8H14.25L14.25 6.5H13C12.5858 6.5 12.25 6.83579 12.25 7.25Z" fill="#000000"/></svg>