<svg width="80" height="80" viewBox="0 0 24 24" fill="none" xmlns="http://www.w3.org/2000/svg" transform="rotate(0 0 0)"><path d="M3.28033 2.21967C2.98744 1.92678 2.51256 1.92678 2.21967 2.21967C1.92678 2.51256 1.92678 2.98744 2.21967 3.28033L3.46928 4.52994C3.32871 4.82366 3.25 5.15264 3.25 5.5V8.25H7.18934L8.68934 9.75H3.25V18.5C3.25 19.7426 4.25736 20.75 5.5 20.75H18.4986C18.8463 20.75 19.1756 20.6711 19.4696 20.5303L20.7187 21.7794C21.0116 22.0722 21.4865 22.0722 21.7794 21.7794C22.0722 21.4865 22.0722 21.0116 21.7794 20.7187L3.28033 2.21967Z" fill="#000000"/><path d="M12.8382 9.75L20.7486 17.6604L20.7485 9.75H12.8382Z" fill="#000000"/><path d="M6.33817 3.25L11.3382 8.25H20.7485L20.7485 5.5C20.7485 4.25736 19.7412 3.25 18.4985 3.25H6.33817Z" fill="#000000"/></svg>