<svg width="80" height="80" viewBox="0 0 24 25" fill="none" xmlns="http://www.w3.org/2000/svg" transform="rotate(0 0 0)"><path d="M7.75 6C7.75 4.75736 8.75736 3.75 10 3.75H14C15.2426 3.75 16.25 4.75736 16.25 6V6.75H19.2502C20.4928 6.75 21.5002 7.75736 21.5002 9V18C21.5002 19.2426 20.4928 20.25 19.2502 20.25H4.75C3.50736 20.25 2.5 19.2426 2.5 18V9C2.5 7.75736 3.50736 6.75 4.75 6.75H7.75V6ZM10 5.25C9.58579 5.25 9.25 5.58579 9.25 6V6.75H14.75V6C14.75 5.58579 14.4142 5.25 14 5.25H10ZM12.7497 10.0594C12.7497 9.6452 12.4139 9.30941 11.9997 9.30941C11.5855 9.30941 11.2497 9.6452 11.2497 10.0594V12.7499H8.55922C8.14501 12.7499 7.80922 13.0857 7.80922 13.4999C7.80922 13.9141 8.14501 14.2499 8.55922 14.2499H11.2497V16.9409C11.2497 17.3551 11.5855 17.6909 11.9997 17.6909C12.4139 17.6909 12.7497 17.3551 12.7497 16.9409V14.2499H15.4407C15.8549 14.2499 16.1907 13.9141 16.1907 13.4999C16.1907 13.0857 15.8549 12.7499 15.4407 12.7499H12.7497V10.0594Z" fill="#000000"/></svg>