<svg width="80" height="80" viewBox="0 0 25 24" fill="none" xmlns="http://www.w3.org/2000/svg" transform="rotate(0 0 0)"><path d="M2.95898 12C2.95898 6.47715 7.43614 2 12.959 2C18.4818 2 22.959 6.47715 22.959 12C22.959 17.5228 18.4818 22 12.959 22C7.43614 22 2.95898 17.5228 2.95898 12ZM7.90858 10.1584C7.76668 10.5475 7.96712 10.978 8.35627 11.1199C8.74543 11.2618 9.17592 11.0614 9.31782 10.6722C9.52139 10.1139 9.85169 9.60706 10.2862 9.19326C10.8789 8.62882 11.6351 8.26651 12.4463 8.15824C13.2576 8.04998 14.0823 8.20133 14.8023 8.59059C15.1296 8.76758 15.4277 8.98962 15.6886 9.24854H15.3976C14.9834 9.24854 14.6476 9.58432 14.6476 9.99854C14.6476 10.4127 14.9834 10.7485 15.3976 10.7485H17.0674C17.1962 10.7595 17.3296 10.7374 17.4546 10.6774C17.7401 10.5406 17.8996 10.2467 17.8789 9.94891C17.8714 9.83471 17.8384 9.72748 17.7855 9.63289C17.2932 8.62903 16.4999 7.80325 15.5157 7.2711C14.5171 6.73118 13.3732 6.52126 12.2479 6.67142C11.1227 6.82159 10.0738 7.32413 9.25175 8.10702C8.64905 8.68099 8.19092 9.38403 7.90858 10.1584ZM10.2245 14.7473H10.5191C10.9333 14.7473 11.2691 14.4115 11.2691 13.9973C11.2691 13.5831 10.9333 13.2473 10.5191 13.2473H8.78677C8.38895 13.2473 8.06348 13.557 8.03833 13.9485C8.02982 14.0733 8.05247 14.202 8.1104 14.3229C8.60094 15.3467 9.40299 16.1889 10.4016 16.7288C11.4002 17.2688 12.5441 17.4787 13.6694 17.3285C14.7946 17.1784 15.8435 16.6758 16.6655 15.8929C17.2689 15.3183 17.7274 14.6144 18.0096 13.8391C18.1513 13.4499 17.9507 13.0195 17.5615 12.8778C17.1722 12.7361 16.7418 12.9367 16.6001 13.3259C16.3966 13.8849 16.0661 14.3924 15.6311 14.8067C15.0384 15.3711 14.2822 15.7334 13.471 15.8417C12.6597 15.95 11.835 15.7986 11.115 15.4094C10.7859 15.2314 10.4865 15.008 10.2245 14.7473Z" fill="#000000"/></svg>