<svg width="80" height="80" viewBox="0 0 24 24" fill="none" xmlns="http://www.w3.org/2000/svg" transform="rotate(0 0 0)"><path d="M7.99951 4.25C7.99951 3.00736 9.00687 2 10.2495 2H13.7495C14.9922 2 15.9995 3.00736 15.9995 4.25V5H19.999C20.4132 5 20.749 5.33579 20.749 5.75C20.749 6.16421 20.4132 6.5 19.999 6.5H19.5V19.75C19.5 20.9926 18.4926 22 17.25 22H6.75C5.50736 22 4.5 20.9926 4.5 19.75V6.5H4C3.58579 6.5 3.25 6.16421 3.25 5.75C3.25 5.33579 3.58579 5 4 5H7.99951V4.25ZM9.49951 5H14.4995V4.25C14.4995 3.83579 14.1637 3.5 13.7495 3.5H10.2495C9.8353 3.5 9.49951 3.83579 9.49951 4.25V5ZM10.75 10.5C10.75 10.0858 10.4142 9.75 10 9.75C9.58579 9.75 9.25 10.0858 9.25 10.5V16.5C9.25 16.9142 9.58579 17.25 10 17.25C10.4142 17.25 10.75 16.9142 10.75 16.5V10.5ZM14.75 10.5C14.75 10.0858 14.4142 9.75 14 9.75C13.5858 9.75 13.25 10.0858 13.25 10.5V16.5C13.25 16.9142 13.5858 17.25 14 17.25C14.4142 17.25 14.75 16.9142 14.75 16.5V10.5Z" fill="#000000"/></svg>