<svg width="80" height="80" viewBox="0 0 24 24" fill="none" xmlns="http://www.w3.org/2000/svg" transform="rotate(0 0 0)"><path d="M13.75 14.75C13.75 14.3358 14.0858 14 14.5 14H16.25V7.75H7.75V14H9.5C9.91421 14 10.25 14.3358 10.25 14.75V15.5C10.25 15.9142 10.5858 16.25 11 16.25H13C13.4142 16.25 13.75 15.9142 13.75 15.5V14.75Z" fill="#000000"/><path d="M5.5 3.25C4.25736 3.25 3.25 4.25736 3.25 5.5V18.5C3.25 19.7426 4.25736 20.75 5.5 20.75H18.5C19.7426 20.75 20.75 19.7426 20.75 18.5V5.5C20.75 4.25736 19.7426 3.25 18.5 3.25H5.5ZM6.25 7C6.25 6.58579 6.58579 6.25 7 6.25H17C17.4142 6.25 17.75 6.58579 17.75 7V14.75C17.75 15.1642 17.4142 15.5 17 15.5H15.25C15.25 16.7426 14.2426 17.75 13 17.75H11C9.75736 17.75 8.75 16.7426 8.75 15.5H7C6.58579 15.5 6.25 15.1642 6.25 14.75V7Z" fill="#000000"/></svg>