<svg width="80" height="80" viewBox="0 0 24 25" fill="none" xmlns="http://www.w3.org/2000/svg" transform="rotate(0 0 0)"><path d="M16.1962 3.49845C15.946 3.33385 15.6219 3.33385 15.3718 3.49845L15.37 3.49963L15.3673 3.50139L15.3594 3.50668L15.3336 3.52417C15.3121 3.53887 15.2822 3.55961 15.2451 3.5861C15.171 3.63902 15.0677 3.71518 14.9449 3.81211C14.7004 4.00502 14.3724 4.28498 14.042 4.63237C13.4104 5.29623 12.6367 6.34441 12.6367 7.58773C12.6367 9.32592 14.0458 10.735 15.784 10.735C17.5222 10.735 18.9313 9.32592 18.9313 7.58773C18.9313 6.34441 18.1576 5.29623 17.526 4.63237C17.1955 4.28498 16.8676 4.00502 16.6231 3.81211C16.5003 3.71518 16.397 3.63902 16.3229 3.5861C16.2858 3.55961 16.2559 3.53887 16.2344 3.52417L16.2086 3.50668L16.2007 3.50139L16.198 3.49963L16.1962 3.49845Z" fill="#000000"/><path d="M8.41223 6.60782C8.16205 6.44323 7.83795 6.44323 7.58777 6.60782L7.58692 6.60839L7.58569 6.60919L7.58216 6.61154L7.5708 6.61912L7.53159 6.6457C7.49838 6.66842 7.45127 6.70111 7.39227 6.74325C7.27434 6.82746 7.10841 6.94974 6.91043 7.10594C6.51569 7.4174 5.98742 7.86857 5.45661 8.42655C4.42438 9.51161 3.25 11.1385 3.25 13.0122C3.25 15.6355 5.37665 17.7622 8 17.7622C10.6234 17.7622 12.75 15.6355 12.75 13.0122C12.75 11.1385 11.5756 9.51161 10.5434 8.42655C10.0126 7.86857 9.48431 7.4174 9.08957 7.10594C8.89159 6.94974 8.72566 6.82746 8.60773 6.74325C8.54873 6.70111 8.50162 6.66842 8.46841 6.6457L8.4292 6.61912L8.41784 6.61154L8.41431 6.60919L8.41308 6.60839L8.41223 6.60782Z" fill="#000000"/><path d="M17.4894 12.3578C17.2392 12.1932 16.9151 12.1932 16.6649 12.3578L16.663 12.3591L16.6601 12.361L16.651 12.3671L16.6208 12.3875C16.5955 12.4049 16.56 12.4295 16.5157 12.4611C16.4272 12.5243 16.3034 12.6156 16.1559 12.732C15.8621 12.9638 15.4685 13.2999 15.0723 13.7163C14.3094 14.5183 13.4043 15.7563 13.4043 17.2063C13.4043 19.2347 15.0487 20.8791 17.0771 20.8791C19.1056 20.8791 20.75 19.2347 20.75 17.2063C20.75 15.7563 19.8449 14.5183 19.082 13.7163C18.6858 13.2999 18.2922 12.9638 17.9984 12.732C17.8509 12.6156 17.7271 12.5243 17.6386 12.4611C17.5943 12.4295 17.5588 12.4049 17.5335 12.3875L17.5033 12.3671L17.4942 12.361L17.4913 12.3591L17.4894 12.3578Z" fill="#000000"/></svg>