<svg width="80" height="80" viewBox="0 0 24 24" fill="none" xmlns="http://www.w3.org/2000/svg" transform="rotate(0 0 0)"><path d="M2 6.75C2 5.50736 3.00736 4.5 4.25 4.5H19.75C20.9926 4.5 22 5.50736 22 6.75V8.25H19C18.5858 8.25 18.25 8.58579 18.25 9C18.25 9.41421 18.5858 9.75 19 9.75H22V11.25H19C18.5858 11.25 18.25 11.5858 18.25 12C18.25 12.4142 18.5858 12.75 19 12.75H22V14.25H19C18.5858 14.25 18.25 14.5858 18.25 15C18.25 15.4142 18.5858 15.75 19 15.75H22V17.25C22 18.4926 20.9926 19.5 19.75 19.5H4.25C3.00736 19.5 2 18.4926 2 17.25V6.75Z" fill="#000000"/></svg>