<svg width="80" height="80" viewBox="0 0 24 25" fill="none" xmlns="http://www.w3.org/2000/svg" transform="rotate(0 0 0)"><path d="M11.9992 3.82617C12.441 3.82617 12.7992 4.18434 12.7992 4.62617C12.7992 5.068 12.441 5.42627 11.9992 5.42627C11.5574 5.42627 11.1992 5.0681 11.1992 4.62627C11.1992 4.18444 11.5574 3.82617 11.9992 3.82617Z" fill="#000000"/><path d="M6.50117 12.6264C6.50117 9.58977 8.96282 7.12813 11.9994 7.12813C15.036 7.12813 17.4977 9.58977 17.4977 12.6264C17.4977 15.663 15.036 18.1246 11.9994 18.1246C8.96282 18.1246 6.50117 15.663 6.50117 12.6264Z" fill="#000000"/><path d="M18.2192 7.53365C18.5316 7.22123 18.5316 6.7147 18.2192 6.40228C17.9068 6.08986 17.4002 6.08986 17.0878 6.40228C16.7754 6.7147 16.7753 7.22131 17.0878 7.53372C17.4002 7.84614 17.9068 7.84607 18.2192 7.53365Z" fill="#000000"/><path d="M20.7992 12.6262C20.7992 13.068 20.441 13.4262 19.9992 13.4262C19.5574 13.4262 19.1991 13.068 19.1991 12.6262C19.1991 12.1843 19.5573 11.8262 19.9991 11.8262C20.4409 11.8262 20.7992 12.1843 20.7992 12.6262Z" fill="#000000"/><path d="M17.0878 18.8501C17.4002 19.1625 17.9068 19.1625 18.2192 18.8501C18.5316 18.5376 18.5316 18.0311 18.2192 17.7187C17.9068 17.4063 17.4002 17.4062 17.0878 17.7186C16.7753 18.031 16.7754 18.5376 17.0878 18.8501Z" fill="#000000"/><path d="M11.9992 21.4262C12.441 21.4262 12.7992 21.068 12.7992 20.6262C12.7992 20.1843 12.441 19.8261 11.9992 19.8261C11.5574 19.8261 11.1992 20.1842 11.1992 20.6261C11.1992 21.0679 11.5574 21.4262 11.9992 21.4262Z" fill="#000000"/><path d="M5.77924 17.7187C5.46682 18.0311 5.46682 18.5376 5.77924 18.8501C6.09166 19.1625 6.59819 19.1625 6.91061 18.8501C7.22303 18.5376 7.2231 18.031 6.91068 17.7186C6.59826 17.4062 6.09166 17.4063 5.77924 17.7187Z" fill="#000000"/><path d="M3.19922 12.6262C3.19922 13.068 3.55739 13.4262 3.99922 13.4262C4.44105 13.4262 4.79932 13.068 4.79932 12.6262C4.79932 12.1843 4.44115 11.8262 3.99932 11.8262C3.55749 11.8262 3.19922 12.1843 3.19922 12.6262Z" fill="#000000"/><path d="M6.91061 6.40228C6.59819 6.08986 6.09166 6.08986 5.77924 6.40228C5.46682 6.7147 5.46682 7.22123 5.77924 7.53365C6.09166 7.84607 6.59826 7.84614 6.91068 7.53372C7.2231 7.22131 7.22303 6.7147 6.91061 6.40228Z" fill="#000000"/></svg>