<svg width="80" height="80" viewBox="0 0 24 25" fill="none" xmlns="http://www.w3.org/2000/svg" transform="rotate(0 0 0)"><path d="M12 2.625C12.4142 2.625 12.75 2.96079 12.75 3.375V4.875C12.75 5.28921 12.4142 5.625 12 5.625C11.5858 5.625 11.25 5.28921 11.25 4.875V3.375C11.25 2.96079 11.5858 2.625 12 2.625Z" fill="#000000"/><path d="M19.0713 5.55561C19.3642 5.8485 19.3642 6.32337 19.0713 6.61627L18.0107 7.67693C17.7178 7.96982 17.2429 7.96982 16.95 7.67693C16.6571 7.38403 16.6571 6.90916 16.95 6.61627L18.0107 5.55561C18.3036 5.26271 18.7785 5.26271 19.0713 5.55561Z" fill="#000000"/><path d="M21.25 13.375C21.6642 13.375 22 13.0392 22 12.625C22 12.2108 21.6642 11.875 21.25 11.875H19.75C19.3358 11.875 19 12.2108 19 12.625C19 13.0392 19.3358 13.375 19.75 13.375H21.25Z" fill="#000000"/><path d="M5 12.625C5 13.0392 4.66422 13.375 4.25 13.375H2.75C2.33579 13.375 2 13.0392 2 12.625C2 12.2108 2.33579 11.875 2.75 11.875H4.25C4.66422 11.875 5 12.2108 5 12.625Z" fill="#000000"/><path d="M21.25 16.375C21.6642 16.375 22 16.0392 22 15.625C22 15.2108 21.6642 14.875 21.25 14.875H2.75C2.33579 14.875 2 15.2108 2 15.625C2 16.0392 2.33579 16.375 2.75 16.375H21.25Z" fill="#000000"/><path d="M19.75 18.625C19.75 19.0392 19.4142 19.375 19 19.375H5C4.58579 19.375 4.25 19.0392 4.25 18.625C4.25 18.2108 4.58579 17.875 5 17.875H19C19.4142 17.875 19.75 18.2108 19.75 18.625Z" fill="#000000"/><path d="M15.5 22.375C15.9142 22.375 16.25 22.0392 16.25 21.625C16.25 21.2108 15.9142 20.875 15.5 20.875H8.5C8.08579 20.875 7.75 21.2108 7.75 21.625C7.75 22.0392 8.08579 22.375 8.5 22.375H15.5Z" fill="#000000"/><path d="M5.9892 7.67877C6.2821 7.97166 6.75697 7.97166 7.04986 7.67877C7.34276 7.38587 7.34276 6.911 7.04986 6.61811L5.9892 5.55745C5.69631 5.26455 5.22144 5.26455 4.92854 5.55745C4.63565 5.85034 4.63565 6.32521 4.92854 6.61811L5.9892 7.67877Z" fill="#000000"/><path d="M6.5 12.625C6.5 9.58743 8.96244 7.125 12 7.125C15.0376 7.125 17.5 9.58743 17.5 12.625C17.5 12.8794 17.4827 13.1298 17.4493 13.375H6.55071C6.51727 13.1298 6.5 12.8794 6.5 12.625Z" fill="#000000"/></svg>