<svg width="80" height="80" viewBox="0 0 25 25" fill="none" xmlns="http://www.w3.org/2000/svg" transform="rotate(0 0 0)"><path d="M13.75 6.96534C13.75 5.02392 11.4562 3.99387 10.0052 5.28367L6.80858 8.12509H4.75C3.50736 8.12509 2.5 9.13245 2.5 10.3751V14.8751C2.5 16.1177 3.50736 17.1251 4.75 17.1251H6.80862L10.0052 19.9665C11.4562 21.2563 13.75 20.2262 13.75 18.2848V6.96534Z" fill="#000000"/><path d="M14.9853 11.2784C15.6729 12.0429 15.6729 13.2081 14.9853 13.9726C14.7084 14.2806 14.7335 14.7548 15.0415 15.0318C15.3495 15.3088 15.8237 15.2836 16.1007 14.9756C17.3011 13.6407 17.3011 11.6102 16.1007 10.2754C15.8237 9.96736 15.3495 9.94221 15.0415 10.2192C14.7335 10.4962 14.7084 10.9704 14.9853 11.2784Z" fill="#000000"/></svg>