<svg width="80" height="80" viewBox="0 0 24 24" fill="none" xmlns="http://www.w3.org/2000/svg" transform="rotate(0 0 0)"><path d="M9.69531 4.305C9.69531 5.31533 10.3453 6.17384 11.25 6.48513V8.10986H7.75C4.57436 8.10986 2 10.6842 2 13.8599C2 17.0355 4.57436 19.6099 7.75 19.6099H16.25C19.4256 19.6099 22 17.0355 22 13.8599C22 10.6842 19.4256 8.10986 16.25 8.10986H12.75V6.48534C13.655 6.17424 14.3053 5.31557 14.3053 4.305C14.3053 3.03198 13.2733 2 12.0003 2C10.7273 2 9.69531 3.03198 9.69531 4.305ZM5.75 13.8597C5.75 12.5867 6.78198 11.5547 8.055 11.5547C9.32802 11.5547 10.36 12.5867 10.36 13.8597C10.36 15.1327 9.32802 16.1647 8.055 16.1647C6.78198 16.1647 5.75 15.1327 5.75 13.8597ZM15.9456 11.5547C17.2186 11.5547 18.2506 12.5867 18.2506 13.8597C18.2506 15.1327 17.2186 16.1647 15.9456 16.1647C14.6726 16.1647 13.6406 15.1327 13.6406 13.8597C13.6406 12.5867 14.6726 11.5547 15.9456 11.5547Z" fill="#000000"/></svg>