<svg width="80" height="80" viewBox="0 0 24 25" fill="none" xmlns="http://www.w3.org/2000/svg" transform="rotate(0 0 0)"><path d="M3.39854 12.1458C2.33012 11.5289 1.96404 10.1627 2.5809 9.09428L4.09689 6.4685C4.71388 5.39984 6.08042 5.03388 7.14894 5.65079C7.63842 5.9334 8.25011 5.58009 8.25011 5.01524C8.25011 3.78144 9.2503 2.78125 10.4841 2.78125H13.5165C14.7502 2.78125 15.7501 3.78149 15.7501 5.01502C15.7501 5.57981 16.3615 5.93263 16.8503 5.65041C17.9185 5.03366 19.2845 5.39967 19.9012 6.46792L21.4176 9.09435C22.0345 10.1628 21.6684 11.5289 20.6 12.1458C20.1108 12.4282 20.1108 13.1343 20.6 13.4167C21.6684 14.0336 22.0344 15.3998 21.4176 16.4682L19.9012 19.0946C19.2845 20.1629 17.9185 20.5289 16.8503 19.9121C16.3615 19.6299 15.7501 19.9827 15.7501 20.5475C15.7501 21.781 14.7502 22.7812 13.5165 22.7812H10.4841C9.2503 22.7812 8.25011 21.7811 8.25011 20.5473C8.25011 19.9824 7.63844 19.6291 7.14896 19.9117C6.08044 20.5286 4.71391 20.1627 4.09692 19.094L2.58092 16.4682C1.96407 15.3998 2.33013 14.0336 3.39856 13.4168C3.88776 13.1343 3.88777 12.4282 3.39854 12.1458ZM11.9992 8.94618C9.88118 8.94618 8.16419 10.6632 8.16419 12.7812C8.16419 14.8992 9.88118 16.6162 11.9992 16.6162C14.1172 16.6162 15.8342 14.8992 15.8342 12.7812C15.8342 10.6632 14.1172 8.94618 11.9992 8.94618Z" fill="#000000"/></svg>