<svg width="80" height="80" viewBox="0 0 24 24" fill="none" xmlns="http://www.w3.org/2000/svg" transform="rotate(0 0 0)"><path d="M18.5 20.75C19.7426 20.75 20.75 19.7426 20.75 18.5V12.25C20.75 11.0074 19.7426 10 18.5 10H12.25C11.0074 10 10 11.0074 10 12.25V18.5C10 19.7426 11.0074 20.75 12.25 20.75H18.5Z" fill="#000000"/><path d="M5.625 14L5.625 8.875C5.625 7.08007 7.08008 5.625 8.875 5.625L14 5.625V5.5C14 4.25736 12.9926 3.25 11.75 3.25H5.5C4.25736 3.25 3.25 4.25736 3.25 5.5V11.75C3.25 12.9926 4.25736 14 5.5 14H5.625Z" fill="#000000"/><path d="M9 17.375L9 12.25C9 10.4551 10.4551 9 12.25 9L17.375 9V8.875C17.375 7.63236 16.3676 6.625 15.125 6.625H8.875C7.63236 6.625 6.625 7.63236 6.625 8.875V15.125C6.625 16.3676 7.63236 17.375 8.875 17.375H9Z" fill="#000000"/></svg>