<svg width="80" height="80" viewBox="0 0 25 25" fill="none" xmlns="http://www.w3.org/2000/svg" transform="rotate(0 0 0)"><path d="M10.5 3.68164C10.5 3.26743 10.1642 2.93164 9.75 2.93164C9.33579 2.93164 9 3.26743 9 3.68164L9 6.66455H7.5C6.25736 6.66455 5.25 7.67191 5.25 8.91455V12.3786C5.25 13.1169 5.61223 13.8083 6.21928 14.2286L8.47198 15.7881C8.61949 15.8902 8.7255 16.0418 8.77079 16.2154L9.23176 17.9825C9.49021 18.9732 10.385 19.6646 11.4089 19.6646H11.75V22.1816C11.75 22.5959 12.0858 22.9316 12.5 22.9316C12.9142 22.9316 13.25 22.5959 13.25 22.1816V19.6646H13.5911C14.615 19.6646 15.5098 18.9732 15.7682 17.9825L16.2292 16.2154C16.2745 16.0418 16.3805 15.8902 16.528 15.7881L18.7807 14.2286C19.3878 13.8083 19.75 13.1169 19.75 12.3786V8.91455C19.75 7.67191 18.7426 6.66455 17.5 6.66455H16V3.68164C16 3.26743 15.6642 2.93164 15.25 2.93164C14.8358 2.93164 14.5 3.26743 14.5 3.68164V6.66455H10.5L10.5 3.68164Z" fill="#000000"/></svg>