<svg width="80" height="80" viewBox="0 0 24 24" fill="none" xmlns="http://www.w3.org/2000/svg" transform="rotate(0 0 0)"><path d="M4.5 4.25C4.5 3.00736 5.50736 2 6.75 2H17.25C18.4926 2 19.5 3.00736 19.5 4.25L19.5 14.5H4.5V4.25Z" fill="#000000"/><path d="M4.5 16V19.75C4.5 20.9926 5.50736 22 6.75 22H17.25C18.4926 22 19.5 20.9926 19.5 19.75V16H4.5ZM7.44922 18.2492C7.44922 17.8074 7.80739 17.4492 8.24922 17.4492H8.25922C8.70105 17.4492 9.05922 17.8074 9.05922 18.2492C9.05922 18.691 8.70105 19.0492 8.25922 19.0492H8.24922C7.80739 19.0492 7.44922 18.691 7.44922 18.2492ZM10.459 18.2492C10.459 17.8074 10.8172 17.4492 11.259 17.4492H11.269C11.7108 17.4492 12.069 17.8074 12.069 18.2492C12.069 18.691 11.7108 19.0492 11.269 19.0492H11.259C10.8172 19.0492 10.459 18.691 10.459 18.2492Z" fill="#000000"/></svg>