<svg width="80" height="80" viewBox="0 0 24 24" fill="none" xmlns="http://www.w3.org/2000/svg" transform="rotate(0 0 0)"><path d="M2 12C2 6.47715 6.47715 2 12 2C17.5228 2 22 6.47715 22 12C22 12.7351 21.3922 13.2734 20.7117 13.2734H17.0138C15.3547 13.2734 14.0098 14.6184 14.0098 16.2775C14.0098 17.0726 14.325 17.8353 14.8864 18.3984C15.4257 18.9393 15.6251 19.6836 15.4766 20.3542C15.3242 21.042 14.8035 21.6373 13.993 21.8012C13.3483 21.9317 12.6818 22 12 22C6.47715 22 2 17.5228 2 12ZM10.5723 7.9375C11.2626 7.9375 11.8223 7.37786 11.8223 6.6875C11.8223 5.99714 11.2626 5.4375 10.5723 5.4375C9.88191 5.4375 9.32227 5.99714 9.32227 6.6875C9.32227 7.37786 9.88191 7.9375 10.5723 7.9375ZM15.8965 9.34863C16.5868 9.34863 17.1465 8.78899 17.1465 8.09863C17.1465 7.40828 16.5868 6.84863 15.8965 6.84863C15.2061 6.84863 14.6465 7.40828 14.6465 8.09863C14.6465 8.78899 15.2061 9.34863 15.8965 9.34863ZM7.93555 10.5986C7.93555 9.90828 7.3759 9.34863 6.68555 9.34863C5.99519 9.34863 5.43555 9.90828 5.43555 10.5986C5.43555 11.289 5.99519 11.8486 6.68555 11.8486C7.3759 11.8486 7.93555 11.289 7.93555 10.5986ZM8.11523 17.1461C8.80559 17.1461 9.36523 16.5864 9.36523 15.8961C9.36523 15.2057 8.80559 14.6461 8.11523 14.6461C7.42488 14.6461 6.86523 15.2057 6.86523 15.8961C6.86523 16.5864 7.42488 17.1461 8.11523 17.1461Z" fill="#000000"/></svg>