<svg width="24" height="25" viewBox="0 0 24 25" fill="none" xmlns="http://www.w3.org/2000/svg">
<path d="M12 2.875C12.4142 2.875 12.75 3.21079 12.75 3.625V5.125C12.75 5.53921 12.4142 5.875 12 5.875C11.5858 5.875 11.25 5.53921 11.25 5.125V3.625C11.25 3.21079 11.5858 2.875 12 2.875Z" fill="#323544"/>
<path d="M19.0713 5.80561C19.3642 6.0985 19.3642 6.57337 19.0713 6.86627L18.0107 7.92693C17.7178 8.21982 17.2429 8.21982 16.95 7.92693C16.6571 7.63403 16.6571 7.15916 16.95 6.86627L18.0107 5.80561C18.3036 5.51271 18.7785 5.51271 19.0713 5.80561Z" fill="#323544"/>
<path d="M5.9892 5.80745C5.69631 5.51455 5.22143 5.51455 4.92854 5.80745C4.63565 6.10034 4.63565 6.57521 4.92854 6.86811L5.9892 7.92877C6.28209 8.22166 6.75697 8.22166 7.04986 7.92877C7.34275 7.63587 7.34275 7.161 7.04986 6.86811L5.9892 5.80745Z" fill="#323544"/>
<path d="M6.5 12.875C6.5 9.83743 8.96243 7.375 12 7.375C15.0376 7.375 17.5 9.83743 17.5 12.875C17.5 13.1904 17.4735 13.4996 17.4225 13.8005C15.5225 14.0086 13.6382 14.448 11.8521 15.3454C11.1009 14.919 10.2404 14.5131 9.21729 14.2058C8.41233 13.9641 7.53712 13.7916 6.5615 13.7002C6.52099 13.431 6.5 13.1555 6.5 12.875Z" fill="#323544"/>
<path d="M2.75 12.125C2.33579 12.125 2 12.4608 2 12.875C2 13.2892 2.33579 13.625 2.75 13.625H4.25C4.66421 13.625 5 13.2892 5 12.875C5 12.4608 4.66421 12.125 4.25 12.125H2.75Z" fill="#323544"/>
<path d="M19 12.875C19 12.4608 19.3358 12.125 19.75 12.125H21.25C21.6642 12.125 22 12.4608 22 12.875C22 13.2892 21.6642 13.625 21.25 13.625H19.75C19.3358 13.625 19 13.2892 19 12.875Z" fill="#323544"/>
<path d="M8.78524 15.6423C7.23716 15.1775 5.32042 14.9829 2.6779 15.2381C2.2934 15.2752 2 15.5983 2 15.9846V21.0735C2 21.4877 2.33579 21.8235 2.75 21.8235H21.2496C21.6638 21.8235 21.9996 21.4878 21.9996 21.0737C21.9996 20.6595 21.6631 20.3236 21.2489 20.3236C18.8245 20.3236 17.1543 19.9565 15.8541 19.4415C14.6439 18.9622 13.7277 18.3471 12.7606 17.6977C12.6794 17.6432 12.5977 17.5883 12.5156 17.5334C11.462 16.8285 10.3324 16.1069 8.78524 15.6423Z" fill="#323544"/>
<path d="M22 19.4925L22.0007 15.8752C22.0008 15.6762 21.9218 15.4854 21.7811 15.3447C21.6405 15.204 21.4497 15.125 21.2507 15.125C18.2558 15.125 15.4003 15.3363 12.8271 16.5394C12.9096 16.594 12.9911 16.6484 13.0717 16.7023C13.1542 16.7575 13.2361 16.8124 13.3168 16.8666L13.3181 16.8675C14.2905 17.5205 15.1247 18.0771 16.2223 18.5118C17.3889 18.9738 18.9316 19.3236 21.2489 19.3236C21.5177 19.3236 21.7724 19.3842 22 19.4925Z" fill="#323544"/>
</svg>
