<svg width="80" height="80" viewBox="0 0 24 24" fill="none" xmlns="http://www.w3.org/2000/svg" transform="rotate(0 0 0)"><path d="M11.2499 3.25586H7.87725C7.0644 3.25586 6.31475 3.69428 5.91623 4.40272L3.56133 8.58896H11.2499V3.25586Z" fill="#000000"/><path d="M3.25 10.089V18.505C3.25 19.7477 4.25736 20.755 5.5 20.755H10.8908C10.1699 19.6676 9.75 18.3633 9.75 16.9609C9.75 13.2328 12.7174 10.1978 16.4191 10.089H3.25Z" fill="#000000"/><path d="M18.0838 4.40272L20.4387 8.58896H12.7499V3.25586H16.1228C16.9356 3.25586 17.6852 3.69428 18.0838 4.40272Z" fill="#000000"/><path d="M16.625 11.5859C13.6565 11.5859 11.25 13.9924 11.25 16.9609C11.25 19.9295 13.6565 22.3359 16.625 22.3359C19.5935 22.3359 22 19.9295 22 16.9609C22 13.9924 19.5935 11.5859 16.625 11.5859ZM18.6553 16.5374L16.7477 18.4451C16.607 18.5857 16.4162 18.6647 16.2173 18.6647C16.0184 18.6647 15.8277 18.5857 15.687 18.4451L14.5947 17.3527C14.3018 17.0599 14.3018 16.585 14.5947 16.2921C14.8876 15.9992 15.3624 15.9992 15.6553 16.2921L16.2173 16.8541L17.5947 15.4767C17.8876 15.1839 18.3624 15.1839 18.6553 15.4767C18.9482 15.7696 18.9482 16.2445 18.6553 16.5374Z" fill="#000000"/></svg>