<svg width="80" height="80" viewBox="0 0 24 25" fill="none" xmlns="http://www.w3.org/2000/svg" transform="rotate(0 0 0)"><path d="M14.5312 2.25C14.5312 1.83579 14.1955 1.5 13.7812 1.5C13.367 1.5 13.0312 1.83579 13.0312 2.25V3.01588C13.0312 3.4301 12.6955 3.76588 12.2812 3.76588H11.7188C10.4761 3.76588 9.46876 4.77324 9.46876 6.01587L9.46875 6.25H4.25C3.00736 6.25 2 7.25736 2 8.5V17.5C2 18.7426 3.00736 19.75 4.25 19.75H19.7501C20.9927 19.75 22.0001 18.7426 22.0001 17.5V8.5C22.0001 7.25736 20.9927 6.25 19.7501 6.25H10.9688L10.9688 6.01588C10.9688 5.60167 11.3045 5.26588 11.7188 5.26588H12.2812C13.5239 5.26588 14.5312 4.25852 14.5312 3.01588V2.25ZM5.19141 11C5.19141 10.3096 5.75105 9.75 6.44141 9.75H6.45141C7.14176 9.75 7.70141 10.3096 7.70141 11C7.70141 11.6904 7.14176 12.25 6.45141 12.25H6.44141C5.75105 12.25 5.19141 11.6904 5.19141 11ZM5.97168 14.25H17.9717C18.3859 14.25 18.7217 14.5858 18.7217 15C18.7217 15.4142 18.3859 15.75 17.9717 15.75H5.97168C5.55747 15.75 5.22168 15.4142 5.22168 15C5.22168 14.5858 5.55747 14.25 5.97168 14.25ZM8.89343 11C8.89343 10.3096 9.45308 9.75 10.1434 9.75H10.1534C10.8438 9.75 11.4034 10.3096 11.4034 11C11.4034 11.6904 10.8438 12.25 10.1534 12.25H10.1434C9.45308 12.25 8.89343 11.6904 8.89343 11ZM12.5957 11C12.5957 10.3096 13.1553 9.75 13.8457 9.75H13.8557C14.5461 9.75 15.1057 10.3096 15.1057 11C15.1057 11.6904 14.5461 12.25 13.8557 12.25H13.8457C13.1553 12.25 12.5957 11.6904 12.5957 11ZM16.2979 11C16.2979 10.3096 16.8575 9.75 17.5479 9.75H17.5579C18.2482 9.75 18.8079 10.3096 18.8079 11C18.8079 11.6904 18.2482 12.25 17.5579 12.25H17.5479C16.8575 12.25 16.2979 11.6904 16.2979 11Z" fill="#000000"/></svg>