<?xml version="1.0" encoding="UTF-8" standalone="no"?>
<svg
   width="24"
   height="25"
   viewBox="0 0 24 25"
   fill="none"
   version="1.1"
   id="svg3"
   sodipodi:docname="a.svg"
   inkscape:version="1.3 (0e150ed6c4, 2023-07-21)"
   xmlns:inkscape="http://www.inkscape.org/namespaces/inkscape"
   xmlns:sodipodi="http://sodipodi.sourceforge.net/DTD/sodipodi-0.dtd"
   xmlns="http://www.w3.org/2000/svg"
   xmlns:svg="http://www.w3.org/2000/svg">
  <defs
     id="defs3" />
  <sodipodi:namedview
     id="namedview3"
     pagecolor="#ffffff"
     bordercolor="#000000"
     borderopacity="0.25"
     inkscape:showpageshadow="2"
     inkscape:pageopacity="0.0"
     inkscape:pagecheckerboard="0"
     inkscape:deskcolor="#d1d1d1"
     inkscape:zoom="32.52"
     inkscape:cx="11.977245"
     inkscape:cy="13.207257"
     inkscape:window-width="1920"
     inkscape:window-height="1009"
     inkscape:window-x="-8"
     inkscape:window-y="-8"
     inkscape:window-maximized="1"
     inkscape:current-layer="svg3" />
  <path
     id="path6"
     style="fill:#323544;stroke-width:0.754667"
     d="M 12 2.5 C 6.4774955 2.5 2 6.9777255 2 12.5 C 2 18.022294 6.4774955 22.5 12 22.5 C 17.522394 22.5 22 18.022294 22 12.5 C 22 6.9777155 17.522394 2.5 12 2.5 z M 11.945312 5.2910156 C 12.322049 5.2910156 12.635633 5.3639322 12.884766 5.5097656 C 13.139974 5.6495227 13.342231 5.8318141 13.494141 6.0566406 C 13.652127 6.2814672 13.78342 6.5238713 13.886719 6.7851562 C 13.996094 7.0403648 14.132812 7.3849823 14.296875 7.8164062 L 17.787109 16.4375 C 18.060547 17.093751 18.197266 17.571397 18.197266 17.869141 C 18.197266 18.179037 18.067926 18.465278 17.806641 18.726562 C 17.551432 18.981771 17.241537 19.109375 16.876953 19.109375 C 16.664279 19.109375 16.481988 19.069227 16.330078 18.990234 C 16.178168 18.917318 16.050564 18.817057 15.947266 18.689453 C 15.843967 18.555772 15.730903 18.355252 15.609375 18.087891 C 15.493924 17.814453 15.393663 17.573785 15.308594 17.367188 L 14.669922 15.691406 L 9.2382812 15.691406 L 8.5996094 17.404297 C 8.3504772 18.0727 8.139106 18.524739 7.9628906 18.761719 C 7.7866752 18.992622 7.4967451 19.109375 7.0957031 19.109375 C 6.7554251 19.109375 6.4546443 18.983507 6.1933594 18.734375 C 5.9320744 18.485243 5.8027344 18.202691 5.8027344 17.886719 C 5.8027344 17.704427 5.8318142 17.51671 5.8925781 17.322266 C 5.9533421 17.127821 6.0536023 16.858073 6.1933594 16.511719 L 9.6113281 7.8339844 C 9.7085504 7.5848522 9.8253037 7.2877607 9.9589844 6.9414062 C 10.098741 6.5889754 10.244575 6.2973092 10.396484 6.0664062 C 10.554471 5.8355033 10.756727 5.6495227 11.005859 5.5097656 C 11.261068 5.3639322 11.574652 5.2910156 11.945312 5.2910156 z M 11.927734 8.1445312 L 9.9492188 13.658203 L 13.941406 13.658203 L 11.927734 8.1445312 z " />
</svg>
