<?xml version="1.0" encoding="UTF-8" standalone="no"?>
<svg
   width="24"
   height="25"
   viewBox="0 0 24 25"
   fill="none"
   version="1.1"
   id="svg3"
   sodipodi:docname="b.svg"
   inkscape:version="1.3 (0e150ed6c4, 2023-07-21)"
   xmlns:inkscape="http://www.inkscape.org/namespaces/inkscape"
   xmlns:sodipodi="http://sodipodi.sourceforge.net/DTD/sodipodi-0.dtd"
   xmlns="http://www.w3.org/2000/svg"
   xmlns:svg="http://www.w3.org/2000/svg">
  <defs
     id="defs3" />
  <sodipodi:namedview
     id="namedview3"
     pagecolor="#ffffff"
     bordercolor="#000000"
     borderopacity="0.25"
     inkscape:showpageshadow="2"
     inkscape:pageopacity="0.0"
     inkscape:pagecheckerboard="0"
     inkscape:deskcolor="#d1d1d1"
     inkscape:zoom="32.52"
     inkscape:cx="12.02337"
     inkscape:cy="12.899754"
     inkscape:window-width="1920"
     inkscape:window-height="1009"
     inkscape:window-x="1912"
     inkscape:window-y="-8"
     inkscape:window-maximized="1"
     inkscape:current-layer="svg3" />
  <path
     id="path4"
     style="fill:#323544;stroke-width:0.754667"
     d="M 12 2.5 C 6.4774955 2.5 2 6.9777255 2 12.5 C 2 18.022294 6.4774955 22.5 12 22.5 C 17.522394 22.5 22 18.022294 22 12.5 C 22 6.9777155 17.522394 2.5 12 2.5 z M 8.3886719 5.5195312 L 12.71875 5.5195312 C 13.356771 5.5195312 13.909071 5.5577256 14.376953 5.6367188 C 14.844835 5.7157119 15.264106 5.8689234 15.634766 6.09375 C 15.950738 6.2821182 16.231554 6.5208331 16.474609 6.8125 C 16.717665 7.0980905 16.901693 7.4171004 17.029297 7.7695312 C 17.156901 8.1158857 17.220703 8.4841577 17.220703 8.8730469 C 17.220703 10.209854 16.553604 11.188802 15.216797 11.808594 C 16.972875 12.367622 17.849609 13.453992 17.849609 15.070312 C 17.849609 15.817709 17.658203 16.492187 17.275391 17.09375 C 16.892578 17.689237 16.376737 18.130425 15.726562 18.416016 C 15.319444 18.586155 14.850912 18.708333 14.322266 18.78125 C 13.793619 18.84809 13.177518 18.880859 12.472656 18.880859 L 8.3886719 18.880859 C 7.7992617 18.880859 7.3782554 18.749566 7.1230469 18.488281 C 6.8739147 18.22092 6.7480469 17.799914 6.7480469 17.222656 L 6.7480469 7.1777344 C 6.7480469 6.5883242 6.8756508 6.1653648 7.1308594 5.9101562 C 7.3921443 5.6488713 7.8114145 5.5195313 8.3886719 5.5195312 z M 9.4550781 7.5507812 L 9.4550781 11.005859 L 11.935547 11.005859 C 12.610027 11.005859 13.129557 10.942057 13.494141 10.814453 C 13.864801 10.686849 14.147352 10.444445 14.341797 10.085938 C 14.493707 9.830729 14.568359 9.5444881 14.568359 9.2285156 C 14.568359 8.5540359 14.329644 8.1074221 13.849609 7.8886719 C 13.369574 7.6638453 12.63672 7.5507813 11.652344 7.5507812 L 9.4550781 7.5507812 z M 9.4550781 12.947266 L 9.4550781 16.847656 L 12.363281 16.847656 C 14.192276 16.847656 15.107422 16.189671 15.107422 14.871094 C 15.107422 14.196614 14.870443 13.706163 14.396484 13.402344 C 13.922526 13.098524 13.213325 12.947266 12.271484 12.947266 L 9.4550781 12.947266 z " />
</svg>
