<?xml version="1.0" encoding="UTF-8" standalone="no"?>
<svg
   width="24"
   height="25"
   viewBox="0 0 24 25"
   fill="none"
   version="1.1"
   id="svg3"
   sodipodi:docname="c.svg"
   inkscape:version="1.3 (0e150ed6c4, 2023-07-21)"
   xmlns:inkscape="http://www.inkscape.org/namespaces/inkscape"
   xmlns:sodipodi="http://sodipodi.sourceforge.net/DTD/sodipodi-0.dtd"
   xmlns="http://www.w3.org/2000/svg"
   xmlns:svg="http://www.w3.org/2000/svg">
  <defs
     id="defs3" />
  <sodipodi:namedview
     id="namedview3"
     pagecolor="#ffffff"
     bordercolor="#000000"
     borderopacity="0.25"
     inkscape:showpageshadow="2"
     inkscape:pageopacity="0.0"
     inkscape:pagecheckerboard="0"
     inkscape:deskcolor="#d1d1d1"
     inkscape:zoom="32.52"
     inkscape:cx="12.02337"
     inkscape:cy="12.899754"
     inkscape:window-width="1920"
     inkscape:window-height="1009"
     inkscape:window-x="1912"
     inkscape:window-y="-8"
     inkscape:window-maximized="1"
     inkscape:current-layer="svg3" />
  <path
     id="path4"
     style="fill:#323544;stroke-width:0.754667"
     d="M 12 2.5 C 6.4774955 2.5 2 6.9777255 2 12.5 C 2 18.022294 6.4774955 22.5 12 22.5 C 17.522394 22.5 22 18.022294 22 12.5 C 22 6.9777155 17.522394 2.5 12 2.5 z M 12.214844 5.2910156 C 13.296442 5.2910156 14.258897 5.506076 15.103516 5.9375 C 15.948134 6.368924 16.595269 6.9049474 17.044922 7.5429688 C 17.494575 8.1749137 17.720703 8.772786 17.720703 9.3378906 C 17.720703 9.6477867 17.611328 9.9212238 17.392578 10.158203 C 17.173828 10.395182 16.909505 10.513672 16.599609 10.513672 C 16.253255 10.513672 15.990669 10.431641 15.814453 10.267578 C 15.644314 10.103515 15.452908 9.8209639 15.240234 9.4199219 C 14.887804 8.757595 14.472223 8.261719 13.992188 7.9335938 C 13.518229 7.6054685 12.931207 7.4414062 12.232422 7.4414062 C 11.120442 7.4414062 10.234593 7.8643656 9.5722656 8.7089844 C 8.9160151 9.5536031 8.5878906 10.753037 8.5878906 12.308594 C 8.5878906 13.347657 8.7337237 14.213541 9.0253906 14.90625 C 9.3170575 15.592882 9.7289492 16.106988 10.263672 16.447266 C 10.798395 16.787544 11.425564 16.957031 12.142578 16.957031 C 12.920357 16.957031 13.576605 16.765625 14.111328 16.382812 C 14.652127 15.993923 15.058594 15.427084 15.332031 14.679688 C 15.447483 14.327257 15.589627 14.041016 15.759766 13.822266 C 15.929905 13.597439 16.203342 13.484375 16.580078 13.484375 C 16.902127 13.484375 17.179253 13.597439 17.410156 13.822266 C 17.641059 14.047092 17.755859 14.325955 17.755859 14.660156 C 17.755859 15.085504 17.650174 15.548611 17.4375 16.046875 C 17.230903 16.539063 16.902778 17.023871 16.453125 17.503906 C 16.003472 17.977865 15.429254 18.364366 14.730469 18.662109 C 14.031683 18.959853 13.216798 19.109375 12.287109 19.109375 C 11.582248 19.109375 10.942492 19.041884 10.365234 18.908203 C 9.787977 18.774522 9.2610681 18.568577 8.7871094 18.289062 C 8.3192271 18.003472 7.8891062 17.629775 7.4941406 17.167969 C 7.1417098 16.748698 6.840929 16.280165 6.5917969 15.763672 C 6.3426647 15.241102 6.1529949 14.685113 6.0253906 14.095703 C 5.9038627 13.506293 5.84375 12.881077 5.84375 12.21875 C 5.84375 11.143228 5.9986977 10.17882 6.3085938 9.328125 C 6.6245662 8.4774299 7.0748693 7.7519536 7.6582031 7.1503906 C 8.2415369 6.5427512 8.9251296 6.0815975 9.7089844 5.765625 C 10.492839 5.4496525 11.32769 5.2910156 12.214844 5.2910156 z " />
</svg>
