<svg width="24" height="24" viewBox="0 0 24 24" fill="none" xmlns="http://www.w3.org/2000/svg">
<path d="M2 12C2 6.47715 6.47719 2 12 2C17.5229 2 22.0001 6.47715 22.0001 12C22.0001 17.5229 17.5229 22 12 22C6.47719 22 2 17.5229 2 12ZM8.00024 10.7441C7.30989 10.7441 6.75024 11.3038 6.75024 11.9941V12.0041C6.75024 12.6945 7.30989 13.2541 8.00024 13.2541C8.6906 13.2541 9.25024 12.6945 9.25024 12.0041V11.9941C9.25024 11.3038 8.6906 10.7441 8.00024 10.7441ZM16.0002 10.7441C15.3099 10.7441 14.7502 11.3038 14.7502 11.9941V12.0041C14.7502 12.6945 15.3099 13.2541 16.0002 13.2541C16.6906 13.2541 17.2502 12.6945 17.2502 12.0041V11.9941C17.2502 11.3038 16.6906 10.7441 16.0002 10.7441ZM13.2502 11.9941C13.2502 11.3038 12.6906 10.7441 12.0002 10.7441C11.3099 10.7441 10.7502 11.3038 10.7502 11.9941V12.0041C10.7502 12.6945 11.3099 13.2541 12.0002 13.2541C12.6906 13.2541 13.2502 12.6945 13.2502 12.0041V11.9941Z" fill="#323544"/>
</svg>
