<?xml version="1.0" encoding="UTF-8" standalone="no"?>
<svg
   width="24"
   height="25"
   viewBox="0 0 24 25"
   fill="none"
   version="1.1"
   id="svg3"
   sodipodi:docname="x.svg"
   inkscape:version="1.3 (0e150ed6c4, 2023-07-21)"
   xmlns:inkscape="http://www.inkscape.org/namespaces/inkscape"
   xmlns:sodipodi="http://sodipodi.sourceforge.net/DTD/sodipodi-0.dtd"
   xmlns="http://www.w3.org/2000/svg"
   xmlns:svg="http://www.w3.org/2000/svg">
  <defs
     id="defs3" />
  <sodipodi:namedview
     id="namedview3"
     pagecolor="#ffffff"
     bordercolor="#000000"
     borderopacity="0.25"
     inkscape:showpageshadow="2"
     inkscape:pageopacity="0.0"
     inkscape:pagecheckerboard="0"
     inkscape:deskcolor="#d1d1d1"
     inkscape:zoom="32.52"
     inkscape:cx="12.02337"
     inkscape:cy="12.899754"
     inkscape:window-width="1920"
     inkscape:window-height="1009"
     inkscape:window-x="1912"
     inkscape:window-y="-8"
     inkscape:window-maximized="1"
     inkscape:current-layer="svg3" />
  <path
     id="path4"
     style="fill:#323544;stroke-width:0.754667"
     d="M 12 2.5 C 6.4774955 2.5 2 6.9777255 2 12.5 C 2 18.022294 6.4774955 22.5 12 22.5 C 17.522394 22.5 22 18.022294 22 12.5 C 22 6.9777155 17.522394 2.5 12 2.5 z M 8.3125 5.2910156 C 8.6892364 5.2910156 8.9809026 5.4040797 9.1875 5.6289062 C 9.4001738 5.8476564 9.69184 6.257812 10.0625 6.859375 L 12.068359 10.103516 L 14.210938 6.859375 C 14.387153 6.5859373 14.534722 6.3506946 14.65625 6.15625 C 14.783854 5.9618054 14.906033 5.8014324 15.021484 5.6738281 C 15.136936 5.5462239 15.26454 5.4513889 15.404297 5.390625 C 15.55013 5.3237847 15.717882 5.2910156 15.90625 5.2910156 C 16.246528 5.2910156 16.521701 5.3949651 16.734375 5.6015625 C 16.953125 5.8020835 17.0625 6.0407984 17.0625 6.3203125 C 17.0625 6.7274309 16.82921 7.2816835 16.361328 7.9804688 L 13.726562 11.917969 L 16.5625 16.283203 C 16.817709 16.666016 17.001736 16.985026 17.117188 17.240234 C 17.232639 17.489367 17.291016 17.726345 17.291016 17.951172 C 17.291016 18.163846 17.240017 18.358941 17.136719 18.535156 C 17.03342 18.711372 16.887587 18.849826 16.699219 18.953125 C 16.510851 19.056424 16.297526 19.109375 16.060547 19.109375 C 15.805338 19.109375 15.590278 19.054688 15.414062 18.945312 C 15.237847 18.842014 15.09375 18.710721 14.984375 18.552734 C 14.875 18.394748 14.672743 18.088542 14.375 17.632812 L 12.023438 13.931641 L 9.5253906 17.742188 C 9.330946 18.046007 9.1905383 18.257378 9.1054688 18.378906 C 9.0264756 18.500434 8.9299046 18.618924 8.8144531 18.734375 C 8.6990016 18.849826 8.5622831 18.940972 8.4042969 19.007812 C 8.2463106 19.074653 8.06033 19.109375 7.8476562 19.109375 C 7.519531 19.109375 7.2460939 19.009115 7.0273438 18.808594 C 6.81467 18.608073 6.7089844 18.316407 6.7089844 17.933594 C 6.7089844 17.483941 6.9314233 16.933377 7.375 16.283203 L 10.363281 11.917969 L 7.8476562 8.0351562 C 7.6106769 7.6584198 7.4320748 7.3357207 7.3105469 7.0683594 C 7.1950954 6.7949217 7.1367188 6.5342884 7.1367188 6.2851562 C 7.1367188 6.0299477 7.2497828 5.8020835 7.4746094 5.6015625 C 7.7055123 5.3949651 7.9843747 5.2910156 8.3125 5.2910156 z " />
</svg>
