<?xml version="1.0" encoding="UTF-8" standalone="no"?>
<svg
   width="24"
   height="25"
   viewBox="0 0 24 25"
   fill="none"
   version="1.1"
   id="svg3"
   sodipodi:docname="y.svg"
   inkscape:version="1.3 (0e150ed6c4, 2023-07-21)"
   xmlns:inkscape="http://www.inkscape.org/namespaces/inkscape"
   xmlns:sodipodi="http://sodipodi.sourceforge.net/DTD/sodipodi-0.dtd"
   xmlns="http://www.w3.org/2000/svg"
   xmlns:svg="http://www.w3.org/2000/svg">
  <defs
     id="defs3" />
  <sodipodi:namedview
     id="namedview3"
     pagecolor="#ffffff"
     bordercolor="#000000"
     borderopacity="0.25"
     inkscape:showpageshadow="2"
     inkscape:pageopacity="0.0"
     inkscape:pagecheckerboard="0"
     inkscape:deskcolor="#d1d1d1"
     inkscape:zoom="32.52"
     inkscape:cx="12.02337"
     inkscape:cy="12.899754"
     inkscape:window-width="1920"
     inkscape:window-height="1009"
     inkscape:window-x="1912"
     inkscape:window-y="-8"
     inkscape:window-maximized="1"
     inkscape:current-layer="svg3" />
  <path
     id="path4"
     style="fill:#323544;stroke-width:0.754667"
     d="M 12 2.5 C 6.4774955 2.5 2 6.9777255 2 12.5 C 2 18.022294 6.4774955 22.5 12 22.5 C 17.522394 22.5 22 18.022294 22 12.5 C 22 6.9777155 17.522394 2.5 12 2.5 z M 7.8164062 5.2910156 C 8.1870663 5.2910156 8.4659287 5.3967012 8.6542969 5.609375 C 8.8487415 5.8159724 9.1386716 6.2335064 9.5214844 6.859375 L 12.017578 10.914062 L 14.542969 6.859375 C 14.694879 6.6102429 14.822483 6.4006078 14.925781 6.2304688 C 15.02908 6.0603297 15.142144 5.9016928 15.263672 5.7558594 C 15.391276 5.6039495 15.529731 5.4891494 15.681641 5.4101562 C 15.83355 5.3311631 16.019531 5.2910156 16.238281 5.2910156 C 16.578559 5.2910156 16.861111 5.4040797 17.085938 5.6289062 C 17.31684 5.8476564 17.431641 6.1028643 17.431641 6.3945312 C 17.431641 6.6315106 17.375217 6.8684894 17.259766 7.1054688 C 17.144314 7.3424481 16.94553 7.6705726 16.666016 8.0898438 L 13.322266 13.220703 L 13.322266 17.458984 C 13.322266 18.011936 13.194662 18.425781 12.939453 18.699219 C 12.684245 18.972656 12.357856 19.109375 11.962891 19.109375 C 11.561849 19.109375 11.237413 18.974393 10.988281 18.707031 C 10.739149 18.433594 10.615234 18.018013 10.615234 17.458984 L 10.615234 13.220703 L 7.3515625 8.1621094 C 7.065972 7.7063798 6.8617623 7.3509117 6.7402344 7.0957031 C 6.6247829 6.8404946 6.5683594 6.6180557 6.5683594 6.4296875 C 6.5683594 6.1197914 6.6868488 5.8537328 6.9238281 5.6289062 C 7.1668839 5.4040797 7.4639754 5.2910156 7.8164062 5.2910156 z " />
</svg>
