<?xml version="1.0" encoding="UTF-8" standalone="no"?>
<svg
   width="24"
   height="25"
   viewBox="0 0 24 25"
   fill="none"
   version="1.1"
   id="svg3"
   sodipodi:docname="z.svg"
   inkscape:version="1.3 (0e150ed6c4, 2023-07-21)"
   xmlns:inkscape="http://www.inkscape.org/namespaces/inkscape"
   xmlns:sodipodi="http://sodipodi.sourceforge.net/DTD/sodipodi-0.dtd"
   xmlns="http://www.w3.org/2000/svg"
   xmlns:svg="http://www.w3.org/2000/svg">
  <defs
     id="defs3" />
  <sodipodi:namedview
     id="namedview3"
     pagecolor="#ffffff"
     bordercolor="#000000"
     borderopacity="0.25"
     inkscape:showpageshadow="2"
     inkscape:pageopacity="0.0"
     inkscape:pagecheckerboard="0"
     inkscape:deskcolor="#d1d1d1"
     inkscape:zoom="32.52"
     inkscape:cx="12.007995"
     inkscape:cy="12.930504"
     inkscape:window-width="1920"
     inkscape:window-height="1009"
     inkscape:window-x="-8"
     inkscape:window-y="-8"
     inkscape:window-maximized="1"
     inkscape:current-layer="svg3" />
  <path
     id="path4"
     style="fill:#323544;stroke-width:0.754667"
     d="M 12 2.5 C 6.4774955 2.5 2 6.9777255 2 12.5 C 2 18.022294 6.4774955 22.5 12 22.5 C 17.522394 22.5 22 18.022294 22 12.5 C 22 6.9777155 17.522394 2.5 12 2.5 z M 8.1074219 5.5195312 L 15.708984 5.5195312 C 16.69336 5.5195312 17.185547 5.9769958 17.185547 6.8945312 C 17.185547 7.3320316 17.103516 7.6820744 16.939453 7.9433594 C 16.77539 8.2046443 16.44553 8.6276037 15.947266 9.2109375 L 9.5292969 16.847656 L 16.603516 16.847656 C 17.022787 16.847656 17.334418 16.937066 17.541016 17.113281 C 17.747613 17.28342 17.851562 17.522135 17.851562 17.832031 C 17.851562 18.15408 17.747613 18.409288 17.541016 18.597656 C 17.334418 18.786024 17.022787 18.880859 16.603516 18.880859 L 7.9257812 18.880859 C 7.3363711 18.880859 6.8934464 18.749566 6.5957031 18.488281 C 6.2979598 18.22092 6.1484375 17.865452 6.1484375 17.421875 C 6.1484375 17.269965 6.172092 17.131511 6.2207031 17.003906 C 6.2693143 16.876302 6.3331163 16.757813 6.4121094 16.648438 C 6.4971789 16.532986 6.6139322 16.388889 6.7597656 16.21875 C 6.9055991 16.042535 7.033203 15.891276 7.1425781 15.763672 L 14.005859 7.5507812 L 8.1074219 7.5507812 C 7.6942271 7.5507812 7.3825957 7.4596356 7.1699219 7.2773438 C 6.9633245 7.0950519 6.859375 6.856337 6.859375 6.5585938 C 6.859375 6.2486977 6.9633245 5.9989151 7.1699219 5.8105469 C 7.3825957 5.6161023 7.6942271 5.5195312 8.1074219 5.5195312 z " />
</svg>
