<svg width="80" height="80" viewBox="0 0 24 24" fill="none" xmlns="http://www.w3.org/2000/svg" transform="rotate(0 0 0)"><path d="M4 5.5C4 4.25736 5.00736 3.25 6.25 3.25H17.7499C18.9926 3.25 19.9999 4.25736 19.9999 5.5V11.7929C19.5123 11.5902 19.0101 11.4334 18.4999 11.3224V5.5C18.4999 5.08579 18.1641 4.75 17.7499 4.75H6.25C5.83579 4.75 5.5 5.08579 5.5 5.5V12.7725C5.60429 12.7577 5.71053 12.75 5.8181 12.75H11.5276C11.1374 13.0287 10.7649 13.3433 10.4146 13.6935C9.53595 14.5722 9.53594 15.9968 10.4146 16.8755C10.8457 17.3066 11.4082 17.5262 11.9731 17.5343C11.9651 18.0812 12.1553 18.6325 12.5499 19.0713C13.0313 19.6067 13.7113 19.8572 14.3779 19.8116C14.376 19.8501 14.375 19.8888 14.375 19.9277C14.375 20.2179 14.43 20.4953 14.5301 20.75H4.60656C3.05991 20.75 1.97441 19.2256 2.48034 17.764L3.69188 14.264C3.76613 14.0495 3.87079 13.8515 4 13.6743V5.5Z" fill="#000000"/><path d="M12.5359 15.8149C14.7943 13.5565 18.4558 13.5565 20.7142 15.8149C21.0071 16.1078 21.4819 16.1078 21.7748 15.8149C22.0677 15.522 22.0677 15.0471 21.7748 14.7542C18.9307 11.9101 14.3194 11.9101 11.4753 14.7542C11.1824 15.0471 11.1824 15.522 11.4753 15.8149C11.7682 16.1078 12.2431 16.1078 12.5359 15.8149Z" fill="#000000"/><path d="M14.7244 18.1245C15.8031 17.1545 17.4466 17.1545 18.5253 18.1245C18.8333 18.4015 19.3075 18.3763 19.5845 18.0683C19.8614 17.7604 19.8363 17.2861 19.5283 17.0092C17.8792 15.5262 15.3704 15.5262 13.7214 17.0092C13.4134 17.2861 13.3883 17.7604 13.6652 18.0683C13.9422 18.3763 14.4164 18.4015 14.7244 18.1245Z" fill="#000000"/><path d="M16.625 19.1277C16.1831 19.1277 15.825 19.4859 15.825 19.9277C15.825 20.3695 16.1831 20.7277 16.625 20.7277C17.0668 20.7277 17.426 20.3695 17.426 19.9277C17.426 19.4859 17.0668 19.1277 16.625 19.1277Z" fill="#000000"/></svg>