<svg width="80" height="80" viewBox="0 0 24 24" fill="none" xmlns="http://www.w3.org/2000/svg" transform="rotate(0 0 0)"><path d="M9.09261 5.51483C10.6983 3.90912 13.3017 3.90912 14.9074 5.51483C15.2003 5.80772 15.6752 5.80772 15.9681 5.51483C16.261 5.22194 16.261 4.74706 15.9681 4.45417C13.7766 2.26267 10.2234 2.26267 8.03195 4.45417C7.73905 4.74706 7.73905 5.22194 8.03195 5.51483C8.32484 5.80772 8.79971 5.80772 9.09261 5.51483Z" fill="#000000"/><path d="M11.9994 7.63991C11.5576 7.63991 11.1994 7.99808 11.1994 8.43991C11.1994 8.88174 11.5576 9.23991 11.9994 9.23991C12.4412 9.23991 12.8002 8.88174 12.8002 8.43991C12.8002 7.99808 12.4412 7.63991 11.9994 7.63991Z" fill="#000000"/><path d="M10.7138 7.24064C11.4437 6.58433 12.556 6.58433 13.2858 7.24064C13.5938 7.51761 14.068 7.49246 14.345 7.18447C14.622 6.87647 14.5968 6.40227 14.2888 6.1253C12.9887 4.95611 11.011 4.95612 9.71085 6.1253C9.40286 6.40227 9.37771 6.87647 9.65468 7.18447C9.93165 7.49246 10.4059 7.51761 10.7138 7.24064Z" fill="#000000"/><path d="M5.275 10.8957C6.075 10.2957 7.175 10.2957 7.975 10.8957L10.35 12.6769C10.9166 13.1018 11.25 13.7687 11.25 14.4769V17.2506C11.25 18.4932 10.2426 19.5006 9 19.5006H4.25C3.00736 19.5006 2 18.4932 2 17.2506V14.4769C2 13.7687 2.33344 13.1018 2.9 12.6769L5.275 10.8957Z" fill="#000000"/><path d="M18.725 10.8957C17.925 10.2957 16.825 10.2957 16.025 10.8957L13.65 12.6769C13.0834 13.1018 12.75 13.7687 12.75 14.4769V17.2506C12.75 18.4932 13.7574 19.5006 15 19.5006H19.75C20.9926 19.5006 22 18.4932 22 17.2506V14.4769C22 13.7687 21.6666 13.1018 21.1 12.6769L18.725 10.8957Z" fill="#000000"/></svg>