<svg width="80" height="80" viewBox="0 0 25 25" fill="none" xmlns="http://www.w3.org/2000/svg" transform="rotate(0 0 0)"><path d="M10.6498 4.7679C11.4751 3.0956 13.8598 3.0956 14.6851 4.7679L16.0769 7.58792C16.1861 7.80928 16.3973 7.9627 16.6416 7.9982L19.7537 8.45041C21.5991 8.71858 22.336 10.9865 21.0006 12.2882L18.7487 14.4833C18.5719 14.6556 18.4913 14.9039 18.533 15.1471L19.0646 18.2466C19.3799 20.0847 17.4506 21.4863 15.8 20.6185L13.0165 19.1552C12.798 19.0403 12.5369 19.0403 12.3184 19.1552L9.53492 20.6185C7.88426 21.4863 5.95504 20.0847 6.27029 18.2466L6.80189 15.1471C6.84362 14.9039 6.76296 14.6556 6.58619 14.4833L4.33428 12.2882C2.99886 10.9865 3.73576 8.71858 5.58126 8.45041L8.69333 7.9982C8.93761 7.9627 9.14879 7.80928 9.25803 7.58792L10.6498 4.7679ZM15.5742 12.3888C15.8671 12.6817 16.342 12.6817 16.6349 12.3888C16.9278 12.0959 16.9278 11.6211 16.6349 11.3282C14.4434 9.13667 10.8903 9.13667 8.69878 11.3282C8.40589 11.6211 8.40589 12.0959 8.69878 12.3888C8.99167 12.6817 9.46655 12.6817 9.75944 12.3888C11.3652 10.7831 13.9685 10.7831 15.5742 12.3888ZM11.8662 15.3139C11.8662 15.7557 12.2244 16.1139 12.6662 16.1139C13.1081 16.1139 13.467 15.7557 13.467 15.3139C13.467 14.8721 13.1081 14.5139 12.6662 14.5139C12.2244 14.5139 11.8662 14.8721 11.8662 15.3139ZM11.3807 14.1146C12.1105 13.4583 13.2228 13.4583 13.9527 14.1146C14.2607 14.3916 14.7349 14.3665 15.0118 14.0585C15.2888 13.7505 15.2637 13.2763 14.9557 12.9993C13.6555 11.8301 11.6778 11.8301 10.3777 12.9993C10.0697 13.2763 10.0445 13.7505 10.3215 14.0585C10.5985 14.3665 11.0727 14.3916 11.3807 14.1146Z" fill="#000000"/></svg>