<svg version="1.2" xmlns="http://www.w3.org/2000/svg" viewBox="0 0 512 512" width="512" height="512"><style>.a{opacity:1;fill:#020201}</style><path fill-rule="evenodd" class="a" d="m458.2 51.1c0.8-0.1 2.9 1.3 4.8 3.1 1.9 1.7 4.8 6.3 6.5 10.1 1.6 3.8 5 13.9 7.4 22.4 2.4 8.4 5.6 22.2 7.1 30.7 1.4 8.4 3.4 23.2 4.3 32.8 1 9.6 1.7 30.7 1.7 46.8 0 16.1-0.7 36.9-1.6 46.1-1 9.2-2.7 22.4-3.9 29.3-1.2 6.9-3.4 17.6-4.9 23.8-1.5 6.1-4.3 16.2-6.3 22.3-2 6.2-5.4 14.6-7.5 18.9-2.1 4.2-5 8.8-6.4 10.2-1.8 1.8-3.8 2.3-6.4 1.8-3.4-0.8-4.5-2.5-9-14.5-2.8-7.5-7.6-18.6-10.6-24.8-3.1-6.1-8.1-14.9-11.2-19.5-3.1-4.6-11.4-14.1-18.4-21-8.2-8-17-15-24.6-19.5-6.5-3.8-17.1-9-23.7-11.4-6.5-2.5-18.1-5.7-25.8-7.2-7.7-1.6-17.3-3.2-28.6-4.5v36.3h-39.1v-36.3l-25.9 0.7-0.7 35.6h-39.1v-36.3h-25.1v35.6l-16.4 1c-9.1 0.5-17.9 1.3-19.6 1.7-3.1 0.8-3.1 0.8-3.1-15.9 0-14-0.4-16.8-2.1-16.8-1.2 0-5.9 1.9-10.5 4.2-4.6 2.3-11.3 6.9-14.9 10.1-3.6 3.3-9 9.7-11.9 14.3-3 4.7-5.4 7.8-5.4 7 0.1-0.7 1-5.3 2.2-10.1 1.1-4.8 4-12.7 6.4-17.5 2.6-5 7.8-11.9 12.3-16.4 4.4-4.2 12-9.6 16.9-12.1 5-2.4 12.8-5.4 17.4-6.6 4.6-1.2 16.6-2.8 26.6-3.5 10-0.7 34.8-1.7 55.1-2.2 20.4-0.4 48.4-1.4 62.2-2.2 13.8-0.8 31.1-2.3 38.4-3.5 7.3-1.1 19.2-3.7 26.5-5.7 7.3-1.9 18.7-5.9 25.2-8.7 6.5-2.8 16.3-8 21.6-11.5 5.4-3.4 14.5-10.3 20.2-15.3 5.7-4.9 14.5-13.9 19.6-19.8 5-6 9.5-10.4 10-9.8 0.5 0.6 1.9 9.2 3.3 19.2 1.3 10 2.7 31.4 3.1 47.5 0.4 16.4 0 38-0.8 48.9-0.9 10.8-2.6 25.8-3.7 33.5-1.2 7.7-2.4 15.1-2.8 16.4-0.6 2.3-1 2.3-4.2 0.4-1.9-1.2-3.3-1.6-3.1-1 0.2 0.7 3.5 7.3 14.3 28.4l1.8-5.3c1.1-3 3.4-12.3 5.2-20.7 1.8-8.5 4.4-23.6 5.7-33.5 1.8-13.5 2.5-27.8 2.5-55.2 0.1-27.4-0.5-42.3-2.4-57.3-1.4-11.1-3.6-26.2-5.1-33.5-1.4-7.3-3.2-15.9-5.6-25.1l-7.2 10.8c-3.9 5.9-10.8 15.2-15.2 20.6-4.4 5.4-12.6 14.2-18.3 19.6-5.6 5.4-15 13.1-20.8 17.1-5.7 4.1-15.8 10-22.3 13.1-6.5 3.2-15.3 7-19.6 8.4-4.2 1.5-12.4 3.9-18.1 5.3-5.8 1.5-16.8 3.7-24.5 4.8-7.6 1.2-23.7 2.8-35.6 3.6-11.9 0.8-43.6 2-70.5 2.8-37.5 1.1-51.8 2-61.5 4-8.5 1.7-16.4 4.6-24.4 8.7-7.8 4.1-14.8 9.1-20.6 14.9-6.7 6.7-10.2 11.8-14.9 21.6-3.4 7.2-7 16.4-8 20.6-1.3 5.1-1.9 16.8-1.9 34.3 0 24 0.3 27.4 3.2 36.3 1.8 5.4 5.9 13.5 9.1 18 3.6 5.1 9.3 10.7 14.6 14.4 4.8 3.3 12 7 16 8.3 5.9 1.9 14.6 2.5 43 2.9 19.6 0.2 37 0.7 38.8 1.1 1.7 0.4 5 2.2 7.3 4.2 2.4 2 4.5 5.3 5 8 0.4 2.5 0.1 6.1-0.7 8-0.8 2-3.2 4.3-5.3 5.4-3 1.4-12.9 1.7-44.4 1.2-39.1-0.5-40.9-0.6-51.7-4.1-6.3-2.1-15.7-6.7-21.6-10.6-5.8-3.8-13.2-9.9-16.5-13.7-3.3-3.7-8.4-11.5-11.3-17.3-2.9-5.7-6.5-15.5-8-21.6-2.2-9.1-2.6-16.4-2.6-39.1 0-24.2 0.4-29.6 3.2-40.5 1.7-7 5.9-18.3 9.3-25.2 3.4-6.9 9.2-16.2 12.9-20.6 3.7-4.4 10.1-10.9 14.4-14.4 4.2-3.5 12.7-8.8 18.8-11.8 6.2-3.1 16.2-6.9 22.4-8.4 6.9-1.8 19.5-3.4 33.5-4.2 12.3-0.7 34.6-1.3 49.6-1.3 14.9 0 38.8-0.7 53-1.5 14.3-0.8 32.8-2.4 41.2-3.6 8.5-1.2 22-4.1 30.1-6.4 8-2.3 20.3-7 27.2-10.5 6.9-3.5 16.4-8.9 21-12 4.6-3.2 12.7-9.9 18-14.9 5.2-5 14.1-15.1 19.6-22.4 5.5-7.3 14.3-20.6 19.7-29.6 5.3-9 11-17 12.5-17.7 1.5-0.8 3.4-1.4 4.2-1.5zm-209.5 220.8c75.9-0.1 101.6 0.4 109.6 1.8 6.1 1 15.2 4 21.7 7.1 8.5 4.1 13.5 7.8 21.3 15.6 7.5 7.6 11.5 13.2 15.7 21.8 3.1 6.3 6.6 16.2 7.8 22 1.7 8.2 2.1 17 1.6 40.5-0.5 27.3-0.8 30.7-3.8 38.4-1.8 4.6-5.3 11.5-7.8 15.3-2.5 3.9-7.2 9.3-10.6 12.1-3.3 2.7-8.9 6.4-12.4 8.2-3.4 1.7-9.1 4-12.5 5.1-4.9 1.4-20.5 1.9-134.1 1.9l4.5-3.8c2.5-2.1 6.3-5.8 8.4-8.1 2.1-2.3 4.2-5.4 4.6-7 0.5-1.5 0.6-5.5-0.1-15l-4.8 7.4c-2.7 4.1-7.4 9.4-10.5 11.9-3.1 2.5-8.1 5.7-11.2 7.3-3.1 1.5-9 3.8-13.3 5-6.4 1.9-15.5 2.3-55.8 2.3-45.3 0-48.8-0.1-58-2.9-5.4-1.7-12.3-4.5-15.4-6.3-3-1.8-8.5-6.3-12.1-10-3.6-3.6-8.1-9.8-10.1-13.6-1.9-3.9-4.5-11.4-5.6-16.8-1.2-5.4-2.2-14.5-2.3-30.7l5.6 5.2c3.1 2.9 9 7.3 13 9.9 4.1 2.6 8.5 5.1 9.8 5.6 1.3 0.5 2.8 3 3.3 5.5 0.5 2.5 1.7 6.1 2.7 8 0.9 1.9 3.5 5.3 5.7 7.5 2.2 2.2 6.5 5.3 9.6 7 5.3 2.8 7.8 3 49.6 3.4 27.6 0.3 46.1-0.1 49.6-1 3-0.8 8.4-3.3 11.8-5.6 4.1-2.6 7.7-6.7 10.4-11.5 3.5-6.4 4.1-9.1 4.2-18 0.1-8.5-0.6-11.9-3.6-18.1-2-4.3-6.1-9.7-9.1-12.1-2.9-2.5-7.2-5.2-9.5-6.2-2.9-1.3-16-2.1-41.9-2.7-35.3-0.8-38.3-1-46.1-4.1-5.6-2.2-10.9-5.8-15.6-10.4-5.6-5.6-7.6-8.9-9.6-15.5-1.7-6.1-2.2-10.5-1.5-16.1 0.5-4.2 2.1-10.2 3.4-13.2 1.4-3.1 4.9-8.2 8-11.3 3-3.1 8.9-7.3 13.2-9.4 4.2-2 11.1-4.3 15.3-5 4.3-0.7 52.3-1.3 106.9-1.4zm-114.2 37.7c-1.3 1.8-2.4 4.4-2.4 5.8 0 1.3 0.8 4.1 1.9 6.3 1.1 2.2 4.2 4.8 7.6 6.2 5 2.1 10.5 2.5 37.6 2.5 23.8 0 33.8 0.5 39.8 2.1 4.4 1.1 11.3 3.7 15.4 5.8 4 2 10.7 6.9 14.8 10.8 4.1 3.9 8.8 9.6 10.4 12.7l3 5.6c1.3-17.6 2.9-25 4.5-28.6 1.6-3.5 4.6-8.1 6.9-10.3 2.2-2.2 6.5-5.4 9.6-7 5.3-2.8 8-3 52-3.7l46.5-0.7c-8.1-6.4-14-9.8-18.2-11.8l-7.7-3.5c-205.2-0.7-211.1-0.5-215.1 1.9-2.3 1.4-5.3 4-6.6 5.9zm144.5 33.4c-3 5.9-3.1 7.8-3.1 39.1 0 31.3 0.1 33.1 3.1 39.1 2.4 4.6 4.8 7.1 9.5 9.4 6.1 3.1 7.6 3.2 44 3.1 20.7 0 40.2-0.6 43.3-1.3 3.1-0.8 8-3.1 11.1-5.2 3.1-2.3 7-6.9 9.1-10.9 3.4-6.6 3.5-8.1 4-34.9 0.3-16.7-0.1-30.8-1-34.9q-1.5-7-5.8-11.2l-4.3-4.2c-93.7-0.8-94.2-0.8-100.4 2.4-4.6 2.3-7.1 4.8-9.5 9.5zm-127.4-258.4c14.3 0 18.6 0.4 20.3 2.1 1.1 1.1 2.1 3.9 2.1 6.2 0 2.3-1 5.2-2.2 6.3-1.2 1.2-4.7 2.1-13.2 2.1v23.8l5.9-0.1c3.3 0 6.8 0.8 7.7 1.8 1 1 1.8 3.3 1.8 5.3 0 1.9-0.8 4.2-1.7 5.2-0.9 0.9-2.8 1.7-4.2 1.7-2.2 0-2.5 1.4-2.5 23.1l-9.4 1c-5.2 0.6-11.5 1.5-18.6 3.2v-13.6c0-12.1-0.2-13.7-2.4-13.6-1.3 0-3.7-1.3-5.2-2.9-2.6-2.7-2.7-3.2-0.7-6.7 1.8-3.1 3.2-3.8 15.3-4.4v-23.8h-5.6q-5.5 0-8.3-2.8c-1.6-1.5-2.8-4-2.8-5.6 0-1.5 1.2-4 2.8-5.5 2.5-2.6 4.6-2.8 20.9-2.8zm64.8 0c15.4 0 18.7 0.4 20.8 2.4 1.4 1.4 2.5 4 2.4 5.9 0 2-1.2 4.7-2.5 6-1.6 1.7-4.4 2.5-14.3 2.4v23.8h6.3c3.8 0 7.2 0.8 8.4 2.1 1.2 1.1 2.1 3.3 2.1 4.9 0 1.5-1 3.7-2.2 4.8-1.2 1.2-3.4 2.1-4.9 2.1-2.4 0-2.7 1.1-2.6 21.7l-4.6 1c-2.5 0.6-8.8 1.1-23.4 1.1v-11.9c0-10.4-0.3-11.9-2.5-11.8-1.3 0-3.2-0.8-4.2-1.8-0.9-1-1.7-3.5-1.7-5.6 0-2.4 1-4.4 2.8-5.2 1.5-0.8 5.3-1.4 14-1.4l-0.7-23.1-5.6-0.4c-3.1-0.3-6.7-1.5-8.1-2.8-1.4-1.3-2.6-3.9-2.7-5.7-0.1-1.9 1-4.6 2.4-6 2.2-2.2 4.9-2.5 20.8-2.5zm64.1-0.1c12.6 0 19.3 0.6 21.1 1.8 1.7 1.2 2.6 3.4 2.6 6.6 0 3.3-0.9 5.5-2.6 6.7-1.5 1-5 1.8-13.1 1.7v23.8h6.3c5.2 0 6.6 0.6 8.4 3.5 1.8 3.1 1.8 3.8 0 6.9-1.2 2-3.4 3.5-4.9 3.5-2.6 0-2.8 1-2.8 19.6l-7.4 0.6c-4 0.4-10.3 1-20.6 2.2l0.1-21.7-4.2-1c-2.5-0.6-4.5-2.2-4.9-3.9-0.4-1.5 0.2-4.3 1.4-6.2 1.7-2.9 3.1-3.5 14.6-3.5v-23.8h-6.3c-4.9 0-6.7-0.6-8.4-3.1-1.1-1.7-2.1-4.1-2.2-5.3-0.1-1.2 0.9-3.5 2.2-5.2 2.2-3 3.3-3.1 20.7-3.2zm-242.9 68.4c1.6 0.6 4.2 3.4 5.8 6.2 1.5 2.8 5.3 6.9 8.3 9.1 3.1 2.2 9.1 5.1 13.3 6.3 4.8 1.4 12.8 2.3 34.9 2.2l-9.4 6.4c-7.9 5.3-10.5 6.3-16.1 6.3-3.6-0.1-9.9-1.4-13.9-2.9-4.1-1.6-9.4-4.4-16.4-9.8l0.2 41.3 3.5-7.7c1.9-4.3 4.2-8.2 5.1-8.7 0.9-0.6 4.9-1.1 16.3-1.1l-7.4 10.8c-4.1 6-7.9 12.3-8.4 14-0.6 1.8-2.4 3.4-4.5 3.8-2.4 0.5-4.1 2.4-5.6 6-1.2 2.8-3.3 6.3-4.6 7.7-1.3 1.4-3.6 2.5-5.1 2.5-1.6 0-3.9-1.1-5.2-2.5-1.3-1.4-3.4-7.4-4.6-13.3-1.2-6.3-2.1-18.1-2-28 0-9.4 0.8-21.8 1.9-27.5 1-5.8 2.9-12.5 4.3-15 1.4-2.5 3.4-5.1 4.5-5.8 1.2-0.7 3.4-0.8 5.1-0.3zm302.9 191.5h45.8v16.7l-31.4 0.7-0.7 5.2c-0.6 4.3-0.4 5.1 1.3 4.4 1.2-0.5 5.3-1.1 9.1-1.5 5.4-0.4 8.4 0.1 13.3 2.6 4.6 2.4 7.1 5 9.4 9.6 1.8 3.4 3.2 8.8 3.2 11.8 0 3.1-1.6 8.9-3.5 13-3 6.2-4.7 7.8-10.9 10.8-5.3 2.6-9.5 3.5-15.7 3.5-5.1-0.1-10.5-1.1-13.9-2.7-3.1-1.4-7-4-8.7-5.9-1.7-1.8-3.7-5.2-4.6-7.5-0.8-2.3-1-4.6-0.4-5.1 0.6-0.4 5-1.2 9.8-1.7 7.2-0.7 8.7-0.5 8.7 1.2 0 1.2 1.5 3.4 3.2 4.9 1.7 1.6 4.5 2.9 6.3 2.8 1.7 0 4.4-1.2 5.9-2.8 1.5-1.5 3.2-4.2 3.6-5.9 0.5-1.7 0.5-4.9 0-7-0.4-2.1-1.7-4.8-2.9-5.9-1.1-1.2-4.1-2.1-6.6-2.1-2.5-0.1-6 0.9-7.7 2-2.4 1.7-5 1.9-10.9 1.1-4.2-0.6-7.7-1.7-7.6-2.4 0-0.8 1.3-10.1 3-20.6zm-37.2 6.9c4.1 0 4.6 0.4 4 3.2-0.4 1.7-0.8 4.7-1.1 6.6-0.3 2.9 0.3 3.6 3.5 3.9 3.6 0.3 3.9-0.1 4.9-6.3 1-6.3 1.3-6.7 10.1-7.4l-1 7c-1 6.7-0.9 7 2.1 7 2.6 0 3.1 0.7 2.8 4.6-0.3 3.8-1 4.5-4.2 4.8-2.2 0.2-3.9 0.9-3.9 1.4 0 0.6-0.4 3.1-1 5.7-1 4.3-0.9 4.5 2.8 4.5 2.8 0 3.6 0.5 3.1 2.1-0.4 1.1-0.7 3.3-0.7 4.8 0 2.2-0.9 2.8-4.2 2.8-4 0-4.2 0.4-4.9 7-0.7 6.9-0.7 7-5.6 7-3.9 0-4.7-0.5-4.2-2.4 0.3-1.4 0.9-4.5 1.3-7 0.8-4.3 0.6-4.6-3.3-4.6-4 0-4.3 0.4-5.3 7-1 6.8-1.2 7-10.1 7l1-7c1-6.6 0.9-7-2.1-7-1.7 0-3.1-0.7-3.1-1.7 0-1 0.4-3.2 0.7-4.9 0.5-2.2 1.7-3.1 4.2-3.1 2.5 0 3.7-0.9 4.2-3.2 0.3-1.7 0.7-4.2 0.7-5.6 0-1.6-1.1-2.4-3.5-2.4-1.9 0-3.5-0.8-3.5-1.8 0-0.9 0.3-3.1 0.7-4.8 0.5-2.3 1.8-3.3 4.5-3.5 3.4-0.3 4-1.2 5.1-7 1.2-6.4 1.5-6.7 6-6.7zm-0.9 31.5c0 2.9 0.5 3.4 3.8 3.1 3.3-0.3 3.9-1.1 4.5-5.6 0.7-4.8 0.5-5.2-3-5.2-2 0-4.1 0.9-4.5 2.1-0.5 1.1-0.8 3.7-0.8 5.6z"/></svg>