<svg width="80" height="80" viewBox="0 0 24 24" fill="none" xmlns="http://www.w3.org/2000/svg" transform="rotate(0 0 0)"><path d="M4.25 3.25C3.00736 3.25 2 4.25736 2 5.5V11.25H12.338C13.5135 10.3112 15.0037 9.75 16.625 9.75C17.6514 9.75 18.6253 9.97493 19.5 10.3782V5.5C19.5 4.25736 18.4926 3.25 17.25 3.25H4.25ZM6.24707 7.2H7.24707C7.6889 7.2 8.04707 7.55817 8.04707 8C8.04707 8.44183 7.6889 8.8 7.24707 8.8H6.24707C5.80524 8.8 5.44707 8.44183 5.44707 8C5.44707 7.55817 5.80524 7.2 6.24707 7.2ZM9.44512 8C9.44512 7.55817 9.80329 7.2 10.2451 7.2H11.2451C11.6869 7.2 12.0451 7.55817 12.0451 8C12.0451 8.44183 11.6869 8.8 11.2451 8.8H10.2451C9.80329 8.8 9.44512 8.44183 9.44512 8Z" fill="#000000"/><path d="M10.9453 12.75C10.1911 13.8533 9.75 15.1877 9.75 16.625C9.75 18.1727 10.2614 19.601 11.1245 20.75H4.25C3.00736 20.75 2 19.7426 2 18.5V12.75H10.9453ZM5.44805 16C5.44805 16.4418 5.80622 16.8 6.24805 16.8H7.24805C7.68987 16.8 8.04805 16.4418 8.04805 16C8.04805 15.5582 7.68987 15.2 7.24805 15.2H6.24805C5.80622 15.2 5.44805 15.5582 5.44805 16Z" fill="#000000"/><path d="M16.625 11.25C13.6565 11.25 11.25 13.6565 11.25 16.625C11.25 19.5935 13.6565 22 16.625 22C19.5935 22 22 19.5935 22 16.625C22 13.6565 19.5935 11.25 16.625 11.25ZM14.6728 14.673C14.9657 14.3801 15.4406 14.3801 15.7335 14.673L16.6247 15.5643L17.516 14.6731C17.8089 14.3802 18.2837 14.3802 18.5766 14.6731C18.8695 14.966 18.8695 15.4408 18.5766 15.7337L17.6854 16.625L18.5766 17.5162C18.8695 17.8091 18.8695 18.284 18.5766 18.5769C18.2837 18.8698 17.8089 18.8698 17.516 18.5769L16.6247 17.6856L15.7335 18.5769C15.4406 18.8698 14.9657 18.8698 14.6728 18.5769C14.3799 18.284 14.3799 17.8092 14.6728 17.5163L15.5641 16.625L14.6728 15.7337C14.3799 15.4408 14.3799 14.9659 14.6728 14.673Z" fill="#000000"/></svg>