<svg width="80" height="80" viewBox="0 0 24 24" fill="none" xmlns="http://www.w3.org/2000/svg" transform="rotate(0 0 0)"><path d="M8.38614 5.5C9.59667 3.69151 11.6582 2.5 13.9993 2.5C17.7272 2.5 20.7493 5.52208 20.7493 9.25C20.7493 10.7156 20.2817 12.0724 19.4886 13.1788L17.7151 10.1154C17.1834 9.1971 16.3179 8.67074 15.4018 8.53197C15.1003 8.48599 14.7934 8.48193 14.491 8.51978C14.3729 6.83229 12.9665 5.5 11.249 5.5H8.38614Z" fill="#000000"/><path d="M16.8498 10.6167C15.9832 9.11984 13.8219 9.11992 12.9553 10.6168L8.60957 18.123C7.74141 19.623 8.82359 21.5 10.5567 21.5H19.2481C20.9814 21.5 22.0638 19.6227 21.1954 18.1227L16.8498 10.6167Z" fill="#000000"/><path d="M7.81476 17.5L12.0898 10.1158C12.4403 9.51037 12.9374 9.07448 13.499 8.8081V8.75C13.499 7.50736 12.4917 6.5 11.249 6.5H4.74902C3.50638 6.5 2.49902 7.50736 2.49902 8.75V15.25C2.49902 16.4926 3.50638 17.5 4.74902 17.5H7.81476Z" fill="#000000"/></svg>