<svg width="80" height="80" viewBox="0 0 24 24" fill="none" xmlns="http://www.w3.org/2000/svg" transform="rotate(0 0 0)"><path d="M4.5 4.25C4.5 3.00736 5.50736 2 6.75 2H17.25C18.4926 2 19.5 3.00736 19.5 4.25V21.25C19.5 21.5039 19.3716 21.7405 19.1587 21.8789C18.9458 22.0172 18.6774 22.0385 18.4454 21.9354L15.375 20.5707L12.3046 21.9354C12.1107 22.0215 11.8893 22.0215 11.6954 21.9354L8.625 20.5707L5.5546 21.9354C5.3226 22.0385 5.05419 22.0172 4.84131 21.8789C4.62844 21.7405 4.5 21.5039 4.5 21.25V4.25ZM11.25 15C10.8358 15 10.5 15.3358 10.5 15.75C10.5 16.1642 10.8358 16.5 11.25 16.5H15.75C16.1642 16.5 16.5 16.1642 16.5 15.75C16.5 15.3358 16.1642 15 15.75 15H11.25ZM8.25 14.85C7.75294 14.85 7.35 15.2529 7.35 15.75C7.35 16.2471 7.75294 16.65 8.25 16.65C8.74706 16.65 9.1501 16.2471 9.1501 15.75C9.1501 15.2529 8.74706 14.85 8.25 14.85ZM8.25 10.35C7.75294 10.35 7.35 10.7529 7.35 11.25C7.35 11.7471 7.75304 12.15 8.2501 12.15C8.74716 12.15 9.1501 11.7471 9.1501 11.25C9.1501 10.7529 8.74706 10.35 8.25 10.35ZM11.25 10.5C10.8358 10.5 10.5 10.8358 10.5 11.25C10.5 11.6642 10.8358 12 11.25 12H15.75C16.1642 12 16.5 11.6642 16.5 11.25C16.5 10.8358 16.1642 10.5 15.75 10.5H11.25ZM11.25 6C10.8358 6 10.5 6.33579 10.5 6.75C10.5 7.16421 10.8358 7.5 11.25 7.5H15.75C16.1642 7.5 16.5 7.16421 16.5 6.75C16.5 6.33579 16.1642 6 15.75 6H11.25ZM8.25 5.85C7.75294 5.85 7.35 6.25294 7.35 6.75C7.35 7.24706 7.75294 7.65 8.25 7.65C8.74706 7.65 9.1501 7.24706 9.1501 6.75C9.1501 6.25294 8.74706 5.85 8.25 5.85Z" fill="#000000"/></svg>