<svg width="25" height="24" viewBox="0 0 25 24" fill="none" xmlns="http://www.w3.org/2000/svg">
<path d="M16.8532 3.05933C16.439 3.05933 16.1032 3.39511 16.1032 3.80933V6.4998H13.4127C12.9985 6.4998 12.6627 6.83558 12.6627 7.2498C12.6627 7.66401 12.9985 7.9998 13.4127 7.9998H16.1032V10.6908C16.1032 11.105 16.439 11.4408 16.8532 11.4408C17.2674 11.4408 17.6032 11.105 17.6032 10.6908V7.9998H20.2942C20.7084 7.9998 21.0442 7.66401 21.0442 7.2498C21.0442 6.83558 20.7084 6.4998 20.2942 6.4998H17.6032V3.80933C17.6032 3.39511 17.2674 3.05933 16.8532 3.05933Z" fill="#323544"/>
<path fill-rule="evenodd" clip-rule="evenodd" d="M5.60352 3.24991C4.36088 3.24991 3.35352 4.25727 3.35352 5.49991V8.99989C3.35352 10.2425 4.36087 11.2499 5.60352 11.2499H9.10352C10.3462 11.2499 11.3535 10.2425 11.3535 8.99989V5.49991C11.3535 4.25727 10.3462 3.24991 9.10352 3.24991H5.60352ZM4.85352 5.49991C4.85352 5.0857 5.1893 4.74991 5.60352 4.74991H9.10352C9.51773 4.74991 9.85352 5.0857 9.85352 5.49991V8.99989C9.85352 9.41411 9.51773 9.74989 9.10352 9.74989H5.60352C5.1893 9.74989 4.85352 9.41411 4.85352 8.99989V5.49991Z" fill="#323544"/>
<path fill-rule="evenodd" clip-rule="evenodd" d="M5.60352 12.7499C4.36088 12.7499 3.35352 13.7573 3.35352 14.9999V18.4999C3.35352 19.7426 4.36087 20.7499 5.60352 20.7499H9.10352C10.3462 20.7499 11.3535 19.7426 11.3535 18.4999V14.9999C11.3535 13.7573 10.3462 12.7499 9.10352 12.7499H5.60352ZM4.85352 14.9999C4.85352 14.5857 5.1893 14.2499 5.60352 14.2499H9.10352C9.51773 14.2499 9.85352 14.5857 9.85352 14.9999V18.4999C9.85352 18.9141 9.51773 19.2499 9.10352 19.2499H5.60352C5.1893 19.2499 4.85352 18.9141 4.85352 18.4999V14.9999Z" fill="#323544"/>
<path fill-rule="evenodd" clip-rule="evenodd" d="M12.8535 14.9999C12.8535 13.7573 13.8609 12.7499 15.1035 12.7499H18.6035C19.8462 12.7499 20.8535 13.7573 20.8535 14.9999V18.4999C20.8535 19.7426 19.8462 20.7499 18.6035 20.7499H15.1035C13.8609 20.7499 12.8535 19.7426 12.8535 18.4999V14.9999ZM15.1035 14.2499C14.6893 14.2499 14.3535 14.5857 14.3535 14.9999V18.4999C14.3535 18.9141 14.6893 19.2499 15.1035 19.2499H18.6035C19.0177 19.2499 19.3535 18.9141 19.3535 18.4999V14.9999C19.3535 14.5857 19.0177 14.2499 18.6035 14.2499H15.1035Z" fill="#323544"/>
</svg>
