<svg width="24" height="25" viewBox="0 0 24 25" fill="none" xmlns="http://www.w3.org/2000/svg">
<path fill-rule="evenodd" clip-rule="evenodd" d="M9.98378 4.39388C10.8091 2.72157 13.1938 2.72157 14.0191 4.39388L15.4109 7.21389C15.5201 7.43525 15.7313 7.58868 15.9756 7.62418L19.0876 8.07639C20.9331 8.34455 21.67 10.6125 20.3346 11.9142L18.0827 14.1093C17.9059 14.2816 17.8253 14.5298 17.867 14.7731L18.3986 17.8726C18.7139 19.7107 16.7846 21.1123 15.134 20.2445L12.3504 18.7811C12.132 18.6663 11.8709 18.6663 11.6524 18.7811L8.86891 20.2445C7.21825 21.1123 5.28902 19.7107 5.60427 17.8726L6.13588 14.7731C6.17761 14.5298 6.09694 14.2816 5.92018 14.1093L3.66826 11.9142C2.33285 10.6125 3.06974 8.34455 4.91524 8.07639L8.02732 7.62418C8.2716 7.58868 8.48277 7.43525 8.59202 7.21389L9.98378 4.39388ZM12.674 5.05772C12.3989 4.50029 11.604 4.50029 11.3289 5.05772L9.93712 7.87774C9.60938 8.54182 8.97586 9.0021 8.24301 9.10859L5.13094 9.5608C4.51577 9.65019 4.27014 10.4062 4.71528 10.8401L6.9672 13.0351C7.49749 13.5521 7.73948 14.2968 7.61429 15.0267L7.08268 18.1262C6.9776 18.7389 7.62068 19.2061 8.1709 18.9168L10.9544 17.4534C11.6099 17.1088 12.393 17.1088 13.0485 17.4534L15.832 18.9168C16.3822 19.2061 17.0253 18.7389 16.9202 18.1262L16.3886 15.0267C16.2634 14.2968 16.5054 13.5521 17.0357 13.0351L19.2876 10.8401C19.7327 10.4062 19.4871 9.65019 18.8719 9.5608L15.7599 9.10859C15.027 9.0021 14.3935 8.54182 14.0658 7.87774L12.674 5.05772Z" fill="#323544"/>
</svg>
