<svg width="24" height="24" viewBox="0 0 24 24" fill="none" xmlns="http://www.w3.org/2000/svg">
<path d="M13.3512 3.35504C11.4469 3.0573 9.49744 3.39666 7.80571 4.32044C6.66518 4.94323 5.68481 5.80814 4.92831 6.84587L3.73832 6.15883C3.47561 6.00716 3.14741 6.02867 2.90675 6.21333C2.66609 6.398 2.56036 6.70945 2.63887 7.00246L3.41559 9.90121C3.46707 10.0933 3.59277 10.2572 3.76503 10.3566C3.9373 10.4561 4.14201 10.483 4.33415 10.4315L7.23289 9.65482C7.5259 9.57631 7.74277 9.32902 7.78236 9.02827C7.82196 8.72752 7.67648 8.43253 7.41378 8.28086L6.23626 7.60102C6.84919 6.79815 7.62705 6.12706 8.52459 5.63695C9.92634 4.87153 11.5416 4.59033 13.1195 4.83704C14.6975 5.08374 16.1498 5.84454 17.251 7.0013C18.3523 8.15806 19.0407 9.64605 19.2096 11.2342C19.3784 12.8224 19.0181 14.4218 18.1847 15.7843C17.3513 17.1467 16.0913 18.1958 14.6005 18.7687C13.1097 19.3417 11.4714 19.4063 9.94011 18.9527C8.40877 18.4991 7.07006 17.5525 6.13184 16.26C5.88851 15.9248 5.41952 15.8503 5.08431 16.0937C4.7491 16.337 4.67462 16.806 4.91795 17.1412C6.05026 18.7011 7.66593 19.8434 9.51406 20.3909C11.3622 20.9384 13.3394 20.8603 15.1386 20.1689C16.9378 19.4774 18.4584 18.2113 19.4643 16.567C20.4701 14.9227 20.9049 12.9924 20.7011 11.0756C20.4974 9.15893 19.6665 7.36311 18.3375 5.96704C17.0084 4.57098 15.2556 3.65279 13.3512 3.35504Z" fill="#323544"/>
<path d="M12.2499 9.50085C12.2499 9.08664 11.9141 8.75085 11.4999 8.75085C11.0856 8.75085 10.7499 9.08664 10.7499 9.50085V13.0009C10.7499 13.4151 11.0856 13.7509 11.4999 13.7509H14.9999C15.4141 13.7509 15.7499 13.4151 15.7499 13.0009C15.7499 12.5866 15.4141 12.2509 14.9999 12.2509H12.2499V9.50085Z" fill="#323544"/>
</svg>
