<svg width="24" height="24" viewBox="0 0 24 24" fill="none" xmlns="http://www.w3.org/2000/svg">
<path d="M11.0993 8.66982C11.0993 9.16688 11.5023 9.56982 11.9993 9.56982C12.4964 9.56982 12.9001 9.16688 12.9001 8.66982C12.9001 8.17277 12.4971 7.76982 12.0001 7.76982C11.503 7.76982 11.0993 8.17277 11.0993 8.66982Z" fill="#323544"/>
<path d="M12.0001 16.1892C11.5859 16.1892 11.2501 15.8534 11.2501 15.4392V11.2148C11.2501 10.8006 11.5858 10.4648 12.0001 10.4648C12.4143 10.4648 12.7501 10.8006 12.7501 11.2148V15.4392C12.7501 15.8534 12.4143 16.1892 12.0001 16.1892Z" fill="#323544"/>
<path fill-rule="evenodd" clip-rule="evenodd" d="M12 2C6.47715 2 2 6.47715 2 12C2 17.5228 6.47715 22 12 22C17.5228 22 22 17.5228 22 12C22 6.47715 17.5228 2 12 2ZM3.5 12C3.5 7.30558 7.30558 3.5 12 3.5C16.6944 3.5 20.5 7.30558 20.5 12C20.5 16.6944 16.6944 20.5 12 20.5C7.30558 20.5 3.5 16.6944 3.5 12Z" fill="#323544"/>
</svg>
