<svg width="24" height="24" viewBox="0 0 24 24" fill="none" xmlns="http://www.w3.org/2000/svg">
<path d="M12.8343 4.04384C11.1541 3.86724 9.46115 4.22709 7.99806 5.0718C6.53496 5.91652 5.37685 7.20274 4.68969 8.74611C4.00254 10.2895 3.82162 12.0108 4.17287 13.6633C4.52412 15.3158 5.38951 16.8147 6.64501 17.9452C7.9005 19.0756 9.48165 19.7796 11.1618 19.9562C12.842 20.1328 14.535 19.7729 15.9981 18.9282C16.3568 18.7211 16.8155 18.844 17.0226 19.2027C17.2297 19.5615 17.1068 20.0201 16.7481 20.2273C15.0106 21.2304 13.0002 21.6577 11.005 21.448C9.00982 21.2383 7.13221 20.4023 5.64131 19.0599C4.15041 17.7175 3.12276 15.9375 2.70565 13.9752C2.28854 12.0128 2.50338 9.96877 3.31937 8.13601C4.13537 6.30325 5.51063 4.77587 7.24806 3.77277C8.98548 2.76967 10.9959 2.34235 12.9911 2.55205C14.9863 2.76176 16.8639 3.59773 18.3548 4.94014C19.0304 5.54849 19.611 6.24671 20.0826 7.01103L21.6751 6.28858C21.9514 6.16326 22.2759 6.21668 22.4974 6.42394C22.7189 6.6312 22.7937 6.95149 22.687 7.23544L21.4431 10.5452C21.3731 10.7314 21.232 10.8822 21.0509 10.9643C20.8697 11.0465 20.6633 11.0533 20.4771 10.9834L17.1677 9.73929C16.8838 9.63255 16.6921 9.36529 16.682 9.06212C16.672 8.75895 16.8455 8.47957 17.1218 8.35425L18.7034 7.63672C18.3257 7.05624 17.872 6.52384 17.3511 6.05486C16.0956 4.9244 14.5145 4.22043 12.8343 4.04384Z" fill="#323544"/>
</svg>
