<svg width="80" height="80" viewBox="0 0 24 24" fill="none" xmlns="http://www.w3.org/2000/svg" transform="rotate(0 0 0)"><path d="M11.7687 5.88091V7.61924C10.576 8.1073 9.74133 9.2819 9.74133 10.6427C9.74133 12.4369 11.1923 13.9074 13.0018 13.9074H13.0076C14.8155 13.9074 16.2687 12.4385 16.2687 10.6427V9.24874C16.2687 9.19015 16.3162 9.14265 16.3748 9.14265C16.4333 9.14265 16.4807 9.19038 16.4825 9.24894C16.5385 10.9946 17.9676 12.4073 19.7413 12.4073H19.7471C20.0065 12.4073 20.2585 12.3771 20.5 12.3201V18.002C20.5 19.2446 19.4926 20.252 18.25 20.252H17.082L17.452 21.2387C17.5974 21.6265 17.4009 22.0588 17.0131 22.2043C16.6252 22.3497 16.1929 22.1532 16.0475 21.7653L15.48 20.252H7.01948L6.45197 21.7653C6.30653 22.1532 5.87422 22.3497 5.48638 22.2043C5.09854 22.0588 4.90204 21.6265 5.04748 21.2387L5.41748 20.252H4.25C3.00736 20.252 2 19.2446 2 18.002V8.13091C2 6.88827 3.00736 5.88091 4.25 5.88091H11.7687Z" fill="#000000"/><path d="M21.5076 3.09376C21.5076 2.86622 21.4043 2.65099 21.2268 2.50864C21.0492 2.3663 20.8167 2.31224 20.5946 2.36167L13.8557 3.86167C13.5127 3.93803 13.2687 4.24233 13.2687 4.59376V8.89718C13.1835 8.88451 13.0963 8.87794 13.0076 8.87794H13.0018C12.0266 8.87794 11.2413 9.67097 11.2413 10.6426C11.2413 11.6143 12.0266 12.4073 13.0018 12.4073H13.0076C13.9823 12.4073 14.7687 11.6148 14.7687 10.6426V5.19517L20.0076 4.02905V7.39704C19.9226 7.38443 19.8356 7.37789 19.7471 7.37789H19.7413C18.7661 7.37789 17.9808 8.17092 17.9808 9.14259C17.9808 10.1142 18.7661 10.9073 19.7413 10.9073H19.7471C20.7223 10.9073 21.5076 10.1142 21.5076 9.14259V3.09376Z" fill="#000000"/></svg>