<svg width="80" height="80" viewBox="0 0 24 24" fill="none" xmlns="http://www.w3.org/2000/svg" transform="rotate(0 0 0)"><path d="M14.2697 3.87727C14.478 3.51924 14.3566 3.06014 13.9986 2.85185C13.6406 2.64356 13.1815 2.76494 12.9732 3.12298L11.4446 5.75036C11.3622 5.89215 11.1678 5.91742 11.0518 5.80142L9.40887 4.15852C9.11598 3.86563 8.64111 3.86563 8.34821 4.15852C8.05532 4.45141 8.05532 4.92629 8.34821 5.21918L9.01081 5.88178H4.25C3.00736 5.88178 2 6.88913 2 8.13178V18.0029C2 19.2455 3.00736 20.2529 4.25 20.2529H5.41748L5.04748 21.2395C4.90204 21.6274 5.09854 22.0597 5.48638 22.2051C5.87422 22.3506 6.30653 22.1541 6.45197 21.7662L7.01948 20.2529H10.7928C10.3963 19.6506 10.1748 18.9364 10.1748 18.1906V15.0726C10.1748 13.7329 10.8896 12.4949 12.0498 11.8251L14.75 10.2661C15.9103 9.5962 17.3398 9.5962 18.5 10.2661L20.5 11.4208V8.13178C20.5 6.88913 19.4926 5.88178 18.25 5.88178H13.1036L14.2697 3.87727Z" fill="#000000"/><path d="M15.5 11.5651C16.1962 11.1632 17.0539 11.1632 17.75 11.5651L20.4502 13.1241C21.1464 13.526 21.5752 14.2688 21.5752 15.0726V18.1906C21.5752 18.9944 21.1464 19.7372 20.4502 20.1392L17.75 21.6981C17.0539 22.1001 16.1962 22.1 15.5 21.6981L12.7998 20.1392C12.1037 19.7372 11.6748 18.9944 11.6748 18.1906V15.0726C11.6748 14.2688 12.1037 13.526 12.7998 13.1241L15.5 11.5651ZM14.875 16.6316C14.875 17.5981 15.6585 18.3816 16.625 18.3816C17.5915 18.3816 18.375 17.5981 18.375 16.6316C18.375 15.6651 17.5915 14.8816 16.625 14.8816C15.6585 14.8816 14.875 15.6651 14.875 16.6316Z" fill="#000000"/></svg>