<svg width="80" height="80" viewBox="0 0 24 24" fill="none" xmlns="http://www.w3.org/2000/svg" transform="rotate(0 0 0)"><path d="M3.25 5.80469C3.25 4.39377 4.39377 3.25 5.80469 3.25H8.1875C8.80882 3.25 9.3125 3.75368 9.3125 4.375C9.3125 4.99632 8.80882 5.5 8.1875 5.5H5.80469C5.63641 5.5 5.5 5.63641 5.5 5.80469V8.1875C5.5 8.80882 4.99632 9.3125 4.375 9.3125C3.75368 9.3125 3.25 8.80882 3.25 8.1875V5.80469ZM14.6875 4.375C14.6875 3.75368 15.1912 3.25 15.8125 3.25H18.1953C19.6062 3.25 20.75 4.39377 20.75 5.80469V8.1875C20.75 8.80882 20.2463 9.3125 19.625 9.3125C19.0037 9.3125 18.5 8.80882 18.5 8.1875V5.80469C18.5 5.63641 18.3636 5.5 18.1953 5.5H15.8125C15.1912 5.5 14.6875 4.99632 14.6875 4.375ZM4.375 14.6875C4.99632 14.6875 5.5 15.1912 5.5 15.8125V18.1953C5.5 18.3636 5.63641 18.5 5.80469 18.5H8.1875C8.80882 18.5 9.3125 19.0037 9.3125 19.625C9.3125 20.2463 8.80882 20.75 8.1875 20.75H5.80469C4.39377 20.75 3.25 19.6062 3.25 18.1953V15.8125C3.25 15.1912 3.75368 14.6875 4.375 14.6875ZM19.625 14.6875C20.2463 14.6875 20.75 15.1912 20.75 15.8125V18.1953C20.75 19.6062 19.6062 20.75 18.1953 20.75H15.8125C15.1912 20.75 14.6875 20.2463 14.6875 19.625C14.6875 19.0037 15.1912 18.5 15.8125 18.5H18.1953C18.3636 18.5 18.5 18.3636 18.5 18.1953V15.8125C18.5 15.1912 19.0037 14.6875 19.625 14.6875Z" fill="#000000"/></svg>