<svg width="80" height="80" viewBox="0 0 24 24" fill="none" xmlns="http://www.w3.org/2000/svg" transform="rotate(0 0 0)"><path d="M5.74805 5C5.74805 3.75736 6.75541 2.75 7.99805 2.75H19.0001C20.2427 2.75 21.2501 3.75736 21.2501 5L21.2501 6.68848H5.74805V5Z" fill="#000000"/><path d="M5.74805 8.18848V16.0033C5.74805 17.2459 6.7554 18.2533 7.99805 18.2533H19.0001C20.2427 18.2533 21.2501 17.2459 21.2501 16.0033L21.2501 8.18848H5.74805Z" fill="#000000"/><path d="M3.5 5.75C3.91421 5.75 4.25 6.08579 4.25 6.5V16.5C4.25 18.2949 5.70507 19.75 7.5 19.75H17.5C17.9142 19.75 18.25 20.0858 18.25 20.5C18.25 20.9142 17.9142 21.25 17.5 21.25H7.5C4.87665 21.25 2.75 19.1234 2.75 16.5V6.5C2.75 6.08579 3.08579 5.75 3.5 5.75Z" fill="#000000"/></svg>