<svg width="80" height="80" viewBox="0 0 24 24" fill="none" xmlns="http://www.w3.org/2000/svg" transform="rotate(0 0 0)"><path d="M11.2499 3.25586H7.87725C7.0644 3.25586 6.31475 3.69428 5.91623 4.40272L3.56133 8.58896H11.2499V3.25586Z" fill="#000000"/><path d="M18.0838 4.40272L20.4387 8.58896H12.7499V3.25586H16.1228C16.9356 3.25586 17.6852 3.69428 18.0838 4.40272Z" fill="#000000"/><path d="M11.25 16.9648C11.25 13.9963 13.6565 11.5898 16.625 11.5898C19.5935 11.5898 22 13.9963 22 16.9648C22 19.9334 19.5935 22.3398 16.625 22.3398C13.6565 22.3398 11.25 19.9334 11.25 16.9648ZM17.375 15.3428C17.375 14.9286 17.0392 14.5928 16.625 14.5928C16.2108 14.5928 15.875 14.9286 15.875 15.3428V17.3273C15.875 17.7415 16.2108 18.0773 16.625 18.0773H18.249C18.6632 18.0773 18.999 17.7415 18.999 17.3273C18.999 16.9131 18.6632 16.5773 18.249 16.5773H17.375V15.3428Z" fill="#000000"/><path d="M3.25 18.505V10.089L16.625 10.0898C12.828 10.0898 9.75 13.1679 9.75 16.9648C9.75 18.3655 10.1689 19.6684 10.8882 20.755H5.5C4.25736 20.755 3.25 19.7477 3.25 18.505Z" fill="#000000"/></svg>