<svg width="80" height="80" viewBox="0 0 24 25" fill="none" xmlns="http://www.w3.org/2000/svg" transform="rotate(0 0 0)"><path d="M2 12.3906C2 6.86778 6.47715 2.39062 12 2.39062C17.5228 2.39062 22 6.86778 22 12.3906C22 17.9135 17.5228 22.3906 12 22.3906C6.47715 22.3906 2 17.9135 2 12.3906ZM15.5071 9.85447C15.2142 9.56158 14.7393 9.56158 14.4464 9.85447L10.9649 13.336L9.55359 11.9247C9.2607 11.6318 8.78582 11.6318 8.49293 11.9247C8.20004 12.2176 8.20004 12.6925 8.49294 12.9854L10.4346 14.927C10.7275 15.2199 11.2023 15.2199 11.4952 14.927L15.5071 10.9151C15.8 10.6222 15.8 10.1474 15.5071 9.85447Z" fill="#000000"/></svg>