<svg width="80" height="80" viewBox="0 0 24 24" fill="none" xmlns="http://www.w3.org/2000/svg" transform="rotate(0 0 0)"><path d="M9.87891 3.74805C9.87891 2.57444 10.8303 1.62305 12.0039 1.62305C13.1775 1.62305 14.1289 2.57444 14.1289 3.74805C14.1289 4.92165 13.1775 5.87305 12.0039 5.87305C10.8303 5.87305 9.87891 4.92165 9.87891 3.74805Z" fill="#000000"/><path d="M4.16602 6.16406C4.16602 5.05841 5.06232 4.16211 6.16797 4.16211C7.27362 4.16211 8.16992 5.05841 8.16992 6.16406C8.16992 7.26971 7.27362 8.16602 6.16797 8.16602C5.06232 8.16602 4.16602 7.26971 4.16602 6.16406Z" fill="#000000"/><path d="M1.87891 12C1.87891 10.9655 2.7175 10.127 3.75195 10.127C4.78641 10.127 5.625 10.9655 5.625 12C5.625 13.0345 4.78641 13.873 3.75195 13.873C2.7175 13.873 1.87891 13.0345 1.87891 12Z" fill="#000000"/><path d="M4.46484 17.8359C4.46484 16.8953 5.22736 16.1328 6.16797 16.1328C7.10858 16.1328 7.87109 16.8953 7.87109 17.8359C7.87109 18.7765 7.10858 19.5391 6.16797 19.5391C5.22736 19.5391 4.46484 18.7765 4.46484 17.8359Z" fill="#000000"/><path d="M10.4414 20.252C10.4414 19.389 11.141 18.6895 12.0039 18.6895C12.8669 18.6895 13.5664 19.389 13.5664 20.252C13.5664 21.1149 12.8669 21.8145 12.0039 21.8145C11.141 21.8145 10.4414 21.1149 10.4414 20.252Z" fill="#000000"/><path d="M16.8027 17.8355C16.8027 18.4081 17.2669 18.8722 17.8394 18.8722C18.412 18.8722 18.8761 18.4081 18.8761 17.8355C18.8761 17.263 18.412 16.7988 17.8394 16.7988C17.2669 16.7988 16.8027 17.263 16.8027 17.8355Z" fill="#000000"/><path d="M20.2563 12.8973C19.7609 12.8973 19.3594 12.4958 19.3594 12.0004C19.3594 11.5051 19.7609 11.1035 20.2563 11.1035C20.7516 11.1035 21.1532 11.5051 21.1532 12.0004C21.1532 12.4958 20.7516 12.8973 20.2563 12.8973Z" fill="#000000"/><path d="M17.0898 6.16365C17.0898 6.57764 17.4254 6.91324 17.8394 6.91324C18.2534 6.91324 18.589 6.57764 18.589 6.16365C18.589 5.74967 18.2534 5.41406 17.8394 5.41406C17.4254 5.41406 17.0898 5.74967 17.0898 6.16365Z" fill="#000000"/></svg>