<svg width="80" height="80" viewBox="0 0 24 25" fill="none" xmlns="http://www.w3.org/2000/svg" transform="rotate(0 0 0)"><path d="M12.2298 15.3539L11.7508 13.8132L4.03424 21.5298C3.74134 21.8227 3.26647 21.8227 2.97358 21.5298C2.68068 21.2369 2.68068 20.762 2.97358 20.4691L10.6932 12.7495L9.1436 12.2678C7.68682 11.8149 7.38166 9.88822 8.6272 9.00738L10.494 7.68721C10.5855 7.62248 10.6393 7.51687 10.6379 7.40478L10.6086 5.11856C10.5892 3.59315 12.3273 2.70754 13.5499 3.61992L15.3823 4.98737C15.4721 5.05442 15.5892 5.07296 15.6954 5.03696L17.8607 4.30269C19.3054 3.81277 20.6848 5.19214 20.1949 6.63687L19.4606 8.80216C19.4246 8.90832 19.4431 9.0254 19.5102 9.11523L20.8776 10.9477C21.79 12.1703 20.9044 13.9084 19.379 13.8889L17.0928 13.8597C16.9807 13.8582 16.8751 13.9121 16.8103 14.0036L15.4902 15.8703C14.6093 17.1159 12.6826 16.8107 12.2298 15.3539Z" fill="#000000"/></svg>