<svg width="80" height="80" viewBox="0 0 24 25" fill="none" xmlns="http://www.w3.org/2000/svg" transform="rotate(0 0 0)"><path d="M8.75049 12.2149C8.75049 11.4662 8.7733 10.7098 8.82111 9.96533H15.1784C15.2262 10.7098 15.2491 11.4661 15.2491 12.2149C15.2491 12.964 15.2262 13.7206 15.1784 14.4653H8.82115C8.77331 13.7206 8.75049 12.964 8.75049 12.2149Z" fill="#000000"/><path d="M7.25049 12.2149C7.25049 11.4736 7.27197 10.7175 7.31813 9.96533H2.25419C2.08787 10.6886 2 11.4418 2 12.2155C2 12.9891 2.08785 13.7422 2.25413 14.4653H7.31818C7.27198 13.7129 7.25049 12.9565 7.25049 12.2149Z" fill="#000000"/><path d="M2.72687 15.9653C3.84708 18.7328 6.17017 20.8848 9.04781 21.7726C8.69005 21.1744 8.40373 20.4746 8.17359 19.726C7.82858 18.6037 7.59223 17.3121 7.4451 15.9653H2.72687Z" fill="#000000"/><path d="M11.9995 22.2154C12.4649 22.2145 12.8916 22.0037 13.2995 21.5203C13.7217 21.0199 14.0916 20.262 14.3919 19.2852C14.6913 18.3115 14.9056 17.174 15.045 15.9653H8.95452C9.09388 17.174 9.30804 18.3115 9.60738 19.2853C9.90764 20.262 10.2776 21.0199 10.6997 21.5203C11.1084 22.0047 11.5331 22.2154 11.9995 22.2154Z" fill="#000000"/><path d="M14.9516 21.7722C17.8287 20.8841 20.1512 18.7324 21.2712 15.9653H16.5544C16.4072 17.3121 16.1708 18.6037 15.8257 19.726C15.5956 20.4745 15.3093 21.174 14.9516 21.7722Z" fill="#000000"/><path d="M21.744 14.4653C21.9103 13.7422 21.9981 12.9891 21.9981 12.2155C21.9981 11.4418 21.9102 10.6886 21.7439 9.96533H16.6814C16.7276 10.7175 16.7491 11.4736 16.7491 12.2149C16.7491 12.9565 16.7276 13.7129 16.6813 14.4653H21.744Z" fill="#000000"/><path d="M21.2711 8.46533C20.1511 5.69849 17.8287 3.54686 14.9518 2.65879C15.3094 3.25678 15.5956 3.95611 15.8257 4.70433C16.1708 5.8267 16.4073 7.11843 16.5544 8.46533H21.2711Z" fill="#000000"/><path d="M9.04762 2.65838C6.17016 3.54619 3.84721 5.69806 2.72698 8.46533H7.44503C7.59215 7.11844 7.82853 5.82673 8.1736 4.70437C8.4037 3.95597 8.68995 3.25648 9.04762 2.65838Z" fill="#000000"/><path d="M14.392 5.14521C14.6914 6.11895 14.9056 7.25652 15.045 8.46533H8.95445C9.0938 7.25651 9.30799 6.11892 9.60737 5.14518C9.90763 4.16857 10.2775 3.41081 10.6997 2.91052C11.1083 2.42624 11.5331 2.21558 11.9995 2.21558C12.466 2.21558 12.8908 2.42625 13.2995 2.91054C13.7217 3.41084 14.0916 4.1686 14.392 5.14521Z" fill="#000000"/></svg>