<svg width="80" height="80" viewBox="0 0 24 25" fill="none" xmlns="http://www.w3.org/2000/svg" transform="rotate(0 0 0)"><path d="M13.9672 15.153L12.7491 16.0113V14.2934L13.9672 15.153Z" fill="#000000"/><path d="M13.9776 10.5308L12.7491 9.66512V11.3977L13.9776 10.5308Z" fill="#000000"/><path d="M3.25 6.34412C3.25 5.10148 4.25736 4.09412 5.5 4.09412H18.4985C19.7412 4.09412 20.7485 5.10147 20.7485 6.34411L20.7486 19.3441C20.7486 20.5868 19.7412 21.5941 18.4986 21.5941H5.5C4.25736 21.5941 3.25 20.5868 3.25 19.3441V6.34412ZM12.4311 7.60604C12.2021 7.44471 11.9024 7.42439 11.6537 7.55334C11.4051 7.6823 11.2491 7.93904 11.2491 8.21912L11.2491 11.3992L9.15143 9.91906C8.81299 9.68025 8.34503 9.76102 8.10622 10.0995C7.86741 10.4379 7.94818 10.9059 8.28662 11.1447L10.6972 12.8456L8.297 14.5392C7.95856 14.778 7.87779 15.2459 8.1166 15.5844C8.35541 15.9228 8.82336 16.0036 9.1618 15.7648L11.2491 14.292V17.3401C11.2174 17.5282 11.257 17.7284 11.3756 17.8966C11.4579 18.0135 11.5676 18.0997 11.6899 18.1526C11.7841 18.1953 11.8888 18.2191 11.9991 18.2191C12.2033 18.2191 12.3885 18.1375 12.5237 18.005L15.7007 15.7665C15.9 15.6261 16.0186 15.3975 16.0187 15.1537C16.0188 14.9098 15.9003 14.6812 15.7011 14.5406L13.2989 12.8456L15.7115 11.1432C15.9107 11.0027 16.0291 10.774 16.0291 10.5302C16.029 10.2864 15.9104 10.0578 15.7111 9.91736L12.4311 7.60604Z" fill="#000000"/></svg>