<svg width="80" height="80" viewBox="0 0 25 25" fill="none" xmlns="http://www.w3.org/2000/svg" transform="rotate(0 0 0)"><path d="M5.17886 3.71976C4.88601 3.42682 4.41114 3.42674 4.1182 3.71958C3.82525 4.01242 3.82517 4.4873 4.11802 4.78024L6.71224 7.37535L4.61808 9.46969C4.4036 9.6842 4.33944 10.0068 4.45553 10.287C4.57162 10.5673 4.8451 10.75 5.14844 10.75L10.3965 10.75C10.5954 10.75 10.7862 10.671 10.9268 10.5303C11.0675 10.3897 11.1465 10.1989 11.1465 10L11.1465 4.75147C11.1465 4.44812 10.9637 4.17464 10.6835 4.05856C10.4032 3.94248 10.0806 4.00666 9.86613 4.22117L7.77285 6.31464L5.17886 3.71976Z" fill="#000000"/><path d="M21.1789 4.78016C21.4717 4.48717 21.4716 4.0123 21.1786 3.7195C20.8856 3.4267 20.4107 3.42685 20.1179 3.71984L17.5244 6.31503L15.4325 4.22292C15.218 4.00841 14.8954 3.94423 14.6151 4.06031C14.3349 4.1764 14.1521 4.44988 14.1521 4.75323L14.1521 10C14.1521 10.4142 14.4879 10.75 14.9021 10.75L20.1484 10.75C20.4518 10.75 20.7253 10.5673 20.8413 10.287C20.9574 10.0068 20.8933 9.6842 20.6788 9.4697L18.585 7.37574L21.1789 4.78016Z" fill="#000000"/><path d="M5.14851 13.7495C4.84515 13.7495 4.57166 13.9322 4.45555 14.2125C4.33944 14.4927 4.40359 14.8153 4.61808 15.0298L6.71292 17.1249L4.11811 19.7197C3.82521 20.0126 3.82521 20.4874 4.11811 20.7803C4.411 21.0732 4.88587 21.0732 5.17877 20.7803L7.77353 18.1856L9.86808 20.2803C10.0826 20.4948 10.4052 20.559 10.6854 20.4429C10.9657 20.3268 11.1484 20.0534 11.1484 19.75L11.1484 14.5C11.1484 14.0858 10.8127 13.75 10.3985 13.75L5.14851 13.7495Z" fill="#000000"/><path d="M14.899 13.75C14.7001 13.75 14.5093 13.829 14.3687 13.9697C14.228 14.1103 14.149 14.3011 14.149 14.5L14.149 19.7499C14.149 20.0532 14.3318 20.3267 14.612 20.4428C14.8923 20.5589 15.2149 20.4947 15.4294 20.2802L17.5237 18.1857L20.1181 20.7803C20.411 21.0732 20.8858 21.0732 21.1787 20.7804C21.4716 20.4875 21.4717 20.0126 21.1788 19.7197L18.5843 17.125L20.6788 15.0303C20.8933 14.8158 20.9574 14.4932 20.8413 14.213C20.7253 13.9327 20.4518 13.75 20.1484 13.75L14.899 13.75Z" fill="#000000"/></svg>