<svg width="80" height="80" viewBox="0 0 24 24" fill="none" xmlns="http://www.w3.org/2000/svg" transform="rotate(0 0 0)"><path d="M11.2396 6.48101C10.3412 6.16633 9.69674 5.31093 9.69674 4.305C9.69674 3.03196 10.7288 2 12.0017 2C13.2747 2 14.3067 3.03196 14.3067 4.305C14.3067 5.31997 13.6507 6.18169 12.7396 6.48936V8.23506C13.5836 8.39964 14.3285 8.84103 14.8762 9.46084L16.4 8.58108C16.2225 7.64519 16.6411 6.65859 17.5127 6.15534C18.6152 5.51882 20.025 5.89666 20.6614 6.99903C21.2979 8.10141 20.9202 9.5112 19.8177 10.1477C18.9392 10.6549 17.8656 10.5181 17.1437 9.88377L15.6308 10.7572C15.764 11.1467 15.8364 11.5644 15.8364 11.9991C15.8364 12.4261 15.7666 12.8368 15.6377 13.2205L17.1623 14.1007C17.8841 13.4797 18.9473 13.3493 19.8185 13.8523C20.921 14.4888 21.2987 15.8986 20.6622 17.001C20.0258 18.1034 18.616 18.4812 17.5135 17.8447C16.6347 17.3373 16.2164 16.3385 16.4053 15.3957L14.8904 14.5211C14.3415 15.1494 13.5909 15.5971 12.7396 15.7631V17.5113C13.6507 17.819 14.3066 18.6808 14.3066 19.6956C14.3066 20.9685 13.2747 22.0006 12.0016 22.0006C10.7286 22.0006 9.69663 20.9685 9.69663 19.6956C9.69663 18.6897 10.341 17.8342 11.2396 17.5196V15.7584C10.3981 15.5888 9.65632 15.1437 9.11245 14.5213L7.59806 15.3956C7.78718 16.3385 7.36884 17.3375 6.48992 17.845C5.38755 18.4814 3.97775 18.1038 3.34123 17.0013C2.70471 15.8988 3.08255 14.489 4.18492 13.8526C5.05601 13.3497 6.11905 13.48 6.84083 14.1007L8.36506 13.2207C8.23619 12.837 8.16636 12.4262 8.16636 11.9991C8.16636 11.5644 8.23869 11.1465 8.37199 10.757L6.85851 9.88317C6.13648 10.5177 5.06268 10.6546 4.18412 10.1474C3.08175 9.51093 2.70391 8.10119 3.34043 6.9987C3.97695 5.89621 5.38675 5.51855 6.48912 6.15501C7.36057 6.65815 7.77924 7.64453 7.60195 8.58035L9.12668 9.46065C9.66923 8.84671 10.4054 8.40785 11.2396 8.23972V6.48101Z" fill="#000000"/></svg>