<svg width="80" height="80" viewBox="0 0 24 25" fill="none" xmlns="http://www.w3.org/2000/svg" transform="rotate(0 0 0)"><path d="M3.25 5.89062C3.25 4.64798 4.25736 3.64062 5.5 3.64062H18.5C19.7426 3.64062 20.75 4.64798 20.75 5.89062V18.8906C20.75 20.1333 19.7426 21.1406 18.5 21.1406H5.5C4.25736 21.1406 3.25 20.1333 3.25 18.8906V5.89062ZM12 9.74855C12.5965 9.74855 13.08 10.2321 13.08 10.8285C13.08 11.1942 12.8989 11.5177 12.6182 11.7142C12.3475 11.9037 12.0204 12.1568 11.7572 12.4747C11.491 12.7962 11.25 13.2332 11.25 13.7747C11.25 14.189 11.5858 14.5247 12 14.5247C12.4142 14.5247 12.75 14.189 12.75 13.7747C12.75 13.6997 12.7807 13.5905 12.9125 13.4314C13.0471 13.2688 13.2442 13.107 13.4785 12.943C14.143 12.4777 14.58 11.7042 14.58 10.8285C14.58 9.40363 13.4249 8.24855 12 8.24855C10.5751 8.24855 9.42006 9.40363 9.42006 10.8285C9.42006 11.2427 9.75584 11.5785 10.1701 11.5785C10.5843 11.5785 10.9201 11.2427 10.9201 10.8285C10.9201 10.2321 11.4036 9.74855 12 9.74855ZM11.2493 15.7827C11.2493 16.1969 11.5851 16.5327 11.9993 16.5327C12.4135 16.5327 12.75 16.1969 12.75 15.7827C12.75 15.3685 12.4135 15.0327 11.9993 15.0327C11.5851 15.0327 11.2493 15.3685 11.2493 15.7827Z" fill="#000000"/></svg>