<svg width="80" height="80" viewBox="0 0 25 25" fill="none" xmlns="http://www.w3.org/2000/svg" transform="rotate(0 0 0)"><path d="M17.5225 7.10388C18.1994 7.10388 18.7481 7.62995 18.7481 8.27888V18.6206C18.7481 19.2696 18.1994 19.7956 17.5225 19.7956C16.8456 19.7956 16.2968 19.2696 16.2968 18.6206V8.27888C16.2968 7.62995 16.8456 7.10388 17.5225 7.10388ZM12.8934 9.68888C13.5704 9.68888 14.1191 10.215 14.1191 10.8639V18.6202C14.1191 19.2691 13.5704 19.7952 12.8934 19.7952C12.2165 19.7952 11.6678 19.2691 11.6678 18.6202V10.8639C11.6678 10.215 12.2165 9.68888 12.8934 9.68888ZM8.26521 12.2746C8.94212 12.2746 9.49086 12.8007 9.49086 13.4496V18.6205C9.49086 19.2694 8.94212 19.7955 8.26521 19.7955C7.58831 19.7955 7.03957 19.2694 7.03957 18.6205V13.4496C7.03957 12.8007 7.58831 12.2746 8.26521 12.2746ZM3.6358 14.8597C4.31271 14.8597 4.86145 15.3857 4.86145 16.0347V18.6201C4.86145 19.269 4.31271 19.7951 3.6358 19.7951C2.9589 19.7951 2.41016 19.269 2.41016 18.6201V16.0347C2.41016 15.3857 2.9589 14.8597 3.6358 14.8597Z" fill="#000000"/></svg>