<svg width="80" height="80" viewBox="0 0 24 24" fill="none" xmlns="http://www.w3.org/2000/svg" transform="rotate(0 0 0)"><path d="M15.9077 3.47084C15.6933 3.25624 15.3707 3.19199 15.0903 3.30804C14.81 3.4241 14.6272 3.69761 14.6272 4.001V6.62697L5.25195 6.62698C4.83774 6.62698 4.50195 6.96276 4.50195 7.37698C4.50195 7.79119 4.83774 8.12698 5.25195 8.12698L14.6272 8.12697V10.751C14.6272 11.0544 14.81 11.3279 15.0904 11.444C15.3707 11.56 15.6933 11.4958 15.9078 11.2811L19.2407 7.94588C19.4006 7.80834 19.502 7.60449 19.502 7.37697C19.502 7.15898 19.4089 6.9627 19.2604 6.82566L15.9077 3.47084Z" fill="#000000"/><path d="M9.3747 13.251C9.3747 12.9476 9.19191 12.6741 8.91159 12.558C8.63127 12.442 8.30864 12.5062 8.09419 12.7209L4.76125 16.0561C4.6013 16.1937 4.5 16.3975 4.5 16.625C4.5 16.843 4.593 17.0393 4.74149 17.1763L8.0942 20.5312C8.30866 20.7458 8.63129 20.81 8.9116 20.694C9.19192 20.5779 9.3747 20.3044 9.3747 20.001L9.3747 17.375H18.75C19.1642 17.375 19.5 17.0392 19.5 16.625C19.5 16.2108 19.1642 15.875 18.75 15.875H9.3747L9.3747 13.251Z" fill="#000000"/></svg>