<svg width="80" height="80" viewBox="0 0 24 24" fill="none" xmlns="http://www.w3.org/2000/svg" transform="rotate(0 0 0)"><path d="M12.2939 5.05533L14.1923 3.15696C15.071 2.27846 16.4957 2.27838 17.3745 3.15688L20.8427 6.62409C21.7215 7.50268 21.7215 8.9273 20.8427 9.80592L18.9456 11.703C18.7994 11.4325 18.6119 11.1784 18.3834 10.9499L13.0519 5.61999C12.822 5.39013 12.5662 5.20191 12.2939 5.05533ZM17.3864 5.49974C17.0935 5.20689 16.6186 5.20696 16.3257 5.49989C16.0329 5.79283 16.033 6.2677 16.3259 6.56055L17.444 7.67835C17.737 7.97121 18.2118 7.97114 18.5047 7.6782C18.7975 7.38527 18.7975 6.9104 18.5045 6.61754L17.3864 5.49974Z" fill="#000000"/><path d="M9.03297 14.9666C8.74008 14.6737 8.2652 14.6737 7.97231 14.9666C7.67942 15.2595 7.67942 15.7344 7.97231 16.0273C8.2652 16.3202 8.74008 16.3202 9.03297 16.0273C9.32586 15.7344 9.32586 15.2595 9.03297 14.9666Z" fill="#000000"/><path d="M9.16144 6.32586L4.26138 11.2245C1.91027 13.575 1.91027 17.3859 4.26137 19.7363C6.61236 22.0866 10.424 22.0866 12.775 19.7363L17.6766 14.836C18.0647 14.4481 18.2814 13.9536 18.3268 13.4467C18.3832 12.8066 18.1664 12.147 17.6764 11.6571L12.3449 6.32719C11.4662 5.4487 10.0402 5.44736 9.16144 6.32586ZM6.91165 13.906C7.79033 13.0273 9.21495 13.0273 10.0936 13.906C10.9723 14.7846 10.9723 16.2093 10.0936 17.0879C9.21495 17.9666 7.79033 17.9666 6.91165 17.0879C6.03297 16.2093 6.03297 14.7846 6.91165 13.906Z" fill="#000000"/></svg>