<svg width="80" height="80" viewBox="0 0 24 25" fill="none" xmlns="http://www.w3.org/2000/svg" transform="rotate(0 0 0)"><path d="M13.1162 12.251C13.1162 12.8675 12.6164 13.3673 11.9999 13.3673C11.3834 13.3673 10.8837 12.8675 10.8837 12.251C10.8837 11.6345 11.3834 11.1348 11.9999 11.1348C12.6164 11.1348 13.1162 11.6345 13.1162 12.251Z" fill="#000000"/><path d="M8 2.25C8.41421 2.25 8.75 2.58578 8.75 3L8.75001 4.75H11.25L11.25 3C11.25 2.58579 11.5858 2.25 12 2.25C12.4142 2.25 12.75 2.58578 12.75 3L12.75 4.75H15.25L15.25 3C15.25 2.58579 15.5858 2.25 16 2.25C16.4142 2.25 16.75 2.58578 16.75 3L16.75 4.75H17.25C18.4927 4.75 19.5 5.75736 19.5 7V7.5L21.25 7.49999C21.6642 7.49999 22 7.83577 22 8.24998C22 8.6642 21.6642 8.99999 21.25 8.99999L19.5 9V11.5L21.25 11.5C21.6642 11.5 22 11.8358 22 12.25C22 12.6642 21.6642 13 21.25 13L19.5 13V15.5L21.25 15.5C21.6642 15.5 22 15.8358 22 16.25C22 16.6642 21.6642 17 21.25 17L19.5 17V17.5C19.5 18.7426 18.4927 19.75 17.25 19.75H16.75L16.75 21.5C16.75 21.9142 16.4142 22.25 16 22.25C15.5858 22.25 15.25 21.9142 15.25 21.5L15.25 19.75H12.75L12.75 21.5C12.75 21.9142 12.4142 22.25 12 22.25C11.5858 22.25 11.25 21.9142 11.25 21.5L11.25 19.75H8.75L8.75001 21.5C8.75001 21.9142 8.41423 22.25 8.00002 22.25C7.5858 22.25 7.25001 21.9142 7.25001 21.5L7.25 19.75H6.75003C5.50739 19.75 4.50003 18.7426 4.50003 17.5V17L2.75 17C2.33579 17 2 16.6642 2 16.25C2 15.8358 2.33578 15.5 2.75 15.5L4.50003 15.5V13L2.75 13C2.33579 13 2 12.6642 2 12.25C2 11.8358 2.33578 11.5 2.75 11.5L4.50003 11.5V8.99999L2.75 9C2.33579 9 2 8.66422 2 8.25C2 7.83579 2.33578 7.5 2.75 7.5L4.50003 7.49999V7C4.50003 5.75736 5.50739 4.75 6.75003 4.75H7.25001L7.25 3C7.25 2.58579 7.58578 2.25 8 2.25ZM10.875 8.42449L9.24927 9.36312C8.55311 9.76504 8.12427 10.5078 8.12427 11.3117V13.1889C8.12427 13.9928 8.55312 14.7356 9.24927 15.1375L10.875 16.0761C11.5712 16.478 12.4289 16.478 13.125 16.0761L14.7508 15.1375C15.4469 14.7356 15.8758 13.9928 15.8758 13.1889V11.3117C15.8758 10.5078 15.4469 9.76504 14.7508 9.36311L13.125 8.42449C12.4289 8.02257 11.5712 8.02257 10.875 8.42449Z" fill="#000000"/></svg>