<svg width="80" height="80" viewBox="0 0 25 25" fill="none" xmlns="http://www.w3.org/2000/svg" transform="rotate(0 0 0)"><path d="M3.78082 2.84467C3.48792 2.55178 3.01305 2.55178 2.72016 2.84467C2.42726 3.13756 2.42726 3.61244 2.72016 3.90533L6.87798 8.06315L6.80858 8.12484H4.75C3.50736 8.12484 2.5 9.1322 2.5 10.3748V14.8748C2.5 16.1175 3.50736 17.1248 4.75 17.1248H6.80862L10.0052 19.9662C11.4562 21.256 13.75 20.226 13.75 18.2846V14.9352L21.2192 22.4044C21.5121 22.6972 21.9869 22.6972 22.2798 22.4044C22.5727 22.1115 22.5727 21.6366 22.2798 21.3437L3.78082 2.84467Z" fill="#000000"/><path d="M15.499 12.5354L16.7902 13.8265C17.2211 12.6385 16.9913 11.2651 16.1007 10.2747C15.8237 9.96675 15.3495 9.9416 15.0415 10.2186C14.7335 10.4955 14.7084 10.9698 14.9853 11.2777C15.3078 11.6364 15.479 12.0831 15.499 12.5354Z" fill="#000000"/><path d="M17.7519 14.7883L18.8565 15.8928C20.2358 13.6007 20.0147 10.4876 18.193 8.45876C17.9162 8.15056 17.442 8.12505 17.1338 8.40179C16.8256 8.67853 16.8001 9.15272 17.0769 9.46092C18.3658 10.8964 18.5908 13.0886 17.7519 14.7883Z" fill="#000000"/><path d="M13.75 10.7863L12.25 9.28635L10.1369 7.17326L9.07442 6.11077L10.0052 5.28342C11.4562 3.99362 13.75 5.02368 13.75 6.96509V10.7863Z" fill="#000000"/></svg>