<svg width="80" height="80" viewBox="0 0 24 24" fill="none" xmlns="http://www.w3.org/2000/svg" transform="rotate(0 0 0)"><path d="M13.9986 2.85185C14.3566 3.06014 14.478 3.51924 14.2697 3.87727L13.1036 5.88178H18.25C19.4926 5.88178 20.5 6.88913 20.5 8.13178V11.5938H18.7475C17.5049 11.5938 16.4975 12.6011 16.4975 13.8438C16.4975 14.0819 16.5345 14.3114 16.6031 14.5269C16.3471 14.4269 16.0706 14.373 15.7852 14.373H12.0004C10.7578 14.373 9.75043 15.3804 9.75043 16.623C9.75043 17.3984 10.1427 18.0822 10.7395 18.4868L10.4094 18.8169C10.0172 19.2091 9.79252 19.7219 9.75574 20.2529H7.01948L6.45197 21.7662C6.30653 22.1541 5.87422 22.3506 5.48638 22.2051C5.09854 22.0597 4.90204 21.6274 5.04748 21.2395L5.41748 20.2529H4.25C3.00736 20.2529 2 19.2455 2 18.0029V8.13178C2 6.88913 3.00736 5.88178 4.25 5.88178H9.01081L8.34821 5.21918C8.05532 4.92629 8.05532 4.45141 8.34821 4.15852C8.64111 3.86563 9.11598 3.86563 9.40887 4.15852L11.0518 5.80142C11.1678 5.91742 11.3622 5.89215 11.4446 5.75036L12.9732 3.12298C13.1815 2.76494 13.6406 2.64356 13.9986 2.85185Z" fill="#000000"/><path d="M17.9977 13.8441C17.9977 14.2583 18.3334 14.5941 18.7477 14.5941H19.439L18.2173 15.8158C18.0028 16.0303 17.9387 16.3529 18.0547 16.6331C18.1708 16.9134 18.4443 17.0961 18.7477 17.0961H21.2497C21.6639 17.0961 21.9997 16.7603 21.9997 16.3461C21.9997 15.9319 21.6639 15.5961 21.2497 15.5961H20.5583L21.78 14.3744C21.9945 14.1599 22.0587 13.8373 21.9426 13.5571C21.8265 13.2768 21.553 13.0941 21.2497 13.0941H18.7477C18.3334 13.0941 17.9977 13.4299 17.9977 13.8441Z" fill="#000000"/><path d="M11.2506 16.6234C11.2506 17.0376 11.5864 17.3734 12.0006 17.3734H13.9747L11.4703 19.8779C11.2558 20.0924 11.1916 20.415 11.3077 20.6952C11.4238 20.9755 11.6972 21.1582 12.0006 21.1582H15.7854C16.1996 21.1582 16.5354 20.8224 16.5354 20.4082C16.5354 19.994 16.1996 19.6582 15.7854 19.6582H13.8112L16.3157 17.1537C16.5302 16.9392 16.5944 16.6166 16.4783 16.3364C16.3622 16.0561 16.0888 15.8734 15.7854 15.8734H12.0006C11.5864 15.8734 11.2506 16.2092 11.2506 16.6234Z" fill="#000000"/></svg>