<svg width="80" height="80" viewBox="0 0 24 24" fill="none" xmlns="http://www.w3.org/2000/svg" transform="rotate(0 0 0)"><path d="M13.9986 2.85185C14.3566 3.06014 14.478 3.51924 14.2697 3.87727L13.1036 5.88178H18.25C19.4926 5.88178 20.5 6.88913 20.5 8.13178V10.9453C19.3967 10.1911 18.0623 9.75 16.625 9.75C12.828 9.75 9.75 12.828 9.75 16.625C9.75 17.9566 10.1286 19.1998 10.784 20.2529H7.01948L6.45197 21.7662C6.30653 22.1541 5.87422 22.3506 5.48638 22.2051C5.09854 22.0597 4.90204 21.6274 5.04748 21.2395L5.41748 20.2529H4.25C3.00736 20.2529 2 19.2455 2 18.0029V8.13178C2 6.88913 3.00736 5.88178 4.25 5.88178H9.01081L8.34821 5.21918C8.05532 4.92629 8.05532 4.45141 8.34821 4.15852C8.64111 3.86563 9.11598 3.86563 9.40887 4.15852L11.0518 5.80142C11.1678 5.91742 11.3622 5.89215 11.4446 5.75036L12.9732 3.12298C13.1815 2.76494 13.6406 2.64356 13.9986 2.85185Z" fill="#000000"/><path d="M11.25 16.625C11.25 13.6565 13.6565 11.25 16.625 11.25C19.5935 11.25 22 13.6565 22 16.625C22 19.5935 19.5935 22 16.625 22C13.6565 22 11.25 19.5935 11.25 16.625ZM17.375 15.0029C17.375 14.5887 17.0392 14.2529 16.625 14.2529C16.2108 14.2529 15.875 14.5887 15.875 15.0029V16.9874C15.875 17.4017 16.2108 17.7374 16.625 17.7374H18.249C18.6632 17.7374 18.999 17.4017 18.999 16.9874C18.999 16.5732 18.6632 16.2374 18.249 16.2374H17.375V15.0029Z" fill="#000000"/></svg>