<svg width="80" height="80" viewBox="0 0 24 25" fill="none" xmlns="http://www.w3.org/2000/svg" transform="rotate(0 0 0)"><path d="M21.5577 17.8203L18.8277 16.5703C18.5377 16.4403 18.1977 16.5003 17.9777 16.7303C17.9677 16.7403 16.7077 18.0003 15.2577 18.0003C14.2544 18.0003 13.2386 17.4111 12.5477 16.7203C12.4077 16.5803 12.2177 16.4903 12.0077 16.4903C11.8077 16.4903 11.6177 16.5703 11.4677 16.7103C11.4577 16.7203 10.4977 17.6803 9.28769 17.9303C9.22927 17.9367 9.17084 17.9454 9.11207 17.954C8.98991 17.972 8.86588 17.9903 8.73769 17.9903C7.28769 17.9903 6.02769 16.7303 6.01769 16.7203C5.79769 16.4903 5.45769 16.4303 5.16769 16.5603L2.43769 17.8203C2.05769 17.9903 1.89769 18.4403 2.06769 18.8103C2.23769 19.1903 2.68769 19.3503 3.06769 19.1803L5.34769 18.1303C5.96769 18.6403 7.23769 19.4903 8.73769 19.4903C10.1377 19.4903 11.3377 18.7403 11.9977 18.2303C12.6577 18.7403 13.8577 19.4903 15.2577 19.4903C16.7577 19.4903 18.0277 18.6303 18.6477 18.1303L20.9277 19.1803C21.2977 19.3503 21.7477 19.1803 21.9277 18.8103C22.0977 18.4303 21.9277 17.9903 21.5577 17.8203Z" fill="#000000"/><path d="M9.08883 6.70267C9.28461 6.52066 9.56247 6.45661 9.81818 6.53456C11.0721 6.91679 14.0968 8.1682 16.3128 10.195C16.3288 10.2096 16.344 10.2248 16.3584 10.2404L22.0598 10.6963C22.2865 10.7144 22.4927 10.8344 22.6205 11.0226C22.7482 11.2107 22.7837 11.4466 22.717 11.664L21.361 16.0807L19.4406 15.2015C18.604 14.8264 17.5916 14.9832 16.9155 15.6702C16.4842 16.0751 15.8674 16.5002 15.257 16.5002C14.7943 16.5002 14.1375 16.1893 13.6077 15.6596C13.2184 15.2703 12.658 14.9902 12.007 14.9902C11.3966 14.9902 10.8482 15.236 10.4436 15.6137C9.98723 16.0513 9.38156 16.4999 8.72214 16.4901C5.87765 15.1981 3.20145 13.2025 1.36277 10.2402C1.21354 9.99973 1.21234 9.69579 1.35965 9.45419C1.50696 9.21259 1.77771 9.07447 2.05978 9.09703L6.17577 9.42616C6.20165 9.39203 6.23083 9.35967 6.26327 9.32951L9.08883 6.70267ZM9.78511 8.10344L8.18915 9.58716L13.6363 10.0227C12.2063 9.08447 10.7095 8.43077 9.78511 8.10344Z" fill="#000000"/><path d="M21.864 7.98564C21.238 7.2493 20.1336 7.15987 19.3972 7.78591L18.6939 8.38386C18.4628 8.58035 18.3728 8.8967 18.4659 9.18541C18.559 9.47412 18.8168 9.67833 19.1192 9.70281L21.8301 9.92231C22.1324 9.94679 22.4197 9.78673 22.5581 9.51675C22.6964 9.24678 22.6585 8.92006 22.462 8.68895L21.864 7.98564Z" fill="#000000"/></svg>