<svg width="80" height="80" viewBox="0 0 24 24" fill="none" xmlns="http://www.w3.org/2000/svg" transform="rotate(0 0 0)"><path d="M11.5039 3.25H18.4995C19.7422 3.25 20.7495 4.25736 20.7495 5.5V18.5C20.7495 19.7426 19.7422 20.75 18.4995 20.75H11.5039C10.2613 20.75 9.25391 19.7426 9.25391 18.5L9.25391 5.5C9.25391 4.25736 10.2613 3.25 11.5039 3.25Z" fill="#000000"/><path d="M4 7.75C4.41421 7.75 4.75 8.08579 4.75 8.5L4.75 15.5C4.75 15.9142 4.41421 16.25 4 16.25C3.58579 16.25 3.25 15.9142 3.25 15.5V8.5C3.25 8.08579 3.58579 7.75 4 7.75Z" fill="#000000"/><path d="M7.75391 6.25C7.75391 5.83579 7.41812 5.5 7.00391 5.5C6.58969 5.5 6.25391 5.83579 6.25391 6.25L6.25391 17.75C6.25391 18.1642 6.58969 18.5 7.00391 18.5C7.41812 18.5 7.75391 18.1642 7.75391 17.75L7.75391 6.25Z" fill="#000000"/></svg>