<svg width="80" height="80" viewBox="0 0 25 24" fill="none" xmlns="http://www.w3.org/2000/svg" transform="rotate(0 0 0)"><path d="M12.8357 4.5H4.25C3.00736 4.5 2 5.50736 2 6.75V15.3438C2 16.5864 3.00736 17.5938 4.25 17.5938H11.25V19.25H9.00003C8.58582 19.25 8.25003 19.5858 8.25003 20C8.25003 20.4142 8.58582 20.75 9.00003 20.75H15C15.4142 20.75 15.75 20.4142 15.75 20C15.75 19.5858 15.4142 19.25 15 19.25H12.75V17.5938H19.75C20.9926 17.5938 22 16.5864 22 15.3438V12.9418C21.6264 13.1122 21.2062 13.2088 20.7526 13.2088H12.9973C10.6908 13.2088 9.24922 10.7119 10.4025 8.71439L12.8357 4.5Z" fill="#000000"/><path d="M15.5792 2.74813C16.1551 1.75062 17.5949 1.75063 18.1708 2.74813L19.1402 4.42719C19.3473 4.78591 19.2244 5.2446 18.8657 5.45171C18.507 5.65882 18.0483 5.53591 17.8412 5.17719L16.875 3.50375L15.9088 5.17719C15.7017 5.53591 15.243 5.65882 14.8843 5.45171C14.5256 5.2446 14.4027 4.78591 14.6098 4.42719L15.5792 2.74813ZM13.6955 7.5108C14.0542 7.71791 14.1771 8.1766 13.97 8.53532L13.0039 10.2088H14.9362C15.3504 10.2088 15.6862 10.5446 15.6862 10.9588C15.6862 11.373 15.3504 11.7088 14.9362 11.7088H12.9974C11.8456 11.7088 11.1257 10.4619 11.7016 9.46439L12.671 7.78532C12.8781 7.4266 13.3368 7.3037 13.6955 7.5108ZM20.0545 7.5108C20.4132 7.3037 20.8719 7.4266 21.079 7.78532L22.0484 9.46439C22.6243 10.4619 21.9045 11.7088 20.7526 11.7088H18.8138C18.3996 11.7088 18.0638 11.373 18.0638 10.9588C18.0638 10.5446 18.3996 10.2088 18.8138 10.2088H20.7461L19.78 8.53532C19.5729 8.1766 19.6958 7.71791 20.0545 7.5108Z" fill="#000000"/></svg>