<svg width="80" height="80" viewBox="0 0 25 25" fill="none" xmlns="http://www.w3.org/2000/svg" transform="rotate(0 0 0)"><path d="M9.56641 2.5C8.32377 2.5 7.31641 3.50736 7.31641 4.75V17.25C7.31641 18.4926 8.32376 19.5 9.56641 19.5H18.0629C19.3056 19.5 20.3129 18.4926 20.3129 17.25V7.22268C20.3129 6.62594 20.0759 6.05364 19.6539 5.63168L17.1812 3.159C16.7593 2.73705 16.187 2.5 15.5902 2.5H9.56641ZM11.3145 11.9746H16.3145C16.7287 11.9746 17.0645 12.3104 17.0645 12.7246C17.0645 13.1388 16.7287 13.4746 16.3145 13.4746H11.3145C10.9002 13.4746 10.5645 13.1388 10.5645 12.7246C10.5645 12.3104 10.9002 11.9746 11.3145 11.9746ZM11.3145 14.9746H13.8145C14.2287 14.9746 14.5645 15.3104 14.5645 15.7246C14.5645 16.1388 14.2287 16.4746 13.8145 16.4746H11.3145C10.9002 16.4746 10.5645 16.1388 10.5645 15.7246C10.5645 15.3104 10.9002 14.9746 11.3145 14.9746Z" fill="#000000"/><path d="M4.31055 7.74854C4.31055 6.58839 5.1886 5.63332 6.31641 5.51163V17.25C6.31641 19.0449 7.77148 20.5 9.56641 20.5H16.5468C16.4225 21.625 15.4687 22.5 14.3105 22.5H6.56055C5.31791 22.5 4.31055 21.4926 4.31055 20.25V7.74854Z" fill="#000000"/></svg>