<svg width="80" height="80" viewBox="0 0 25 24" fill="none" xmlns="http://www.w3.org/2000/svg" transform="rotate(0 0 0)"><path d="M21.25 4.00001C21.25 3.77689 21.1507 3.56536 20.979 3.42287C20.8073 3.28039 20.5811 3.22173 20.3618 3.26285L8.36178 5.51285C8.00705 5.57936 7.75 5.88909 7.75 6.25001V9.98484C7.74982 9.99437 7.74982 10.0039 7.75 10.0135V14.4585C7.20497 14.1636 6.55664 14 5.875 14C5.00075 14 4.18131 14.2691 3.56431 14.7392C2.9467 15.2098 2.5 15.9138 2.5 16.75C2.5 17.5862 2.9467 18.2902 3.56431 18.7608C4.18131 19.2309 5.00075 19.5 5.875 19.5C6.74925 19.5 7.56869 19.2309 8.18569 18.7608C8.79111 18.2995 9.2323 17.6139 9.24948 16.7993C9.24983 16.79 9.25 16.7806 9.25 16.7712V10.62L19.75 8.60938V12.2085C19.205 11.9136 18.5566 11.75 17.875 11.75C17.0008 11.75 16.1813 12.0191 15.5643 12.4892C14.9467 12.9598 14.5 13.6638 14.5 14.5C14.5 15.3362 14.9467 16.0402 15.5643 16.5108C16.1813 16.9809 17.0008 17.25 17.875 17.25C18.7492 17.25 19.5687 16.9809 20.1857 16.5108C20.7911 16.0495 21.2323 15.3639 21.2495 14.5493C21.2498 14.54 21.25 14.5306 21.25 14.5212V4.00001Z" fill="#000000"/></svg>