<svg width="80" height="80" viewBox="0 0 24 24" fill="none" xmlns="http://www.w3.org/2000/svg" transform="rotate(0 0 0)"><path d="M14.75 13.7413L12.0498 12.1823C10.8895 11.5125 10.1748 10.2745 10.1748 8.93474V5.81679C10.1748 5.35985 10.2579 4.91476 10.4135 4.5H4.25C3.00736 4.5 2 5.50736 2 6.75V15.3438C2 16.5864 3.00736 17.5938 4.25 17.5938H11.25V19.25H9.00003C8.58582 19.25 8.25003 19.5858 8.25003 20C8.25003 20.4142 8.58582 20.75 9.00003 20.75H15C15.4142 20.75 15.75 20.4142 15.75 20C15.75 19.5858 15.4142 19.25 15 19.25H12.75V17.5938H19.75C20.9926 17.5938 22 16.5864 22 15.3438V11.5632C21.7657 11.8017 21.4976 12.0107 21.2002 12.1823L18.5 13.7413C17.3398 14.4112 15.9103 14.4112 14.75 13.7413Z" fill="#000000"/><path d="M17.75 2.30926C17.0539 1.90733 16.1962 1.90733 15.5 2.30926L12.7998 3.86823C12.1037 4.27015 11.6748 5.01294 11.6748 5.81679V8.93474C11.6748 9.73858 12.1037 10.4814 12.7998 10.8833L15.5 12.4423C16.1962 12.8442 17.0539 12.8442 17.75 12.4423L20.4502 10.8833C21.1464 10.4814 21.5752 9.73859 21.5752 8.93474V5.81679C21.5752 5.01294 21.1464 4.27015 20.4502 3.86823L17.75 2.30926ZM16.625 9.12576C15.6585 9.12576 14.875 8.34226 14.875 7.37576C14.875 6.40926 15.6585 5.62576 16.625 5.62576C17.5915 5.62576 18.375 6.40926 18.375 7.37576C18.375 8.34226 17.5915 9.12576 16.625 9.12576Z" fill="#000000"/></svg>