<svg width="80" height="80" viewBox="0 0 25 24" fill="none" xmlns="http://www.w3.org/2000/svg" transform="rotate(0 0 0)"><path d="M19.2132 3.55711C19.4935 3.44103 19.816 3.5052 20.0305 3.71969L22.2804 5.96959C22.5733 6.26248 22.5733 6.73735 22.2804 7.03025L20.0303 9.28035C19.8158 9.49485 19.4932 9.55902 19.213 9.44293C18.9327 9.32683 18.75 9.05334 18.75 8.74999L18.7501 7.24999L17.1865 7.25002C16.9686 7.25002 16.7614 7.34484 16.6189 7.50981L12.741 12L16.6189 16.4902C16.7614 16.6552 16.9685 16.75 17.1865 16.75L18.7501 16.75L18.7502 15.25C18.7502 14.9466 18.933 14.6732 19.2132 14.5571C19.4935 14.441 19.816 14.5052 20.0305 14.7197L22.2804 16.9696C22.5733 17.2625 22.5733 17.7374 22.2804 18.0302L20.0303 20.2803C19.8158 20.4949 19.4932 20.559 19.213 20.4429C18.9327 20.3268 18.75 20.0533 18.75 19.75L18.7501 18.25L17.1865 18.25C16.5326 18.25 15.9111 17.9656 15.4837 17.4707L11.75 13.1475L8.01634 17.4707C7.58894 17.9656 6.96738 18.25 6.31349 18.25H3.25C2.83579 18.25 2.5 17.9142 2.5 17.5C2.5 17.0858 2.83579 16.75 3.25 16.75H6.31349C6.53145 16.75 6.73864 16.6552 6.8811 16.4902L10.759 12L6.8811 7.50981C6.73864 7.34485 6.53145 7.25002 6.31349 7.25002H3.25C2.83579 7.25002 2.5 6.91424 2.5 6.50002C2.5 6.08581 2.83579 5.75002 3.25 5.75002H6.31349C6.96738 5.75002 7.58894 6.03449 8.01634 6.52938L11.75 10.8526L15.4837 6.52938C15.9111 6.0345 16.5326 5.75003 17.1865 5.75002L18.7501 5.74999L18.7502 4.24999C18.7502 3.94665 18.933 3.67318 19.2132 3.55711Z" fill="#000000"/></svg>