<svg width="80" height="80" viewBox="0 0 24 25" fill="none" xmlns="http://www.w3.org/2000/svg" transform="rotate(0 0 0)"><path d="M14.7822 7.9699C14.5678 7.75528 14.2451 7.691 13.9648 7.80706C13.6845 7.92311 13.5017 8.19662 13.5017 8.50002V11.75L10.5012 11.75L10.5012 8.50002C10.5012 8.19663 10.3185 7.92313 10.0381 7.80707C9.75783 7.69101 9.4352 7.75527 9.22074 7.96986L5.26051 11.9326C5.10155 12.0701 5.00098 12.2733 5.00098 12.5C5.00098 12.7276 5.10233 12.9315 5.26237 13.069L9.22072 17.0302C9.43518 17.2448 9.75781 17.309 10.0381 17.193C10.3184 17.0769 10.5012 16.8034 10.5012 16.5L10.5012 13.25L13.5017 13.25L13.5017 16.5C13.5017 16.8034 13.6845 17.0769 13.9648 17.193C14.2451 17.309 14.5678 17.2448 14.7822 17.0301L18.7791 13.0301C19.0717 12.7373 19.0717 12.2627 18.7791 11.9699L14.7822 7.9699Z" fill="#000000"/><path d="M3.50098 8.50002C3.50098 8.08581 3.16519 7.75002 2.75098 7.75002C2.33676 7.75002 2.00098 8.08581 2.00098 8.50002L2.00098 16.5C2.00098 16.9142 2.33677 17.25 2.75098 17.25C3.16519 17.25 3.50098 16.9142 3.50098 16.5L3.50098 8.50002Z" fill="#000000"/><path d="M21.999 8.50002C21.999 8.08581 21.6632 7.75002 21.249 7.75002C20.8348 7.75002 20.499 8.08581 20.499 8.50002L20.499 16.5C20.499 16.9142 20.8348 17.25 21.249 17.25C21.6632 17.25 21.999 16.9142 21.999 16.5L21.999 8.50002Z" fill="#000000"/></svg>