<svg width="80" height="80" viewBox="0 0 24 24" fill="none" xmlns="http://www.w3.org/2000/svg" transform="rotate(0 0 0)"><path d="M8.02966 2.41475C9.28841 1.89336 10.6375 1.625 12 1.625C12.6213 1.625 13.125 2.12868 13.125 2.75C13.125 3.37132 12.6213 3.875 12 3.875C10.933 3.875 9.87647 4.08516 8.8907 4.49348C7.90493 4.9018 7.00923 5.50028 6.25476 6.25476C5.50028 7.00923 4.9018 7.90493 4.49348 8.8907C4.08516 9.87647 3.875 10.933 3.875 12C3.875 12.6213 3.37132 13.125 2.75 13.125C2.12868 13.125 1.625 12.6213 1.625 12C1.625 10.6375 1.89336 9.28841 2.41475 8.02966C2.93614 6.77091 3.70036 5.62717 4.66377 4.66377C5.62718 3.70036 6.77091 2.93614 8.02966 2.41475ZM15.9584 2.4132C16.5327 2.65021 16.8061 3.30794 16.5691 3.88228L16.5653 3.89152C16.3283 4.46586 15.6706 4.73931 15.0962 4.5023C14.5219 4.26528 14.2484 3.60755 14.4855 3.03321L14.4893 3.02397C14.7263 2.44963 15.384 2.17618 15.9584 2.4132ZM19.3248 4.65646C19.7648 5.09511 19.7659 5.80742 19.3273 6.24745L19.3202 6.25453C18.8816 6.69456 18.1693 6.69567 17.7292 6.25702C17.2892 5.81837 17.2881 5.10606 17.7267 4.66603L17.7338 4.65895C18.1725 4.21892 18.8848 4.21781 19.3248 4.65646ZM11.9999 5.375C12.6212 5.37499 13.1249 5.87865 13.1249 6.49998L13.125 12C13.125 12.2983 13.0065 12.5845 12.7955 12.7955C12.5845 13.0065 12.2984 13.125 12 13.125H8C7.37868 13.125 6.875 12.6213 6.875 12C6.875 11.3787 7.37868 10.875 8 10.875H10.875L10.8749 6.50002C10.8749 5.8787 11.3785 5.37501 11.9999 5.375ZM21.5771 8.01642C21.8159 8.59001 21.5445 9.2486 20.9709 9.48742L20.9617 9.49127C20.3881 9.73009 19.7295 9.45872 19.4907 8.88513C19.2519 8.31155 19.5233 7.65296 20.0968 7.41413L20.1061 7.41028C20.6797 7.17146 21.3382 7.44284 21.5771 8.01642ZM20.1151 12.0021C20.1151 11.3807 20.6187 10.8771 21.2401 10.8771H21.2501C21.8714 10.8771 22.3751 11.3807 22.3751 12.0021C22.3751 12.6234 21.8714 13.1271 21.2501 13.1271H21.2401C20.6187 13.1271 20.1151 12.6234 20.1151 12.0021ZM4.50159 15.106C4.73917 15.6801 4.46637 16.3381 3.89226 16.5757L3.88302 16.5795C3.30892 16.8171 2.65092 16.5443 2.41334 15.9702C2.17576 15.3961 2.44857 14.7381 3.02267 14.5005L3.03191 14.4967C3.60601 14.2591 4.26401 14.5319 4.50159 15.106ZM19.4984 15.106C19.736 14.5319 20.394 14.2591 20.9681 14.4967L20.9773 14.5005C21.5514 14.7381 21.8242 15.3961 21.5867 15.9702C21.3491 16.5443 20.6911 16.8171 20.117 16.5795L20.1077 16.5757C19.5336 16.3381 19.2608 15.6801 19.4984 15.106ZM6.25834 17.7381C6.69747 18.1776 6.69713 18.89 6.25759 19.3291L6.25051 19.3362C5.81097 19.7753 5.09866 19.775 4.65952 19.3354C4.22039 18.8959 4.22073 18.1835 4.66027 17.7444L4.66735 17.7374C5.1069 17.2982 5.81921 17.2986 6.25834 17.7381ZM17.7417 17.7381C18.1808 17.2986 18.8931 17.2982 19.3327 17.7374L19.3397 17.7444C19.7793 18.1835 19.7796 18.8959 19.3405 19.3354C18.9013 19.775 18.189 19.7753 17.7495 19.3362L17.7424 19.3291C17.3029 18.89 17.3025 18.1776 17.7417 17.7381ZM8.88795 19.4985C9.46179 19.7368 9.73387 20.3951 9.49566 20.9689L9.49183 20.9781C9.25362 21.552 8.59532 21.8241 8.02147 21.5858C7.44763 21.3476 7.17555 20.6893 7.41376 20.1155L7.4176 20.1063C7.65581 19.5324 8.31411 19.2603 8.88795 19.4985ZM15.1121 19.4985C15.6859 19.2603 16.3442 19.5324 16.5824 20.1063L16.5862 20.1155C16.8244 20.6893 16.5524 21.3476 15.9785 21.5858C15.4047 21.8241 14.7464 21.552 14.5082 20.9781L14.5043 20.9689C14.2661 20.3951 14.5382 19.7368 15.1121 19.4985ZM12.0011 20.1149C12.6224 20.1149 13.1261 20.6186 13.1261 21.2399V21.2499C13.1261 21.8712 12.6224 22.3749 12.0011 22.3749C11.3798 22.3749 10.8761 21.8712 10.8761 21.2499V21.2399C10.8761 20.6186 11.3798 20.1149 12.0011 20.1149Z" fill="#000000"/></svg>