<svg width="80" height="80" viewBox="0 0 24 25" fill="none" xmlns="http://www.w3.org/2000/svg" transform="rotate(0 0 0)"><path d="M8 2.25C8.41421 2.25 8.75 2.58578 8.75 3L8.75001 4.75H11.25L11.25 3C11.25 2.58579 11.5858 2.25 12 2.25C12.4142 2.25 12.75 2.58578 12.75 3L12.75 4.75H15.25L15.25 3C15.25 2.58579 15.5858 2.25 16 2.25C16.4142 2.25 16.75 2.58578 16.75 3L16.75 4.75H17.25C18.4927 4.75 19.5 5.75736 19.5 7V7.5L21.25 7.49999C21.6642 7.49999 22 7.83577 22 8.24998C22 8.6642 21.6642 8.99999 21.25 8.99999L19.5 9V11.5L21.25 11.5C21.6642 11.5 22 11.8358 22 12.25C22 12.6642 21.6642 13 21.25 13L19.5 13V15.5L21.25 15.5C21.6642 15.5 22 15.8358 22 16.25C22 16.6642 21.6642 17 21.25 17L19.5 17V17.5C19.5 18.7426 18.4927 19.75 17.25 19.75H16.75L16.75 21.5C16.75 21.9142 16.4142 22.25 16 22.25C15.5858 22.25 15.25 21.9142 15.25 21.5L15.25 19.75H12.75L12.75 21.5C12.75 21.9142 12.4142 22.25 12 22.25C11.5858 22.25 11.25 21.9142 11.25 21.5L11.25 19.75H8.75L8.75001 21.5C8.75001 21.9142 8.41423 22.25 8.00002 22.25C7.5858 22.25 7.25001 21.9142 7.25001 21.5L7.25 19.75H6.75003C5.50739 19.75 4.50003 18.7426 4.50003 17.5V17L2.75 17C2.33579 17 2 16.6642 2 16.25C2 15.8358 2.33578 15.5 2.75 15.5L4.50003 15.5V13L2.75 13C2.33579 13 2 12.6642 2 12.25C2 11.8358 2.33578 11.5 2.75 11.5L4.50003 11.5V8.99999L2.75 9C2.33579 9 2 8.66422 2 8.25C2 7.83579 2.33578 7.5 2.75 7.5L4.50003 7.49999V7C4.50003 5.75736 5.50739 4.75 6.75003 4.75H7.25001L7.25 3C7.25 2.58579 7.58578 2.25 8 2.25ZM10.9491 10.9188C11.2419 10.6258 11.2417 10.151 10.9487 9.85817C10.6557 9.56537 10.1809 9.56552 9.88807 9.85851L8.02761 11.7202C7.73495 12.013 7.73494 12.4876 8.02759 12.7805L9.88805 14.6422C10.1808 14.9352 10.6557 14.9354 10.9487 14.6426C11.2417 14.3498 11.2419 13.8749 10.9491 13.5819L9.61841 12.2503L10.9491 10.9188ZM13.0509 10.9188L14.3815 12.2503L13.0508 13.5819C12.7581 13.8749 12.7582 14.3498 13.0512 14.6426C13.3442 14.9354 13.8191 14.9352 14.1119 14.6422L15.9723 12.7805C16.265 12.4876 16.265 12.013 15.9723 11.7202L14.1119 9.85851C13.8191 9.56552 13.3442 9.56537 13.0512 9.85817C12.7582 10.151 12.7581 10.6258 13.0509 10.9188Z" fill="#000000"/></svg>