<svg width="24" height="24" viewBox="0 0 24 24" fill="none" xmlns="http://www.w3.org/2000/svg">
<path d="M8.91078 14.6495L12.3625 12.6567C12.3881 12.6425 12.4129 12.6268 12.4366 12.6098C12.5259 12.546 12.5976 12.4653 12.6497 12.3747C12.7016 12.2849 12.7354 12.1833 12.7462 12.0749C12.7492 12.0453 12.7504 12.0155 12.7499 11.9856V6.5C12.7499 6.08579 12.4141 5.75 11.9999 5.75C11.5857 5.75 11.2499 6.08579 11.2499 6.5V11.567L8.16078 13.3505C7.80206 13.5576 7.67915 14.0163 7.88626 14.375C8.09336 14.7337 8.55206 14.8566 8.91078 14.6495Z" fill="#323544"/>
<path fill-rule="evenodd" clip-rule="evenodd" d="M12 2C6.47715 2 2 6.47715 2 12C2 17.5228 6.47715 22 12 22C17.5228 22 22 17.5228 22 12C22 6.47715 17.5228 2 12 2ZM3.5 12C3.5 7.30558 7.30558 3.5 12 3.5C16.6944 3.5 20.5 7.30558 20.5 12C20.5 16.6944 16.6944 20.5 12 20.5C7.30558 20.5 3.5 16.6944 3.5 12Z" fill="#323544"/>
</svg>
