<svg width="24" height="24" viewBox="0 0 24 24" fill="none" xmlns="http://www.w3.org/2000/svg">
<path fill-rule="evenodd" clip-rule="evenodd" d="M2.51332 15.1714C2.52479 15.2205 2.54108 15.2677 2.56166 15.3125C3.92844 19.2071 7.6376 22 11.9991 22C16.3689 22 20.0839 19.1964 21.4443 15.2901C21.4571 15.2594 21.468 15.2278 21.4768 15.1952C21.8149 14.1919 21.9981 13.1174 21.9981 12.0001C21.9981 10.8833 21.815 9.80911 21.4771 8.8061C21.4682 8.77262 21.457 8.74007 21.4437 8.70861C20.0872 4.81534 16.3915 2.0178 12.0401 2.00033C12.0265 2.00011 12.0129 2 11.9993 2C11.9857 2 11.9722 2.00011 11.9587 2.00032C7.61515 2.0175 3.92496 4.80461 2.56208 8.68659C2.54117 8.73198 2.52467 8.77981 2.51311 8.82954C2.18028 9.82584 2 10.892 2 12.0001C2 13.1086 2.18036 14.1749 2.51332 15.1714ZM8.75 11.9996C8.75 11.219 8.79327 10.4652 8.87365 9.75H15.1249C15.2053 10.4652 15.2486 11.219 15.2486 11.9996C15.2486 12.7805 15.2053 13.5346 15.1248 14.25H8.87374C8.7933 13.5346 8.75 12.7805 8.75 11.9996ZM7.36502 14.25C7.28957 13.5252 7.25 12.7716 7.25 11.9996C7.25 11.2279 7.28954 10.4745 7.36493 9.75H3.80104C3.60479 10.4667 3.5 11.2212 3.5 12.0001C3.5 12.779 3.60476 13.5334 3.80096 14.25H7.36502ZM4.36976 15.75H7.57933C7.79083 16.901 8.09805 17.9473 8.48295 18.8375C8.6606 19.2484 8.85792 19.6333 9.07474 19.9834C7.01575 19.2288 5.32997 17.7002 4.36976 15.75ZM20.1971 14.25C20.3933 13.5334 20.4981 12.779 20.4981 12.0001C20.4981 11.2212 20.3933 10.4667 20.1971 9.75H16.6336C16.709 10.4745 16.7486 11.2279 16.7486 11.9996C16.7486 12.7716 16.709 13.5252 16.6336 14.25H20.1971ZM14.8918 15.75C14.7024 16.6908 14.4453 17.5334 14.1388 18.2422C13.8011 19.0232 13.4184 19.6077 13.0315 19.9861C12.648 20.3613 12.3002 20.4992 11.9993 20.4992C11.6984 20.4992 11.3506 20.3613 10.9671 19.9862C10.5802 19.6077 10.1974 19.0232 9.85977 18.2422C9.5533 17.5334 9.29615 16.6908 9.1068 15.75H14.8918ZM16.4192 15.75H19.6283C18.6682 17.7 16.9827 19.2285 14.924 19.9832C15.1407 19.6331 15.338 19.2483 15.5156 18.8375C15.9005 17.9473 16.2077 16.901 16.4192 15.75ZM14.1388 5.75696C14.4454 6.466 14.7026 7.30883 14.8919 8.25H9.10664C9.296 7.30883 9.55321 6.466 9.85977 5.75696C10.1974 4.976 10.5802 4.39155 10.9671 4.01306C11.3407 3.64752 11.6805 3.50724 11.976 3.50027L11.9991 3.50024L12.0226 3.50028C12.3181 3.50726 12.6579 3.64755 13.0315 4.01306C13.4184 4.39155 13.8011 4.976 14.1388 5.75696ZM16.4194 8.25H19.6282C18.6682 6.30044 16.983 4.77215 14.9248 4.01736C15.1412 4.36709 15.3382 4.75143 15.5156 5.16168C15.9006 6.05212 16.2079 7.0987 16.4194 8.25ZM9.07389 4.01714C7.01539 4.77185 5.33 6.30025 4.3699 8.25H7.57918C7.79069 7.09871 8.09796 6.05212 8.48295 5.16168C8.66036 4.75134 8.8574 4.36692 9.07389 4.01714Z" fill="#323544"/>
</svg>
