<svg version="1.2" xmlns="http://www.w3.org/2000/svg" viewBox="0 0 512 512" width="512" height="512"><style>.a{opacity:.92;fill:#070d1a}</style><path fill-rule="evenodd" class="a" d="m414 258.2c4-0.2 7.7 0.4 8.1 1.3 0.5 0.9 1 14.9 1.3 31.1 0.2 17.5 1.1 30.7 2.2 32.6 0.9 1.8 4.2 4.3 7.2 5.5 3.4 1.4 7.6 1.9 11.1 1.3 3.1-0.6 6.7-2.2 8.1-3.6 1.3-1.4 2.9-5.9 3.5-10.1 0.6-4.2 1.1-18.6 1.2-32.2 0.1-24.4 0.1-24.6 3.9-25.6 2-0.5 6.4-0.5 15.6 1v29.5c0 21.1-0.7 31.7-2.4 37.5-1.3 4.5-4.3 9.9-6.9 12.2-2.4 2.3-6.6 5.1-9.3 6.2-3 1.2-10.6 1.8-20.2 1.4-12.7-0.4-16.2-1.1-20.5-4.1-2.9-2-6.9-6.7-8.8-10.5-3.3-6.2-3.7-9.6-4.1-38.3-0.4-19.5 0-32.1 1-33.2 0.9-1 5-1.9 9-2zm-104.8 2.3c8 0.5 17.4 1.7 21 2.6 3.5 0.9 8.2 2.3 10.4 3.2 2.3 0.9 6.3 2.6 8.9 3.9 2.7 1.2 7.4 4.3 10.5 6.8 3.1 2.5 7.7 8.1 10.3 12.5 3.4 5.8 4.8 10.5 5.2 17.6 0.3 6-0.4 11.5-1.8 14.5-1.3 2.7-5.4 8-9.2 11.7-3.8 3.8-9.3 8.2-12.2 9.7-2.9 1.6-5.2 3.6-5.2 4.4 0 0.9 4.8 4.2 10.8 7.3 6.1 3.2 13.4 8.8 17.1 12.9 3.4 4 7.3 9.3 8.6 11.7 1.2 2.4 2.8 8.3 3.6 12.9 0.8 5.3 0.7 12.1-0.5 18.2-0.9 5.3-3.2 12.5-4.9 15.9-1.8 3.5-5.6 8.4-8.5 10.9-2.9 2.6-9 6.3-13.7 8.4-4.7 2.1-13.7 5-20.2 6.5-6.4 1.4-16.9 2.6-23.4 2.6-6.4 0-18-1-25.8-2.4-7.7-1.3-18.6-4.4-24.2-6.9-5.5-2.5-13-7.4-16.5-10.9-3.6-3.5-8.3-10-10.5-14.5-3.5-6.9-4-10.2-4-24.2 0-15.6 0.2-16.4 5.8-25.8 3.5-5.7 8.4-11.3 12.1-13.7 3.5-2.2 8.5-5.1 16-9.2l-9.6-6.3c-5.3-3.4-12-9.5-14.9-13.5-3.7-5.1-5.6-9.9-6.3-16.2-0.7-5.5-0.4-11.6 0.8-16.1 1.1-4 4.1-10.1 6.5-13.7 2.7-3.8 8.2-8.4 13.2-11.1 4.8-2.5 14.8-5.9 22.4-7.6 10.2-2.2 17.3-2.8 28.2-2.1zm-19.3 31.6c-3.9 0.9-6.7 3-8.9 6.5-2.6 4.4-2.9 6.3-1.6 10.9 0.9 3.1 3.6 7.7 6 10.3 2.4 2.5 7.9 6.3 12.1 8.4 4.2 2.2 9.1 3.9 10.9 3.9 1.8 0 6.9-2 11.5-4.4 4.5-2.5 9.6-6.4 11.3-8.9 1.7-2.5 3-7.2 3-10.9 0-5.2-1-7.4-5.3-11.3-3.2-3.1-8.1-5.5-12.9-6.5-4.2-0.8-8.9-1.4-10.4-1.3-1.6 0.1-4.5 0.6-6.4 1.1-2 0.4-6.2 1.4-9.3 2.2zm0.1 80.1c-3.4 2.4-7.6 7-9.2 10.3-1.7 3.4-3.1 8.8-3.1 12.1 0 3.8 1.5 8.3 4.1 12.1 2.2 3.4 6.2 7.2 8.8 8.5 2.7 1.3 8.3 3.1 12.5 3.9 4.6 0.9 11.3 0.9 16.6 0 4.9-0.8 10.9-2.4 13.5-3.5 2.5-1.1 5.9-4.2 7.6-6.9 1.6-2.6 3-7.5 3-10.8 0-3.4-0.9-8.5-2.1-11.3-1.2-2.9-4.8-7.6-8.1-10.5-3.2-2.9-9.5-7.1-13.9-9.3-4.5-2.2-9.4-4-10.9-4-1.6 0.1-5 1.2-7.7 2.6-2.6 1.4-7.6 4.5-11.1 6.8zm-143.9-109.4h41.3l-0.5 116.9 23.9 1.6 0.5 13.7c0.2 7.6 0 15.4-0.4 17.4-0.8 3.3-2 3.6-24.3 4.4l-1.6 32.3-20.6 0.4c-20.1 0.4-20.6 0.3-21.6-3.2-0.5-2-0.7-9.5 0.2-29.5l-50.8-0.5c-29.2-0.2-51.7-1.1-52.8-2-1.4-1-1.7-4.1-1.1-10 0.6-4.6 1.6-12.6 2.4-17.7 1.4-8.9 2.3-10.2 18.8-28.2 9.6-10.5 18.5-20.1 19.8-21.5 1.3-1.4 7.1-7.8 12.9-14.4 5.8-6.5 12-13.5 13.7-15.4 1.8-2 9.4-10.3 17-18.5 7.5-8.2 15.8-17.3 18.4-20.4zm-20.6 73.4c-6.5 7.1-17.6 19.5-24.8 27.5l-13.1 14.5c7.4 1.9 20.1 2.2 33.1 2l23.6-0.4c1-33.8 1.5-48.5 1.7-54.4 0.2-6 0-10.9-0.4-10.8-0.5 0-2.6 2-4.7 4.4-2 2.4-9 10.1-15.4 17.2zm-4.2-269.4c8.4 0.4 19.3 1.9 24.2 3.3 4.9 1.5 13.2 5 18.6 8 6.1 3.3 12.2 8.4 16.6 13.9 4 5 7.9 12.2 9.2 16.8 1.2 4.4 2.4 12 2.6 16.9 0.2 4.9-0.6 12.9-1.8 17.8-1.2 4.8-4.6 12.8-7.5 17.7-2.9 4.9-9.5 13.2-14.6 18.6-5.2 5.3-12.3 12-15.8 14.8-3.6 2.8-10.8 8.6-25.6 20.7l37 1.2c20.3 0.7 37.9 1.6 39 2 1.4 0.6 1.9 4.6 1.2 27.4l-6.5 0.2c-3.5 0-31.2-0.3-61.5-0.8-30.4-0.6-55.5-1.4-56-1.8-0.5-0.5-2-6.3-5.7-25l4.3-3.8c2.4-2.1 13.8-12.6 25.4-23.4 11.5-10.8 24.1-23.2 28-27.7 3.9-4.4 8.8-11.7 10.9-16.1 2.1-4.4 4.2-12.1 4.7-16.9 0.9-8.4 0.6-9.3-4.6-15.4-3.3-3.8-8-7.2-11.8-8.4-3.4-1.1-8.8-2-11.9-2-3.1 0-9.5 1.8-14.1 4-4.7 2.2-8.5 4.6-8.5 5.2-0.1 0.7-2.2 3.6-4.9 6.5-2.6 2.9-5.7 4.9-6.8 4.4-1.1-0.4-4.7-2.4-7.9-4.4-3.2-2-10.7-6.6-16.6-10.1-5.8-3.6-10.6-7.2-10.6-8.1 0-0.9 1-3.8 2.3-6.4 1.3-2.7 4.8-7.4 7.7-10.5 2.9-3.1 9.7-7.9 15-10.5 5.4-2.6 14.4-5.7 20.2-6.8 5.9-1.1 17.2-1.7 25.8-1.3zm186.7-0.6c4.7-0.1 13.8 0.6 20.2 1.6 7 1.1 15.9 3.9 22.2 7.1 7.7 3.9 12.5 7.8 18.1 14.8 4.2 5.2 8.7 12.7 10 16.7 1.3 4 3 11.2 3.8 16.1 0.7 4.9 1.1 14.7 0.9 21.8-0.3 7.1-1.4 18-2.3 24.2-1 6.2-3.2 16.3-5 22.6-1.8 6.2-5.4 15.6-7.9 20.9-2.4 5.4-8.2 13.5-12.7 18.2-4.9 5-12.2 10.4-18.2 13.2-7 3.3-14.6 5.4-24.6 6.6-10.9 1.3-18 1.3-28.3-0.2-7.5-1.1-16.8-3.3-20.5-4.9-3.8-1.7-9.2-5-12-7.5-2.8-2.4-6.4-5.9-8.1-7.6-1.7-1.8-5-6.9-7.2-11.3-2.2-4.5-5-12.4-6.3-17.8-1.2-5.3-2.7-15.1-3.3-21.7-0.6-6.8-0.2-20.7 0.9-31.5 1.1-10.6 3-23.2 4.2-27.8 1.3-4.7 4.8-12.7 7.8-17.8 2.9-5.1 8.3-11.8 11.8-14.9 3.6-3.1 11.1-8.1 16.8-11.1 5.6-3 15-6.4 20.8-7.5 5.7-1.1 14.3-2.1 18.9-2.2zm-17.3 43.8c-2.2 1.5-5.3 3.6-6.7 4.8-1.5 1.1-4.6 6-6.8 10.9-2.3 4.9-4.9 14.2-5.8 20.6-0.9 6.4-1.8 19.1-1.9 28.2-0.1 9.1 0.7 19.8 1.7 23.8 1.1 4 3 9.5 4.4 12.1 1.3 2.7 4.7 6.5 7.5 8.5 4.1 2.8 7.5 3.6 16.5 3.6 9.1 0.1 12.3-0.6 16.8-3.6 3.1-2 7.3-6.2 9.4-9.3 2.1-3.1 4.5-8.5 5.4-12.1 0.8-3.5 2.2-7.9 3-9.7 0.8-1.7 2.1-10.5 2.9-19.3 0.8-8.9 1.4-18.7 1.3-21.8-0.2-3.1-0.9-8.9-1.6-12.9-0.7-4-2.4-9.7-3.9-12.8-1.5-3-5.2-7.5-8.3-9.9-3.6-2.9-8.4-4.8-12.9-5.3-4-0.5-9.5-0.3-12.1 0.3-2.7 0.6-6.7 2.4-8.9 3.9zm134.7-36.7c16.7 0.8 22.1 1.7 26.6 4.2 3.1 1.8 7.1 5.2 8.8 7.6 2.1 2.9 3.4 7.9 3.9 15.6 0.6 9.2 0.1 12.7-2.7 18.6-2 4.3-5.6 8.5-8.7 10.3-3.6 2.2-9.7 3.5-32.8 5l-1.6 25.8-7.2 0.4c-4.2 0.3-8.2-0.4-9.4-1.6-1.6-1.5-2.1-11.8-2.3-42.4-0.2-33.5 0.1-40.8 2.1-42.5 1.8-1.6 7.4-1.8 23.3-1zm-6 30.8c0.3 9.8 0.8 12.1 3.2 12.8 1.5 0.5 6.3 0.3 10.6-0.4 4.3-0.7 8.7-2.3 9.7-3.5 1-1.3 1.8-5.4 1.8-9.3 0-3.9-1-8-2.4-9.4-1.5-1.6-5.7-2.7-10.9-2.9-4.6-0.2-9.3-0.1-10.4 0.2-1.3 0.3-1.8 4.4-1.6 12.5zm1.1 61.1l1.7 67.8 16.1 0.5c9.6 0.3 17 1.3 18.2 2.4 1.2 1.1 2.1 4.5 2.1 7.6 0 3.1-0.9 6.5-2.1 7.6-1.5 1.5-8.8 2-25.5 1.9-12.8-0.1-24.6-0.8-26.2-1.6-2.5-1.3-2.8-5.2-3.1-42.3-0.3-33.8 0-41.1 2-42.8 1.3-1.1 5.4-1.8 16.8-1.1zm25.1 187.6c3.1 0.3 8.5 1.6 12.1 2.8 3.5 1.2 8.4 4.6 10.9 7.5 4.5 5.4 4.5 5.4 1.4 8.6-1.8 1.8-5 4.3-7.3 5.7-3.8 2.2-4.3 2.1-9-2-3.9-3.5-6.5-4.5-12.6-4.5-5.7-0.1-8.4 0.7-10.5 3.2-2.1 2.5-2.4 4.1-1.2 6.5 1.1 2.3 6.4 4.7 17.4 8.1 8.6 2.6 16.8 5.7 18.1 6.8 1.4 1.1 4.1 4.2 6.2 6.9 2.7 3.7 3.6 6.9 3.5 13.7 0 5.9-1.1 10.6-3.2 14.1-1.8 2.9-6.2 6.7-9.7 8.5-4.8 2.4-9.9 3.2-19.8 3.3-8.9 0.1-15.4-0.7-19.7-2.5-3.6-1.4-8.5-4.6-11-7-2.4-2.3-4.4-5-4.5-5.9 0-0.9 2.8-3.6 6.1-6 3.4-2.5 6.9-4.5 7.7-4.5 0.9 0.1 3.7 2 6.2 4.5 3.3 3.1 6.7 4.6 12.1 5 6.5 0.6 8.2 0.1 12-3.6 3.3-3.2 4.1-5.1 3.2-7.6-0.7-1.9-4-4.3-7.6-5.5-3.6-1.3-10.8-3.6-16.2-5.2-5.4-1.6-12-5-15-7.7-3-2.7-6-7.5-6.9-10.6-1-4-0.8-8 1-14.1 1.9-6.7 3.7-9.3 8.4-12.5 3.4-2.2 9.7-4.6 14.1-5.4 4.5-0.7 10.6-1 13.8-0.6z"/></svg>