<?xml version="1.0" encoding="UTF-8"?>
<!-- Created with Inkscape (http://www.inkscape.org/) -->
<svg width="512" height="512" version="1.1" viewBox="0 0 512 512" xmlns="http://www.w3.org/2000/svg">
 <path d="m320.58 476.69c-23.642-2.9588-41.595-13.964-50.032-30.67-4.8439-9.5911-6.4959-28.177-3.52-39.602 3.3756-12.96 13.545-25.872 26.597-33.769 3.3883-2.0502 6.347-3.9141 6.5749-4.142 0.22787-0.22788-2.2705-2.0452-5.5519-4.0386-12.751-7.7456-22.1-20.408-24.063-32.592-0.48749-3.025-0.53957-8.875-0.11574-13 2.3697-23.064 15.464-36.965 41.617-44.183 6.8484-1.8901 10.461-2.1832 26.91-2.1832 16.419 0 20.087 0.2965 27 2.1824 28.478 7.7686 42.676 25.562 41.301 51.761-0.33959 6.47-1.0357 9.3698-3.3644 14.015-3.8129 7.6053-12.96 16.807-22.686 22.822-4.2625 2.6361-7.7481 5.0838-7.7457 5.4394 2e-3 0.35557 3.2794 2.3277 7.2822 4.3825 14.294 7.3375 24.034 17.339 28.886 29.66 3.2612 8.2823 3.2455 26.795-0.0308 36.37-5.8891 17.21-18.697 28.674-38.677 34.618-13.126 3.9048-33.243 5.0746-50.381 2.9298zm29.463-32.907c14.644-2.7072 21.888-10.933 21.93-24.907 0.0393-12.809-4.9578-19.471-22.524-30.028-4.5496-2.7344-9.1439-4.9716-10.21-4.9716-3.4173 0-17.758 8.1609-23.397 13.315-3.004 2.7455-6.3545 6.7416-7.4455 8.8802-2.5272 4.9537-3.4826 14.998-1.9607 20.612 1.4017 5.1701 6.9369 11.58 12.412 14.373 7.0484 3.5958 20.251 4.7501 31.194 2.7271zm0.37457-95.614c15.125-8.4378 21.209-19.868 16.532-31.061-3.2448-7.7659-9.2265-11.601-20.932-13.421-8.9252-1.3876-20.216-0.0266-26.539 3.199-8.7202 4.4487-12.738 17.666-8.1214 26.716 2.7893 5.4675 10.003 11.506 19.428 16.265 8.8142 4.4499 8.5772 4.4704 19.633-1.6971zm-170.44 123.46c-0.25229-0.6875-0.57567-8-0.71861-16.25l-0.2599-15-97.5-0.51903v-37.487l12.802-16.997c7.0409-9.3484 24.196-32.072 38.122-50.497s29.641-39.238 34.922-46.25l9.6011-12.75h20.17c17.47 0 20.251 0.21175 20.777 1.5818 0.33385 0.86998 0.60699 30.12 0.60699 65v63.418h24v34h-24v33h-19.031c-14.314 0-19.145-0.30986-19.49-1.25zm-0.47851-103.25c0-20.625-0.3375-37.478-0.75-37.452-0.68561 0.044-55.706 70.38-57.55 73.568-0.67326 1.1647 3.872 1.3834 28.75 1.3834h29.55zm246.62-67.363c-0.92723-1.0246-1.962-4.1946-2.2996-7.0446-0.72108-6.0884-2.8491-8.0926-8.5925-8.0926-4.0049 0-8.732-3.4342-8.732-6.3438 0-3.0967 3.4902-5.7133 8.71-6.5299 6.6846-1.0457 7.881-2.1251 8.6607-7.8142 0.76191-5.5588 2.9579-8.3122 6.6293-8.3122 3.6812 0 5.8678 2.7563 6.6366 8.3657 0.75954 5.5414 3.0764 7.6343 8.451 7.6343 4.4864 0 8.9124 3.2279 8.9124 6.5s-4.4259 6.5-8.9124 6.5c-5.5622 0-7.697 2.0537-8.4122 8.0926-0.71231 6.0144-2.8804 8.9074-6.6754 8.9074-1.4795 0-3.4487-0.83828-4.3759-1.8628zm-104.11-61.243c-33.933-3.5718-53.756-23.46-61.442-61.644-7.2189-35.863-3.9056-81.968 7.6628-106.63 8.7774-18.712 22.061-29.821 42.262-35.343 9.4692-2.5884 36.717-2.5257 46.5 0.10694 32.377 8.7128 48.425 33.255 52.57 80.396 2.2688 25.806-0.52575 57.81-6.6375 76.017-4.2106 12.543-9.1897 20.993-16.916 28.708-11.147 11.131-23.54 16.5-42.6 18.456-5.5704 0.57163-10.868 0.97946-11.772 0.9063-0.90423-0.0731-5.2363-0.51113-9.6268-0.97327zm21.155-36.389c13.171-3.9115 21.155-17.742 24.425-42.31 1.5075-11.328 0.58297-50.437-1.3932-58.932-3.7732-16.22-9.6336-25.787-18.708-30.541-5.1312-2.6884-6.132-2.8576-15.079-2.5502-8.6141 0.29604-10.08 0.63544-14.5 3.3585-8.0903 4.9836-13.566 14.977-17.226 31.437-1.3318 5.9893-1.6692 12.762-1.6454 33.034 0.0266 22.716 0.2713 26.537 2.2412 35 5.1922 22.306 15.226 32.703 31.782 32.93 2.7877 0.0383 7.3344-0.60327 10.104-1.4257zm-256 31.835c-0.37035-0.37036-0.67337-8.0002-0.67337-16.955v-16.282l15.549-13.63c55.817-48.928 74.73-71.501 77.708-92.746 1.275-9.0944-0.0488-14.452-4.7272-19.13-5.0918-5.0918-11.731-6.9089-23.376-6.3978-12.253 0.53783-17.908 3.2107-27.176 12.844l-6.5221 6.7797-15.166-10.683c-8.3414-5.8756-15.486-11.003-15.876-11.393-1.1609-1.1609 4.5074-8.4855 11.77-15.21 7.7656-7.1898 17.637-12.471 29.375-15.715 6.8012-1.88 10.599-2.2044 26.442-2.2582 20.498-0.06966 27.216 1.0857 38.463 6.6149 21.206 10.425 29.519 25.9 28.287 52.652-1.3694 29.721-15.087 49.315-63.129 90.17l-15.875 13.5 42.877 0.52691c23.582 0.2898 43 0.6273 43.15 0.75s0.14991 8.4356 0 18.473l-0.27256 18.25-70.077 0.2567c-38.542 0.14119-70.38-0.0463-70.75-0.41666z"/>
</svg>
