<svg width="80" height="80" viewBox="0 0 24 25" fill="none" xmlns="http://www.w3.org/2000/svg" transform="rotate(0 0 0)"><path d="M3.39854 11.7551C2.33012 11.1383 1.96404 9.77208 2.5809 8.70365L4.09689 6.07788C4.71388 5.00922 6.08042 4.64326 7.14894 5.26017C7.63842 5.54277 8.25011 5.18947 8.25011 4.62462C8.25011 3.39082 9.2503 2.39062 10.4841 2.39062H13.5165C14.7502 2.39062 15.7501 3.39086 15.7501 4.62439C15.7501 5.18919 16.3615 5.54201 16.8503 5.25979C17.9185 4.64304 19.2845 5.00905 19.9012 6.07729L21.4176 8.70373C22.0345 9.77214 21.6684 11.1383 20.6 11.7552C20.1108 12.0376 20.1108 12.7437 20.6 13.0261C21.6684 13.643 22.0344 15.0091 21.4176 16.0775L19.9012 18.704C19.2845 19.7722 17.9185 20.1382 16.8503 19.5215C16.3615 19.2393 15.7501 19.5921 15.7501 20.1569C15.7501 21.3904 14.7502 22.3906 13.5165 22.3906H10.4841C9.2503 22.3906 8.25011 21.3904 8.25011 20.1566C8.25011 19.5918 7.63844 19.2385 7.14896 19.5211C6.08044 20.138 4.71391 19.7721 4.09692 18.7034L2.58092 16.0776C1.96407 15.0092 2.33013 13.643 3.39856 13.0262C3.88776 12.7437 3.88777 12.0376 3.39854 11.7551ZM13.9577 10.4472C13.9577 8.9872 12.2753 8.16914 11.127 9.07081L10.2293 9.77567C10.1853 9.81025 10.1309 9.82904 10.0749 9.82904H9.55607C8.58957 9.82904 7.80607 10.6125 7.80607 11.579V13.2021C7.80607 14.1686 8.58957 14.9521 9.55607 14.9521H10.0749C10.1309 14.9521 10.1853 14.9708 10.2293 15.0054L11.127 15.7103C12.2753 16.612 13.9577 15.7939 13.9577 14.3339V10.4472ZM16.1903 11.2743C16.1903 10.8601 15.8545 10.5243 15.4403 10.5243C15.0261 10.5243 14.6903 10.8601 14.6903 11.2743V13.5068C14.6903 13.921 15.0261 14.2568 15.4403 14.2568C15.8545 14.2568 16.1903 13.921 16.1903 13.5068V11.2743Z" fill="#000000"/></svg>