<svg width="80" height="80" viewBox="0 0 24 24" fill="none" xmlns="http://www.w3.org/2000/svg" transform="rotate(0 0 0)"><path d="M2 12C2 8.27208 5.02208 5.25 8.75 5.25H15.25C18.9779 5.25 22 8.27208 22 12C22 15.7279 18.9779 18.75 15.25 18.75H8.75C5.02208 18.75 2 15.7279 2 12ZM16.6991 10.6144C17.0384 10.3768 17.1208 9.90919 16.8833 9.56988C16.6457 9.23058 16.178 9.14812 15.8387 9.3857L15.0196 9.95928C14.6803 10.1969 14.5978 10.6645 14.8354 11.0038C15.073 11.3431 15.5406 11.4256 15.8799 11.188L16.6991 10.6144ZM9.95383 10.0001C9.95383 9.58585 9.61805 9.25006 9.20383 9.25006C8.78962 9.25006 8.45383 9.58585 8.45383 10.0001V11.2501H7.20383C6.78962 11.2501 6.45383 11.5859 6.45383 12.0001C6.45383 12.4143 6.78962 12.7501 7.20383 12.7501H8.45383V14.0001C8.45383 14.4143 8.78962 14.7501 9.20383 14.7501C9.61805 14.7501 9.95383 14.4143 9.95383 14.0001V12.7501H11.2038C11.618 12.7501 11.9538 12.4143 11.9538 12.0001C11.9538 11.5859 11.618 11.2501 11.2038 11.2501H9.95383V10.0001ZM16.6991 14.0409C17.0384 13.8033 17.1208 13.3356 16.8833 12.9963C16.6457 12.657 16.178 12.5745 15.8387 12.8121L15.0196 13.3857C14.6803 13.6233 14.5978 14.0909 14.8354 14.4302C15.073 14.7696 15.5406 14.852 15.8799 14.6144L16.6991 14.0409Z" fill="#000000"/></svg>