<svg width="80" height="80" viewBox="0 0 24 25" fill="none" xmlns="http://www.w3.org/2000/svg" transform="rotate(0 0 0)"><path d="M5.5 3.53125C4.25736 3.53125 3.25 4.53861 3.25 5.78125V7.28125C3.25 7.69546 3.58579 8.03125 4 8.03125C4.41421 8.03125 4.75 7.69546 4.75 7.28125V5.78125C4.75 5.36704 5.08579 5.03125 5.5 5.03125H7.00001C7.41423 5.03125 7.75001 4.69546 7.75001 4.28125C7.75001 3.86704 7.41423 3.53125 7.00001 3.53125H5.5Z" fill="#000000"/><path d="M17 3.53125C16.5858 3.53125 16.25 3.86704 16.25 4.28125C16.25 4.69546 16.5858 5.03125 17 5.03125H18.5001C18.9143 5.03125 19.2501 5.36704 19.2501 5.78125V7.28125C19.2501 7.69546 19.5858 8.03125 20.0001 8.03125C20.4143 8.03125 20.7501 7.69546 20.7501 7.28125V5.78125C20.7501 4.53861 19.7427 3.53125 18.5001 3.53125H17Z" fill="#000000"/><path d="M4 16.5312C4.41421 16.5312 4.75 16.867 4.75 17.2812V18.7812C4.75 19.1955 5.08579 19.5312 5.5 19.5312H7.00001C7.41423 19.5312 7.75001 19.867 7.75001 20.2812C7.75001 20.6955 7.41423 21.0312 7.00001 21.0312H5.5C4.25736 21.0312 3.25 20.0239 3.25 18.7812V17.2812C3.25 16.867 3.58579 16.5312 4 16.5312Z" fill="#000000"/><path d="M20.7501 17.2812C20.7501 16.867 20.4143 16.5312 20.0001 16.5312C19.5858 16.5312 19.2501 16.867 19.2501 17.2812V18.7812C19.2501 19.1955 18.9143 19.5312 18.5001 19.5312H17C16.5858 19.5312 16.25 19.867 16.25 20.2812C16.25 20.6955 16.5858 21.0312 17 21.0312H18.5001C19.7427 21.0312 20.7501 20.0239 20.7501 18.7812V17.2812Z" fill="#000000"/><path d="M9.45833 7.68494C9.88306 7.11621 10.5513 6.78125 11.2611 6.78125H12.7389C13.4487 6.78125 14.1169 7.11621 14.5416 7.68494L14.6387 7.81498C14.7803 8.00456 15.003 8.11621 15.2396 8.11621H15.5C16.7426 8.11621 17.75 9.12357 17.75 10.3662V14.6635C17.75 15.9061 16.7426 16.9135 15.5 16.9135H8.5C7.25736 16.9135 6.25 15.9061 6.25 14.6635V10.3662C6.25 9.12357 7.25736 8.11621 8.5 8.11621H8.76029C8.9969 8.11621 9.21963 8.00456 9.36121 7.81498L9.45833 7.68494ZM12 10.0312C10.7574 10.0312 9.75 11.0386 9.75 12.2812C9.75 13.5239 10.7574 14.5312 12 14.5312C13.2426 14.5312 14.25 13.5239 14.25 12.2812C14.25 11.0386 13.2426 10.0312 12 10.0312Z" fill="#000000"/></svg>