<svg width="80" height="80" viewBox="0 0 24 24" fill="none" xmlns="http://www.w3.org/2000/svg" transform="rotate(0 0 0)"><path d="M7.65625 6.34459C7.65625 3.94514 9.60139 2 12.0008 2C14.4003 2 16.3454 3.94514 16.3454 6.34459C16.3454 8.74404 14.4003 10.6892 12.0008 10.6892C9.60139 10.6892 7.65625 8.74404 7.65625 6.34459Z" fill="#000000"/><path d="M3.68359 17.439C3.68359 14.5395 6.0341 12.189 8.93359 12.189H11.8061C11.1862 12.8674 10.8242 13.7645 10.8242 14.7189L10.8242 16.9414C10.8243 18.4302 11.4563 19.8489 12.5631 20.8445L12.736 21H5.93359C4.69095 21 3.68359 19.9926 3.68359 18.75V17.439Z" fill="#000000"/><path d="M15.7012 11.7449C16.2882 11.4809 16.9601 11.4809 17.5471 11.7449L19.5971 12.6669C20.4047 13.0302 20.9241 13.8333 20.9242 14.7189L20.9242 16.9413C20.9242 18.0048 20.4727 19.0182 19.6821 19.7294L18.129 21.1265C17.2734 21.8961 15.975 21.8961 15.1195 21.1265L13.5663 19.7293C12.7757 19.0182 12.3243 18.0048 12.3242 16.9414L12.3242 14.7189C12.3242 13.8334 12.8436 13.0302 13.6513 12.6669L15.7012 11.7449Z" fill="#000000"/></svg>