<svg width="80" height="80" viewBox="0 0 24 25" fill="none" xmlns="http://www.w3.org/2000/svg" transform="rotate(0 0 0)"><path d="M12 2.5C13.0575 2.5 14.0767 2.66415 15.0334 2.96836L12.8887 5.11308C12.7979 5.20382 12.7161 5.3011 12.6434 5.40366C12.4315 5.38469 12.2169 5.375 12 5.375C8.06497 5.375 4.875 8.56497 4.875 12.5C4.875 16.435 8.06497 19.625 12 19.625C15.935 19.625 19.125 16.435 19.125 12.5C19.125 12.2662 19.1137 12.0351 19.0917 11.807C19.1847 11.7392 19.2732 11.6636 19.3562 11.5806L21.5167 9.42006C21.8305 10.3903 22 11.4253 22 12.5C22 18.0228 17.5228 22.5 12 22.5C6.47715 22.5 2 18.0228 2 12.5C2 6.97715 6.47715 2.5 12 2.5Z" fill="#000000"/><path d="M12 6.875C12.0792 6.875 12.158 6.87664 12.2365 6.87988C12.2506 7.05985 12.2865 7.23972 12.3451 7.41567L12.7268 8.56061L11.4903 9.79714C10.2151 10.0361 9.25 11.1554 9.25 12.5C9.25 14.0188 10.4812 15.25 12 15.25C13.3705 15.25 14.5068 14.2475 14.7157 12.9358L15.9089 11.7425L17.0537 12.1242C17.2392 12.186 17.4291 12.2226 17.6189 12.2349C17.6229 12.3228 17.625 12.4111 17.625 12.5C17.625 15.6066 15.1066 18.125 12 18.125C8.8934 18.125 6.375 15.6066 6.375 12.5C6.375 9.3934 8.8934 6.875 12 6.875Z" fill="#000000"/><path d="M16.8423 3.78375C17.0953 3.84347 17.2993 4.02992 17.3815 4.27652L18.0843 6.38491L20.1927 7.08771C20.4393 7.16991 20.6258 7.37393 20.6855 7.62691C20.7452 7.87989 20.6697 8.14575 20.4859 8.32955L18.2955 10.5199C18.0947 10.7208 17.7975 10.7909 17.528 10.7011L15.5037 10.0263L12.546 12.9841C12.2531 13.277 11.7782 13.277 11.4853 12.9841C11.1924 12.6912 11.1924 12.2163 11.4853 11.9235L14.4431 8.96569L13.7682 6.94124C13.6783 6.67173 13.7484 6.3746 13.9493 6.17371L16.1397 3.98336C16.3235 3.79956 16.5893 3.72403 16.8423 3.78375Z" fill="#000000"/></svg>