<svg width="80" height="80" viewBox="0 0 24 25" fill="none" xmlns="http://www.w3.org/2000/svg" transform="rotate(0 0 0)"><path d="M11.25 2.5C6.14154 2.5 2 6.64029 2 11.748C2 16.8556 6.14154 20.9959 11.25 20.9959C13.5334 20.9959 15.6237 20.1687 17.2372 18.7976L20.7184 22.2791C21.0113 22.572 21.4862 22.572 21.7791 22.2792C22.072 21.9863 22.072 21.5114 21.7791 21.2185L18.2983 17.7373C19.6714 16.1237 20.5 14.0326 20.5 11.748C20.5 6.64029 16.3585 2.5 11.25 2.5ZM16.2969 9.90775C16.4388 10.2969 16.2384 10.7274 15.8492 10.8693C15.4601 11.0112 15.0296 10.8107 14.8877 10.4216C14.6841 9.86331 14.3538 9.35645 13.9193 8.94265C13.3266 8.37821 12.5704 8.0159 11.7592 7.90763C10.9479 7.79937 10.1232 7.95072 9.40322 8.33998C9.07587 8.51697 8.77781 8.73901 8.51685 8.99793H8.80785C9.22206 8.99793 9.55785 9.33371 9.55785 9.74793C9.55785 10.1621 9.22206 10.4979 8.80785 10.4979H7.13811C7.00929 10.5089 6.87593 10.4867 6.7509 10.4268C6.46537 10.29 6.30593 9.99609 6.32659 9.69834C6.33404 9.58412 6.36707 9.47688 6.41999 9.38228C6.91228 8.37842 7.70557 7.55264 8.68981 7.02049C9.68842 6.48057 10.8323 6.27065 11.9576 6.42081C13.0828 6.57098 14.1317 7.07352 14.9537 7.85641C15.5564 8.43038 16.0146 9.13342 16.2969 9.90775ZM13.981 14.4967H13.6864C13.2722 14.4967 12.9364 14.1609 12.9364 13.7467C12.9364 13.3325 13.2722 12.9967 13.6864 12.9967H15.4187C15.8165 12.9967 16.142 13.3064 16.1672 13.6979C16.1757 13.8227 16.153 13.9514 16.0951 14.0723C15.6046 15.0961 14.8025 15.9383 13.8039 16.4782C12.8053 17.0182 11.6614 17.2281 10.5361 17.0779C9.41087 16.9277 8.36204 16.4252 7.53996 15.6423C6.93661 15.0677 6.47814 14.3638 6.19587 13.5885C6.05417 13.1993 6.25482 12.7689 6.64405 12.6272C7.03327 12.4855 7.46367 12.6861 7.60537 13.0753C7.80888 13.6343 8.13943 14.1418 8.57441 14.5561C9.1671 15.1205 9.92327 15.4828 10.7345 15.5911C11.5458 15.6994 12.3705 15.548 13.0905 15.1587C13.4196 14.9808 13.719 14.7574 13.981 14.4967Z" fill="#000000"/></svg>