<svg width="80" height="80" viewBox="0 0 24 24" fill="none" xmlns="http://www.w3.org/2000/svg" transform="rotate(0 0 0)"><path d="M3.25 5.5C3.25 4.25736 4.25736 3.25 5.5 3.25H18.5C19.7426 3.25 20.75 4.25736 20.75 5.5V11.25H3.25V5.5ZM6.69707 8C6.69707 8.44183 7.05524 8.8 7.49707 8.8H8.49707C8.9389 8.8 9.29707 8.44183 9.29707 8C9.29707 7.55817 8.9389 7.2 8.49707 7.2H7.49707C7.05524 7.2 6.69707 7.55817 6.69707 8ZM11.4951 7.2C11.0533 7.2 10.6951 7.55817 10.6951 8C10.6951 8.44183 11.0533 8.8 11.4951 8.8H12.4951C12.9369 8.8 13.2951 8.44183 13.2951 8C13.2951 7.55817 12.9369 7.2 12.4951 7.2H11.4951Z" fill="#000000"/><path d="M3.25 12.75V18.5C3.25 19.7426 4.25736 20.75 5.5 20.75H18.5C19.7426 20.75 20.75 19.7426 20.75 18.5V12.75H3.25ZM7.49805 15.2H8.49805C8.93987 15.2 9.29805 15.5582 9.29805 16C9.29805 16.4418 8.93987 16.8 8.49805 16.8H7.49805C7.05622 16.8 6.69805 16.4418 6.69805 16C6.69805 15.5582 7.05622 15.2 7.49805 15.2ZM10.7049 16C10.7049 15.5582 11.0631 15.2 11.5049 15.2H12.5049C12.9467 15.2 13.3049 15.5582 13.3049 16C13.3049 16.4418 12.9467 16.8 12.5049 16.8H11.5049C11.0631 16.8 10.7049 16.4418 10.7049 16Z" fill="#000000"/></svg>