<svg width="24" height="25" viewBox="0 0 24 25" fill="none" xmlns="http://www.w3.org/2000/svg">
<path d="M6.90039 10.875C6.90039 10.4608 6.5646 10.125 6.15039 10.125C5.73618 10.125 5.40039 10.4608 5.40039 10.875V14.125C5.40039 14.5392 5.73618 14.875 6.15039 14.875C6.5646 14.875 6.90039 14.5392 6.90039 14.125V10.875Z" fill="#323544"/>
<path d="M9.55078 10.125C9.96499 10.125 10.3008 10.4608 10.3008 10.875V14.125C10.3008 14.5392 9.965 14.875 9.55078 14.875C9.13657 14.875 8.80078 14.5392 8.80078 14.125V10.875C8.80078 10.4608 9.13657 10.125 9.55078 10.125Z" fill="#323544"/>
<path d="M13.7012 10.875C13.7012 10.4608 13.3654 10.125 12.9512 10.125C12.537 10.125 12.2012 10.4608 12.2012 10.875V14.125C12.2012 14.5392 12.537 14.875 12.9512 14.875C13.3654 14.875 13.7012 14.5392 13.7012 14.125V10.875Z" fill="#323544"/>
<path fill-rule="evenodd" clip-rule="evenodd" d="M21.25 14.875H20.5V15.625C20.5 16.8676 19.4926 17.875 18.25 17.875H4.25C3.00736 17.875 2 16.8676 2 15.625V9.375C2 8.13236 3.00736 7.125 4.25 7.125H18.25C19.4926 7.125 20.5 8.13236 20.5 9.375V10.125H21.25C21.6642 10.125 22 10.4608 22 10.875V14.125C22 14.5392 21.6642 14.875 21.25 14.875ZM19 9.375C19 8.96079 18.6642 8.625 18.25 8.625L4.25 8.625C3.83579 8.625 3.5 8.96079 3.5 9.375V15.625C3.5 16.0392 3.83579 16.375 4.25 16.375H18.25C18.6642 16.375 19 16.0392 19 15.625V9.375Z" fill="#323544"/>
</svg>
