<svg width="80" height="80" viewBox="0 0 24 24" fill="none" xmlns="http://www.w3.org/2000/svg" transform="rotate(0 0 0)"><path d="M18.25 17.375C19.4926 17.375 20.5 16.3676 20.5 15.125V14.375H21.25C21.6642 14.375 22 14.0392 22 13.625V10.375C22 9.96079 21.6642 9.625 21.25 9.625H20.5V8.875C20.5 7.63236 19.4926 6.625 18.25 6.625H4.25C3.00736 6.625 2 7.63236 2 8.875V15.125C2 16.3676 3.00736 17.375 4.25 17.375H18.25ZM6.15039 9.625C6.5646 9.625 6.90039 9.96079 6.90039 10.375V13.625C6.90039 14.0392 6.5646 14.375 6.15039 14.375C5.73618 14.375 5.40039 14.0392 5.40039 13.625V10.375C5.40039 9.96079 5.73618 9.625 6.15039 9.625Z" fill="#000000"/></svg>