<svg width="80" height="80" viewBox="0 0 24 24" fill="none" xmlns="http://www.w3.org/2000/svg" transform="rotate(0 0 0)"><path d="M22 13.625C22 14.0392 21.6642 14.375 21.25 14.375H20.5V15.125C20.5 16.3676 19.4926 17.375 18.25 17.375H4.25C3.00736 17.375 2 16.3676 2 15.125V8.875C2 7.63236 3.00736 6.625 4.25 6.625H18.25C19.4926 6.625 20.5 7.63236 20.5 8.875V9.625H21.25C21.6642 9.625 22 9.96079 22 10.375V13.625ZM6.90039 10.375C6.90039 9.96079 6.5646 9.625 6.15039 9.625C5.73618 9.625 5.40039 9.96079 5.40039 10.375V13.625C5.40039 14.0392 5.73618 14.375 6.15039 14.375C6.5646 14.375 6.90039 14.0392 6.90039 13.625V10.375ZM9.55078 9.625C9.13657 9.625 8.80078 9.96079 8.80078 10.375V13.625C8.80078 14.0392 9.13657 14.375 9.55078 14.375C9.965 14.375 10.3008 14.0392 10.3008 13.625V10.375C10.3008 9.96079 9.96499 9.625 9.55078 9.625Z" fill="#000000"/></svg>