<svg width="25" height="24" viewBox="0 0 25 24" fill="none" xmlns="http://www.w3.org/2000/svg">
<path fill-rule="evenodd" clip-rule="evenodd" d="M4.5 6.625C3.25736 6.625 2.25 7.63236 2.25 8.875V15.125C2.25 16.3676 3.25736 17.375 4.5 17.375H18.5C19.7426 17.375 20.75 16.3676 20.75 15.125V14.375H21.5C21.9142 14.375 22.25 14.0392 22.25 13.625V10.375C22.25 9.96079 21.9142 9.625 21.5 9.625H20.75V8.875C20.75 7.63236 19.7426 6.625 18.5 6.625H4.5ZM19.25 8.875C19.25 8.46079 18.9142 8.125 18.5 8.125H4.5C4.08579 8.125 3.75 8.46079 3.75 8.875V15.125C3.75 15.5392 4.08579 15.875 4.5 15.875H18.5C18.9142 15.875 19.25 15.5392 19.25 15.125V8.875Z" fill="#323544"/>
</svg>
