<svg width="24" height="25" viewBox="0 0 24 25" fill="none" xmlns="http://www.w3.org/2000/svg">
<path d="M6.15039 10.125C6.5646 10.125 6.90039 10.4608 6.90039 10.875V14.125C6.90039 14.5392 6.5646 14.875 6.15039 14.875C5.73618 14.875 5.40039 14.5392 5.40039 14.125V10.875C5.40039 10.4608 5.73618 10.125 6.15039 10.125Z" fill="#323544"/>
<path d="M10.3008 10.875C10.3008 10.4608 9.96499 10.125 9.55078 10.125C9.13657 10.125 8.80078 10.4608 8.80078 10.875V14.125C8.80078 14.5392 9.13657 14.875 9.55078 14.875C9.965 14.875 10.3008 14.5392 10.3008 14.125V10.875Z" fill="#323544"/>
<path fill-rule="evenodd" clip-rule="evenodd" d="M20.5 14.875H21.25C21.6642 14.875 22 14.5392 22 14.125V10.875C22 10.4608 21.6642 10.125 21.25 10.125H20.5V9.375C20.5 8.13236 19.4926 7.125 18.25 7.125H4.25C3.00736 7.125 2 8.13236 2 9.375V15.625C2 16.8676 3.00736 17.875 4.25 17.875H18.25C19.4926 17.875 20.5 16.8676 20.5 15.625V14.875ZM19 15.625C19 16.0392 18.6642 16.375 18.25 16.375H4.25C3.83579 16.375 3.5 16.0392 3.5 15.625V9.375C3.5 8.96079 3.83579 8.625 4.25 8.625L18.25 8.625C18.6642 8.625 19 8.96079 19 9.375V15.625Z" fill="#323544"/>
</svg>
