<svg width="80" height="80" viewBox="0 0 25 25" fill="none" xmlns="http://www.w3.org/2000/svg" transform="rotate(0 0 0)"><path d="M20.8764 11.3173C16.4142 6.85516 9.17956 6.85516 4.71737 11.3173C4.27803 11.7567 3.56572 11.7567 3.12638 11.3173C2.68704 10.878 2.68704 10.1657 3.12638 9.72635C8.46725 4.38549 17.1265 4.38549 22.4674 9.72635C22.9067 10.1657 22.9067 10.878 22.4674 11.3173C22.028 11.7567 21.3157 11.7567 20.8764 11.3173ZM18.316 14.0985C15.2677 11.0502 10.3255 11.0502 7.27718 14.0985C6.83784 14.5378 6.12553 14.5378 5.68619 14.0985C5.24685 13.6592 5.24685 12.9469 5.68619 12.5075C9.61315 8.58055 15.98 8.58055 19.907 12.5075C20.3463 12.9469 20.3463 13.6592 19.907 14.0985C19.4676 14.5378 18.7553 14.5378 18.316 14.0985ZM15.592 16.7146C14.0054 15.2878 11.5883 15.2878 10.0017 16.7146C9.53975 17.13 8.82844 17.0923 8.41299 16.6303C7.99753 16.1683 8.03526 15.457 8.49725 15.0415C10.9393 12.8455 14.6544 12.8455 17.0965 15.0415C17.5585 15.457 17.5962 16.1683 17.1807 16.6303C16.7653 17.0923 16.054 17.13 15.592 16.7146Z" fill="#000000"/><path d="M11.4219 18.5925C11.4219 17.8331 12.0375 17.2175 12.7969 17.2175C13.5563 17.2175 14.172 17.8331 14.172 18.5925C14.172 19.3519 13.5564 19.9675 12.797 19.9675C12.0376 19.9675 11.4219 19.3519 11.4219 18.5925Z" fill="#000000"/></svg>