<svg width="80" height="80" viewBox="0 0 25 25" fill="none" xmlns="http://www.w3.org/2000/svg" transform="rotate(0 0 0)"><path d="M12.7969 5.12878C13.4182 5.12878 13.9219 5.63246 13.9219 6.25378V14.2457C13.9219 14.867 13.4182 15.3707 12.7969 15.3707C12.1756 15.3707 11.6719 14.867 11.6719 14.2457V6.25378C11.6719 5.63246 12.1756 5.12878 12.7969 5.12878Z" fill="#000000"/><path d="M10.2503 5.61417C7.64041 6.10632 5.14612 7.36226 3.12638 9.38199C2.68704 9.82133 2.68704 10.5336 3.12638 10.973C3.56572 11.4123 4.27803 11.4123 4.71737 10.973C6.27604 9.41432 8.17298 8.4001 10.1719 7.93034V6.25378C10.1719 6.03317 10.1991 5.8189 10.2503 5.61417Z" fill="#000000"/><path d="M10.1719 9.56476C8.52872 10.0073 6.97587 10.8735 5.68619 12.1632C5.24685 12.6025 5.24685 13.3148 5.68619 13.7541C6.12553 14.1935 6.83784 14.1935 7.27718 13.7541C8.12318 12.9081 9.11508 12.2969 10.1719 11.9205V9.56476Z" fill="#000000"/><path d="M15.4219 11.9207V9.56492C17.0648 10.0075 18.6175 10.8736 19.907 12.1632C20.3463 12.6025 20.3463 13.3148 19.907 13.7541C19.4676 14.1935 18.7553 14.1935 18.316 13.7541C17.4701 12.9083 16.4785 12.2971 15.4219 11.9207Z" fill="#000000"/><path d="M10.1719 13.6081C9.57356 13.8752 9.0076 14.2382 8.49725 14.6972C8.03526 15.1126 7.99753 15.8239 8.41299 16.2859C8.82844 16.7479 9.53975 16.7857 10.0017 16.3702C10.226 16.1685 10.4668 15.9954 10.7196 15.8507C10.3762 15.407 10.1719 14.8502 10.1719 14.2457V13.6081Z" fill="#000000"/><path d="M14.8742 15.8507C15.2175 15.407 15.4219 14.8502 15.4219 14.2457V13.6081C16.0202 13.8752 16.5861 14.2382 17.0965 14.6972C17.5585 15.1126 17.5962 15.8239 17.1807 16.2859C16.7653 16.7479 16.054 16.7857 15.592 16.3702C15.3677 16.1685 15.1269 15.9954 14.8742 15.8507Z" fill="#000000"/><path d="M15.4219 7.93034V6.25378C15.4219 6.03317 15.3947 5.8189 15.3434 5.61417C17.9533 6.10632 20.4476 7.36226 22.4674 9.38199C22.9067 9.82133 22.9067 10.5336 22.4674 10.973C22.028 11.4123 21.3157 11.4123 20.8764 10.973C19.3177 9.41432 17.4208 8.4001 15.4219 7.93034Z" fill="#000000"/><path d="M12.7969 16.8732C12.0375 16.8732 11.4219 17.4888 11.4219 18.2482C11.4219 19.0076 12.0376 19.6232 12.797 19.6232C13.5564 19.6232 14.172 19.0076 14.172 18.2482C14.172 17.4888 13.5563 16.8732 12.7969 16.8732Z" fill="#000000"/></svg>