<svg width="80" height="80" viewBox="0 0 24 24" fill="none" xmlns="http://www.w3.org/2000/svg" transform="rotate(0 0 0)"><path d="M13.9986 2.85185C14.3566 3.06014 14.478 3.51924 14.2697 3.87727L13.1036 5.88178H18.25C19.4926 5.88178 20.5 6.88913 20.5 8.13178V10.9453C19.3967 10.1911 18.0623 9.75 16.625 9.75C12.828 9.75 9.75 12.828 9.75 16.625C9.75 17.9566 10.1286 19.1998 10.784 20.2529H7.01948L6.45197 21.7662C6.30653 22.1541 5.87422 22.3506 5.48638 22.2051C5.09854 22.0597 4.90204 21.6274 5.04748 21.2395L5.41748 20.2529H4.25C3.00736 20.2529 2 19.2455 2 18.0029V8.13178C2 6.88913 3.00736 5.88178 4.25 5.88178H9.01081L8.34821 5.21918C8.05532 4.92629 8.05532 4.45141 8.34821 4.15852C8.64111 3.86563 9.11598 3.86563 9.40887 4.15852L11.0518 5.80142C11.1678 5.91742 11.3622 5.89215 11.4446 5.75036L12.9732 3.12298C13.1815 2.76494 13.6406 2.64356 13.9986 2.85185Z" fill="#000000"/><path d="M16.152 12.3498C16.221 12.0911 16.147 11.8152 15.9577 11.6259C15.7684 11.4366 15.4925 11.3626 15.2338 11.4317C14.3506 11.6675 13.5157 12.1322 12.8243 12.8236C10.7252 14.9227 10.7252 18.3259 12.8243 20.425C14.9234 22.5241 18.3266 22.5241 20.4257 20.425C21.1171 19.7336 21.5818 18.8987 21.8176 18.0155C21.8867 17.7568 21.8127 17.4809 21.6234 17.2916C21.4341 17.1023 21.1582 17.0283 20.8995 17.0974C19.6046 17.4432 18.1689 17.1075 17.1553 16.094C16.1418 15.0804 15.8061 13.6447 16.152 12.3498Z" fill="#000000"/></svg>