<svg width="80" height="80" viewBox="0 0 24 25" fill="none" xmlns="http://www.w3.org/2000/svg" transform="rotate(0 0 0)"><path d="M21.5577 20.0019L18.8277 18.7519C18.5377 18.6219 18.1977 18.6819 17.9777 18.9119C17.9677 18.9219 16.7077 20.1819 15.2577 20.1819C14.2544 20.1819 13.2386 19.5927 12.5477 18.9019C12.4077 18.7619 12.2177 18.6719 12.0077 18.6719C11.8077 18.6719 11.6177 18.7519 11.4677 18.8919C10.771 19.5885 9.75468 20.1719 8.73769 20.1719C7.28769 20.1719 6.02769 18.9119 6.01769 18.9019C5.79769 18.6719 5.45769 18.6119 5.16769 18.7419L2.43769 20.0019C2.05769 20.1719 1.89769 20.6219 2.06769 20.9919C2.23769 21.3719 2.68769 21.5319 3.06769 21.3619L5.34769 20.3119C5.96769 20.8219 7.23769 21.6719 8.73769 21.6719C10.1377 21.6719 11.3377 20.9219 11.9977 20.4119C12.6577 20.9219 13.8577 21.6719 15.2577 21.6719C16.7577 21.6719 18.0277 20.8119 18.6477 20.3119L20.9277 21.3619C21.2977 21.5319 21.7477 21.3619 21.9277 20.9919C22.0977 20.6119 21.9277 20.1719 21.5577 20.0019Z" fill="#000000"/><path d="M9.875 4.20312C8.63236 4.20312 7.625 5.21048 7.625 6.45312H12.125C12.125 5.21048 11.1176 4.20312 9.875 4.20312Z" fill="#000000"/><path d="M6.75 7.45312C5.50736 7.45312 4.5 8.46048 4.5 9.70312V11.2031H15.25V9.70312C15.25 8.46048 14.2426 7.45312 13 7.45312H6.75Z" fill="#000000"/><path d="M2.00001 12.2031C1.76168 12.2031 1.53753 12.3164 1.39617 12.5083C1.25482 12.7002 1.21307 12.9478 1.28371 13.1754L2.8329 18.1673L4.54625 17.3765L4.55377 17.3731C5.39039 16.9981 6.40279 17.1548 7.07885 17.8419C7.51025 18.2468 8.127 18.6719 8.73735 18.6719C9.41532 18.6719 9.97358 18.2343 10.4439 17.7953C10.8485 17.4176 11.3969 17.1719 12.0074 17.1719C12.6583 17.1719 13.2187 17.452 13.608 17.8412C14.1378 18.371 14.7946 18.6819 15.2574 18.6819C15.8611 18.6819 16.3952 18.2679 16.866 17.933C17.6289 17.3902 18.3354 16.8875 19.4409 17.3831L19.9799 17.6299L22.6372 13.3486C22.7808 13.1174 22.7878 12.8264 22.6554 12.5885C22.5231 12.3506 22.2722 12.2031 22 12.2031H2.00001Z" fill="#000000"/></svg>