<svg width="80" height="80" viewBox="0 0 24 24" fill="none" xmlns="http://www.w3.org/2000/svg" transform="rotate(0 0 0)"><path d="M3.00225 6.00646C3.12472 4.86312 4.08957 3.99609 5.23946 3.99609H7.56636C7.93971 3.99609 8.30719 4.089 8.63568 4.26643L10.7454 5.40598C10.8549 5.46513 10.9774 5.49609 11.1018 5.49609H12.8974C13.0219 5.49609 13.1444 5.46513 13.2539 5.40598L15.3636 4.26643C15.6921 4.089 16.0595 3.99609 16.4329 3.99609H18.7598C19.9097 3.99609 20.8745 4.86312 20.997 6.00646L22.1756 17.0103C22.3181 18.3402 21.2759 19.4999 19.9384 19.4999H18.3468C17.7565 19.4999 17.1898 19.268 16.769 18.854L13.8321 15.9652C13.6918 15.8273 13.5029 15.7499 13.3061 15.7499H10.6931C10.4964 15.7499 10.3075 15.8273 10.1672 15.9652L7.23026 18.854C6.80942 19.268 6.24277 19.4999 5.65247 19.4999H4.0608C2.72332 19.4999 1.68115 18.3402 1.82359 17.0103L3.00225 6.00646ZM8.86945 8.73242C8.86945 8.3182 8.53366 7.98242 8.11945 7.98242C7.70524 7.98242 7.36945 8.3182 7.36945 8.73242V9.73632H6.364C5.94979 9.73632 5.614 10.0721 5.614 10.4863C5.614 10.9005 5.94979 11.2363 6.364 11.2363H7.36945V12.2432C7.36945 12.6574 7.70524 12.9932 8.11945 12.9932C8.53366 12.9932 8.86945 12.6574 8.86945 12.2432V11.2363H9.87479C10.289 11.2363 10.6248 10.9005 10.6248 10.4863C10.6248 10.0721 10.289 9.73632 9.87479 9.73632H8.86945V8.73242ZM17.1964 8.18242C16.7545 8.18242 16.3964 8.54059 16.3964 8.98242C16.3964 9.42425 16.7545 9.78242 17.1964 9.78242H17.2064C17.6482 9.78242 18.0064 9.42425 18.0064 8.98242C18.0064 8.54059 17.6482 8.18242 17.2064 8.18242H17.1964ZM15.6964 11.1893C15.2545 11.1893 14.8964 11.5474 14.8964 11.9893C14.8964 12.4311 15.2545 12.7893 15.6964 12.7893H15.7064C16.1482 12.7893 16.5064 12.4311 16.5064 11.9893C16.5064 11.5474 16.1482 11.1893 15.7064 11.1893H15.6964Z" fill="#000000"/></svg>