<?xml version="1.0" encoding="UTF-8"?>
<svg version="1.1" xmlns="http://www.w3.org/2000/svg" width="683" height="683">
<path d="M0 0 C1.05572708 -0.00570007 2.11145416 -0.01140015 3.19917297 -0.01727295 C5.42354352 -0.02665299 7.64792752 -0.03322878 9.87231445 -0.03710938 C13.18532338 -0.04672135 16.4976853 -0.07777456 19.81054688 -0.109375 C39.74100112 -0.2089953 59.36843072 1.6726134 78.86328125 5.890625 C80.06073975 6.14626221 81.25819824 6.40189941 82.49194336 6.6652832 C147.20335198 20.87291202 225.71421594 57.19608301 263.55078125 115.203125 C272.96951245 131.0838722 277.38103857 146.96682434 272.86328125 165.328125 C271.02128521 172.23437995 268.64088338 178.76010277 265.55078125 185.203125 C265.26138672 185.81172363 264.97199219 186.42032227 264.67382812 187.04736328 C256.71897027 203.54103417 246.03708415 218.18710349 234.39355469 232.25488281 C217.48165885 251.22519492 217.48165885 251.22519492 210.95703125 274.62890625 C214.22227115 288.78543978 228.40269548 302.66682139 237.41015625 313.5859375 C262.70305847 344.5097413 274.48787579 381.11601379 280.55078125 420.203125 C280.66276855 420.9137207 280.77475586 421.62431641 280.89013672 422.35644531 C287.82832388 474.12310032 272.02291606 530.5456657 240.98925781 572.32421875 C199.69359742 626.26369641 132.77021039 650.96180758 67.46875 659.91796875 C63.50228338 660.42589361 59.53630353 660.87479044 55.55078125 661.203125 C54.52057861 661.28852539 53.49037598 661.37392578 52.42895508 661.46191406 C41.94607522 662.2482886 31.49725373 662.44591276 20.98828125 662.453125 C20.09470917 662.45379974 19.20113708 662.45447449 18.28048706 662.45516968 C-68.416644 662.35205861 -140.82727373 629.71405398 -201.71313477 569.234375 C-202.90952255 568.04951749 -204.11036622 566.86914192 -205.31567383 565.69335938 C-224.66576793 546.81316988 -240.95380105 524.65590688 -241.69921875 496.640625 C-241.44221221 469.71205046 -225.99850297 448.46133258 -208.50390625 429.44140625 C-206.56819272 427.33272973 -204.69101899 425.18526172 -202.82421875 423.015625 C-200.10399946 419.88799959 -197.23887027 416.96675723 -194.27929688 414.06689453 C-192.5648996 412.32093551 -190.9876805 410.52164282 -189.41015625 408.65234375 C-185.20756028 403.8152469 -180.61870797 399.40614186 -176.03012085 394.93930054 C-161.62406098 381.77358612 -161.62406098 381.77358612 -152.94921875 364.765625 C-152.89671392 350.30054368 -168.13687842 335.71898549 -176.640625 325.28125 C-183.18397002 317.23976887 -189.18299684 309.14256654 -194.44921875 300.203125 C-194.81611816 299.58840332 -195.18301758 298.97368164 -195.56103516 298.34033203 C-206.98704442 278.92057376 -213.64739223 257.31862803 -217.44921875 235.203125 C-217.5790918 234.4723877 -217.70896484 233.74165039 -217.84277344 232.98876953 C-224.04269552 196.30155553 -219.15641378 155.2544705 -204.44921875 121.203125 C-204.13645996 120.46819824 -203.82370117 119.73327148 -203.50146484 118.97607422 C-183.2939905 72.13814022 -143.87463995 38.68426674 -97.44921875 19.203125 C-66.51610378 7.15011681 -33.24210066 0.14486744 0 0 Z M-119.44921875 92.203125 C-119.99223633 92.69409668 -120.53525391 93.18506836 -121.09472656 93.69091797 C-134.82671563 106.29285327 -144.93920417 121.18916663 -152.44921875 138.203125 C-152.93003906 139.28980469 -153.41085938 140.37648438 -153.90625 141.49609375 C-167.44571908 174.42440978 -168.00339872 216.80415881 -154.40527344 249.73095703 C-149.23843272 261.68393248 -143.14590727 272.70874168 -135.44921875 283.203125 C-135.04735352 283.7590332 -134.64548828 284.31494141 -134.23144531 284.88769531 C-127.91948064 293.56982561 -120.88572388 301.47403606 -113.44921875 309.203125 C-112.74297363 309.94224121 -112.74297363 309.94224121 -112.02246094 310.69628906 C-105.56656148 317.42363489 -98.79680324 323.4720091 -91.44921875 329.203125 C-90.83304687 329.69039063 -90.216875 330.17765625 -89.58203125 330.6796875 C-69.77303062 346.32648566 -48.18050103 358.81029867 -26.44287109 371.55175781 C-9.7989025 381.31129821 6.76102816 391.08741077 22.55078125 402.203125 C23.3082666 402.73518555 24.06575195 403.26724609 24.84619141 403.81542969 C36.55629531 412.1156852 46.84704241 420.09190848 51.55078125 434.203125 C52.25386295 443.84345683 51.58452942 452.23880981 46.48828125 460.578125 C36.17537492 469.79391363 21.50646182 468.77919419 8.56933594 468.37353516 C-14.65960886 467.06216315 -37.80700214 457.32906723 -58.44921875 447.203125 C-59.13306641 446.86812988 -59.81691406 446.53313477 -60.52148438 446.18798828 C-76.46646966 438.26675301 -90.59689121 427.99715144 -104.19921875 416.578125 C-104.74271973 416.12252197 -105.2862207 415.66691895 -105.84619141 415.19750977 C-108.40961728 413.02399903 -110.80103882 410.84215355 -113.15234375 408.4296875 C-116.03849205 405.63189068 -117.78925142 405.26538607 -121.76171875 404.890625 C-127.28289587 405.35852137 -130.29450023 407.98781406 -134.0546875 411.9453125 C-134.9239444 412.98245235 -135.78427775 414.02712026 -136.63671875 415.078125 C-137.1073877 415.64619873 -137.57805664 416.21427246 -138.06298828 416.79956055 C-141.84582388 421.39192548 -145.52641154 426.06560899 -149.18237305 430.75927734 C-152.71283054 435.28927343 -156.31662515 439.75473481 -159.94921875 444.203125 C-164.06600382 449.24553465 -168.13319507 454.32032907 -172.13671875 459.453125 C-177.10428614 465.82040374 -182.23933498 472.03263359 -187.44921875 478.203125 C-185.88395128 483.2489251 -182.83175969 486.77194565 -179.51171875 490.765625 C-178.92616211 491.475979 -178.34060547 492.18633301 -177.73730469 492.91821289 C-164.50094241 508.86038064 -150.03945145 524.70236142 -133.44921875 537.203125 C-132.89588867 537.62754883 -132.34255859 538.05197266 -131.77246094 538.48925781 C-99.06621789 563.52914329 -62.12337483 577.42246683 -21.44921875 583.203125 C-20.62856934 583.32171875 -19.80791992 583.4403125 -18.96240234 583.5625 C19.6634403 588.82645584 60.13668152 585.78898569 97.55078125 575.203125 C98.4437793 574.95224121 99.33677734 574.70135742 100.25683594 574.44287109 C143.47674852 561.96478642 181.87251548 535.12321069 204.92578125 496.140625 C210.42173273 486.05902456 214.30255132 475.74729436 217.30078125 464.703125 C217.49953857 463.9810083 217.6982959 463.2588916 217.90307617 462.51489258 C221.14576992 449.88742894 221.9343259 437.12090054 221.86328125 424.140625 C221.8611261 423.4252356 221.85897095 422.70984619 221.85675049 421.97277832 C221.65120105 379.17809905 207.32365838 342.64534749 179.55078125 310.203125 C178.86628906 309.39488281 178.18179687 308.58664062 177.4765625 307.75390625 C166.26798527 294.88786843 153.29933258 284.22902276 139.55078125 274.203125 C138.96409668 273.77515625 138.37741211 273.3471875 137.77294922 272.90625 C116.61702522 257.60592809 93.05442737 245.65722849 70.00924683 233.49078369 C12.6500559 203.20268431 12.6500559 203.20268431 6.44140625 187.375 C4.41204685 180.14763231 4.48063161 172.60837739 7.55078125 165.703125 C10.81846624 159.96133566 15.41020264 157.24998454 21.55078125 155.203125 C49.57256955 152.51559158 76.18718969 162.22845167 100.58837891 175.16894531 C102.62162589 176.2404599 104.66834531 177.28204874 106.71875 178.3203125 C122.33092082 186.2991504 137.33163482 195.72075034 150.74609375 207.05859375 C154.78594033 210.39344749 157.96289601 211.93507127 163.1796875 212.5859375 C167.56994272 211.87713188 171.17622416 209.76978949 174.08485413 206.45465088 C175.626229 204.30053798 177.06042829 202.10420447 178.47265625 199.86328125 C179.01131821 199.03633759 179.54998016 198.20939392 180.10496521 197.35739136 C181.85140365 194.66921042 183.57603619 191.96776438 185.30078125 189.265625 C186.49890774 187.41317339 187.69854378 185.56169729 188.8996582 183.71118164 C191.31179438 179.99090038 193.71607464 176.26573682 196.11376953 172.53613281 C200.531694 165.67011216 205.01364551 158.84660759 209.49987793 152.02511597 C211.45196834 149.05460008 213.39779442 146.08000708 215.34375 143.10546875 C215.96789795 142.15148193 216.5920459 141.19749512 217.23510742 140.21459961 C217.66927979 139.55081299 218.10345215 138.88702637 218.55078125 138.203125 C211.46129129 129.82288148 203.99180872 122.362107 195.40234375 115.5 C193.53895834 113.99908134 191.69887482 112.46863676 189.88671875 110.90625 C174.47600284 97.62264699 157.43501398 86.82500898 139.55078125 77.203125 C138.83970215 76.81930664 138.12862305 76.43548828 137.39599609 76.04003906 C61.79170578 35.67147622 -50.85819234 30.70707949 -119.44921875 92.203125 Z " fill="#000000" transform="translate(324.44921875,13.796875)"/>
</svg>
