<svg width="80" height="80" viewBox="0 0 25 25" fill="none" xmlns="http://www.w3.org/2000/svg" transform="rotate(0 0 0)"><path d="M4.02321 6.12999C3.86089 5.83733 3.91211 5.47254 4.14875 5.23589L4.64848 4.73617C4.88512 4.49953 5.24991 4.4483 5.54257 4.61062L6.6646 5.23292C6.82356 5.32108 6.94509 5.46398 7.0066 5.63503L7.28717 6.41532C7.33705 6.55405 7.344 6.70107 7.31189 6.83907L12.1118 11.639L13.3353 10.4156C13.6282 10.1227 14.1031 10.1227 14.396 10.4156L16.0022 12.0218C16.2443 12.2639 16.2917 12.6392 16.1175 12.9339C15.95 13.2171 15.9892 13.5882 16.2318 13.8308C16.4744 14.0734 16.8455 14.1126 17.1288 13.9451C17.4234 13.7709 17.7987 13.8183 18.0408 14.0604L20.2932 16.3128C21.1718 17.1914 21.1718 18.6161 20.2932 19.4947L18.9068 20.8811C18.0281 21.7598 16.6035 21.7598 15.7248 20.8811L13.4759 18.6322C13.2337 18.39 13.1863 18.0145 13.3608 17.7198C13.5286 17.4365 13.4895 17.0651 13.2468 16.8224C13.0041 16.5797 12.6327 16.5406 12.3494 16.7084C12.0547 16.8829 11.6792 16.8355 11.437 16.5933L9.8276 14.9839C9.53471 14.691 9.53471 14.2161 9.8276 13.9233L11.0512 12.6997L6.25096 7.89947C6.11316 7.93139 5.9664 7.92438 5.82791 7.87458L5.04761 7.59401C4.87656 7.53251 4.73367 7.41097 4.64551 7.25201L4.02321 6.12999Z" fill="#000000"/><path d="M8.60009 12.3656L4.15803 16.8077C3.27936 17.6864 3.27935 19.111 4.15803 19.9897L4.59729 20.4289C5.47597 21.3076 6.90059 21.3076 7.77927 20.4289L10.4701 17.7381C10.4377 17.7092 10.4059 17.6793 10.3749 17.6483L8.76552 16.0389C7.88685 15.1602 7.88684 13.7356 8.76552 12.8569L8.92844 12.694L8.60009 12.3656Z" fill="#000000"/><path d="M19.2334 13.1274C19.4562 12.9631 19.6696 12.7801 19.8713 12.5784C21.5207 10.929 21.9165 8.50273 21.0631 6.48083C20.966 6.25087 20.7609 6.08427 20.516 6.0364C20.271 5.98852 20.0183 6.06565 19.8418 6.24214L17.3117 8.77227C17.0188 9.06516 16.5439 9.06516 16.251 8.77227L15.8118 8.33301C15.5189 8.04012 15.5189 7.56525 15.8118 7.27235L18.3418 4.74229C18.5183 4.56579 18.5955 4.31305 18.5476 4.06809C18.4997 3.82312 18.3331 3.61802 18.1031 3.52097C16.0813 2.6677 13.6551 3.06352 12.0058 4.71286C11.1257 5.59294 10.6025 6.6942 10.4356 7.83718L12.1104 9.512L12.2732 9.34919C13.1519 8.47051 14.5765 8.47051 15.4552 9.34919L17.0615 10.9555C17.4446 11.3385 17.6652 11.8328 17.7114 12.3441C18.2227 12.3904 18.717 12.6109 19.1 12.994L19.2334 13.1274Z" fill="#000000"/></svg>