<svg width="80" height="80" viewBox="0 0 24 24" fill="none" xmlns="http://www.w3.org/2000/svg" transform="rotate(0 0 0)"><path d="M12.8375 4.96984C12.2958 4.77568 11.7035 4.77568 11.1619 4.96984L2.88741 7.93598C1.7146 8.3564 1.71462 10.015 2.88742 10.4354L11.1619 13.4016C11.7035 13.5957 12.2958 13.5957 12.8375 13.4016L21.1119 10.4354C22.2847 10.015 22.2847 8.3564 21.1119 7.93598L12.8375 4.96984Z" fill="#000000"/><path d="M5.02986 12.7969L10.6557 14.8136C11.5246 15.1251 12.4747 15.1251 13.3436 14.8136L18.9695 12.7969L21.1119 13.5649C22.2847 13.9853 22.2847 15.6439 21.1119 16.0643L12.8375 19.0305C12.2958 19.2246 11.7035 19.2246 11.1619 19.0305L2.88742 16.0643C1.71462 15.6439 1.7146 13.9853 2.88741 13.5649L5.02986 12.7969Z" fill="#000000"/></svg>