<svg width="80" height="80" viewBox="0 0 25 25" fill="none" xmlns="http://www.w3.org/2000/svg" transform="rotate(0 0 0)"><path d="M10.0052 5.28367C11.4562 3.99387 13.75 5.02392 13.75 6.96534V18.2848C13.75 20.2262 11.4562 21.2563 10.0052 19.9665L6.80862 17.1251H4.75C3.50736 17.1251 2.5 16.1177 2.5 14.8751V10.3751C2.5 9.13245 3.50736 8.12509 4.75 8.12509H6.80858L10.0052 5.28367Z" fill="#000000"/><path d="M17.0769 15.7894C18.6384 14.0503 18.6384 11.2006 17.0769 9.46153C16.8001 9.15333 16.8256 8.67914 17.1338 8.4024C17.442 8.12566 17.9162 8.15117 18.193 8.45937C20.2664 10.7685 20.2664 14.4824 18.193 16.7915C17.9162 17.0997 17.442 17.1252 17.1338 16.8485C16.8256 16.5718 16.8001 16.0976 17.0769 15.7894Z" fill="#000000"/><path d="M14.9853 11.2784C15.6729 12.0429 15.6729 13.2081 14.9853 13.9726C14.7084 14.2806 14.7335 14.7548 15.0415 15.0318C15.3495 15.3088 15.8237 15.2836 16.1007 14.9756C17.3011 13.6407 17.3011 11.6102 16.1007 10.2754C15.8237 9.96736 15.3495 9.94221 15.0415 10.2192C14.7335 10.4962 14.7084 10.9704 14.9853 11.2784Z" fill="#000000"/></svg>