<svg width="80" height="80" viewBox="0 0 25 24" fill="none" xmlns="http://www.w3.org/2000/svg" transform="rotate(0 0 0)"><path d="M22.2815 2.21576C22.5744 2.50866 22.5744 2.98353 22.2815 3.27642L14.9502 10.6077C16.3493 12.1876 16.4673 14.5469 15.1982 16.2639L13.3497 18.7649L5.7346 11.1498L8.23557 9.30129C9.95171 8.03284 12.3095 8.15011 13.8894 9.54722L21.2208 2.21576C21.5137 1.92287 21.9886 1.92287 22.2815 2.21576Z" fill="#000000"/><path d="M4.51484 12.0514L2.80372 13.3161C2.62814 13.4459 2.51783 13.6458 2.50159 13.8635C2.48535 14.0812 2.5648 14.2952 2.71918 14.4496L10.0499 21.7803C10.2043 21.9347 10.4183 22.0142 10.636 21.9979C10.8538 21.9817 11.0536 21.8714 11.1834 21.6958L12.4481 19.9847L4.51484 12.0514Z" fill="#000000"/></svg>