<svg width="80" height="80" viewBox="0 0 25 25" fill="none" xmlns="http://www.w3.org/2000/svg" transform="rotate(0 0 0)"><path d="M6.86383 2.5C5.17108 2.5 3.79883 3.87225 3.79883 5.565C3.79883 6.99903 4.78367 8.20305 6.11389 8.53759L6.11412 11.0002C6.11416 12.2428 7.12151 13.2501 8.36412 13.2501H11.7988L11.7985 16.4625C10.4682 16.7971 9.4834 18.0011 9.4834 19.4351C9.4834 21.1279 10.8556 22.5001 12.5484 22.5001C14.2412 22.5001 15.6134 21.1279 15.6134 19.4351C15.6134 18.0011 14.6286 16.7971 13.2985 16.4626L13.2988 13.2501H16.7344C17.977 13.2501 18.9844 12.2426 18.9844 11L18.984 8.53755C20.3142 8.20296 21.2989 6.99898 21.2989 5.565C21.2989 3.87225 19.9267 2.5 18.2339 2.5C16.5412 2.5 15.1689 3.87225 15.1689 5.565C15.1689 6.99905 16.1538 8.20307 17.484 8.5376L17.4844 11.0002C17.4843 11.4144 17.1486 11.7501 16.7344 11.7501H12.5602L12.5489 11.75L12.5375 11.7501H8.36412C7.94991 11.7501 7.61412 11.4142 7.61412 11L7.61389 8.53756C8.94405 8.20297 9.92883 6.99899 9.92883 5.565C9.92883 3.87225 8.55658 2.5 6.86383 2.5Z" fill="#000000"/></svg>