<svg width="80" height="80" viewBox="0 0 24 25" fill="none" xmlns="http://www.w3.org/2000/svg" transform="rotate(0 0 0)"><path d="M8.99906 3.0752C8.99906 2.66098 8.66328 2.3252 8.24906 2.3252C7.83485 2.3252 7.49906 2.66098 7.49906 3.0752V5.76567H4.80859C4.39438 5.76567 4.05859 6.10145 4.05859 6.51567C4.05859 6.92988 4.39438 7.26567 4.80859 7.26567H7.49906V9.95665C7.49906 10.3709 7.83485 10.7067 8.24906 10.7067C8.66328 10.7067 8.99906 10.3709 8.99906 9.95665V7.26567H11.6901C12.1043 7.26567 12.4401 6.92988 12.4401 6.51567C12.4401 6.10145 12.1043 5.76567 11.6901 5.76567H8.99906V3.0752Z" fill="#000000"/><path d="M15.7503 10.0002C14.7838 10.0002 14.0003 10.7837 14.0003 11.7502V12.0002H8.25035C8.05144 12.0002 7.86067 12.0792 7.72002 12.2198C7.57937 12.3605 7.50035 12.5512 7.50035 12.7502L7.50035 18.2502C7.50035 19.4928 8.50771 20.5002 9.75035 20.5002H14.0003V20.7502C14.0003 21.7167 14.7838 22.5002 15.7503 22.5002H17.7503C18.7168 22.5002 19.5003 21.7167 19.5003 20.7502V18.7502C19.5003 17.7837 18.7168 17.0002 17.7503 17.0002H15.7503C14.7838 17.0002 14.0003 17.7837 14.0003 18.7502V19.0002H9.75035C9.33613 19.0002 9.00035 18.6644 9.00035 18.2502V13.5002H14.0003V13.7502C14.0003 14.7167 14.7838 15.5002 15.7503 15.5002H17.7503C18.7168 15.5002 19.5003 14.7167 19.5003 13.7502V11.7502C19.5003 10.7837 18.7168 10.0002 17.7503 10.0002H15.7503Z" fill="#000000"/></svg>