<svg width="80" height="80" viewBox="0 0 24 25" fill="none" xmlns="http://www.w3.org/2000/svg" transform="rotate(0 0 0)"><path d="M12.7589 2.49035C12.6511 2.41338 12.5657 2.3541 12.5063 2.3135C12.4855 2.29412 12.4625 2.28044 12.4399 2.26696C12.4298 2.26095 12.4198 2.25498 12.4101 2.24857C12.1599 2.08397 11.8358 2.08397 11.5856 2.24857C11.5533 2.26988 11.5213 2.29164 11.4894 2.3135C11.43 2.3541 11.3446 2.41338 11.2368 2.49035C11.0213 2.64424 10.716 2.86918 10.3508 3.15735C9.62151 3.73275 8.64722 4.56506 7.67038 5.5919C5.74612 7.61466 3.67969 10.5301 3.67969 13.8069C3.67969 18.4009 7.40386 22.1251 11.9979 22.1251C16.5919 22.1251 20.3161 18.4009 20.3161 13.8069C20.3161 10.5301 18.2496 7.61466 16.3254 5.5919C15.3485 4.56506 14.3742 3.73275 13.645 3.15735C13.2797 2.86918 12.9744 2.64424 12.7589 2.49035ZM16.568 13.0547C16.9823 13.0547 17.318 13.3905 17.318 13.8047C17.318 16.7429 14.9362 19.1247 11.998 19.1247C11.5838 19.1247 11.248 18.7889 11.248 18.3747C11.248 17.9605 11.5838 17.6247 11.998 17.6247C14.1078 17.6247 15.818 15.9144 15.818 13.8047C15.818 13.3905 16.1538 13.0547 16.568 13.0547Z" fill="#000000"/></svg>