<svg width="80" height="80" viewBox="0 0 24 25" fill="none" xmlns="http://www.w3.org/2000/svg" transform="rotate(0 0 0)"><path d="M12.75 4.12598C12.75 3.71176 12.4142 3.37598 12 3.37598C11.5858 3.37598 11.25 3.71176 11.25 4.12598V4.97769L6.94245 4.62843C6.73369 4.6115 6.52736 4.68264 6.37339 4.82463C6.21942 4.96662 6.13184 5.16653 6.13184 5.37598V6.20603C6.13184 6.41547 6.21942 6.61538 6.37339 6.75737C6.52736 6.89936 6.73369 6.9705 6.94245 6.95357L11.25 6.60431V8.17445C9.39067 8.41665 7.81136 9.54706 6.95019 11.1241L2.75 11.1241C2.55109 11.1241 2.36032 11.2032 2.21967 11.3438C2.07902 11.4845 2 11.6752 2 11.8741V15.8741C2 16.2884 2.33579 16.6241 2.75 16.6241L6.9482 16.6241C7.92247 18.4114 9.81868 19.626 12 19.626C14.1813 19.626 16.0775 18.4114 17.0518 16.6241H21.25C21.6642 16.6241 22 16.2884 22 15.8741V11.8741C22 11.4599 21.6642 11.1241 21.25 11.1241H17.0498C16.1886 9.54706 14.6093 8.41665 12.75 8.17445V6.60423L17.0585 6.95357C17.2673 6.9705 17.4736 6.89936 17.6276 6.75737C17.7816 6.61538 17.8691 6.41548 17.8691 6.20603V5.37598C17.8691 5.16653 17.7816 4.96662 17.6276 4.82463C17.4736 4.68264 17.2673 4.6115 17.0585 4.62843L12.75 4.97777V4.12598Z" fill="#000000"/></svg>