<svg width="80" height="80" viewBox="0 0 24 25" fill="none" xmlns="http://www.w3.org/2000/svg" transform="rotate(0 0 0)"><path d="M3.5 5.75C3.5 5.33579 3.16421 5 2.75 5C2.33579 5 2 5.33579 2 5.75V17.75C2 18.9926 3.00736 20 4.25 20H21.25C21.6642 20 22 19.6642 22 19.25C22 18.8358 21.6642 18.5 21.25 18.5H4.25C3.83579 18.5 3.5 18.1642 3.5 17.75V5.75Z" fill="#000000"/><path d="M7 10.7773C5.89543 10.7773 5 11.6728 5 12.7773V16.2501C5 16.6643 5.33579 17.0001 5.75 17.0001H8.25C8.66421 17.0001 9 16.6643 9 16.2501V12.7773C9 11.6728 8.10457 10.7773 7 10.7773Z" fill="#000000"/><path d="M12.5 5C11.3954 5 10.5 5.89543 10.5 7V16.2501C10.5 16.6643 10.8358 17.0001 11.25 17.0001H13.75C14.1642 17.0001 14.5 16.6643 14.5 16.2501V7C14.5 5.89543 13.6046 5 12.5 5Z" fill="#000000"/><path d="M18 8.55859C16.8954 8.55859 16 9.45402 16 10.5586V16.2501C16 16.6643 16.3358 17.0001 16.75 17.0001H19.25C19.6642 17.0001 20 16.6643 20 16.2501V10.5586C20 9.45402 19.1046 8.55859 18 8.55859Z" fill="#000000"/></svg>