<svg width="80" height="80" viewBox="0 0 24 25" fill="none" xmlns="http://www.w3.org/2000/svg" transform="rotate(0 0 0)"><path d="M6.25 2.5C5.2835 2.5 4.5 3.2835 4.5 4.25V6.62838C4.5 7.59488 5.2835 8.37838 6.25 8.37838H7.5L7.5 18.25C7.5 19.4926 8.50736 20.5 9.75 20.5H10.71V20.75C10.71 21.7165 11.4935 22.5 12.46 22.5H14.46C15.4265 22.5 16.21 21.7165 16.21 20.75V18.75C16.21 17.7835 15.4265 17 14.46 17H12.46C11.4935 17 10.71 17.7835 10.71 18.75V19H9.75C9.33579 19 9 18.6642 9 18.25L9 13.5H10.71V13.75C10.71 14.7165 11.4935 15.5 12.46 15.5H14.46C15.4265 15.5 16.21 14.7165 16.21 13.75V11.75C16.21 10.7835 15.4265 10 14.46 10H12.46C11.4935 10 10.71 10.7835 10.71 11.75V12H9V8.37838H10.25C11.2165 8.37838 12 7.59488 12 6.62838V4.25C12 3.2835 11.2165 2.5 10.25 2.5H6.25Z" fill="#000000"/><path d="M18.4648 12C18.0506 12 17.7148 12.3358 17.7148 12.75C17.7148 13.1642 18.0506 13.5 18.4648 13.5H18.7325C19.1467 13.5 19.4825 13.8358 19.4825 14.25L19.4825 18.1167H18.4648C18.1615 18.1167 17.8879 18.2995 17.7719 18.5798C17.6558 18.8601 17.7201 19.1827 17.9347 19.3972L19.7024 21.1638C19.9952 21.4565 20.4698 21.4565 20.7627 21.1638L22.5305 19.3972C22.7451 19.1828 22.8094 18.8601 22.6933 18.5798C22.5773 18.2995 22.3038 18.1167 22.0004 18.1167H20.9825L20.9825 14.25C20.9825 13.0074 19.9751 12 18.7325 12H18.4648Z" fill="#000000"/></svg>