<svg width="80" height="80" viewBox="0 0 25 24" fill="none" xmlns="http://www.w3.org/2000/svg" transform="rotate(0 0 0)"><path d="M3.0625 7.83496H11.0499C11.3986 9.59392 12.9502 10.92 14.8116 10.92C16.6729 10.92 18.2245 9.59392 18.5733 7.83496H21.5625C21.9767 7.83496 22.3125 7.49917 22.3125 7.08496C22.3125 6.67075 21.9767 6.33496 21.5625 6.33496H18.5732C18.2245 4.57604 16.6729 3.25 14.8116 3.25C12.9502 3.25 11.3986 4.57604 11.0499 6.33496H3.0625C2.64829 6.33496 2.3125 6.67075 2.3125 7.08496C2.3125 7.49917 2.64829 7.83496 3.0625 7.83496Z" fill="#000000"/><path d="M9.81344 13.0801C11.6748 13.0801 13.2264 14.4061 13.5751 16.165H21.5625C21.9767 16.165 22.3125 16.5008 22.3125 16.915C22.3125 17.3293 21.9767 17.665 21.5625 17.665H13.5751C13.2264 19.424 11.6748 20.7501 9.81344 20.7501C7.95208 20.7501 6.40045 19.424 6.05174 17.665H3.0625C2.64829 17.665 2.3125 17.3293 2.3125 16.915C2.3125 16.5008 2.64829 16.165 3.0625 16.165H6.05175C6.4005 14.4061 7.95211 13.0801 9.81344 13.0801Z" fill="#000000"/></svg>