<svg width="80" height="80" viewBox="0 0 25 25" fill="none" xmlns="http://www.w3.org/2000/svg" transform="rotate(0 0 0)"><path d="M11.0466 3.68164C11.0466 3.26743 10.7108 2.93164 10.2966 2.93164C9.88234 2.93164 9.54656 3.26743 9.54656 3.68164L9.54656 6.18164L7.5 6.18164C7.30109 6.18164 7.11032 6.26066 6.96967 6.40131C6.82902 6.54196 6.75 6.73273 6.75 6.93164V11.9316C6.75 14.8531 8.92873 17.2657 11.75 17.6332L11.75 22.1816C11.75 22.5959 12.0858 22.9316 12.5 22.9316C12.9142 22.9316 13.25 22.5959 13.25 22.1816L13.25 17.6332C16.0713 17.2657 18.25 14.8531 18.25 11.9316V6.93164C18.25 6.51743 17.9142 6.18164 17.5 6.18164L15.4649 6.18164L15.4649 3.68164C15.4649 3.26743 15.1291 2.93164 14.7149 2.93164C14.3007 2.93164 13.9649 3.26743 13.9649 3.68164L13.9649 6.18164L11.0466 6.18164V3.68164Z" fill="#000000"/></svg>