<svg width="80" height="80" viewBox="0 0 25 24" fill="none" xmlns="http://www.w3.org/2000/svg" transform="rotate(0 0 0)"><path d="M3.5625 5.5C3.5625 4.25736 4.56986 3.25 5.8125 3.25H18.8125C20.0551 3.25 21.0625 4.25736 21.0625 5.5L21.0625 18.4995C21.0625 19.7422 20.0551 20.7495 18.8125 20.7495H5.8125C4.56986 20.7495 3.5625 19.7422 3.5625 18.4995V5.5ZM12.0625 9.24805C12.0625 8.83383 11.7267 8.49805 11.3125 8.49805L10.0625 8.49805V7C10.0625 6.58579 9.72671 6.25 9.3125 6.25C8.89829 6.25 8.5625 6.58579 8.5625 7V8.49804L7.3125 8.49804C6.89829 8.49804 6.5625 8.83383 6.5625 9.24804C6.5625 9.66225 6.89829 9.99804 7.3125 9.99804L11.3125 9.99805C11.7267 9.99805 12.0625 9.66226 12.0625 9.24805ZM10.0625 11.4961L8.5625 11.4961L8.5625 17C8.5625 17.4142 8.89829 17.75 9.3125 17.75C9.72671 17.75 10.0625 17.4142 10.0625 17L10.0625 11.4961ZM18.0625 13.25C18.0625 12.8358 17.7267 12.5 17.3125 12.5L16.0625 12.5V7C16.0625 6.58579 15.7267 6.25 15.3125 6.25C14.8983 6.25 14.5625 6.58579 14.5625 7V12.5L13.3125 12.5C12.8983 12.5 12.5625 12.8358 12.5625 13.25C12.5625 13.6642 12.8983 14 13.3125 14L17.3125 14C17.7267 14 18.0625 13.6642 18.0625 13.25ZM15.3125 17.75C15.7267 17.75 16.0625 17.4142 16.0625 17V15.5L14.5625 15.5V17C14.5625 17.4142 14.8983 17.75 15.3125 17.75Z" fill="#000000"/></svg>