<svg width="80" height="80" viewBox="0 0 24 25" fill="none" xmlns="http://www.w3.org/2000/svg" transform="rotate(0 0 0)"><path d="M4.75 4.74951C4.75 4.3353 4.41421 3.99951 4 3.99951C3.58579 3.99951 3.25 4.3353 3.25 4.74951V11.9995C3.25 12.4137 3.58579 12.7495 4 12.7495C4.41421 12.7495 4.75 12.4137 4.75 11.9995V4.74951Z" fill="#000000"/><path d="M12.7498 4.74951C12.7498 4.3353 12.414 3.99951 11.9998 3.99951C11.5856 3.99951 11.2498 4.3353 11.2498 4.74951V15.3776L7.375 15.3776C7.07161 15.3776 6.7981 15.5604 6.68204 15.8407C6.56599 16.121 6.63024 16.4436 6.84484 16.6581L11.4697 21.28C11.7625 21.5727 12.2371 21.5727 12.53 21.28L17.1551 16.6581C17.3698 16.4437 17.434 16.121 17.318 15.8407C17.2019 15.5604 16.9284 15.3776 16.625 15.3776L12.7498 15.3776V4.74951Z" fill="#000000"/><path d="M20.75 4.74951C20.75 4.3353 20.4142 3.99951 20 3.99951C19.5858 3.99951 19.25 4.3353 19.25 4.74951V11.9995C19.25 12.4137 19.5858 12.7495 20 12.7495C20.4142 12.7495 20.75 12.4137 20.75 11.9995V4.74951Z" fill="#000000"/></svg>