<svg width="80" height="80" viewBox="0 0 24 24" fill="none" xmlns="http://www.w3.org/2000/svg" transform="rotate(0 0 0)"><path d="M16.9974 4.14126C16.9407 2.94912 15.9562 2 14.75 2H6.75C5.50736 2 4.5 3.00736 4.5 4.25V19.75C4.5 20.9926 5.50736 22 6.75 22H14.75C15.9926 22 17 20.9926 17 19.75V12.5798C16.8651 12.4979 16.7395 12.4021 16.6252 12.2945C16.2225 12.6735 15.68 12.9058 15.0834 12.9058C14.4868 12.9058 13.9444 12.6736 13.5417 12.2946C13.139 12.6736 12.5966 12.9058 12 12.9058C10.7574 12.9058 9.75 11.8984 9.75 10.6558V9.99981C9.75 8.75717 10.7574 7.74981 12 7.74981C12.2956 7.74981 12.578 7.80684 12.8366 7.91048C12.8996 6.72425 13.8814 5.7818 15.0834 5.7818C15.3791 5.7818 15.6615 5.83885 15.9202 5.94256C15.9607 5.17905 16.3819 4.51652 16.9974 4.14126ZM9.75 17.5H11.75C12.1642 17.5 12.5 17.8358 12.5 18.25C12.5 18.6642 12.1642 19 11.75 19H9.75C9.33579 19 9 18.6642 9 18.25C9 17.8358 9.33579 17.5 9.75 17.5Z" fill="#000000"/><path d="M21.25 11.4058C20.8358 11.4058 20.5 11.07 20.5 10.6558V4.0957C20.5 3.68149 20.8358 3.3457 21.25 3.3457C21.6642 3.3457 22 3.68149 22 4.0957V10.6558C22 11.07 21.6642 11.4058 21.25 11.4058Z" fill="#000000"/><path d="M17.417 10.6558C17.417 11.07 17.7528 11.4058 18.167 11.4058C18.5812 11.4058 18.917 11.07 18.917 10.6558V6.06378C18.917 5.64957 18.5812 5.31378 18.167 5.31378C17.7528 5.31378 17.417 5.64957 17.417 6.06378V10.6558Z" fill="#000000"/><path d="M15.0834 11.4058C14.6692 11.4058 14.3334 11.07 14.3334 10.6558V8.0318C14.3334 7.61758 14.6692 7.2818 15.0834 7.2818C15.4976 7.2818 15.8334 7.61758 15.8334 8.0318V10.6558C15.8334 11.07 15.4976 11.4058 15.0834 11.4058Z" fill="#000000"/><path d="M12 11.4058C11.5858 11.4058 11.25 11.07 11.25 10.6558V9.99981C11.25 9.5856 11.5858 9.24981 12 9.24981C12.4142 9.24981 12.75 9.5856 12.75 9.99981V10.6558C12.75 11.07 12.4142 11.4058 12 11.4058Z" fill="#000000"/></svg>