<svg width="80" height="80" viewBox="0 0 24 24" fill="none" xmlns="http://www.w3.org/2000/svg" transform="rotate(0 0 0)"><path d="M13.5786 3.61852C12.3564 2.3072 10.4747 1.68441 8.61293 2.15759C6.1064 2.79464 4.51441 5.19531 4.82589 7.69675C3.60621 8.48249 2.79688 9.85322 2.79688 11.4142C2.79688 13.8547 4.77535 15.8332 7.21593 15.8332H7.49829V18.2509C7.49829 18.6651 7.1625 19.0009 6.74829 19.0009H6.2582C6.03014 18.6975 5.66714 18.5012 5.25829 18.5012H5.24829C4.55793 18.5012 3.99829 19.0608 3.99829 19.7512C3.99829 20.4415 4.55793 21.0012 5.24829 21.0012H5.25829C5.66736 21.0012 6.03053 20.8047 6.25857 20.5009H6.74829C7.99093 20.5009 8.99829 19.4936 8.99829 18.2509V15.8332H11.2483V19.7511C10.9447 19.9791 10.7483 20.3422 10.7483 20.7512C10.7483 21.4415 11.3079 22.0012 11.9983 22.0012H12.0083C12.6986 22.0012 13.2583 21.4415 13.2583 20.7512C13.2583 20.3377 13.0576 19.9712 12.7483 19.7436V15.8332H14.9983V18.2509C14.9983 19.4936 16.0057 20.5009 17.2483 20.5009H17.7383C17.9663 20.8047 18.3295 21.0012 18.7385 21.0012H18.7485C19.4389 21.0012 19.9985 20.4415 19.9985 19.7512C19.9985 19.0608 19.4389 18.5012 18.7485 18.5012H18.7385C18.3297 18.5012 17.9667 18.6975 17.7386 19.0009H17.2483C16.8341 19.0009 16.4983 18.6651 16.4983 18.2509V15.8332H16.7806C19.2212 15.8332 21.1997 13.8547 21.1997 11.4142C21.1997 9.88479 20.4227 8.53798 19.2442 7.74516C19.5116 5.92973 18.483 4.11439 16.6927 3.45577C15.6339 3.06622 14.5158 3.15805 13.5786 3.61852ZM8.30401 10.6321C8.01112 10.925 7.53624 10.925 7.24335 10.6321C6.95046 10.3392 6.95046 9.86437 7.24335 9.57148C9.86958 6.94525 14.1275 6.94525 16.7538 9.57148C17.0467 9.86437 17.0467 10.3392 16.7538 10.6321C16.4609 10.925 15.986 10.925 15.6931 10.6321C13.6527 8.5917 10.3445 8.5917 8.30401 10.6321ZM13.2523 12.6132C12.5601 11.9209 11.4377 11.9209 10.7454 12.6132C10.4525 12.9061 9.97765 12.9061 9.68476 12.6132C9.39186 12.3203 9.39186 11.8454 9.68476 11.5525C10.9628 10.2745 13.0349 10.2745 14.313 11.5525C14.6059 11.8454 14.6059 12.3203 14.313 12.6132C14.0201 12.9061 13.5452 12.9061 13.2523 12.6132Z" fill="#000000"/></svg>