<svg width="80" height="80" viewBox="0 0 24 24" fill="none" xmlns="http://www.w3.org/2000/svg" transform="rotate(0 0 0)"><path d="M4.25 3.25C3.00736 3.25 2 4.25736 2 5.5V11.25H19.5V5.5C19.5 4.25736 18.4926 3.25 17.25 3.25H4.25ZM6.24707 7.2H7.24707C7.6889 7.2 8.04707 7.55817 8.04707 8C8.04707 8.44183 7.6889 8.8 7.24707 8.8H6.24707C5.80524 8.8 5.44707 8.44183 5.44707 8C5.44707 7.55817 5.80524 7.2 6.24707 7.2ZM9.44512 8C9.44512 7.55817 9.80329 7.2 10.2451 7.2H11.2451C11.6869 7.2 12.0451 7.55817 12.0451 8C12.0451 8.44183 11.6869 8.8 11.2451 8.8H10.2451C9.80329 8.8 9.44512 8.44183 9.44512 8Z" fill="#000000"/><path d="M2 18.5V12.75H11.1198C9.25355 15.0914 9.29425 18.4531 11.242 20.75H4.25C3.00736 20.75 2 19.7426 2 18.5ZM5.44805 16C5.44805 16.4418 5.80622 16.8 6.24805 16.8H7.24805C7.68987 16.8 8.04805 16.4418 8.04805 16C8.04805 15.5582 7.68987 15.2 7.24805 15.2H6.24805C5.80622 15.2 5.44805 15.5582 5.44805 16Z" fill="#000000"/><path d="M13.7185 14.336C14.0114 14.0431 14.0114 13.5683 13.7185 13.2754C13.4256 12.9825 12.9507 12.9825 12.6579 13.2754C10.7804 15.1528 10.7804 18.1968 12.6579 20.0742C12.9507 20.3671 13.4256 20.3671 13.7185 20.0742C14.0114 19.7813 14.0114 19.3065 13.7185 19.0136C12.4269 17.7219 12.4269 15.6277 13.7185 14.336Z" fill="#000000"/><path d="M20.5931 13.2754C20.3003 12.9825 19.8254 12.9825 19.5325 13.2754C19.2396 13.5683 19.2396 14.0431 19.5325 14.336C20.8241 15.6277 20.8241 17.7219 19.5325 19.0136C19.2396 19.3065 19.2396 19.7813 19.5325 20.0742C19.8254 20.3671 20.3003 20.3671 20.5931 20.0742C22.4706 18.1968 22.4706 15.1528 20.5931 13.2754Z" fill="#000000"/><path d="M16.6257 15.4248C15.9354 15.4248 15.3757 15.9845 15.3757 16.6748C15.3757 17.3652 15.9354 17.9248 16.6257 17.9248C17.3161 17.9248 17.8767 17.3652 17.8767 16.6748C17.8767 15.9845 17.3161 15.4248 16.6257 15.4248Z" fill="#000000"/></svg>