<svg width="80" height="80" viewBox="0 0 24 24" fill="none" xmlns="http://www.w3.org/2000/svg" transform="rotate(0 0 0)"><path d="M7.25 4.25C7.25 3.00736 8.25736 2 9.5 2H14.5C15.7426 2 16.75 3.00736 16.75 4.25V7.13867H7.25V4.25Z" fill="#000000"/><path d="M7.25 8.63867V12.2783H16.75V8.63867H7.25Z" fill="#000000"/><path d="M16.75 13.7783H7.25V17.25C7.25 19.8734 9.37665 22 12 22C14.6234 22 16.75 19.8734 16.75 17.25V13.7783ZM11.102 18.166C11.102 17.669 11.5049 17.266 12.002 17.266C12.499 17.266 12.9021 17.669 12.9021 18.166C12.9021 18.6631 12.4991 19.066 12.0021 19.066C11.505 19.066 11.102 18.6631 11.102 18.166Z" fill="#000000"/></svg>