<svg width="80" height="80" viewBox="0 0 24 24" fill="none" xmlns="http://www.w3.org/2000/svg" transform="rotate(0 0 0)"><path d="M5.75 2C4.50736 2 3.5 3.00736 3.5 4.25V13.8171C3.5 15.0597 4.50736 16.0671 5.75 16.0671H11.25L11.25 18.75H7.5C6.25736 18.75 5.25 19.7574 5.25 21V21.25C5.25 21.6642 5.58579 22 6 22C6.41421 22 6.75 21.6642 6.75 21.25V21C6.75 20.5858 7.08579 20.25 7.5 20.25H11.25V21.2498C11.25 21.664 11.5858 21.9998 12 21.9998C12.4142 21.9998 12.75 21.664 12.75 21.2498V20.25H16.5C16.9142 20.25 17.25 20.5858 17.25 21V21.25C17.25 21.6642 17.5858 22 18 22C18.4142 22 18.75 21.6642 18.75 21.25V21C18.75 19.7574 17.7426 18.75 16.5 18.75H12.75V16.0671H18.2494C19.4921 16.0671 20.4994 15.0597 20.4994 13.8171V6.76342C20.4994 5.52078 19.4921 4.51342 18.2494 4.51342H12.3284C12.0924 4.51342 11.8701 4.40227 11.7284 4.21342L10.7434 2.9C10.3184 2.33344 9.65156 2 8.94336 2H5.75Z" fill="#000000"/></svg>