<svg width="80" height="80" viewBox="0 0 24 24" fill="none" xmlns="http://www.w3.org/2000/svg" transform="rotate(0 0 0)"><path d="M6.25 3.25C5.00736 3.25 4 4.25736 4 5.5V13.6743C3.87079 13.8515 3.76613 14.0495 3.69188 14.264L2.48034 17.764C1.97441 19.2256 3.05991 20.75 4.60656 20.75H11.3409C11.3141 20.5795 11.3 20.4034 11.3 20.2223V13.0272C11.3 12.9334 11.3038 12.841 11.3111 12.75H5.8181C5.71053 12.75 5.60429 12.7577 5.5 12.7725V5.5C5.5 5.08579 5.83579 4.75 6.25 4.75H17.7499C18.1641 4.75 18.4999 5.08579 18.4999 5.5V11.648L19.9999 12.607V5.5C19.9999 4.25736 18.9926 3.25 17.7499 3.25H6.25Z" fill="#000000"/><path d="M12.8 13.0267C12.8 11.6238 14.3504 10.7749 15.5324 11.5306L21.1592 15.1281C22.2515 15.8265 22.2515 17.422 21.1592 18.1204L15.5324 21.7179C14.3504 22.4737 12.8 21.6248 12.8 20.2218V13.0267Z" fill="#000000"/></svg>