<svg width="80" height="80" viewBox="0 0 24 24" fill="none" xmlns="http://www.w3.org/2000/svg" transform="rotate(0 0 0)"><path d="M4 5.5C4 4.25736 5.00736 3.25 6.25 3.25H17.7499C18.9926 3.25 19.9999 4.25736 19.9999 5.5V12.0888C19.6033 11.5712 19.0902 11.1476 18.4999 10.8569V5.5C18.4999 5.08579 18.1641 4.75 17.7499 4.75H6.25C5.83579 4.75 5.5 5.08579 5.5 5.5V12.7725C5.60429 12.7577 5.71053 12.75 5.8181 12.75H12.8331C12.6791 13.0533 12.5604 13.3775 12.4824 13.7173C11.2614 14.3358 10.4248 15.6016 10.4248 17.0642V19.0741C10.4248 19.6765 10.5668 20.2456 10.8192 20.75H4.60656C3.05991 20.75 1.97441 19.2256 2.48034 17.764L3.69188 14.264C3.76613 14.0495 3.87079 13.8515 4 13.6743V5.5Z" fill="#000000"/><path d="M16.6248 11.9219C15.106 11.9219 13.8748 13.1531 13.8748 14.6719V14.834C12.774 14.9807 11.9248 15.9233 11.9248 17.0642V19.0741C11.9248 20.3168 12.9322 21.3241 14.1748 21.3241H19.0748C20.3174 21.3241 21.3248 20.3168 21.3248 19.0741V17.0642C21.3248 15.9233 20.4756 14.9807 19.3748 14.834V14.6719C19.3748 13.1531 18.1435 11.9219 16.6248 11.9219ZM17.8748 14.6719V14.8142H15.3748V14.6719C15.3748 13.9815 15.9344 13.4219 16.6248 13.4219C17.3151 13.4219 17.8748 13.9815 17.8748 14.6719Z" fill="#000000"/></svg>