<svg width="80" height="80" viewBox="0 0 24 24" fill="none" xmlns="http://www.w3.org/2000/svg" transform="rotate(0 0 0)"><path d="M8.28317 2.16303C8.55646 1.94566 8.9436 1.94566 9.21689 2.16303C11.9526 4.33897 13.7701 7.62442 13.9878 11.3394C13.2444 11.9287 12.7027 12.7615 12.4834 13.7173C11.2623 14.3358 10.4258 15.6016 10.4258 17.0642V19.0741C10.4258 19.185 10.4306 19.2947 10.44 19.4031H6.20485C5.9528 19.4031 5.71761 19.2765 5.57881 19.0661C4.82007 17.9159 4.24334 16.6344 3.89014 15.2628C3.62895 14.2485 3.49023 13.1858 3.49023 12.0918C3.49046 8.06971 5.3641 4.48477 8.28317 2.16303ZM8.75031 8.19482C7.4773 8.19482 6.44531 9.22681 6.44531 10.4998C6.44531 11.7728 7.4773 12.8048 8.75031 12.8048C10.0233 12.8048 11.0553 11.7728 11.0553 10.4998C11.0553 9.22681 10.0233 8.19482 8.75031 8.19482Z" fill="#000000"/><path d="M3.01662 15.8614C2.37225 16.8957 2 18.1172 2 19.4255C2 20.1399 2.11124 20.8298 2.31788 21.4779C2.4054 21.7524 2.6424 21.9525 2.92767 21.9927C3.21293 22.033 3.49604 21.9062 3.65608 21.6667C4.0685 21.0494 4.58974 20.5115 5.19228 20.0804C5.01788 19.9567 4.86524 19.8004 4.74408 19.6167C3.99025 18.474 3.40264 17.2106 3.01662 15.8614Z" fill="#000000"/><path d="M16.6257 11.9219C15.1069 11.9219 13.8757 13.1531 13.8757 14.6719V14.834C12.7749 14.9807 11.9258 15.9233 11.9258 17.0642V19.0741C11.9258 20.3168 12.9331 21.3241 14.1758 21.3241H19.0758C20.3184 21.3241 21.3258 20.3168 21.3258 19.0741V17.0642C21.3258 15.9233 20.4766 14.9807 19.3757 14.834V14.6719C19.3757 13.1531 18.1445 11.9219 16.6257 11.9219ZM17.8757 14.6719V14.8142H15.3757V14.6719C15.3757 13.9815 15.9354 13.4219 16.6257 13.4219C17.3161 13.4219 17.8757 13.9815 17.8757 14.6719Z" fill="#000000"/></svg>