<svg width="80" height="80" viewBox="0 0 24 25" fill="none" xmlns="http://www.w3.org/2000/svg" transform="rotate(0 0 0)"><path d="M3.39854 11.7551C2.33012 11.1383 1.96404 9.77208 2.5809 8.70365L4.09689 6.07788C4.71388 5.00922 6.08042 4.64326 7.14894 5.26017C7.63842 5.54277 8.25011 5.18947 8.25011 4.62462C8.25011 3.39082 9.2503 2.39062 10.4841 2.39062H13.5165C14.7502 2.39062 15.7501 3.39086 15.7501 4.62439C15.7501 5.18919 16.3615 5.54201 16.8503 5.25979C17.9185 4.64304 19.2845 5.00905 19.9012 6.07729L21.4176 8.70373C22.0345 9.77214 21.6684 11.1383 20.6 11.7552C20.1108 12.0376 20.1108 12.7437 20.6 13.0261C21.6684 13.643 22.0344 15.0091 21.4176 16.0775L19.9012 18.704C19.2845 19.7722 17.9185 20.1382 16.8503 19.5215C16.3615 19.2393 15.7501 19.5921 15.7501 20.1569C15.7501 21.3904 14.7502 22.3906 13.5165 22.3906H10.4841C9.2503 22.3906 8.25011 21.3904 8.25011 20.1566C8.25011 19.5918 7.63844 19.2385 7.14896 19.5211C6.08044 20.138 4.71391 19.7721 4.09692 18.7034L2.58092 16.0776C1.96407 15.0092 2.33013 13.643 3.39856 13.0262C3.88776 12.7437 3.88777 12.0376 3.39854 11.7551ZM11.9982 8.19869C11.584 8.19869 11.2482 8.53448 11.2482 8.94869L11.2482 15.8324C11.2482 16.2466 11.584 16.5824 11.9982 16.5824C12.4124 16.5824 12.7482 16.2466 12.7482 15.8324L12.7482 8.94869C12.7482 8.53448 12.4124 8.19869 11.9982 8.19869ZM8.55633 10.493C8.14212 10.493 7.80633 10.8288 7.80633 11.243V13.5376C7.80633 13.9518 8.14212 14.2876 8.55633 14.2876C8.97054 14.2876 9.30633 13.9518 9.30633 13.5376V11.243C9.30633 10.8288 8.97054 10.493 8.55633 10.493ZM16.19 11.243C16.19 10.8288 15.8543 10.493 15.44 10.493C15.0258 10.493 14.69 10.8288 14.69 11.243V13.5376C14.69 13.9518 15.0258 14.2876 15.44 14.2876C15.8543 14.2876 16.19 13.9518 16.19 13.5376V11.243Z" fill="#000000"/></svg>