<svg width="80" height="80" viewBox="0 0 24 25" fill="none" xmlns="http://www.w3.org/2000/svg" transform="rotate(0 0 0)"><path d="M3.39854 11.7551C2.33012 11.1383 1.96404 9.77208 2.5809 8.70365L4.09689 6.07788C4.71388 5.00922 6.08042 4.64326 7.14894 5.26017C7.63842 5.54277 8.25011 5.18947 8.25011 4.62462C8.25011 3.39082 9.2503 2.39062 10.4841 2.39062H13.5165C14.7502 2.39062 15.7501 3.39086 15.7501 4.62439C15.7501 5.18919 16.3615 5.54201 16.8503 5.25979C17.9185 4.64304 19.2845 5.00905 19.9012 6.07729L21.4176 8.70373C22.0345 9.77214 21.6684 11.1383 20.6 11.7552C20.1108 12.0376 20.1108 12.7437 20.6 13.0261C21.6684 13.643 22.0344 15.0091 21.4176 16.0775L19.9012 18.704C19.2845 19.7722 17.9185 20.1382 16.8503 19.5215C16.3615 19.2393 15.7501 19.5921 15.7501 20.1569C15.7501 21.3904 14.7502 22.3906 13.5165 22.3906H10.4841C9.2503 22.3906 8.25011 21.3904 8.25011 20.1566C8.25011 19.5918 7.63844 19.2385 7.14896 19.5211C6.08044 20.138 4.71391 19.7721 4.09692 18.7034L2.58092 16.0776C1.96407 15.0092 2.33013 13.643 3.39856 13.0262C3.88776 12.7437 3.88777 12.0376 3.39854 11.7551ZM11.9975 9.96037C12.4946 9.96037 12.8983 9.55743 12.8983 9.06037C12.8983 8.56331 12.4953 8.16037 11.9983 8.16037C11.5012 8.16037 11.0975 8.56331 11.0975 9.06037C11.0975 9.55743 11.5005 9.96037 11.9975 9.96037ZM11.2483 15.8297C11.2483 16.244 11.584 16.5797 11.9983 16.5797C12.4125 16.5797 12.7483 16.244 12.7483 15.8297V11.6054C12.7483 11.1911 12.4125 10.8554 11.9983 10.8554C11.584 10.8554 11.2483 11.1911 11.2483 11.6054V15.8297Z" fill="#000000"/></svg>