<svg width="80" height="80" viewBox="0 0 24 24" fill="none" xmlns="http://www.w3.org/2000/svg" transform="rotate(0 0 0)"><path d="M4.02092 4.45423C4.46021 4.01525 5.17211 4.01526 5.61138 4.45425L7.67735 6.51891C7.99924 6.8406 8.09562 7.32454 7.92154 7.74501C7.74745 8.16548 7.33719 8.43966 6.8821 8.43966H5.94107L5.94107 15.5603H6.88211C7.33721 15.5603 7.74747 15.8345 7.92155 16.255C8.09564 16.6755 7.99924 17.1594 7.67733 17.4811L5.61123 19.5458C5.17194 19.9848 4.46004 19.9847 4.02077 19.5457L1.9548 17.4811C1.6329 17.1594 1.53652 16.6755 1.71061 16.255C1.8847 15.8345 2.29496 15.5603 2.75004 15.5603H3.69107L3.69107 8.43966H2.75003C2.29494 8.43966 1.88468 8.16547 1.71059 7.74499C1.53651 7.32451 1.63291 6.84057 1.95482 6.51888L4.02092 4.45423ZM15.2502 4.125C15.6947 4.125 16.0976 4.38683 16.2782 4.7931L22.2781 18.2931C22.5304 18.8609 22.2747 19.5257 21.7069 19.778C21.1392 20.0304 20.4743 19.7747 20.222 19.2069L18.5933 15.5423L11.9068 15.5421L10.2781 19.2066C10.0257 19.7744 9.36088 20.0301 8.79311 19.7777C8.22535 19.5254 7.96965 18.8606 8.222 18.2928L14.2221 4.79308C14.4027 4.38681 14.8056 4.125 15.2502 4.125ZM12.9068 13.2921L17.5933 13.2922L15.2501 8.01997L12.9068 13.2921Z" fill="#000000"/></svg>