<svg width="80" height="80" viewBox="0 0 24 25" fill="none" xmlns="http://www.w3.org/2000/svg" transform="rotate(0 0 0)"><path d="M3.25 6.45337C3.25 5.21073 4.25736 4.20337 5.5 4.20337H18.4985C19.7412 4.20337 20.7485 5.21073 20.7485 6.45337L20.7485 9.20337H3.25V6.45337Z" fill="#000000"/><path d="M11.1245 21.7034H5.5C4.25736 21.7034 3.25 20.696 3.25 19.4534V10.7034H16.625C12.828 10.7034 9.75 13.7814 9.75 17.5784C9.75 19.1261 10.2614 20.5543 11.1245 21.7034Z" fill="#000000"/><path d="M11.25 17.5784C11.25 14.6098 13.6565 12.2034 16.625 12.2034C19.5935 12.2034 22 14.6098 22 17.5784C22 20.5469 19.5935 22.9534 16.625 22.9534C13.6565 22.9534 11.25 20.5469 11.25 17.5784ZM17.375 15.9563C17.375 15.5421 17.0392 15.2063 16.625 15.2063C16.2108 15.2063 15.875 15.5421 15.875 15.9563V17.9408C15.875 18.355 16.2108 18.6908 16.625 18.6908H18.249C18.6632 18.6908 18.999 18.355 18.999 17.9408C18.999 17.5266 18.6632 17.1908 18.249 17.1908H17.375V15.9563Z" fill="#000000"/></svg>