<svg width="80" height="80" viewBox="0 0 24 25" fill="none" xmlns="http://www.w3.org/2000/svg" transform="rotate(0 0 0)"><path d="M19.75 5H18.25V4.25C18.25 3.83579 17.9142 3.5 17.5 3.5H14.5C14.0858 3.5 13.75 3.83579 13.75 4.25V5H10.25V4.25C10.25 3.83579 9.91421 3.5 9.5 3.5H6.5C6.08579 3.5 5.75 3.83579 5.75 4.25V5H4.25C3.00736 5 2 6.00736 2 7.25V17.75C2 18.9926 3.00736 20 4.25 20H10.3782C9.97492 19.1253 9.75 18.1514 9.75 17.125C9.75 13.328 12.828 10.25 16.625 10.25C18.8006 10.25 20.7403 11.2606 22 12.838V7.25C22 6.00736 20.9926 5 19.75 5Z" fill="#000000"/><path d="M11.25 17.125C11.25 14.1565 13.6565 11.75 16.625 11.75C19.5935 11.75 22 14.1565 22 17.125C22 20.0935 19.5935 22.5 16.625 22.5C13.6565 22.5 11.25 20.0935 11.25 17.125ZM15.824 14.9992C15.824 15.441 16.1822 15.7992 16.624 15.7992H16.634C17.0759 15.7992 17.434 15.441 17.434 14.9992C17.434 14.5574 17.0759 14.1992 16.634 14.1992H16.624C16.1822 14.1992 15.824 14.5574 15.824 14.9992ZM16.625 16.7504C16.2108 16.7504 15.875 17.0862 15.875 17.5004V19.2487C15.875 19.6629 16.2108 19.9987 16.625 19.9987C17.0392 19.9987 17.375 19.6629 17.375 19.2487V17.5004C17.375 17.0862 17.0392 16.7504 16.625 16.7504Z" fill="#000000"/></svg>