<svg width="80" height="80" viewBox="0 0 24 24" fill="none" xmlns="http://www.w3.org/2000/svg" transform="rotate(0 0 0)"><path d="M11.9999 4.5C10.2039 4.5 8.74792 5.95595 8.74792 7.75195C8.74792 9.54796 10.2039 11.0039 11.9999 11.0039C13.7959 11.0039 15.2518 9.54796 15.2518 7.75195C15.2518 5.95595 13.7959 4.5 11.9999 4.5Z" fill="#000000"/><path d="M11.142 12.3594C8.3917 12.3594 6.16211 14.589 6.16211 17.3393C6.16211 18.5322 7.12916 19.4993 8.32209 19.4993H15.6777C16.8706 19.4993 17.8377 18.5322 17.8377 17.3393C17.8377 14.589 15.6081 12.3594 12.8577 12.3594H11.142Z" fill="#000000"/><path d="M7.24792 7.75195C7.24792 7.44767 7.27652 7.15007 7.33118 6.86169C7.09736 6.7891 6.8488 6.75 6.5911 6.75C5.21432 6.75 4.09822 7.8661 4.09822 9.24289C4.09822 10.6197 5.21432 11.7358 6.5911 11.7358C7.32812 11.7358 7.99044 11.4159 8.44683 10.9075C8.07023 10.4838 7.76829 9.9922 7.56162 9.45345C7.45276 9.16967 7.37033 8.8728 7.31735 8.56584C7.27171 8.30139 7.24792 8.02945 7.24792 7.75195Z" fill="#000000"/><path d="M2 16.2327C2 14.1313 3.70354 12.4277 5.80497 12.4277H6.91506C6.413 12.8602 5.97798 13.3683 5.62769 13.9345C5.15472 14.6988 4.83624 15.5689 4.71583 16.501C4.68039 16.7754 4.66211 17.0552 4.66211 17.3393C4.66211 17.5652 4.68258 17.7864 4.72177 18.001H3.76832C2.7917 18.001 2 17.2093 2 16.2327Z" fill="#000000"/><path d="M20.2314 18.001H19.278C19.3172 17.7864 19.3377 17.5652 19.3377 17.3393C19.3377 17.0552 19.3194 16.7754 19.2839 16.501C19.1635 15.5689 18.8451 14.6988 18.3721 13.9345C18.0218 13.3683 17.5868 12.8602 17.0847 12.4277H18.1948C20.2962 12.4277 21.9998 14.1313 21.9998 16.2327C21.9998 17.2093 21.2081 18.001 20.2314 18.001Z" fill="#000000"/><path d="M15.557 10.9029C16.0127 11.4098 16.6735 11.7285 17.4087 11.7285C18.7835 11.7285 19.898 10.614 19.898 9.23926C19.898 7.86448 18.7835 6.75 17.4087 6.75C17.151 6.75 16.9024 6.78916 16.6686 6.86187C16.7232 7.15019 16.7518 7.44773 16.7518 7.75195C16.7518 8.0302 16.7279 8.30287 16.682 8.568C16.6295 8.87145 16.5482 9.16504 16.441 9.44585C16.235 9.98564 15.9335 10.4782 15.557 10.9029Z" fill="#000000"/></svg>