<svg width="80" height="80" viewBox="0 0 24 24" fill="none" xmlns="http://www.w3.org/2000/svg" transform="rotate(0 0 0)"><path d="M4 5.5C4 4.25736 5.00736 3.25 6.25 3.25H17.7499C18.9926 3.25 19.9999 4.25736 19.9999 5.5V13.6743C20.1291 13.8515 20.2338 14.0495 20.3081 14.264L20.394 14.5123H20.0559C19.5076 14.5123 18.9838 14.6754 18.5427 14.9661L18.1045 13.181C18.0673 13.0294 18.0199 12.8857 17.9633 12.75H18.1818C18.2894 12.75 18.3956 12.7577 18.4999 12.7725V5.5C18.4999 5.08579 18.1641 4.75 17.7499 4.75H6.25C5.83579 4.75 5.5 5.08579 5.5 5.5V12.7725C5.60429 12.7577 5.71053 12.75 5.8181 12.75H12.9057L12.0739 14.5123H12C10.7574 14.5123 9.75 15.5197 9.75 16.7623C9.75 18.005 10.7574 19.0123 12 19.0123H13.1831C13.7661 19.0123 14.3204 18.828 14.7772 18.5031L15.1617 20.0696C15.2225 20.3175 15.311 20.5445 15.422 20.75H4.60656C3.05991 20.75 1.97441 19.2256 2.48034 17.764L3.69188 14.264C3.76613 14.0495 3.87079 13.8515 4 13.6743V5.5Z" fill="#000000"/><path d="M15.359 14.5802L14.3135 16.7954C14.1071 17.2328 13.6668 17.5119 13.1831 17.5119H12C11.5858 17.5119 11.25 17.1761 11.25 16.7619C11.25 16.3476 11.5858 16.0119 12 16.0119H13.0246L14.3034 13.3025C14.8058 12.2379 16.3671 12.3947 16.6478 13.5381L17.9153 18.7024L18.943 16.6927C19.1567 16.2748 19.5865 16.0119 20.0559 16.0119H21.25C21.6642 16.0119 22 16.3476 22 16.7619C22 17.1761 21.6642 17.5119 21.25 17.5119H20.2088L18.9453 19.9827C18.4183 21.0134 16.8944 20.8358 16.6184 19.7116L15.359 14.5802Z" fill="#000000"/></svg>