<svg width="80" height="80" viewBox="0 0 25 24" fill="none" xmlns="http://www.w3.org/2000/svg" transform="rotate(0 0 0)"><path d="M11.8484 12.5805L11.8501 12.5818C12.1254 12.804 12.519 12.8038 12.7939 12.5809L12.3214 11.9984C12.7939 12.5809 12.7947 12.5802 12.7947 12.5802L12.7958 12.5793L12.799 12.5766L12.8089 12.5685L12.8422 12.5407C12.8701 12.517 12.9095 12.4833 12.9586 12.4399C13.0567 12.3533 13.1941 12.2278 13.3577 12.0676C13.684 11.7478 14.119 11.2851 14.5551 10.7105C15.4146 9.57842 16.3442 7.92636 16.3442 6.03146C16.3442 3.80494 14.5392 2 12.3127 2C10.0862 2 8.28125 3.80494 8.28125 6.03146C8.28125 7.9276 9.21625 9.5802 10.0801 10.7121C10.5186 11.2866 10.9558 11.7493 11.2838 12.0689C11.4483 12.2292 11.5863 12.3546 11.6849 12.4412C11.7343 12.4846 11.7738 12.5183 11.8019 12.5419L11.8353 12.5698L11.8452 12.5779L11.8484 12.5805ZM11.8501 12.5818C11.8501 12.5818 11.8504 12.5821 12.3214 11.9984L11.8501 12.5818ZM11.0625 6.03125C11.0625 5.34089 11.6221 4.78125 12.3125 4.78125H12.3225C13.0129 4.78125 13.5725 5.34089 13.5725 6.03125C13.5725 6.72161 13.0129 7.28125 12.3225 7.28125H12.3125C11.6221 7.28125 11.0625 6.72161 11.0625 6.03125Z" fill="#000000"/><path d="M6.94795 4.67894C6.83907 5.11196 6.78125 5.56526 6.78125 6.03206C6.78125 8.04162 7.61088 9.76378 8.43945 10.9975V20.0885L4.02728 19.008C3.02055 18.7614 2.3125 17.8591 2.3125 16.8226V6.41123C2.3125 4.9519 3.68027 3.87868 5.09771 4.22581L6.94795 4.67894Z" fill="#000000"/><path d="M16.193 10.9971C17.0181 9.76301 17.8442 8.04081 17.8442 6.03206C17.8442 5.40655 17.7403 4.80529 17.549 4.24458L20.5972 4.9911C21.604 5.23766 22.312 6.14004 22.312 7.17652V17.5879C22.312 19.0472 20.9443 20.1204 19.5268 19.7733L16.193 18.9568V10.9971Z" fill="#000000"/><path d="M10.9074 13.7492L10.9085 13.7501C11.7347 14.4167 12.9144 14.4151 13.7388 13.7464L13.7399 13.7455L13.7436 13.7425L13.7496 13.7376L13.7652 13.7248C13.7771 13.7149 13.7922 13.7023 13.8102 13.6871C13.8462 13.6567 13.8939 13.6157 13.9517 13.5647C14.067 13.4628 14.2235 13.3198 14.4074 13.1396C14.4961 13.0528 14.5918 12.9566 14.693 12.8514V18.9495L9.93945 20.0903V12.8449C10.045 12.9542 10.1448 13.054 10.2369 13.1437C10.4217 13.3239 10.5789 13.4668 10.6948 13.5686C10.7528 13.6196 10.8007 13.6605 10.8369 13.6909C10.8549 13.7061 10.8701 13.7186 10.8821 13.7285L10.8977 13.7413L10.9037 13.7462L10.9074 13.7492Z" fill="#000000"/></svg>