<svg width="80" height="80" viewBox="0 0 24 24" fill="none" xmlns="http://www.w3.org/2000/svg" transform="rotate(0 0 0)"><path d="M8 2C8.41421 2 8.75 2.33579 8.75 2.75V3.75H15.25V2.75C15.25 2.33579 15.5858 2 16 2C16.4142 2 16.75 2.33579 16.75 2.75V3.75H18.5C19.7426 3.75 20.75 4.75736 20.75 6V8.25H3.25V6C3.25 4.75736 4.25736 3.75 5.5 3.75H7.25V2.75C7.25 2.33579 7.58579 2 8 2Z" fill="#000000"/><path d="M3.25 9.75V19C3.25 20.2426 4.25736 21.25 5.5 21.25H18.5C19.7426 21.25 20.75 20.2426 20.75 19V9.75H3.25Z" fill="#000000"/></svg>