<svg width="80" height="80" viewBox="0 0 24 25" fill="none" xmlns="http://www.w3.org/2000/svg" transform="rotate(0 0 0)"><path d="M10.9942 3.16428C11.6277 2.84758 12.3732 2.84758 13.0066 3.16429L19.9641 6.64292C20.1194 6.72054 20.263 6.8147 20.3933 6.92264L12.3358 10.9513C12.2309 11.0037 12.1168 11.0301 12.0026 11.0304C11.887 11.0308 11.7713 11.0044 11.665 10.9513L3.60758 6.92265C3.73788 6.81471 3.88151 6.72054 4.03676 6.64292L10.9942 3.16428Z" fill="#000000"/><path d="M2.83659 8.2142C2.80788 8.35783 2.79297 8.50549 2.79297 8.65539V16.8443C2.79297 17.6966 3.27448 18.4757 4.03676 18.8568L10.9942 22.3355C11.0777 22.3772 11.1631 22.4134 11.25 22.4442L11.25 12.4016C11.1631 12.3709 11.0777 12.3346 10.9942 12.2929L3.44415 8.51797L2.83659 8.2142Z" fill="#000000"/><path d="M12.75 22.4445C12.8372 22.4137 12.9229 22.3773 13.0066 22.3355L19.9641 18.8568C20.7264 18.4757 21.2079 17.6966 21.2079 16.8443V8.65539C21.2079 8.50549 21.193 8.35782 21.1643 8.21419L13.0066 12.2929C12.9229 12.3348 12.8372 12.3711 12.75 12.4019L12.75 22.4445Z" fill="#000000"/></svg>