<svg width="80" height="80" viewBox="0 0 24 24" fill="none" xmlns="http://www.w3.org/2000/svg" transform="rotate(0 0 0)"><path d="M4 5.5C4 4.25736 5.00736 3.25 6.25 3.25H17.7499C18.9926 3.25 19.9999 4.25736 19.9999 5.5V12.7375H19.5953L19.2401 11.6443C19.0821 11.158 18.8224 10.765 18.4999 10.4654V5.5C18.4999 5.08579 18.1641 4.75 17.7499 4.75H6.25C5.83579 4.75 5.5 5.08579 5.5 5.5V12.7725C5.60429 12.7577 5.71053 12.75 5.8181 12.75H12.2282C9.76657 12.9761 8.80934 16.2017 10.8884 17.7123L11.8182 18.3878L11.4631 19.4809C11.3195 19.9227 11.2892 20.3514 11.3483 20.75H4.60656C3.05991 20.75 1.97441 19.2256 2.48034 17.764L3.69188 14.264C3.76613 14.0495 3.87079 13.8515 4 13.6743V5.5Z" fill="#000000"/><path d="M17.8136 12.1079C17.4394 10.9562 15.8102 10.9562 15.436 12.1079L14.744 14.2375H12.5048C11.2939 14.2375 10.7905 15.787 11.7701 16.4987L13.5816 17.8149L12.8897 19.9445C12.5155 21.0961 13.8336 22.0538 14.8132 21.342L16.6248 20.0259L18.4363 21.342C19.416 22.0538 20.7341 21.0961 20.3599 19.9445L19.6679 17.8149L21.4795 16.4987C22.4591 15.787 21.9556 14.2375 20.7447 14.2375H18.5055L17.8136 12.1079Z" fill="#000000"/></svg>