<svg width="80" height="80" viewBox="0 0 24 24" fill="none" xmlns="http://www.w3.org/2000/svg" transform="rotate(0 0 0)"><path d="M8.28317 2.16303C8.55646 1.94566 8.9436 1.94566 9.21689 2.16303C12.0325 4.40252 13.8755 7.81727 14.0028 11.666L13.6546 12.7375H12.5053C9.84128 12.7375 8.73365 16.1464 10.8889 17.7123L11.8187 18.3878L11.4979 19.3752C11.4327 19.3935 11.3646 19.4031 11.2952 19.4031H6.20485C5.9528 19.4031 5.71761 19.2765 5.57881 19.0661C4.82007 17.9159 4.24334 16.6344 3.89014 15.2628C3.62895 14.2485 3.49023 13.1858 3.49023 12.0918C3.49046 8.06971 5.3641 4.48477 8.28317 2.16303ZM8.75031 8.19482C7.4773 8.19482 6.44531 9.22681 6.44531 10.4998C6.44531 11.7728 7.4773 12.8048 8.75031 12.8048C10.0233 12.8048 11.0553 11.7728 11.0553 10.4998C11.0553 9.22681 10.0233 8.19482 8.75031 8.19482Z" fill="#000000"/><path d="M3.01662 15.8614C2.37225 16.8957 2 18.1172 2 19.4255C2 20.1399 2.11124 20.8298 2.31788 21.4779C2.4054 21.7524 2.6424 21.9525 2.92767 21.9927C3.21293 22.033 3.49604 21.9062 3.65608 21.6667C4.0685 21.0494 4.58974 20.5115 5.19228 20.0804C5.01788 19.9567 4.86524 19.8004 4.74408 19.6167C3.99025 18.474 3.40264 17.2106 3.01662 15.8614Z" fill="#000000"/><path d="M17.8151 12.1079C17.4409 10.9562 15.8116 10.9562 15.4374 12.1079L14.7455 14.2375H12.5063C11.2954 14.2375 10.7919 15.787 11.7716 16.4987L13.5831 17.8149L12.8912 19.9445C12.517 21.0961 13.8351 22.0538 14.8147 21.342L16.6262 20.0259L18.4378 21.342C19.4174 22.0538 20.7355 21.0961 20.3613 19.9445L19.6694 17.8149L21.4809 16.4987C22.4606 15.787 21.9571 14.2375 20.7462 14.2375H18.507L17.8151 12.1079Z" fill="#000000"/></svg>