<svg width="80" height="80" viewBox="0 0 24 24" fill="none" xmlns="http://www.w3.org/2000/svg" transform="rotate(0 0 0)"><path d="M9.42705 2C8.57481 2 7.79572 2.48151 7.41459 3.24377L7.03647 4H16.9635L16.5854 3.24377C16.2043 2.48151 15.4252 2 14.5729 2H9.42705Z" fill="#000000"/><path d="M17.4688 18.9895C18.6087 18.8795 19.5 17.9188 19.5 16.75V7.25C19.5 6.08117 18.6088 5.1205 17.4688 5.0105C17.3968 5.00355 17.3238 5 17.25 5H6.75C6.67619 5 6.60321 5.00355 6.53122 5.0105C5.39125 5.1205 4.5 6.08117 4.5 7.25V16.75C4.5 17.9188 5.39125 18.8795 6.53124 18.9895C6.60322 18.9964 6.6762 19 6.75 19H17.25C17.3238 19 17.3968 18.9964 17.4688 18.9895ZM10.4533 12.2091C10.268 12.6018 9.87275 12.8523 9.43855 12.8523H8.55811C8.14389 12.8523 7.80811 12.5165 7.80811 12.1023C7.80811 11.688 8.14389 11.3523 8.55811 11.3523H9.19902L10.0987 9.44597C10.5498 8.49026 11.9513 8.63109 12.2032 9.65744L13.0238 13.0006L13.5541 11.9635C13.746 11.5883 14.1318 11.3523 14.5532 11.3523H15.4418C15.856 11.3523 16.1918 11.688 16.1918 12.1023C16.1918 12.5165 15.856 12.8523 15.4418 12.8523H14.7844L13.8976 14.5865C13.4245 15.5117 12.0564 15.3523 11.8088 14.3431L11.0004 11.0498L10.4533 12.2091Z" fill="#000000"/><path d="M16.9635 20H7.03652L7.41459 20.7561C7.79573 21.5183 8.57481 21.9998 9.42703 21.9998H14.573C15.4252 21.9998 16.2043 21.5183 16.5854 20.7561L16.9635 20Z" fill="#000000"/></svg>