<svg width="80" height="80" viewBox="0 0 24 25" fill="none" xmlns="http://www.w3.org/2000/svg" transform="rotate(0 0 0)"><path d="M12 2.75C7.44365 2.75 3.75 6.44365 3.75 11C3.75 13.3827 4.76092 15.53 6.375 17.0351V22C6.375 22.2857 6.53735 22.5466 6.79369 22.6729C7.05002 22.7991 7.35581 22.7687 7.58228 22.5945L11.5427 19.548C11.8123 19.3406 12.1877 19.3406 12.4573 19.548L16.4177 22.5945C16.6442 22.7687 16.95 22.7991 17.2063 22.6729C17.4627 22.5466 17.625 22.2857 17.625 22V17.0351C19.2391 15.53 20.25 13.3827 20.25 11C20.25 6.44365 16.5563 2.75 12 2.75ZM12 6.625C14.4162 6.625 16.375 8.58375 16.375 11C16.375 13.4162 14.4162 15.375 12 15.375C9.58375 15.375 7.625 13.4162 7.625 11C7.625 8.58375 9.58375 6.625 12 6.625Z" fill="#000000"/></svg>