<svg width="80" height="80" viewBox="0 0 24 24" fill="none" xmlns="http://www.w3.org/2000/svg" transform="rotate(0 0 0)"><path d="M12.6728 2.04308C12.5464 1.78707 12.2857 1.625 12.0002 1.625C11.7147 1.625 11.454 1.78707 11.3277 2.04308L8.67344 7.4211L2.73843 8.28351C2.45592 8.32456 2.22121 8.52244 2.13299 8.79395C2.04477 9.06546 2.11835 9.36351 2.32277 9.56278L6.61738 13.749L5.60356 19.66C5.5553 19.9414 5.67097 20.2257 5.90193 20.3936C6.13289 20.5614 6.43909 20.5835 6.69178 20.4506L12.0002 17.6598L17.3086 20.4506C17.5613 20.5835 17.8675 20.5614 18.0985 20.3936C18.3294 20.2257 18.4451 19.9414 18.3968 19.66L17.383 13.749L21.6776 9.56278C21.8821 9.36351 21.9556 9.06546 21.8674 8.79395C21.7792 8.52244 21.5445 8.32456 21.262 8.28351L15.327 7.4211L12.6728 2.04308Z" fill="#000000"/><path d="M6.73001 3.46932C6.48654 3.13421 6.01752 3.05992 5.68241 3.30339C5.3473 3.54686 5.27302 4.01589 5.51649 4.351L6.39816 5.56452C6.64163 5.89963 7.11066 5.97391 7.44577 5.73044C7.78087 5.48698 7.85516 5.01795 7.61169 4.68284L6.73001 3.46932Z" fill="#000000"/><path d="M11.2502 22.0003C11.2502 22.4145 11.586 22.7503 12.0002 22.7503C12.4144 22.7503 12.7502 22.4145 12.7502 22.0003V20.5003C12.7502 20.0861 12.4144 19.7503 12.0002 19.7503C11.586 19.7503 11.2502 20.0861 11.2502 20.5003V22.0003Z" fill="#000000"/><path d="M18.4839 4.351C18.7274 4.01589 18.6531 3.54686 18.318 3.30339C17.9829 3.05992 17.5139 3.13421 17.2704 3.46932L16.3887 4.68284C16.1452 5.01795 16.2195 5.48698 16.5546 5.73044C16.8897 5.97391 17.3588 5.89963 17.6022 5.56452L18.4839 4.351Z" fill="#000000"/><path d="M21.2802 15.8038C21.6741 15.9318 22.0972 15.7162 22.2252 15.3223C22.3532 14.9283 22.1376 14.5052 21.7437 14.3772L20.3171 13.9137C19.9232 13.7857 19.5 14.0013 19.372 14.3952C19.244 14.7891 19.4596 15.2123 19.8536 15.3403L21.2802 15.8038Z" fill="#000000"/><path d="M2.25867 14.3772C1.86473 14.5052 1.64915 14.9283 1.77714 15.3223C1.90514 15.7162 2.32826 15.9318 2.7222 15.8038L4.14878 15.3403C4.54273 15.2123 4.75831 14.7892 4.63031 14.3952C4.50232 14.0013 4.0792 13.7857 3.68526 13.9137L2.25867 14.3772Z" fill="#000000"/></svg>