<svg width="80" height="80" viewBox="0 0 24 24" fill="none" xmlns="http://www.w3.org/2000/svg" transform="rotate(0 0 0)"><path d="M10.5516 2.59976C11.3513 1.80008 12.6478 1.80008 13.4475 2.59976L21.4002 10.5525C22.1999 11.3522 22.1999 12.6487 21.4002 13.4484L13.4484 21.4002C12.6487 22.1999 11.3522 22.1999 10.5525 21.4002L2.59976 13.4475C1.80008 12.6478 1.80008 11.3513 2.59976 10.5516L10.5516 2.59976ZM13.7228 12C13.7228 11.0485 12.9515 10.2772 12 10.2772C11.0485 10.2772 10.2772 11.0485 10.2772 12C10.2772 12.9515 11.0485 13.7228 12 13.7228C12.9515 13.7228 13.7228 12.9515 13.7228 12ZM12.75 15.4346C12.75 15.0204 12.4142 14.6846 12 14.6846C11.5858 14.6846 11.25 15.0204 11.25 15.4346V15.442C11.25 15.8563 11.5858 16.192 12 16.192C12.4142 16.192 12.75 15.8563 12.75 15.442V15.4346ZM10.1019 14.9588C10.3948 14.6659 10.3948 14.1911 10.1019 13.8982C9.80902 13.6053 9.33414 13.6053 9.04124 13.8982L9.03598 13.9035C8.74308 14.1963 8.74308 14.6712 9.03598 14.9641C9.32888 15.257 9.80376 15.257 10.0967 14.9641L10.1019 14.9588ZM8.56559 12.75C8.9798 12.75 9.31559 12.4142 9.31559 12C9.31559 11.5858 8.9798 11.25 8.56559 11.25H8.55814C8.14393 11.25 7.80814 11.5858 7.80814 12C7.80814 12.4142 8.14393 12.75 8.55814 12.75H8.56559ZM9.04125 10.1018C9.33414 10.3947 9.80902 10.3947 10.1019 10.1018C10.3948 9.80893 10.3948 9.33406 10.1019 9.04117L10.0966 9.0359C9.80375 8.74301 9.32888 8.74301 9.03599 9.0359C8.74309 9.3288 8.74309 9.80367 9.03599 10.0966L9.04125 10.1018ZM12 7.80814C11.5858 7.80814 11.25 8.14393 11.25 8.55814V8.56559C11.25 8.9798 11.5858 9.31559 12 9.31559C12.4142 9.31559 12.75 8.9798 12.75 8.56559V8.55814C12.75 8.14393 12.4142 7.80814 12 7.80814ZM14.964 10.0965C15.2569 9.80366 15.2569 9.3288 14.964 9.03591C14.6711 8.74302 14.1962 8.74302 13.9033 9.03591L13.8981 9.04117C13.6052 9.33406 13.6052 9.80892 13.8981 10.1018C14.191 10.3947 14.6659 10.3947 14.9588 10.1018L14.964 10.0965ZM15.4419 12.75C15.8561 12.75 16.1919 12.4142 16.1919 12C16.1919 11.5858 15.8561 11.25 15.4419 11.25H15.4344C15.0202 11.25 14.6844 11.5858 14.6844 12C14.6844 12.4142 15.0202 12.75 15.4344 12.75H15.4419ZM13.9033 14.9641C14.1962 15.257 14.6711 15.257 14.964 14.9641C15.2569 14.6712 15.2569 14.1964 14.964 13.9035L14.9588 13.8982C14.6659 13.6053 14.191 13.6053 13.8981 13.8982C13.6052 14.1911 13.6052 14.6659 13.8981 14.9588L13.9033 14.9641Z" fill="#000000"/></svg>