<svg width="80" height="80" viewBox="0 0 24 24" fill="none" xmlns="http://www.w3.org/2000/svg" transform="rotate(0 0 0)"><path d="M9.25 2.75C9.25 2.33579 9.58579 2 10 2H14C14.4142 2 14.75 2.33579 14.75 2.75C14.75 3.16421 14.4142 3.5 14 3.5H10C9.58579 3.5 9.25 3.16421 9.25 2.75Z" fill="#000000"/><path d="M17.09 9.60761C17.0653 9.60761 17.0453 9.62765 17.0453 9.65237V14.3494C17.0453 14.3741 17.0653 14.3941 17.09 14.3941H17.8848C17.9095 14.3941 17.9295 14.3741 17.9295 14.3494V9.65237C17.9295 9.62765 17.9095 9.60761 17.8848 9.60761H17.09Z" fill="#000000"/><path d="M4.25 4.5C3.00736 4.5 2 5.50736 2 6.75V17.25C2 18.4926 3.00736 19.5 4.25 19.5H19.7502C20.9929 19.5 22.0002 18.4926 22.0002 17.25V6.75C22.0002 5.50736 20.9929 4.5 19.7502 4.5H4.25ZM4.57031 8.85742C4.57031 8.44321 4.9061 8.10742 5.32031 8.10742H7.70458C8.11879 8.10742 8.45458 8.44321 8.45458 8.85742V10.5679C8.45458 11.2172 8.13004 11.8236 7.58974 12.1838L6.26719 13.0655C6.14419 13.1475 6.07031 13.2856 6.07031 13.4334V14.3939H7.70458C8.11879 14.3939 8.45458 14.7296 8.45458 15.1439C8.45458 15.5581 8.11879 15.8939 7.70458 15.8939H5.32031C4.9061 15.8939 4.57031 15.5581 4.57031 15.1439V13.4334C4.57031 12.784 4.89484 12.1777 5.43514 11.8175L6.75769 10.9358C6.88069 10.8538 6.95458 10.7157 6.95458 10.5679V9.60742H5.32031C4.9061 9.60742 4.57031 9.27164 4.57031 8.85742ZM9.45459 10.162C9.45459 9.74781 9.79038 9.41203 10.2046 9.41203H10.2188C10.633 9.41203 10.9688 9.74781 10.9688 10.162C10.9688 10.5762 10.633 10.912 10.2188 10.912H10.2046C9.79038 10.912 9.45459 10.5762 9.45459 10.162ZM9.4546 13.7219C9.4546 13.3077 9.79039 12.9719 10.2046 12.9719H10.2188C10.6331 12.9719 10.9688 13.3077 10.9688 13.7219C10.9688 14.1361 10.6331 14.4719 10.2188 14.4719H10.2046C9.79039 14.4719 9.4546 14.1361 9.4546 13.7219ZM14.198 8.16455C14.4783 8.28064 14.661 8.55411 14.661 8.85746V15.144C14.661 15.5582 14.3252 15.894 13.911 15.894C13.4968 15.894 13.161 15.5582 13.161 15.144V10.6555C12.8676 10.8702 12.4536 10.845 12.1885 10.5799C11.8956 10.287 11.8956 9.81215 12.1885 9.51926L13.3807 8.32713C13.5952 8.11263 13.9178 8.04846 14.198 8.16455ZM15.5453 9.65237C15.5453 8.79922 16.2369 8.10761 17.09 8.10761H17.8848C18.7379 8.10761 19.4295 8.79922 19.4295 9.65237V14.3494C19.4295 15.2025 18.7379 15.8941 17.8848 15.8941H17.09C16.2369 15.8941 15.5453 15.2025 15.5453 14.3494V9.65237Z" fill="#000000"/></svg>