<svg width="80" height="80" viewBox="0 0 24 25" fill="none" xmlns="http://www.w3.org/2000/svg" transform="rotate(0 0 0)"><path d="M3.25 6.45331C3.25 5.21067 4.25736 4.20331 5.5 4.20331H18.4985C19.7412 4.20331 20.7485 5.21067 20.7485 6.45331L20.7485 9.20331H3.25V6.45331Z" fill="#000000"/><path d="M3.25 10.7033H20.7485L20.7485 13.3367C19.5847 12.5112 18.1622 12.0256 16.625 12.0256C13.4896 12.0256 10.8319 14.0458 9.87147 16.849C9.70951 17.3217 9.70951 17.8349 9.87147 18.3076C10.3392 19.6729 11.2096 20.8524 12.3418 21.7033H5.5C4.25736 21.7033 3.25 20.6959 3.25 19.4533V10.7033Z" fill="#000000"/><path d="M16.625 13.5256C14.1501 13.5256 12.0495 15.1198 11.2905 17.3352C11.2365 17.4928 11.2365 17.6638 11.2905 17.8214C12.0495 20.0367 14.1501 21.631 16.625 21.631C19.0999 21.631 21.2004 20.0367 21.9595 17.8214C22.0135 17.6638 22.0135 17.4928 21.9595 17.3352C21.2004 15.1198 19.0999 13.5256 16.625 13.5256ZM15.125 17.5783C15.125 16.7499 15.7951 16.0783 16.6218 16.0783H16.6282C17.4548 16.0783 18.125 16.7499 18.125 17.5783C18.125 18.4067 17.4548 19.0783 16.6282 19.0783H16.6218C15.7951 19.0783 15.125 18.4067 15.125 17.5783Z" fill="#000000"/></svg>