<svg width="80" height="80" viewBox="0 0 24 24" fill="none" xmlns="http://www.w3.org/2000/svg" transform="rotate(0 0 0)"><path d="M3.25 4C3.25 3.58579 3.58579 3.25 4 3.25H20C20.4142 3.25 20.75 3.58579 20.75 4C20.75 4.41421 20.4142 4.75 20 4.75H18.75V6.00002C18.75 7.41549 18.3143 8.72921 17.5697 9.81438C17.2609 9.77193 16.9455 9.75 16.625 9.75C12.828 9.75 9.75 12.828 9.75 16.625C9.75 18.1727 10.2614 19.601 11.1245 20.75H4C3.58579 20.75 3.25 20.4142 3.25 20C3.25 19.5858 3.58579 19.25 4 19.25H5.25L5.25 18C5.25 15.3878 6.73382 13.1222 8.90458 12C6.73382 10.8778 5.25 8.61221 5.25 6.00002V4.75H4C3.58579 4.75 3.25 4.41421 3.25 4Z" fill="#000000"/><path d="M11.25 16.625C11.25 13.6565 13.6565 11.25 16.625 11.25C19.5935 11.25 22 13.6565 22 16.625C22 19.5935 19.5935 22 16.625 22C13.6565 22 11.25 19.5935 11.25 16.625ZM17.375 15.0029C17.375 14.5887 17.0392 14.2529 16.625 14.2529C16.2108 14.2529 15.875 14.5887 15.875 15.0029V16.9874C15.875 17.4017 16.2108 17.7374 16.625 17.7374H18.249C18.6632 17.7374 18.999 17.4017 18.999 16.9874C18.999 16.5732 18.6632 16.2374 18.249 16.2374H17.375V15.0029Z" fill="#000000"/></svg>