<svg width="80" height="80" viewBox="0 0 24 24" fill="none" xmlns="http://www.w3.org/2000/svg" transform="rotate(0 0 0)"><path d="M13.1781 4.52744C10.914 4.44062 8.64272 4.60412 6.40587 5.01794L4.84023 5.30758C3.87207 5.48669 3.13282 6.27447 3.01555 7.25204L1.84836 16.9816C1.68769 18.3209 2.73345 19.4996 4.08234 19.4996H6.17936C6.95995 19.4996 7.68477 19.0951 8.0945 18.4306L9.52804 16.106C9.66461 15.8845 9.90622 15.7496 10.1664 15.7496H13.833C14.0932 15.7496 14.3348 15.8845 14.4714 16.106L15.9049 18.4306C16.3147 19.0951 17.0395 19.4996 17.8201 19.4996H19.9171C21.266 19.4996 22.3117 18.3209 22.1511 16.9816L21.3107 9.97609L17.1957 14.091C16.5811 14.7056 15.6676 14.9113 14.8489 14.6193C14.0303 14.3273 13.453 13.59 13.366 12.7252L13.1394 10.4714H12.6661C11.756 10.4714 10.9356 9.92322 10.5874 9.08245C10.2391 8.24169 10.4316 7.27392 11.0751 6.63043L13.1781 4.52744ZM7.3067 7.73896C7.72091 7.73896 8.0567 8.07475 8.0567 8.48896V9.49287H9.06204C9.47625 9.49287 9.81204 9.82865 9.81204 10.2429C9.81204 10.6571 9.47625 10.9929 9.06204 10.9929H8.0567V11.9998C8.0567 12.414 7.72091 12.7498 7.3067 12.7498C6.89248 12.7498 6.5567 12.414 6.5567 11.9998V10.9929H5.55125C5.13703 10.9929 4.80125 10.6571 4.80125 10.2429C4.80125 9.82865 5.13703 9.49287 5.55125 9.49287H6.5567V8.48896C6.5567 8.07475 6.89248 7.73896 7.3067 7.73896Z" fill="#000000"/><path d="M18.3838 3.17497C18.3548 2.88671 18.1623 2.64092 17.8895 2.5436C17.6166 2.44628 17.3121 2.51483 17.1072 2.71969L12.1358 7.69107C11.9213 7.90557 11.8572 8.22816 11.9732 8.50841C12.0893 8.78867 12.3628 8.9714 12.6661 8.9714H14.4961L14.8586 12.5751C14.8876 12.8633 15.08 13.1091 15.3529 13.2064C15.6257 13.3038 15.9303 13.2352 16.1351 13.0304L21.1065 8.05897C21.321 7.84447 21.3852 7.52188 21.2691 7.24163C21.153 6.96137 20.8795 6.77864 20.5762 6.77864H18.7462L18.3838 3.17497Z" fill="#000000"/></svg>