<svg width="80" height="80" viewBox="0 0 24 24" fill="none" xmlns="http://www.w3.org/2000/svg" transform="rotate(0 0 0)"><path d="M14.75 13.7413L12.0498 12.1823C10.8895 11.5125 10.1748 10.2745 10.1748 8.93474V5.81679C10.1748 5.37696 10.2518 4.9481 10.3964 4.54671C9.05991 4.61649 7.72688 4.77357 6.40587 5.01796L4.84023 5.30761C3.87207 5.48672 3.13282 6.2745 3.01555 7.25207L1.84836 16.9817C1.68769 18.321 2.73345 19.4997 4.08234 19.4997H6.17936C6.95995 19.4997 7.68477 19.0951 8.0945 18.4307L9.52804 16.106C9.66461 15.8845 9.90622 15.7497 10.1664 15.7497H13.833C14.0932 15.7497 14.3348 15.8845 14.4714 16.106L15.9049 18.4307C16.3147 19.0951 17.0395 19.4997 17.8201 19.4997H19.9171C21.266 19.4997 22.3117 18.321 22.1511 16.9817L21.5481 11.955C21.4372 12.0366 21.3211 12.1125 21.2002 12.1823L18.5 13.7413C17.3398 14.4112 15.9103 14.4112 14.75 13.7413ZM7.3067 7.73899C7.72091 7.73899 8.0567 8.07477 8.0567 8.48899V9.49289H9.06204C9.47625 9.49289 9.81204 9.82868 9.81204 10.2429C9.81204 10.6571 9.47625 10.9929 9.06204 10.9929H8.0567V11.9998C8.0567 12.414 7.72091 12.7498 7.3067 12.7498C6.89248 12.7498 6.5567 12.414 6.5567 11.9998V10.9929H5.55125C5.13703 10.9929 4.80125 10.6571 4.80125 10.2429C4.80125 9.82868 5.13703 9.49289 5.55125 9.49289H6.5567V8.48899C6.5567 8.07477 6.89248 7.73899 7.3067 7.73899Z" fill="#000000"/><path d="M17.75 2.30926C17.0539 1.90733 16.1962 1.90733 15.5 2.30926L12.7998 3.86823C12.1037 4.27015 11.6748 5.01294 11.6748 5.81679V8.93474C11.6748 9.73858 12.1037 10.4814 12.7998 10.8833L15.5 12.4423C16.1962 12.8442 17.0539 12.8442 17.75 12.4423L20.4502 10.8833C21.1464 10.4814 21.5752 9.73859 21.5752 8.93474V5.81679C21.5752 5.01294 21.1464 4.27015 20.4502 3.86823L17.75 2.30926ZM16.625 9.12576C15.6585 9.12576 14.875 8.34226 14.875 7.37576C14.875 6.40926 15.6585 5.62576 16.625 5.62576C17.5915 5.62576 18.375 6.40926 18.375 7.37576C18.375 8.34226 17.5915 9.12576 16.625 9.12576Z" fill="#000000"/></svg>