<svg width="80" height="80" viewBox="0 0 24 24" fill="none" xmlns="http://www.w3.org/2000/svg" transform="rotate(0 0 0)"><path d="M10.3559 4.54885C9.96665 5.41093 9.75 6.36767 9.75 7.375C9.75 11.172 12.828 14.25 16.625 14.25C18.5671 14.25 20.3212 13.4447 21.5714 12.1498L22.1511 16.9817C22.3117 18.321 21.266 19.4997 19.9171 19.4997H17.8201C17.0395 19.4997 16.3147 19.0951 15.9049 18.4307L14.4714 16.106C14.3348 15.8845 14.0932 15.7497 13.833 15.7497H10.1664C9.90622 15.7497 9.66461 15.8845 9.52804 16.106L8.0945 18.4307C7.68477 19.0951 6.95995 19.4997 6.17936 19.4997H4.08234C2.73345 19.4997 1.68769 18.321 1.84836 16.9817L3.01555 7.25207C3.13282 6.2745 3.87207 5.48672 4.84023 5.30761L6.40587 5.01796C7.71354 4.77604 9.03299 4.61967 10.3559 4.54885ZM7.3067 7.73899C6.89248 7.73899 6.5567 8.07477 6.5567 8.48899V9.49289H5.55125C5.13703 9.49289 4.80125 9.82868 4.80125 10.2429C4.80125 10.6571 5.13703 10.9929 5.55125 10.9929H6.5567V11.9998C6.5567 12.414 6.89248 12.7498 7.3067 12.7498C7.72091 12.7498 8.0567 12.414 8.0567 11.9998V10.9929H9.06204C9.47625 10.9929 9.81204 10.6571 9.81204 10.2429C9.81204 9.82868 9.47625 9.49289 9.06204 9.49289H8.0567V8.48899C8.0567 8.07477 7.72091 7.73899 7.3067 7.73899Z" fill="#000000"/><path d="M16.625 2C13.6565 2 11.25 4.40647 11.25 7.375C11.25 10.3435 13.6565 12.75 16.625 12.75C19.5935 12.75 22 10.3435 22 7.375C22 4.40647 19.5935 2 16.625 2ZM16.6251 4.99976C17.0393 4.99976 17.3751 5.33554 17.3751 5.74976V6.62482H18.2502C18.6644 6.62482 19.0002 6.96061 19.0002 7.37482C19.0002 7.78903 18.6644 8.12482 18.2502 8.12482H17.3751V8.99994C17.3751 9.41415 17.0393 9.74994 16.6251 9.74994C16.2109 9.74994 15.8751 9.41415 15.8751 8.99994V8.12482H15C14.5858 8.12482 14.25 7.78903 14.25 7.37482C14.25 6.96061 14.5858 6.62482 15 6.62482H15.8751V5.74976C15.8751 5.33554 16.2109 4.99976 16.6251 4.99976Z" fill="#000000"/></svg>