<svg width="80" height="80" viewBox="0 0 24 24" fill="none" xmlns="http://www.w3.org/2000/svg" transform="rotate(0 0 0)"><path d="M6.40654 5.0166C8.76657 4.58004 11.1652 4.42226 13.553 4.54297C13.1365 4.90381 12.5946 5.12394 12.0003 5.12402C10.8356 5.12402 9.87758 6.00934 9.76201 7.14355L9.75029 7.37402C9.75029 8.61666 10.7577 9.62402 12.0003 9.62402L12.2435 9.63672C13.3607 9.75051 14.2488 10.6386 14.3626 11.7559L14.3753 11.999C14.3753 13.1639 15.2605 14.1219 16.3948 14.2373L16.6253 14.249L16.8558 14.2373C17.99 14.1217 18.8753 13.1637 18.8753 11.999L18.888 11.7559C19.0099 10.5586 20.0208 9.62402 21.2503 9.62402C21.2561 9.62401 21.262 9.62309 21.2679 9.62305L22.1517 16.9805C22.3121 18.3196 21.266 19.499 19.9173 19.499H17.8206C17.0402 19.499 16.3153 19.0938 15.9056 18.4297L14.472 16.1055C14.3354 15.884 14.0934 15.7491 13.8333 15.749H10.1663C9.90627 15.7491 9.66513 15.8841 9.52861 16.1055L8.09502 18.4297C7.68535 19.0938 6.96027 19.4988 6.17998 19.499H4.08233C2.73368 19.4989 1.6885 18.3195 1.84893 16.9805L3.01592 7.25098C3.13323 6.27361 3.87223 5.48588 4.84014 5.30664L6.40654 5.0166ZM7.30694 7.73828C6.89275 7.73832 6.55694 8.07409 6.55694 8.48828V9.49219H5.55108C5.13706 9.49242 4.80108 9.82812 4.80108 10.2422C4.80142 10.656 5.13727 10.992 5.55108 10.9922H6.55694V11.999C6.55725 12.4129 6.89294 12.749 7.30694 12.749C7.7209 12.749 8.05662 12.4129 8.05694 11.999V10.9922H9.06182C9.47579 10.9921 9.81148 10.6561 9.81182 10.2422C9.81182 9.828 9.476 9.49223 9.06182 9.49219H8.05694V8.48828C8.05694 8.07411 7.72109 7.73835 7.30694 7.73828Z" fill="#000000"/><path d="M16.6253 2C17.0394 2.00017 17.3753 2.33589 17.3753 2.75C17.3753 4.8901 19.1102 6.625 21.2503 6.625C21.6644 6.62517 22.0003 6.96089 22.0003 7.375C22.0003 7.78911 21.6644 8.12483 21.2503 8.125C19.1102 8.125 17.3753 9.8599 17.3753 12C17.3753 12.4141 17.0394 12.7498 16.6253 12.75C16.2111 12.75 15.8753 12.4142 15.8753 12C15.8753 9.86 14.1402 8.12517 12.0003 8.125C11.5861 8.125 11.2503 7.78921 11.2503 7.375C11.2503 6.96079 11.5861 6.625 12.0003 6.625C14.1402 6.62483 15.8753 4.89 15.8753 2.75C15.8753 2.33579 16.2111 2 16.6253 2Z" fill="#000000"/></svg>