<svg width="80" height="80" viewBox="0 0 25 25" fill="none" xmlns="http://www.w3.org/2000/svg" transform="rotate(0 0 0)"><path d="M2.54883 7.25C2.54883 6.00736 3.55619 5 4.79883 5H20.2988C21.5415 5 22.5488 6.00736 22.5488 7.25V15.8438C22.5488 17.0864 21.5415 18.0938 20.2988 18.0938H13.2988V19.75H15.5489C15.9631 19.75 16.2989 20.0858 16.2989 20.5C16.2989 20.9142 15.9631 21.25 15.5489 21.25H9.54886C9.13464 21.25 8.79886 20.9142 8.79886 20.5C8.79886 20.0858 9.13464 19.75 9.54886 19.75H11.7988V18.0938H4.79883C3.55619 18.0938 2.54883 17.0864 2.54883 15.8438V7.25ZM11.4418 9.5H13.6545C13.8382 9.5 13.9871 9.6489 13.9871 9.83258C13.9871 11.2433 15.5142 12.125 16.736 11.4196C16.895 11.3278 17.0984 11.3823 17.1903 11.5414L18.2966 13.4576C18.3884 13.6167 18.3339 13.82 18.1749 13.9119C17.1813 14.4856 16.9961 15.7588 17.6183 16.5938L19.6671 16.5938C19.5135 16.267 19.262 15.9816 18.9251 15.787C18.7031 15.6589 18.7034 15.3388 18.9249 15.2109C19.8014 14.7049 20.1017 13.5841 19.5957 12.7076L18.4893 10.7914C17.9833 9.91485 16.8625 9.61454 15.986 10.1206C15.7642 10.2486 15.4871 10.0886 15.4871 9.83258C15.4871 8.82047 14.6666 8 13.6545 8H11.4418C10.4297 8 9.60928 8.82055 9.60928 9.8326C9.60928 10.0886 9.33214 10.2485 9.11057 10.1206C8.23411 9.61458 7.11338 9.91488 6.60735 10.7913L5.50094 12.7077C4.99491 13.5842 5.29521 14.7049 6.17169 15.211C6.39311 15.3388 6.3934 15.6589 6.17148 15.787C5.83453 15.9815 5.58301 16.2669 5.42951 16.5938L7.47824 16.5938C8.10048 15.7588 7.91531 14.4856 6.92169 13.9119C6.76265 13.8201 6.70816 13.6167 6.79998 13.4577L7.90639 11.5413C7.9982 11.3823 8.20154 11.3278 8.36057 11.4196C9.5823 12.125 11.1093 11.2431 11.1093 9.8326C11.1093 9.64889 11.2582 9.5 11.4418 9.5ZM11.4297 16.5938C11.1527 16.3109 10.9833 15.9249 10.9833 15.4991C10.9833 14.6348 11.6839 13.9341 12.5483 13.9341C13.4126 13.9341 14.1133 14.6348 14.1133 15.4991C14.1133 15.9249 13.9438 16.3109 13.6668 16.5938H15.4118C15.5419 16.2538 15.6133 15.8848 15.6133 15.4991C15.6133 13.8064 14.241 12.4341 12.5483 12.4341C10.8555 12.4341 9.48325 13.8064 9.48325 15.4991C9.48325 15.8848 9.55461 16.2538 9.68465 16.5938H11.4297Z" fill="#000000"/></svg>