<svg width="80" height="80" viewBox="0 0 24 24" fill="none" xmlns="http://www.w3.org/2000/svg" transform="rotate(0 0 0)"><path d="M13.3938 2.8754C13.9269 2.88947 14.3769 3.27592 14.4713 3.8008L16.6897 16.1309L18.0887 12.8947C18.2668 12.4828 18.6726 12.2161 19.1214 12.2161H22C22.6213 12.2161 23.125 12.7198 23.125 13.3411C23.125 13.9624 22.6213 14.4661 22 14.4661H19.8607L17.2754 20.4464C17.0785 20.9018 16.6065 21.1745 16.1136 21.1176C15.6208 21.0606 15.2234 20.6875 15.1355 20.1992L13.2179 9.5405L11.5807 16.508C11.4734 16.9646 11.094 17.3068 10.6287 17.3665C10.1635 17.4262 9.70997 17.191 9.49082 16.7763L6.81279 11.7081L5.73253 13.8481C5.5412 14.2271 5.1528 14.4661 4.72824 14.4661H1.84961C1.22829 14.4661 0.724609 13.9624 0.724609 13.3411C0.724609 12.7198 1.22829 12.2161 1.84961 12.2161H4.03593L5.78566 8.74993C5.97529 8.37429 6.3587 8.13587 6.77948 8.13196C7.20025 8.12804 7.58804 8.35927 7.78463 8.73132L10.0772 13.07L12.2689 3.74266C12.3909 3.2235 12.8607 2.86132 13.3938 2.8754Z" fill="#000000"/></svg>