<svg width="80" height="80" viewBox="0 0 25 24" fill="none" xmlns="http://www.w3.org/2000/svg" transform="rotate(0 0 0)"><path d="M9.54151 4.39844C10.1628 4.39844 10.6665 4.90212 10.6665 5.52344V18.4755C10.6665 19.0968 10.1628 19.6005 9.54151 19.6005C8.92019 19.6005 8.41651 19.0968 8.41651 18.4755V5.52344C8.41651 4.90212 8.92019 4.39844 9.54151 4.39844ZM18.4162 4.39844C19.0375 4.39844 19.5412 4.90212 19.5412 5.52344V18.4755C19.5412 19.0968 19.0375 19.6005 18.4162 19.6005C17.7949 19.6005 17.2912 19.0968 17.2912 18.4755V5.52344C17.2912 4.90212 17.7949 4.39844 18.4162 4.39844ZM15.4582 6.0774C16.0795 6.0774 16.5832 6.58108 16.5832 7.2024V16.7965C16.5832 17.4178 16.0795 17.9215 15.4582 17.9215C14.8369 17.9215 14.3332 17.4178 14.3332 16.7965V7.2024C14.3332 6.58108 14.8369 6.0774 15.4582 6.0774ZM6.58286 7.03681C7.20419 7.03681 7.70786 7.54049 7.70786 8.16181V15.8371C7.70786 16.4584 7.20419 16.9621 6.58286 16.9621C5.96154 16.9621 5.45786 16.4584 5.45786 15.8371V8.16181C5.45786 7.54049 5.96154 7.03681 6.58286 7.03681ZM12.4995 7.99622C13.1209 7.99622 13.6245 8.4999 13.6245 9.12122V14.8777C13.6245 15.499 13.1209 16.0027 12.4995 16.0027C11.8782 16.0027 11.3745 15.499 11.3745 14.8777V9.12122C11.3745 8.4999 11.8782 7.99622 12.4995 7.99622ZM21.375 8.47592C21.9963 8.47592 22.5 8.9796 22.5 9.60092V14.398C22.5 15.0193 21.9963 15.523 21.375 15.523C20.7537 15.523 20.25 15.0193 20.25 14.398V9.60092C20.25 8.9796 20.7537 8.47592 21.375 8.47592ZM3.625 9.43533C4.24632 9.43533 4.75 9.93901 4.75 10.5603V13.4386C4.75 14.0599 4.24632 14.5636 3.625 14.5636C3.00368 14.5636 2.5 14.0599 2.5 13.4386V10.5603C2.5 9.93901 3.00368 9.43533 3.625 9.43533Z" fill="#000000"/></svg>