<svg width="80" height="80" viewBox="0 0 24 24" fill="none" xmlns="http://www.w3.org/2000/svg" transform="rotate(0 0 0)"><path d="M10.5262 2.65951C10.5961 2.58957 10.6701 2.52471 10.7477 2.46516L10.7504 7.5003C10.7507 7.91473 10.4148 8.25084 10.0004 8.25084H4.96533C5.02455 8.1737 5.08902 8.10008 5.15851 8.03055L10.5262 2.65951Z" fill="#000000"/><path d="M20.719 17.1545C21.0118 17.4475 21.0117 17.9223 20.7187 18.2151L17.1992 21.7321C17.0616 21.8946 16.8561 21.9978 16.6265 21.9978C16.4116 21.9978 16.2178 21.9074 16.0811 21.7626L12.5314 18.2151C12.2384 17.9223 12.2382 17.4474 12.531 17.1544C12.8238 16.8615 13.2987 16.8613 13.5917 17.1541L15.8765 19.4375L15.8765 12.002C15.8765 11.5877 16.2123 11.252 16.6265 11.252C17.0407 11.252 17.3765 11.5877 17.3765 12.002L17.3765 19.4343L19.6584 17.1541C19.9514 16.8613 20.4263 16.8615 20.719 17.1545Z" fill="#000000"/><path d="M4.5 9.75084V19.75C4.5 20.9926 5.50736 22 6.75 22H14.1967L11.471 19.2761C10.5921 18.3977 10.5916 16.9731 11.47 16.0941C12.2616 15.302 13.4969 15.2234 14.3765 15.8585V12.002C14.3765 10.7593 15.3839 9.75195 16.6265 9.75195C17.8692 9.75195 18.8765 10.7593 18.8765 12.002H19.5V4.25C19.5 3.00736 18.4926 2 17.25 2H12.2474L12.2504 7.49924C12.2512 8.74244 11.2436 9.75084 10.0004 9.75084H4.5Z" fill="#000000"/></svg>