<svg width="80" height="80" viewBox="0 0 25 25" fill="none" xmlns="http://www.w3.org/2000/svg" transform="rotate(0 0 0)"><path d="M13.6569 3.5C13.3655 4.31547 13.5679 5.23065 14.1849 5.84769L15.1126 6.77542L12.6854 9.20267C11.8067 10.0814 11.8067 11.506 12.6854 12.3847C13.5641 13.2633 14.9887 13.2633 15.8674 12.3847L18.2946 9.9574L19.2245 10.8872C19.8417 11.5044 20.7571 11.7067 21.5728 11.415L21.5728 18.75C21.5728 19.9926 20.5654 21 19.3228 21H6.32422C5.08158 21 4.07422 19.9926 4.07422 18.75V5.75C4.07422 4.50736 5.08158 3.5 6.32422 3.5H13.6569Z" fill="#000000"/><path d="M13.746 10.2633L17.234 6.77542L15.2456 4.78703C15.031 4.5725 14.9669 4.24985 15.083 3.96957C15.1992 3.68929 15.4728 3.5066 15.7762 3.5067L20.7517 3.50845C20.9639 3.49083 21.1821 3.56318 21.3445 3.72552C21.4965 3.87749 21.5696 4.07844 21.5639 4.27756L21.5655 9.29602C21.5655 9.59941 21.3829 9.87298 21.1026 9.98912C20.8223 10.1053 20.4997 10.0411 20.2851 9.82659L18.2946 7.83608L14.8067 11.324C14.5138 11.6169 14.0389 11.6169 13.746 11.324C13.4531 11.0311 13.4531 10.5562 13.746 10.2633Z" fill="#000000"/></svg>