<svg width="80" height="80" viewBox="0 0 25 25" fill="none" xmlns="http://www.w3.org/2000/svg" transform="rotate(0 0 0)"><path d="M21.1788 4.78033C21.4717 4.48744 21.4717 4.01256 21.1788 3.71967C20.8859 3.42678 20.411 3.42678 20.1181 3.71967L17.837 6.00079L15.9936 4.15727C15.7791 3.94276 15.4565 3.87858 15.1763 3.99466C14.896 4.11075 14.7133 4.38423 14.7133 4.68758L14.7133 9.43758C14.7133 9.85179 15.049 10.1876 15.4633 10.1876H20.2129C20.5162 10.1876 20.7897 10.0049 20.9058 9.72461C21.0219 9.44436 20.9577 9.12177 20.7432 8.90727L18.8976 7.06149L21.1788 4.78033Z" fill="#000000"/><path d="M5.18072 3.71975C4.88783 3.42686 4.41295 3.42686 4.12006 3.71975C3.82717 4.01264 3.82717 4.48752 4.12006 4.78041L6.40145 7.0618L4.55603 8.90735C4.34155 9.12185 4.27739 9.44444 4.39348 9.72469C4.50957 10.0049 4.78304 10.1877 5.08638 10.1877H9.83602C10.2502 10.1877 10.586 9.85187 10.586 9.43766L10.586 4.68766C10.586 4.38431 10.4033 4.11083 10.123 3.99475C9.84275 3.87866 9.52016 3.94284 9.30567 4.15735L7.46207 6.00109L5.18072 3.71975Z" fill="#000000"/><path d="M5.08833 14.3126C4.78499 14.3126 4.51152 14.4953 4.39543 14.7756C4.27934 15.0558 4.3435 15.3784 4.55798 15.5929L6.40238 17.4374L4.12006 19.7198C3.82717 20.0126 3.82717 20.4875 4.12006 20.7804C4.41295 21.0733 4.88783 21.0733 5.18072 20.7804L7.463 18.4981L9.30762 20.3429C9.52211 20.5574 9.84471 20.6216 10.125 20.5055C10.4052 20.3894 10.588 20.1159 10.588 19.8126V15.0626C10.588 14.6484 10.2522 14.3126 9.83797 14.3126H5.08833Z" fill="#000000"/><path d="M15.4613 14.3126C15.2624 14.3126 15.0716 14.3916 14.931 14.5323C14.7903 14.6729 14.7113 14.8637 14.7113 15.0626L14.7113 19.8126C14.7113 20.1159 14.894 20.3894 15.1743 20.5055C15.4546 20.6216 15.7772 20.5574 15.9917 20.3429L17.8361 18.4984L20.1181 20.7804C20.411 21.0733 20.8859 21.0733 21.1788 20.7804C21.4717 20.4875 21.4717 20.0126 21.1788 19.7198L18.8967 17.4377L20.7413 15.5929C20.9558 15.3784 21.0199 15.0558 20.9038 14.7756C20.7878 14.4953 20.5143 14.3126 20.2109 14.3126H15.4613Z" fill="#000000"/></svg>