<svg width="80" height="80" viewBox="0 0 24 24" fill="none" xmlns="http://www.w3.org/2000/svg" transform="rotate(0 0 0)"><path d="M11.6522 2.07287L11.651 2.07349L11.6492 2.07443L11.6438 2.0773L11.6257 2.08694C11.6105 2.09509 11.5891 2.10671 11.5619 2.12175C11.5074 2.15182 11.4295 2.1956 11.3317 2.25276C11.1361 2.36703 10.8599 2.53513 10.5301 2.75452C9.87168 3.19235 8.99182 3.83937 8.10908 4.6761C6.362 6.33212 4.5 8.8321 4.5 11.9995C4.5 15.8885 7.46 19.0862 11.25 19.4625V21.25C11.25 21.6642 11.5858 22 12 22C12.4142 22 12.75 21.6642 12.75 21.25V19.4625C16.5401 19.0863 19.5001 15.8886 19.5001 11.9995C19.5001 8.8321 17.6381 6.33212 15.891 4.6761C15.0083 3.83937 14.1284 3.19235 13.4701 2.75452C13.1402 2.53513 12.864 2.36703 12.6684 2.25276C12.5706 2.1956 12.4927 2.15182 12.4383 2.12175C12.411 2.10671 12.3896 2.09509 12.3744 2.08694L12.3563 2.0773L12.3509 2.07443L12.3491 2.07349L12.348 2.07287C12.1301 1.95878 11.8701 1.95878 11.6522 2.07287ZM12.7501 6.98512L12.75 9.18779L14.1346 8.15146C14.4662 7.90325 14.9362 7.97086 15.1844 8.30247C15.4326 8.63408 15.365 9.10412 15.0334 9.35232L12.75 11.0615L12.7499 13.9614L14.7948 12.5514C15.1359 12.3163 15.6029 12.4021 15.838 12.7431C16.0732 13.0842 15.9873 13.5512 15.6463 13.7863L12.4256 16.007C12.1693 16.1837 11.8305 16.1837 11.5742 16.007L8.35362 13.7863C8.01261 13.5512 7.92679 13.0841 8.16192 12.7431C8.39706 12.4021 8.86411 12.3163 9.20511 12.5514L11.2499 13.9614L11.25 11.0614L8.96665 9.35232C8.63505 9.1041 8.56744 8.63406 8.81566 8.30246C9.06387 7.97085 9.53391 7.90325 9.86552 8.15146L11.25 9.1878L11.2501 6.98509C11.2501 6.57088 11.5859 6.2351 12.0001 6.23511C12.4143 6.23511 12.7501 6.57091 12.7501 6.98512Z" fill="#000000"/></svg>