<svg width="80" height="80" viewBox="0 0 24 25" fill="none" xmlns="http://www.w3.org/2000/svg" transform="rotate(0 0 0)"><path d="M13.8398 6.73C17.1296 6.73 19.8401 9.27406 20.082 12.5062C21.2333 13.2192 22.002 14.4945 22.002 15.9506C22.002 18.1866 20.1893 19.9992 17.9533 19.9992H8.05064C5.81461 19.9992 4.00195 18.1866 4.00195 15.9506C4.00195 13.843 5.6123 12.1116 7.66968 11.9196C8.17461 8.97129 10.7517 6.73 13.8398 6.73Z" fill="#000000"/><path d="M7.62156 2.50909C8.03535 2.52785 8.35558 2.8785 8.33681 3.29229L8.33636 3.30228C8.3176 3.71607 7.96694 4.0363 7.55315 4.01753C7.13937 3.99877 6.81914 3.64812 6.8379 3.23433L6.83835 3.22434C6.85712 2.81055 7.20777 2.49032 7.62156 2.50909Z" fill="#000000"/><path d="M11.3469 4.25392C11.6263 4.55978 11.6047 5.03417 11.2989 5.31349L11.2915 5.32024C10.9856 5.59956 10.5113 5.57805 10.2319 5.27219C9.95261 4.96633 9.97412 4.49194 10.28 4.21262L10.2874 4.20587C10.5932 3.92655 11.0676 3.94806 11.3469 4.25392Z" fill="#000000"/><path d="M4.52422 10.4849C4.80354 10.7908 4.78203 11.2652 4.47617 11.5445L4.46878 11.5513C4.16292 11.8306 3.68854 11.8091 3.40921 11.5032C3.12989 11.1973 3.1514 10.723 3.45726 10.4436L3.46465 10.4369C3.77051 10.1576 4.24489 10.1791 4.52422 10.4849Z" fill="#000000"/><path d="M3.51705 7.70348C3.49828 8.11727 3.14763 8.4375 2.73384 8.41874L2.72385 8.41828C2.31006 8.39952 1.98983 8.04887 2.0086 7.63508C2.02736 7.22129 2.37801 6.90106 2.7918 6.91982L2.80179 6.92028C3.21558 6.93904 3.53581 7.28969 3.51705 7.70348Z" fill="#000000"/><path d="M4.77183 5.0246C4.46596 5.30392 3.99158 5.28241 3.71225 4.97655L3.70551 4.96917C3.42619 4.66331 3.4477 4.18892 3.75356 3.9096C4.05942 3.63027 4.53381 3.65178 4.81313 3.95764L4.81987 3.96503C5.0992 4.27089 5.07769 4.74527 4.77183 5.0246Z" fill="#000000"/><path d="M4.31622 7.73972C4.3929 6.04871 5.8259 4.74003 7.51692 4.81671C8.56486 4.86423 9.46596 5.43264 9.98152 6.26053C8.31313 7.21809 7.03251 8.77743 6.44074 10.6443C6.36605 10.667 6.29202 10.6911 6.2187 10.7167C5.05279 10.2404 4.2559 9.0699 4.31622 7.73972Z" fill="#000000"/></svg>