<svg width="80" height="80" viewBox="0 0 24 24" fill="none" xmlns="http://www.w3.org/2000/svg" transform="rotate(0 0 0)"><path d="M4.5 19.75V9.75084H10.0004C11.2436 9.75084 12.2512 8.74244 12.2504 7.49924L12.2474 2H17.25C18.4926 2 19.5 3.00736 19.5 4.25V10.2524C19.4585 10.2508 19.4169 10.25 19.375 10.25H18.375C17.5165 10.25 16.7357 10.5829 16.1547 11.1266C15.7432 10.5954 15.099 10.2534 14.375 10.2534H12.875C11.6324 10.2534 10.625 11.2608 10.625 12.5034C10.625 13.4831 11.2511 14.3165 12.125 14.6254V16C12.125 16.1643 12.1426 16.3246 12.1761 16.4789C11.2456 17.0506 10.625 18.0778 10.625 19.25V20.75C10.625 21.193 10.7136 21.6152 10.8741 22H6.75C5.50736 22 4.5 20.9926 4.5 19.75Z" fill="#000000"/><path d="M10.5262 2.65951C10.5961 2.58957 10.6701 2.52471 10.7477 2.46516L10.7504 7.5003C10.7507 7.91473 10.4148 8.25084 10.0004 8.25084H4.96533C5.02455 8.1737 5.08902 8.10008 5.15851 8.03055L10.5262 2.65951Z" fill="#000000"/><path d="M16.625 13.5C16.625 12.5335 17.4085 11.75 18.375 11.75H19.375C20.3415 11.75 21.125 12.5335 21.125 13.5V15C21.125 15.9665 20.3415 16.75 19.375 16.75H18.375C17.4085 16.75 16.625 15.9665 16.625 15V13.5ZM18.375 13.25C18.2369 13.25 18.125 13.3619 18.125 13.5V15C18.125 15.1381 18.2369 15.25 18.375 15.25H19.375C19.5131 15.25 19.625 15.1381 19.625 15V13.5C19.625 13.3619 19.5131 13.25 19.375 13.25H18.375ZM12.125 12.5034C12.125 12.0892 12.4608 11.7534 12.875 11.7534H14.375C14.7892 11.7534 15.125 12.0892 15.125 12.5034V16C15.125 16.4142 14.7892 16.75 14.375 16.75C13.9608 16.75 13.625 16.4142 13.625 16V13.2534H12.875C12.4608 13.2534 12.125 12.9176 12.125 12.5034ZM12.125 19.25C12.125 18.2835 12.9085 17.5 13.875 17.5H14.875C15.8415 17.5 16.625 18.2835 16.625 19.25V20.75C16.625 21.7165 15.8415 22.5 14.875 22.5H13.875C12.9085 22.5 12.125 21.7165 12.125 20.75V19.25ZM13.875 19C13.7369 19 13.625 19.1119 13.625 19.25V20.75C13.625 20.8881 13.7369 21 13.875 21H14.875C15.0131 21 15.125 20.8881 15.125 20.75V19.25C15.125 19.1119 15.0131 19 14.875 19H13.875ZM18.125 18.2534C18.125 17.8392 18.4608 17.5034 18.875 17.5034H20.375C20.7892 17.5034 21.125 17.8392 21.125 18.2534V21.75C21.125 22.1642 20.7892 22.5 20.375 22.5C19.9608 22.5 19.625 22.1642 19.625 21.75V19.0034H18.875C18.4608 19.0034 18.125 18.6676 18.125 18.2534Z" fill="#000000"/></svg>