<svg width="80" height="80" viewBox="0 0 25 24" fill="none" xmlns="http://www.w3.org/2000/svg" transform="rotate(0 0 0)"><path d="M2.54883 12C2.54883 6.47715 7.02598 2 12.5488 2C18.0717 2 22.5488 6.47715 22.5488 12C22.5488 17.5228 18.0717 22 12.5488 22C7.02598 22 2.54883 17.5228 2.54883 12ZM14.169 8.16367C14.2589 7.75933 14.0039 7.35869 13.5996 7.26884C13.1952 7.17898 12.7946 7.43393 12.7048 7.83828L10.9275 15.8359C10.8377 16.2402 11.0926 16.6409 11.497 16.7307C11.9013 16.8206 12.3019 16.5656 12.3918 16.1613L14.169 8.16367ZM15.9478 9.71456C15.655 9.42165 15.1801 9.42163 14.8872 9.71451C14.5943 10.0074 14.5942 10.4823 14.8871 10.7752L16.1117 11.9999L14.8872 13.2245C14.5943 13.5174 14.5943 13.9922 14.8872 14.2851C15.18 14.578 15.6549 14.578 15.9478 14.2851L17.7027 12.5302C17.9956 12.2374 17.9956 11.7625 17.7027 11.4696L15.9478 9.71456ZM10.2037 10.782C10.4966 10.4891 10.4966 10.0142 10.2036 9.72134C9.91074 9.42846 9.43586 9.42849 9.14299 9.72139L7.39494 11.4696C7.10207 11.7625 7.10208 12.2374 7.39496 12.5302L9.14301 14.2783C9.4359 14.5712 9.91078 14.5712 10.2037 14.2783C10.4966 13.9854 10.4966 13.5105 10.2037 13.2176L8.98593 11.9999L10.2037 10.782Z" fill="#000000"/></svg>