<svg width="80" height="80" viewBox="0 0 25 25" fill="none" xmlns="http://www.w3.org/2000/svg" transform="rotate(0 0 0)"><path d="M17.0942 7.04541C17.0942 8.56957 16.3438 9.91771 15.1948 10.7416L15.1824 10.3268C15.1812 10.2195 15.1765 10.0993 15.1661 9.97629L15.166 9.97435C15.119 9.41577 15.0165 8.19718 13.8788 7.04386C13.5782 6.73911 13.2192 6.53662 12.9071 6.37908C12.7734 6.31158 12.6546 6.25489 12.5421 6.20121C12.359 6.1138 12.1926 6.03437 12.0056 5.92926C11.4869 5.63776 11.0348 5.26114 10.7686 4.45173C10.6173 3.99172 10.5087 3.51541 10.3828 3.04848C11.0268 2.69885 11.765 2.5 12.5488 2.5C15.0592 2.5 17.0942 4.53505 17.0942 7.04541Z" fill="#000000"/><path d="M8.00342 7.04541C8.00342 5.91101 8.41973 4.87291 9.1065 4.07699L9.2144 4.47729C9.24842 4.61351 9.29127 4.76094 9.34369 4.92034C9.75904 6.18333 10.5274 6.81915 11.2707 7.2369C11.4948 7.36288 11.7487 7.48474 11.9631 7.58764C12.0634 7.63574 12.1553 7.67987 12.2312 7.71816C12.5087 7.85825 12.6876 7.97217 12.811 8.09724C13.566 8.86263 13.6317 9.62971 13.6714 10.102C13.7087 10.5456 13.7017 10.9953 13.7149 11.4397C13.3424 11.5383 12.9515 11.5908 12.5488 11.5908C10.0385 11.5908 8.00342 9.55577 8.00342 7.04541Z" fill="#000000"/><path d="M18.0942 7.04541C18.0942 6.77533 18.0749 6.50976 18.0376 6.25H20.2988C21.5415 6.25 22.5488 7.25736 22.5488 8.5V17.0938C22.5488 18.3364 21.5415 19.3438 20.2988 19.3438L14.7988 19.3437V21H16.3438C16.758 21 17.0938 21.3358 17.0938 21.75C17.0938 22.1642 16.758 22.5 16.3438 22.5H8.75391C8.33969 22.5 8.00391 22.1642 8.00391 21.75C8.00391 21.3358 8.33969 21 8.75391 21H10.2988V19.3437L4.79883 19.3438C3.55619 19.3438 2.54883 18.3364 2.54883 17.0938V8.5C2.54883 7.25736 3.55619 6.25 4.79883 6.25H7.06099C7.02307 6.50992 7.00342 6.7755 7.00342 7.04541C7.00342 10.1081 9.48618 12.5908 12.5488 12.5908C15.5561 12.5908 18.0942 10.1083 18.0942 7.04541ZM12.0186 14.0603L10.2508 15.8269C9.95786 16.1197 9.95771 16.5946 10.2505 16.8876C10.5433 17.1806 11.0182 17.1807 11.3112 16.8879L11.7987 16.4007V18.5937H13.2987V16.4006L13.7864 16.8879C14.0794 17.1807 14.5543 17.1805 14.8471 16.8875C15.1398 16.5946 15.1397 16.1197 14.8467 15.8269L13.0789 14.0603C12.786 13.7677 12.3114 13.7677 12.0186 14.0603Z" fill="#000000"/></svg>