<svg width="80" height="80" viewBox="0 0 24 24" fill="none" xmlns="http://www.w3.org/2000/svg" transform="rotate(0 0 0)"><path d="M4.25 4.17188C3.00736 4.17188 2 5.17923 2 6.42187V13.8281C2 15.0708 3.00736 16.0781 4.25 16.0781H11.25V18.3281H9.00003C8.58582 18.3281 8.25003 18.6639 8.25003 19.0781C8.25003 19.4923 8.58582 19.8281 9.00003 19.8281H15C15.4142 19.8281 15.75 19.4923 15.75 19.0781C15.75 18.6639 15.4142 18.3281 15 18.3281H12.75V16.0781H19.75C20.9926 16.0781 22 15.0708 22 13.8281V6.42188C22 5.17923 20.9926 4.17188 19.75 4.17188H4.25Z" fill="#000000"/></svg>