<svg width="80" height="80" viewBox="0 0 24 24" fill="none" xmlns="http://www.w3.org/2000/svg" transform="rotate(0 0 0)"><path d="M10.5516 2.59976C11.3513 1.80008 12.6478 1.80008 13.4475 2.59976L21.4002 10.5525C22.1999 11.3522 22.1999 12.6487 21.4002 13.4484L13.4484 21.4002C12.6487 22.1999 11.3522 22.1999 10.5525 21.4002L2.59976 13.4475C1.80008 12.6478 1.80008 11.3513 2.59976 10.5516L10.5516 2.59976ZM7.98127 11.3089C7.99761 11.3286 8.01493 11.3474 8.03316 11.3654L9.51546 12.8487C9.80825 13.1417 10.2831 13.1418 10.5761 12.8491C10.8691 12.5563 10.8693 12.0814 10.5765 11.7884L10.3684 11.5802H13.5276C14.1709 11.5802 14.6923 12.1016 14.6923 12.7449C14.6923 13.3881 14.1709 13.9096 13.5276 13.9096H10.4786C10.0644 13.9096 9.72862 14.2454 9.72862 14.6596C9.72862 15.0738 10.0644 15.4096 10.4786 15.4096H13.5276C14.9993 15.4096 16.1923 14.2165 16.1923 12.7449C16.1923 11.2732 14.9993 10.0802 13.5276 10.0802H10.3684L10.5765 9.87196C10.8693 9.57897 10.8691 9.1041 10.5761 8.8113C10.2831 8.5185 9.80827 8.51865 9.51547 8.81164L8.02809 10.3C7.9509 10.3772 7.89407 10.4671 7.8576 10.5629C7.82672 10.6439 7.80946 10.7316 7.80863 10.8232L7.80859 10.8302C7.80859 10.9411 7.83269 11.0465 7.87594 11.1412C7.90293 11.2005 7.93804 11.2569 7.98127 11.3089Z" fill="#000000"/></svg>