<svg width="80" height="80" viewBox="0 0 24 24" fill="none" xmlns="http://www.w3.org/2000/svg" transform="rotate(0 0 0)"><path d="M10.811 3.25076C10.7727 3.18464 10.7332 3.12214 10.6929 3.06316C10.5296 2.82423 10.3597 2.65233 10.2229 2.53592C10.1546 2.47771 10.0942 2.43314 10.0466 2.40071C10.0228 2.38448 10.0021 2.37123 9.98513 2.36079C9.97663 2.35557 9.96904 2.35104 9.96244 2.34718L9.95328 2.3419L9.94927 2.33962L9.94741 2.33858L9.94651 2.33808C9.94651 2.33808 9.94564 2.3376 9.58136 2.99309L9.94651 2.33808C9.80161 2.25755 9.63324 2.22682 9.46933 2.25157L9.58136 2.99309C9.46937 2.2515 9.46822 2.25174 9.46822 2.25174L9.46707 2.25192L9.46468 2.25229L9.45947 2.25312L9.44738 2.25517C9.43859 2.25672 9.42834 2.25863 9.41672 2.26098C9.3935 2.26567 9.36471 2.2721 9.33106 2.28081C9.26381 2.29822 9.1766 2.32485 9.07503 2.36508C8.87167 2.44563 8.60983 2.58111 8.33704 2.80615C7.7789 3.26657 7.23545 4.05139 7.00209 5.34352C6.85964 6.13227 6.84832 7.02518 6.8934 7.86086C6.15915 7.98185 5.41631 8.26954 4.73194 8.71949C3.701 9.3973 2.95358 10.3444 2.59871 11.3564C2.24357 12.369 2.27265 13.4905 2.88288 14.4186C3.50426 15.3637 4.54057 15.8315 5.63431 15.8964L6.37367 17.8768C5.49479 18.128 4.85145 18.9373 4.85145 19.8969C4.85145 21.0571 5.792 21.9977 6.95223 21.9977H10.7518C10.1672 21.2871 9.81623 20.3772 9.81623 19.3853C9.81623 17.8569 10.65 16.5241 11.884 15.8154C12.2432 15.6092 12.7016 15.7331 12.9079 16.0923C13.1142 16.4515 12.9902 16.9099 12.631 17.1162C11.8437 17.5683 11.3162 18.4157 11.3162 19.3853C11.3162 20.7949 12.4319 21.944 13.8284 21.9977H14.1914C16.7241 21.9977 18.901 20.4811 19.8664 18.3083C20.9906 18.1842 21.865 17.2312 21.865 16.0739C21.865 14.9974 21.1084 14.0976 20.0979 13.8774C19.2913 11.3857 16.9526 9.58336 14.1914 9.58336H13.5524C12.9417 9.58336 12.3513 9.67171 11.7933 9.83633C12.4172 9.15959 13.0296 8.4026 13.4663 7.64623C14.1931 6.38729 14.3065 5.35097 14.1824 4.58113C14.1216 4.20341 14.0064 3.90812 13.8992 3.69914C13.8457 3.59483 13.7942 3.51202 13.7524 3.45092C13.7315 3.42035 13.7129 3.39513 13.6976 3.37528C13.69 3.36534 13.6832 3.35675 13.6773 3.34948L13.6691 3.33957L13.6656 3.33537L13.664 3.33345L13.6632 3.33254C13.6632 3.33254 13.6625 3.33166 13.0921 3.81861L13.6625 3.33166C13.5508 3.20088 13.3976 3.11244 13.2286 3.08114L13.0921 3.81861C13.2286 3.08114 13.2275 3.08095 13.2275 3.08095L13.2264 3.08075L13.2241 3.08033L13.2192 3.07946L13.2076 3.07753C13.1993 3.07618 13.1895 3.0747 13.1783 3.07318C13.156 3.07013 13.1283 3.06689 13.0955 3.0641C13.008 3.05667 12.9203 3.07193 12.8391 3.10523C12.2164 3.36056 11.5118 3.86195 10.8646 4.79404C10.7557 4.95076 10.6488 5.11921 10.5443 5.30021C10.0758 6.11174 9.70438 7.09292 9.41627 8.03302C9.33013 8.31409 9.03155 8.47412 8.75214 8.38274C8.48862 8.29657 8.33936 8.01768 8.42031 7.7525C8.72181 6.76486 9.12302 5.69309 9.64847 4.78299C9.76677 4.57808 9.88904 4.38526 10.0149 4.20401C10.2703 3.83625 10.5376 3.52052 10.811 3.25076Z" fill="#000000"/></svg>