<svg width="80" height="80" viewBox="0 0 24 24" fill="none" xmlns="http://www.w3.org/2000/svg" transform="rotate(0 0 0)"><path d="M13.1831 9.76267C13.7661 9.76267 14.3204 9.57839 14.7772 9.25349L15.1617 10.8199C15.7687 13.2932 19.1214 13.6839 20.2809 11.4165L21.1265 9.76267H21.25C21.513 9.76267 21.7654 9.71755 22 9.63464V15.3441C22 16.5867 20.9926 17.5941 19.75 17.5941H12.75V19.2503H15C15.4142 19.2503 15.75 19.5861 15.75 20.0003C15.75 20.4146 15.4142 20.7503 15 20.7503H9.00003C8.58582 20.7503 8.25003 20.4146 8.25003 20.0003C8.25003 19.5861 8.58582 19.2503 9.00003 19.2503H11.25V17.5941H4.25C3.00736 17.5941 2 16.5867 2 15.3441V6.75035C2 5.50771 3.00736 4.50035 4.25 4.50035H12.4337L12.0739 5.26267H12C10.7574 5.26267 9.75 6.27003 9.75 7.51267C9.75 8.75531 10.7574 9.76267 12 9.76267H13.1831Z" fill="#000000"/><path d="M15.359 5.33035L14.3135 7.54554C14.1071 7.98296 13.6668 8.26201 13.1831 8.26201H12C11.5858 8.26201 11.25 7.92623 11.25 7.51201C11.25 7.0978 11.5858 6.76201 12 6.76201H13.0246L14.3034 4.05267C14.8058 2.98802 16.3671 3.1449 16.6478 4.28824L17.9153 9.4526L18.943 7.4429C19.1567 7.02498 19.5865 6.76201 20.0559 6.76201H21.25C21.6642 6.76201 22 7.0978 22 7.51201C22 7.92623 21.6642 8.26201 21.25 8.26201H20.2088L18.9453 10.7329C18.4183 11.7635 16.8944 11.5859 16.6184 10.4617L15.359 5.33035Z" fill="#000000"/></svg>