<svg width="80" height="80" viewBox="0 0 24 24" fill="none" xmlns="http://www.w3.org/2000/svg" transform="rotate(0 0 0)"><path d="M11.5098 4.50003H4.25C3.00736 4.50003 2 5.50739 2 6.75003V15.3438C2 16.5864 3.00736 17.5938 4.25 17.5938H11.25V19.25H9.00003C8.58582 19.25 8.25003 19.5858 8.25003 20C8.25003 20.4142 8.58582 20.75 9.00003 20.75H15C15.4142 20.75 15.75 20.4142 15.75 20C15.75 19.5858 15.4142 19.25 15 19.25H12.75V17.5938H19.75C20.9926 17.5938 22 16.5864 22 15.3438V7.79125L21.0181 8.77311C20.8422 8.94909 20.6416 9.09162 20.4256 9.19853C20.6263 9.74483 20.6163 10.3682 20.348 10.936C19.4594 12.8164 17.5423 14.1249 15.315 14.1249C12.2416 14.1249 9.75012 11.6335 9.75012 8.5601C9.75012 6.95665 10.4283 5.51395 11.5098 4.50003Z" fill="#000000"/><path d="M18.6881 1.89508C18.9411 1.9548 19.1451 2.14125 19.2273 2.38784L19.7923 4.08276L21.4872 4.64773C21.7338 4.72993 21.9203 4.93395 21.98 5.18693C22.0397 5.43991 21.9642 5.70577 21.7804 5.88957L19.9576 7.71239C19.7567 7.91326 19.4596 7.98341 19.1901 7.89357L17.5792 7.35663L15.9615 8.97438C15.6686 9.26727 15.1937 9.26727 14.9008 8.97438C14.6079 8.68148 14.6079 8.20661 14.9008 7.91372L16.5185 6.29603L15.9815 4.685C15.8917 4.4155 15.9618 4.11838 16.1627 3.9175L17.9855 2.09468C18.1693 1.91088 18.4352 1.83536 18.6881 1.89508Z" fill="#000000"/><path d="M11.25 8.56018C11.25 6.61298 12.6192 4.98557 14.4473 4.58812C14.4593 4.77989 14.496 4.97185 14.5585 5.15934L14.8511 6.03716C13.6559 6.25545 12.75 7.30202 12.75 8.56018C12.75 9.9767 13.8984 11.125 15.3149 11.125C16.573 11.125 17.6196 10.2191 17.8379 9.024L18.7157 9.3166C18.9032 9.3791 19.0952 9.41578 19.2869 9.42776C18.8895 11.2559 17.2621 12.625 15.3149 12.625C13.0699 12.625 11.25 10.8051 11.25 8.56018Z" fill="#000000"/></svg>