<svg width="80" height="80" viewBox="0 0 24 24" fill="none" xmlns="http://www.w3.org/2000/svg" transform="rotate(0 0 0)"><path d="M17.25 11.5C17.6642 11.5 18 11.8358 18 12.25C18.0002 14.0447 19.4553 15.4998 21.25 15.5C21.6642 15.5 22 15.8358 22 16.25C21.9999 16.6641 21.6642 17 21.25 17C19.4551 17.0002 18 18.4551 18 20.25C18 20.6642 17.6642 21 17.25 21C16.8359 20.9999 16.5 20.6642 16.5 20.25C16.5 18.455 15.045 17 13.25 17C12.8358 17 12.5001 16.6641 12.5 16.25C12.5 15.8358 12.8358 15.5 13.25 15.5C15.0449 15.5 16.4998 14.0449 16.5 12.25C16.5 11.8358 16.8359 11.5001 17.25 11.5Z" fill="#000000"/><path d="M12 3.3125C13.3132 3.3125 14.6139 3.57069 15.8271 4.07324C17.0404 4.57579 18.1427 5.31265 19.0713 6.24121C19.9998 7.16977 20.7367 8.27214 21.2393 9.48535C21.7418 10.6986 22 11.9993 22 13.3125C22 13.5819 21.9865 13.8505 21.9648 14.1182C21.81 14.0663 21.6483 14.0288 21.4805 14.0117L21.25 14C20.9743 13.9998 20.7144 13.934 20.4824 13.8203C20.4925 13.6514 20.5 13.4821 20.5 13.3125C20.5 12.1963 20.2797 11.0908 19.8525 10.0596C19.8064 9.94815 19.7578 9.83767 19.707 9.72852L18.6523 10.3379C18.61 10.3623 18.566 10.3811 18.5215 10.3965C18.2535 10.2123 17.9449 10.0842 17.6104 10.0303C17.4287 9.67687 17.5545 9.23898 17.9023 9.03809L18.957 8.42969C18.6752 8.02818 18.3593 7.65027 18.0107 7.30176C17.2215 6.51253 16.2841 5.88712 15.2529 5.45996C14.4534 5.12877 13.6092 4.92181 12.75 4.8457V6.0625C12.75 6.47671 12.4142 6.8125 12 6.8125C11.5858 6.8125 11.25 6.47671 11.25 6.0625V4.8457C10.3908 4.92181 9.54664 5.12877 8.74707 5.45996C7.7159 5.88712 6.77849 6.51253 5.98926 7.30176C5.64094 7.65008 5.32465 8.02745 5.04297 8.42871L6.09766 9.03809C6.45609 9.24526 6.57902 9.70391 6.37207 10.0625C6.16501 10.4211 5.70634 10.5438 5.34766 10.3369L4.29297 9.72852C4.24218 9.83773 4.19364 9.94808 4.14746 10.0596C3.7203 11.0908 3.5 12.1963 3.5 13.3125C3.5 14.4287 3.7203 15.5342 4.14746 16.5654C4.19359 16.6768 4.24127 16.7874 4.29199 16.8965L5.3457 16.2881C5.70436 16.0813 6.1631 16.2049 6.37012 16.5635C6.57681 16.9221 6.45418 17.3808 6.0957 17.5879L4.36328 18.5879C4.00472 18.7948 3.54606 18.6718 3.33887 18.3135C3.33173 18.3011 3.32472 18.288 3.31836 18.2754C3.10929 17.9097 2.92264 17.5305 2.76074 17.1396C2.25819 15.9264 2 14.6257 2 13.3125C2 11.9993 2.25819 10.6986 2.76074 9.48535C3.26329 8.27214 4.00015 7.16977 4.92871 6.24121C5.85727 5.31265 6.95964 4.57579 8.17285 4.07324C9.38611 3.5707 10.6868 3.3125 12 3.3125Z" fill="#000000"/><path d="M12 8.43848C12.2781 8.43848 12.5342 8.5919 12.6641 8.83789L12.665 8.84082L12.6689 8.84766L12.6826 8.87402L12.7334 8.97168C12.777 9.05594 12.8389 9.17681 12.9131 9.32422C13.0614 9.61881 13.2599 10.0229 13.459 10.4551C13.657 10.885 13.861 11.3538 14.0166 11.7773C14.1587 12.1644 14.3057 12.6276 14.3057 12.9932C14.3056 13.2506 14.2605 13.4973 14.1826 13.7285C13.9598 13.8694 13.7043 13.9633 13.4287 13.9912L13.25 14C12.3968 14.0006 11.6535 14.4771 11.2725 15.1787C10.3565 14.8738 9.69539 14.0115 9.69531 12.9932C9.69531 12.6276 9.84225 12.1644 9.98438 11.7773C10.1399 11.3538 10.3439 10.885 10.542 10.4551C10.7411 10.0229 10.9396 9.61881 11.0879 9.32422C11.1621 9.17687 11.224 9.05591 11.2676 8.97168L11.3184 8.87402L11.332 8.84766L11.3359 8.84082L11.3369 8.83789C11.4667 8.592 11.722 8.43859 12 8.43848Z" fill="#000000"/></svg>