<svg width="80" height="80" viewBox="0 0 24 24" fill="none" xmlns="http://www.w3.org/2000/svg" transform="rotate(0 0 0)"><path d="M4.75 4C4.75 3.58579 4.41422 3.25 4 3.25C3.58579 3.25 3.25 3.58579 3.25 4L3.25 18.5C3.25 19.7426 4.25736 20.75 5.5 20.75L18.5 20.75C19.7426 20.75 20.75 19.7426 20.75 18.5L20.75 4C20.75 3.58579 20.4142 3.25 20 3.25C19.5858 3.25 19.25 3.58579 19.25 4L19.25 18.5C19.25 18.9142 18.9142 19.25 18.5 19.25L5.5 19.25C5.08579 19.25 4.75 18.9142 4.75 18.5L4.75 4Z" fill="#000000"/><path d="M7.5 3.25C7.08579 3.25 6.75 3.58579 6.75 4C6.75 4.41421 7.08579 4.75 7.5 4.75L16.5 4.75C16.9142 4.75 17.25 4.41422 17.25 4C17.25 3.58579 16.9142 3.25 16.5 3.25L7.5 3.25Z" fill="#000000"/><path d="M8.375 6.75C7.4085 6.75 6.625 7.5335 6.625 8.5L6.625 9.5C6.625 10.4665 7.4085 11.25 8.375 11.25L15.625 11.25C16.5915 11.25 17.375 10.4665 17.375 9.50001V8.50001C17.375 7.53351 16.5915 6.75001 15.625 6.75001L8.375 6.75Z" fill="#000000"/></svg>