<svg width="80" height="80" viewBox="0 0 24 25" fill="none" xmlns="http://www.w3.org/2000/svg" transform="rotate(0 0 0)"><path d="M2 7.36719C2 6.12455 3.00736 5.11719 4.25 5.11719H19.7501C20.9927 5.11719 22.0001 6.12455 22.0001 7.36719V17.8672C22.0001 19.1098 20.9927 20.1172 19.7501 20.1172H4.25C3.00736 20.1172 2 19.1098 2 17.8672V7.36719ZM6.44136 8.44141C5.99953 8.44141 5.64136 8.79958 5.64136 9.24141C5.64136 9.68323 5.99953 10.0414 6.44136 10.0414H6.45136C6.89319 10.0414 7.25136 9.68323 7.25136 9.24141C7.25136 8.79958 6.89319 8.44141 6.45136 8.44141H6.44136ZM5.6394 12.6164C5.6394 13.0582 5.99758 13.4164 6.4394 13.4164H6.4494C6.89123 13.4164 7.2494 13.0582 7.2494 12.6164C7.2494 12.1746 6.89123 11.8164 6.4494 11.8164H6.4394C5.99758 11.8164 5.6394 12.1746 5.6394 12.6164ZM9.34448 9.24141C9.34448 9.68323 9.70265 10.0414 10.1445 10.0414H10.1545C10.5963 10.0414 10.9545 9.68323 10.9545 9.24141C10.9545 8.79958 10.5963 8.44141 10.1545 8.44141H10.1445C9.70265 8.44141 9.34448 8.79958 9.34448 9.24141ZM9.35815 12.6164C9.35815 13.0582 9.71633 13.4164 10.1582 13.4164H10.1682C10.61 13.4164 10.9682 13.0582 10.9682 12.6164C10.9682 12.1746 10.61 11.8164 10.1682 11.8164H10.1582C9.71633 11.8164 9.35815 12.1746 9.35815 12.6164ZM7.24995 15.9914C7.24995 16.4056 7.58574 16.7414 7.99995 16.7414H16C16.4142 16.7414 16.75 16.4056 16.75 15.9914C16.75 15.5772 16.4142 15.2414 16 15.2414H7.99995C7.58574 15.2414 7.24995 15.5772 7.24995 15.9914ZM13.0457 9.24141C13.0457 9.68323 13.4038 10.0414 13.8457 10.0414H13.8557C14.2975 10.0414 14.6557 9.68323 14.6557 9.24141C14.6557 8.79958 14.2975 8.44141 13.8557 8.44141H13.8457C13.4038 8.44141 13.0457 8.79958 13.0457 9.24141ZM16.7478 9.24141C16.7478 9.68323 17.106 10.0414 17.5478 10.0414H17.5578C17.9996 10.0414 18.3578 9.68323 18.3578 9.24141C18.3578 8.79958 17.9996 8.44141 17.5578 8.44141H17.5478C17.106 8.44141 16.7478 8.79958 16.7478 9.24141ZM13.0369 12.6164C13.0369 13.0582 13.395 13.4164 13.8369 13.4164H13.8469C14.2887 13.4164 14.6469 13.0582 14.6469 12.6164C14.6469 12.1746 14.2887 11.8164 13.8469 11.8164H13.8369C13.395 11.8164 13.0369 12.1746 13.0369 12.6164ZM16.7556 12.6164C16.7556 13.0582 17.1138 13.4164 17.5556 13.4164H17.5656C18.0074 13.4164 18.3656 13.0582 18.3656 12.6164C18.3656 12.1746 18.0074 11.8164 17.5656 11.8164H17.5556C17.1138 11.8164 16.7556 12.1746 16.7556 12.6164Z" fill="#000000"/></svg>