<svg width="80" height="80" viewBox="0 0 24 25" fill="none" xmlns="http://www.w3.org/2000/svg" transform="rotate(0 0 0)"><path d="M6.75 2.5C5.50736 2.5 4.5 3.50736 4.5 4.75V19.5C4.5 21.1569 5.84315 22.5 7.5 22.5H18.75C19.1642 22.5 19.5 22.1642 19.5 21.75C19.5 21.3358 19.1642 21 18.75 21H18V18H18.75C19.1642 18 19.5 17.6642 19.5 17.25V4.75C19.5 3.50736 18.4926 2.5 17.25 2.5H6.75ZM7.5 21C6.67157 21 6 20.3284 6 19.5C6 18.6716 6.67157 18 7.5 18H16.5V21H7.5ZM8.625 5.875H15.375C15.7892 5.875 16.125 6.21079 16.125 6.625V9.875C16.125 10.2892 15.7892 10.625 15.375 10.625H8.625C8.21079 10.625 7.875 10.2892 7.875 9.875V6.625C7.875 6.21079 8.21079 5.875 8.625 5.875Z" fill="#000000"/></svg>