<svg width="80" height="80" viewBox="0 0 24 24" fill="none" xmlns="http://www.w3.org/2000/svg" transform="rotate(0 0 0)"><path d="M10.3778 4.5C9.97456 5.37473 9.74963 6.3486 9.74963 7.375C9.74963 11.172 12.8277 14.25 16.6246 14.25C18.8005 14.25 20.7403 13.2392 22 11.6616V15.3438C22 16.5864 20.9926 17.5938 19.75 17.5938H12.75V19.25H15C15.4142 19.25 15.75 19.5858 15.75 20C15.75 20.4142 15.4142 20.75 15 20.75H9.00003C8.58582 20.75 8.25003 20.4142 8.25003 20C8.25003 19.5858 8.58582 19.25 9.00003 19.25H11.25V17.5938H4.25C3.00736 17.5938 2 16.5864 2 15.3438V6.75C2 5.50736 3.00736 4.5 4.25 4.5H10.3778Z" fill="#000000"/><path d="M15.914 2.04724C17.0392 1.89708 18.1831 2.107 19.1817 2.64692C20.166 3.17907 20.9593 4.00485 21.4515 5.00871C21.5045 5.1033 21.5375 5.21053 21.5449 5.32473C21.5656 5.62249 21.4062 5.91645 21.1206 6.05327C20.9956 6.11317 20.8622 6.13536 20.7334 6.12435H19.0637C18.6495 6.12435 18.3137 5.78857 18.3137 5.37435C18.3137 4.96014 18.6495 4.62435 19.0637 4.62435H19.3547C19.0937 4.36544 18.7957 4.1434 18.4683 3.96641C17.7484 3.57715 16.9236 3.4258 16.1124 3.53406C15.3011 3.64233 14.5449 4.00464 13.9522 4.56908C13.5177 4.98288 13.1874 5.48974 12.9839 6.04803C12.842 6.43718 12.4115 6.63762 12.0223 6.49572C11.6332 6.35383 11.4327 5.92333 11.5746 5.53418C11.857 4.75985 12.3151 4.05681 12.9178 3.48284C13.7399 2.69995 14.7887 2.19741 15.914 2.04724ZM21.2275 8.25359C21.6167 8.39529 21.8174 8.82569 21.6757 9.21491C21.3934 9.99023 20.9349 10.6942 20.3316 11.2687C19.5095 12.0516 18.4607 12.5542 17.3354 12.7043C16.2102 12.8545 15.0663 12.6446 14.0676 12.1047C13.069 11.5647 12.267 10.7225 11.7764 9.69877C11.7185 9.57786 11.6959 9.44917 11.7044 9.32432C11.7295 8.93286 12.055 8.62313 12.4528 8.62313L14.1851 8.62313C14.5993 8.62313 14.9351 8.95892 14.9351 9.37313C14.9351 9.78735 14.5993 10.1231 14.1851 10.1231H13.8906C14.1525 10.3838 14.452 10.6073 14.7811 10.7852C15.501 11.1744 16.3257 11.3258 17.137 11.2175C17.9483 11.1093 18.7044 10.7469 19.2971 10.1825C19.7321 9.76827 20.0627 9.26076 20.2662 8.70176C20.4079 8.31254 20.8383 8.11189 21.2275 8.25359Z" fill="#000000"/></svg>