<svg width="80" height="80" viewBox="0 0 24 25" fill="none" xmlns="http://www.w3.org/2000/svg" transform="rotate(0 0 0)"><path d="M3.25 5.89062C3.25 4.64798 4.25736 3.64062 5.5 3.64062H18.5C19.7426 3.64062 20.75 4.64798 20.75 5.89062V18.8906C20.75 20.1333 19.7426 21.1406 18.5 21.1406H5.5C4.25736 21.1406 3.25 20.1333 3.25 18.8906V5.89062ZM12.7504 8.95137C12.7504 8.53716 12.4146 8.20137 12.0004 8.20137C11.5861 8.20137 11.2504 8.53716 11.2504 8.95137V13.1709C11.2504 13.5851 11.5861 13.9209 12.0004 13.9209C12.4146 13.9209 12.7504 13.5851 12.7504 13.1709V8.95137ZM11.9994 14.8209C11.5023 14.8209 11.0994 15.2239 11.0994 15.7209C11.0994 16.218 11.5031 16.6209 12.0001 16.6209C12.4972 16.6209 12.9001 16.218 12.9001 15.7209C12.9001 15.2239 12.4965 14.8209 11.9994 14.8209Z" fill="#000000"/></svg>