<svg width="80" height="80" viewBox="0 0 25 24" fill="none" xmlns="http://www.w3.org/2000/svg" transform="rotate(0 0 0)"><path d="M13.8125 6.625C12.5699 6.625 11.5625 7.63236 11.5625 8.875V11.25H3.0625C2.64829 11.25 2.3125 11.5858 2.3125 12C2.3125 12.4142 2.64829 12.75 3.0625 12.75H11.5625V15.125C11.5625 16.3676 12.5699 17.375 13.8125 17.375H14.8125C16.0551 17.375 17.0625 16.3676 17.0625 15.125L17.0625 12.75H21.5625C21.9767 12.75 22.3125 12.4142 22.3125 12C22.3125 11.5858 21.9767 11.25 21.5625 11.25H17.0625L17.0625 8.875C17.0625 7.63236 16.0551 6.625 14.8125 6.625H13.8125Z" fill="#000000"/></svg>