<svg width="80" height="80" viewBox="0 0 24 24" fill="none" xmlns="http://www.w3.org/2000/svg" transform="rotate(0 0 0)"><path d="M5.25 1.625C5.87132 1.625 6.375 2.12868 6.375 2.75V4.125L17.625 4.125V2.75C17.625 2.12868 18.1287 1.625 18.75 1.625C19.3713 1.625 19.875 2.12868 19.875 2.75V4.125L21.25 4.125C21.8713 4.125 22.375 4.62868 22.375 5.25C22.375 5.87132 21.8713 6.375 21.25 6.375L19.875 6.375V17.625H21.25C21.8713 17.625 22.375 18.1287 22.375 18.75C22.375 19.3713 21.8713 19.875 21.25 19.875H19.875V21.25C19.875 21.8713 19.3713 22.375 18.75 22.375C18.1287 22.375 17.625 21.8713 17.625 21.25V19.875L6.375 19.875V21.25C6.375 21.8713 5.87132 22.375 5.25 22.375C4.62868 22.375 4.125 21.8713 4.125 21.25V19.875H2.75C2.12868 19.875 1.625 19.3713 1.625 18.75C1.625 18.1287 2.12868 17.625 2.75 17.625H4.125L4.125 6.375H2.75C2.12868 6.375 1.625 5.87132 1.625 5.25C1.625 4.62868 2.12868 4.125 2.75 4.125H4.125V2.75C4.125 2.12868 4.62868 1.625 5.25 1.625ZM6.375 6.375V17.625L17.625 17.625V6.375L6.375 6.375Z" fill="#000000"/></svg>