<svg width="80" height="80" viewBox="0 0 24 24" fill="none" xmlns="http://www.w3.org/2000/svg" transform="rotate(0 0 0)"><path d="M6.375 2.75C6.375 2.12868 5.87132 1.625 5.25 1.625C4.62868 1.625 4.125 2.12868 4.125 2.75V4.125H2.75C2.12868 4.125 1.625 4.62868 1.625 5.25C1.625 5.87132 2.12868 6.375 2.75 6.375L4.125 6.375L4.125 17.625H2.75C2.12868 17.625 1.625 18.1287 1.625 18.75C1.625 19.3713 2.12868 19.875 2.75 19.875H4.125V21.25C4.125 21.8713 4.62868 22.375 5.25 22.375C5.87132 22.375 6.375 21.8713 6.375 21.25V19.875L17.625 19.875V21.25C17.625 21.8713 18.1287 22.375 18.75 22.375C19.3713 22.375 19.875 21.8713 19.875 21.25V19.875H21.25C21.8713 19.875 22.375 19.3713 22.375 18.75C22.375 18.1287 21.8713 17.625 21.25 17.625H19.875V6.375H21.25C21.8713 6.375 22.375 5.87132 22.375 5.25C22.375 4.62868 21.8713 4.125 21.25 4.125L19.875 4.125V2.75C19.875 2.12868 19.3713 1.625 18.75 1.625C18.1287 1.625 17.625 2.12868 17.625 2.75V4.125L6.375 4.125V2.75ZM6.375 11.4904V6.375L17.625 6.375V13.9373L16.6937 12.8454C15.8854 11.8976 14.4167 11.9113 13.6263 12.874L12.3954 14.3732L10.4984 10.7094C9.80807 9.37618 7.94964 9.25056 7.08619 10.4787L6.375 11.4904Z" fill="#000000"/></svg>