<svg width="80" height="80" viewBox="0 0 24 25" fill="none" xmlns="http://www.w3.org/2000/svg" transform="rotate(0 0 0)"><path d="M13.6285 8.56308C12.9636 7.21595 11.0426 7.21595 10.3778 8.56308L9.39196 10.5606C9.34645 10.6528 9.25846 10.7168 9.15667 10.7315L6.95228 11.0519C5.46563 11.2679 4.87202 13.0948 5.94777 14.1434L7.54288 15.6983C7.61653 15.7701 7.65014 15.8735 7.63276 15.9749L7.2562 18.1704C7.00225 19.651 8.55635 20.7801 9.88605 20.0811L11.8577 19.0445C11.9487 18.9966 12.0575 18.9966 12.1485 19.0445L14.1202 20.0811C15.4499 20.7801 17.004 19.651 16.7501 18.1704L16.3735 15.9749C16.3561 15.8735 16.3897 15.7701 16.4634 15.6983L18.0585 14.1434C19.1342 13.0948 18.5406 11.2679 17.054 11.0519L14.8496 10.7315C14.7478 10.7168 14.6598 10.6528 14.6143 10.5606L13.6285 8.56308Z" fill="#000000"/><path d="M7.2209 5.77786C6.67948 4.68082 5.11513 4.68082 4.57371 5.77786L3.90566 7.13147L2.41186 7.34853C1.20121 7.52445 0.717796 9.01223 1.59384 9.86616L2.67476 10.9198L2.41959 12.4076C2.23909 13.4599 3.1802 14.2942 4.14249 14.111C3.36165 12.2287 4.49232 9.8954 6.73577 9.56941L8.32234 9.33886L9.03187 7.90119C9.13113 7.70007 9.2457 7.51539 9.37309 7.34713L7.88895 7.13147L7.2209 5.77786Z" fill="#000000"/><path d="M19.8619 14.1115C20.6432 12.2291 19.5125 9.89543 17.2689 9.56941L15.6823 9.33886L14.9727 7.90119C14.8734 7.69992 14.7587 7.5151 14.6312 7.34674L16.1127 7.13147L16.7807 5.77786C17.3222 4.68082 18.8865 4.68082 19.4279 5.77786L20.096 7.13147L21.5898 7.34853C22.8004 7.52445 23.2838 9.01223 22.4078 9.86616L21.3269 10.9198L21.5821 12.4076C21.7624 13.4589 20.8232 14.2927 19.8619 14.1115Z" fill="#000000"/></svg>