<svg width="80" height="80" viewBox="0 0 25 24" fill="none" xmlns="http://www.w3.org/2000/svg" transform="rotate(0 0 0)"><path d="M12.5016 1.10156C12.9986 1.10156 13.4016 1.50451 13.4016 2.00156C13.4016 2.49862 12.9986 2.90166 12.5016 2.90166C12.0045 2.90166 11.6016 2.49872 11.6016 2.00166C11.6016 1.50461 12.0045 1.10156 12.5016 1.10156Z" fill="#000000"/><path d="M6.06667 4.29388C5.7152 3.94241 5.14535 3.94241 4.79388 4.29388C4.44241 4.64535 4.44241 5.2152 4.79388 5.56667C5.14535 5.91814 5.71527 5.91821 6.06674 5.56674C6.41821 5.21527 6.41814 4.64535 6.06667 4.29388Z" fill="#000000"/><path d="M1.60156 12.0016C1.60156 11.5045 2.00451 11.1016 2.50156 11.1016C2.99862 11.1016 3.40166 11.5045 3.40166 12.0016C3.40166 12.4986 2.99872 12.9016 2.50166 12.9016C2.00461 12.9016 1.60156 12.4986 1.60156 12.0016Z" fill="#000000"/><path d="M20.2092 4.29388C20.5607 4.64535 20.5607 5.2152 20.2092 5.56667C19.8578 5.91814 19.2879 5.91821 18.9364 5.56674C18.5849 5.21527 18.585 4.64535 18.9365 4.29388C19.2879 3.94241 19.8578 3.94241 20.2092 4.29388Z" fill="#000000"/><path d="M17.9816 17.4816C21.0082 14.4551 21.0082 9.54805 17.9816 6.52149C14.9551 3.49492 10.048 3.49492 7.02148 6.52149C3.99492 9.54805 3.99492 14.4551 7.02148 17.4816C10.048 20.5082 14.9551 20.5082 17.9816 17.4816ZM13.7388 9.70365L14.7995 8.64299C15.0924 8.3501 15.5672 8.3501 15.8601 8.64299C16.153 8.93589 16.153 9.41076 15.8601 9.70365L14.7995 10.7643C14.5066 11.0572 14.0317 11.0572 13.7388 10.7643C13.4459 10.4714 13.4459 9.99655 13.7388 9.70365Z" fill="#000000"/><path d="M22.5016 11.1016C22.0045 11.1016 21.6016 11.5045 21.6016 12.0016C21.6016 12.4986 22.0045 12.9016 22.5016 12.9016C22.9986 12.9016 23.4017 12.4986 23.4017 12.0016C23.4017 11.5045 22.9986 11.1016 22.5016 11.1016Z" fill="#000000"/></svg>