<svg width="80" height="80" viewBox="0 0 24 24" fill="none" xmlns="http://www.w3.org/2000/svg" transform="rotate(0 0 0)"><path d="M11.2499 3.25586H7.87725C7.0644 3.25586 6.31475 3.69428 5.91623 4.40272L3.56133 8.58896H11.2499V3.25586Z" fill="#000000"/><path d="M3.25 10.089V18.505C3.25 19.7477 4.25736 20.755 5.5 20.755H12.6205L11.471 19.6062C10.592 18.7278 10.5916 17.3032 11.47 16.4242C12.2616 15.6321 13.4968 15.5535 14.3765 16.1886V12.332C14.3765 11.1493 15.2891 10.1797 16.4486 10.089H3.25Z" fill="#000000"/><path d="M18.0838 4.40272L20.4387 8.58896H12.7499V3.25586H16.1228C16.9356 3.25586 17.6852 3.69428 18.0838 4.40272Z" fill="#000000"/><path d="M20.719 17.4847C21.0118 17.7777 21.0116 18.2525 20.7186 18.5453L17.1991 22.0623C17.0616 22.2248 16.8561 22.328 16.6265 22.328C16.4116 22.328 16.2178 22.2376 16.0811 22.0928L12.5313 18.5453C12.2383 18.2525 12.2382 17.7776 12.531 17.4846C12.8238 17.1917 13.2987 17.1915 13.5916 17.4843L15.8765 19.7677L15.8765 12.3322C15.8765 11.9179 16.2123 11.5822 16.6265 11.5822C17.0407 11.5822 17.3765 11.9179 17.3765 12.3322L17.3765 19.7645L19.6583 17.4843C19.9513 17.1915 20.4262 17.1917 20.719 17.4847Z" fill="#000000"/></svg>