<svg width="80" height="80" viewBox="0 0 24 24" fill="none" xmlns="http://www.w3.org/2000/svg" transform="rotate(0 0 0)"><path d="M11.2499 3.25586H7.87725C7.0644 3.25586 6.31475 3.69428 5.91623 4.40272L3.56133 8.58896H11.2499V3.25586Z" fill="#000000"/><path d="M3.25 10.089V18.505C3.25 19.7477 4.25736 20.755 5.5 20.755H14.3735V17.7257C13.494 18.3585 12.2607 18.2791 11.47 17.4879C10.5916 16.6089 10.5921 15.1842 11.4711 14.3059L14.9581 10.8213C15.3388 10.4024 15.8755 10.1277 16.4764 10.089H3.25Z" fill="#000000"/><path d="M16.7706 10.089C17.3465 10.1261 17.8634 10.38 18.2406 10.7698L20.75 13.2776V10.089H16.7706Z" fill="#000000"/><path d="M18.0838 4.40272L20.4387 8.58896H12.7499V3.25586H16.1228C16.9356 3.25586 17.6852 3.69428 18.0838 4.40272Z" fill="#000000"/><path d="M12.531 16.4274C12.2382 16.1344 12.2383 15.6596 12.5313 15.3668L16.0508 11.8498C16.1884 11.6873 16.3939 11.5841 16.6235 11.5841C16.8384 11.5841 17.0322 11.6745 17.1689 11.8193L20.7187 15.3668C21.0116 15.6596 21.0118 16.1345 20.719 16.4275C20.4262 16.7204 19.9513 16.7206 19.6583 16.4278L17.3735 14.1444L17.3735 21.58C17.3735 21.9942 17.0377 22.33 16.6235 22.33C16.2093 22.33 15.8735 21.9942 15.8735 21.58V14.1476L13.5916 16.4278C13.2986 16.7206 12.8238 16.7204 12.531 16.4274Z" fill="#000000"/></svg>