<svg width="80" height="80" viewBox="0 0 24 24" fill="none" xmlns="http://www.w3.org/2000/svg" transform="rotate(0 0 0)"><path d="M2 5.70117C2 4.45853 3.00736 3.45117 4.25 3.45117H19.75C20.9926 3.45117 22 4.45853 22 5.70117V11.9512H2V5.70117Z" fill="#000000"/><path d="M2 13.4512V15.2868C2 16.5294 3.00736 17.5368 4.25 17.5368H9.75003V19.049H8.74997C8.33576 19.049 7.99997 19.3847 7.99997 19.799C7.99997 20.2132 8.33576 20.549 8.74997 20.549H15.25C15.6642 20.549 16 20.2132 16 19.799C16 19.3847 15.6642 19.049 15.25 19.049H14.25V17.5368H19.75C20.9926 17.5368 22 16.5294 22 15.2868V13.4512H2Z" fill="#000000"/></svg>