<svg width="80" height="80" viewBox="0 0 24 25" fill="none" xmlns="http://www.w3.org/2000/svg" transform="rotate(0 0 0)"><path d="M3.25 6.45331C3.25 5.21067 4.25736 4.20331 5.5 4.20331H18.4985C19.7412 4.20331 20.7485 5.21067 20.7485 6.45331L20.7485 9.20331H3.25V6.45331Z" fill="#000000"/><path d="M11.125 21.7033H5.5C4.25736 21.7033 3.25 20.6959 3.25 19.4533V10.7033H16.6249C16.178 10.7033 15.7298 10.7469 15.2868 10.8348C13.8778 11.1144 12.5918 11.8283 11.6094 12.8763C10.6269 13.9242 9.99743 15.2536 9.80925 16.6777C9.62107 18.1018 9.88368 19.549 10.5602 20.8162C10.7263 21.1273 10.9153 21.4237 11.125 21.7033Z" fill="#000000"/><path d="M17.4978 22.882C16.3897 23.0643 15.2522 22.895 14.2453 22.3978C13.2383 21.9006 12.4123 21.1004 11.8834 20.1097C11.3545 19.119 11.1492 17.9875 11.2963 16.8742C11.4434 15.7608 11.9356 14.7215 12.7037 13.9022C13.4718 13.0829 14.4772 12.5247 15.5788 12.3061C16.6803 12.0875 17.8227 12.2195 18.8455 12.6834C19.4698 12.9666 20.0303 13.3648 20.5 13.8534V13.8005C20.5 13.3863 20.8358 13.0505 21.25 13.0505C21.6642 13.0505 22 13.3863 22 13.8005V15.8005C22 16.2147 21.6642 16.5505 21.25 16.5505H19.25C18.8358 16.5505 18.5 16.2147 18.5 15.8005C18.5 15.3863 18.8358 15.0505 19.25 15.0505H19.562C19.1965 14.6258 18.7413 14.2832 18.2258 14.0494C17.4885 13.7149 16.6649 13.6198 15.8707 13.7774C15.0766 13.935 14.3518 14.3374 13.798 14.9281C13.2443 15.5187 12.8895 16.268 12.7834 17.0707C12.6773 17.8733 12.8254 18.6891 13.2067 19.4033C13.588 20.1175 14.1834 20.6944 14.9094 21.0528C15.6353 21.4113 16.4553 21.5334 17.2542 21.4019C18.0531 21.2704 18.7908 20.892 19.3636 20.3198C19.6566 20.0271 20.1315 20.0273 20.4242 20.3204C20.717 20.6134 20.7167 21.0883 20.4237 21.381C19.6291 22.1747 18.6059 22.6996 17.4978 22.882Z" fill="#000000"/></svg>