<svg width="80" height="80" viewBox="0 0 24 24" fill="none" xmlns="http://www.w3.org/2000/svg" transform="rotate(0 0 0)"><path d="M12.75 10.25V5.5C12.75 4.25736 11.7426 3.25 10.5 3.25H5.5C4.25736 3.25 3.25 4.25736 3.25 5.5V15.5C3.25 16.6581 4.12501 17.6119 5.25 17.7363L5.25 13.5C5.25 11.7051 6.70508 10.25 8.5 10.25L12.75 10.25Z" fill="#000000"/><path d="M8.5 11.25C7.25736 11.25 6.25 12.2574 6.25 13.5L6.25 18.5C6.25 19.7426 7.25736 20.75 8.5 20.75H18.5C19.7426 20.75 20.75 19.7426 20.75 18.5L20.75 13.5C20.75 13.4223 20.7461 13.3456 20.7384 13.27C20.6232 12.1354 19.665 11.25 18.5 11.25L8.5 11.25Z" fill="#000000"/><path d="M14.0519 3.96214C14.081 3.54896 14.4396 3.23763 14.8528 3.26678C16.1361 3.3573 17.3684 3.82259 18.3944 4.60986C19.178 5.21114 19.8114 5.97732 20.2538 6.84757L20.7011 5.74947C20.8574 5.36586 21.295 5.18156 21.6786 5.33782C22.0623 5.49408 22.2466 5.93174 22.0903 6.31534L20.905 9.22522C20.8299 9.40944 20.6848 9.55631 20.5014 9.6335C20.3181 9.7107 20.1116 9.71191 19.9274 9.63685L17.0178 8.4514C16.6342 8.29511 16.4499 7.85745 16.6062 7.47385C16.7625 7.09025 17.2002 6.90598 17.5838 7.06227L18.9651 7.62505C18.622 6.91285 18.1154 6.28644 17.4813 5.79989C16.6893 5.19214 15.7379 4.83294 14.7472 4.76306C14.3341 4.73391 14.0227 4.37533 14.0519 3.96214Z" fill="#000000"/></svg>