<svg width="80" height="80" viewBox="0 0 24 25" fill="none" xmlns="http://www.w3.org/2000/svg" transform="rotate(0 0 0)"><path d="M6.25417 4.5C6.25417 3.25736 7.26153 2.25 8.50417 2.25H15.5042C16.7468 2.25 17.7542 3.25736 17.7542 4.5V20C17.7542 21.2426 16.7468 22.25 15.5042 22.25H8.50417C7.26153 22.25 6.25417 21.2426 6.25417 20V4.5Z" fill="#000000"/><path d="M2.33846 5.90204C2.68326 5.67252 3.14885 5.76597 3.37838 6.11077L4.23776 7.40175C4.66462 8.04299 4.62197 8.88795 4.13271 9.48296L3.5569 10.1832C3.48103 10.2755 3.48103 10.4085 3.5569 10.5008L4.08112 11.1383C4.61217 11.7841 4.61218 12.7154 4.08112 13.3613L3.5569 13.9988C3.48103 14.0911 3.48103 14.2241 3.5569 14.3164L4.1327 15.0166C4.62197 15.6116 4.66461 16.4566 4.23773 17.0978L3.37837 18.3888C3.14884 18.7336 2.68325 18.827 2.33845 18.5975C1.99365 18.3679 1.90021 17.9023 2.12974 17.5575L2.9891 16.2666C3.05008 16.175 3.04399 16.0543 2.9741 15.9693L2.39829 15.2691C1.86724 14.6232 1.86724 13.6919 2.39829 13.0461L2.92251 12.4086C2.99838 12.3163 2.99838 12.1833 2.92251 12.091L2.39829 11.4535C1.86724 10.8076 1.86724 9.87636 2.39829 9.23053L2.9741 8.53026C3.044 8.44526 3.05009 8.32455 2.98911 8.23295L2.12973 6.94196C1.90021 6.59716 1.99366 6.13157 2.33846 5.90204Z" fill="#000000"/><path d="M20.6309 6.11077C20.8605 5.76597 21.3261 5.67252 21.6709 5.90204C22.0157 6.13157 22.1091 6.59716 21.8796 6.94196L21.0202 8.23295C20.9592 8.32455 20.9653 8.44526 21.0352 8.53026L21.611 9.23053C22.1421 9.87636 22.1421 10.8076 21.611 11.4535L21.0868 12.091C21.0109 12.1833 21.0109 12.3163 21.0868 12.4086L21.611 13.0461C22.1421 13.6919 22.1421 14.6232 21.611 15.2691L21.0352 15.9693C20.9653 16.0543 20.9592 16.175 21.0202 16.2666L21.8796 17.5575C22.1091 17.9023 22.0157 18.3679 21.6709 18.5975C21.3261 18.827 20.8605 18.7336 20.6309 18.3888L19.7716 17.0978C19.3447 16.4566 19.3874 15.6116 19.8766 15.0166L20.4524 14.3164C20.5283 14.2241 20.5283 14.0911 20.4524 13.9988L19.9282 13.3613C19.3971 12.7154 19.3971 11.7841 19.9282 11.1383L20.4524 10.5008C20.5283 10.4085 20.5283 10.2755 20.4524 10.1832L19.8766 9.48296C19.3874 8.88795 19.3447 8.04299 19.7716 7.40175L20.6309 6.11077Z" fill="#000000"/></svg>