<svg width="80" height="80" viewBox="0 0 24 24" fill="none" xmlns="http://www.w3.org/2000/svg" transform="rotate(0 0 0)"><path d="M5.75 3.25C5.33579 3.25 5 3.58579 5 4C5 4.41421 5.33579 4.75 5.75 4.75H13.25C13.6642 4.75 14 5.08579 14 5.5V16.75H10.2347C9.83938 15.5146 8.68165 14.6201 7.315 14.6201C5.94835 14.6201 4.79062 15.5146 4.39527 16.75H2.75C2.33579 16.75 2 17.0858 2 17.5C2 17.9142 2.33579 18.25 2.75 18.25H4.30195C4.56705 19.6729 5.81523 20.7501 7.315 20.7501C8.81477 20.7501 10.063 19.6729 10.3281 18.25H14.0519C14.317 19.6729 15.5652 20.7501 17.065 20.7501C18.5648 20.7501 19.813 19.6729 20.0781 18.25H22C22.4142 18.25 22.75 17.9142 22.75 17.5C22.75 17.0858 22.4142 16.75 22 16.75V12.4047C22 11.9553 21.8655 11.5163 21.6137 11.1441L19.0674 7.37945C18.6489 6.76072 17.9506 6.39003 17.2037 6.39003H15.5V5.5C15.5 4.25736 14.4926 3.25 13.25 3.25H5.75ZM19.8371 11.1948L15.5 11.1948V7.89003H17.2037C17.4527 7.89003 17.6854 8.01359 17.8249 8.21983L19.8371 11.1948ZM5.75 17.6851C5.75 16.8208 6.45067 16.1201 7.315 16.1201C8.17933 16.1201 8.88 16.8208 8.88 17.6851C8.88 18.5494 8.17933 19.2501 7.315 19.2501C6.45067 19.2501 5.75 18.5494 5.75 17.6851ZM15.5 17.6851C15.5 16.8208 16.2007 16.1201 17.065 16.1201C17.9293 16.1201 18.63 16.8208 18.63 17.6851C18.63 18.5494 17.9293 19.2501 17.065 19.2501C16.2007 19.2501 15.5 18.5494 15.5 17.6851Z" fill="#000000"/><path d="M3.5 7.75C3.5 7.33579 3.83579 7 4.25 7H8.75C9.16421 7 9.5 7.33579 9.5 7.75C9.5 8.16421 9.16421 8.5 8.75 8.5H4.25C3.83579 8.5 3.5 8.16421 3.5 7.75Z" fill="#000000"/><path d="M2.75 10.75C2.33579 10.75 2 11.0858 2 11.5C2 11.9142 2.33579 12.25 2.75 12.25H8.75C9.16421 12.25 9.5 11.9142 9.5 11.5C9.5 11.0858 9.16421 10.75 8.75 10.75H2.75Z" fill="#000000"/></svg>