<svg width="80" height="80" viewBox="0 0 24 25" fill="none" xmlns="http://www.w3.org/2000/svg" transform="rotate(0 0 0)"><path d="M19.7228 3.08128C19.8333 3.48047 19.5993 3.89369 19.2002 4.00424L8.26859 7.03144H19.75C20.9926 7.03144 22 8.0388 22 9.28144V17.5314C22 18.7741 20.9926 19.7814 19.75 19.7814H4.25C3.00736 19.7814 2 18.7741 2 17.5314V7.78144C2 7.44431 2.22494 7.14861 2.54984 7.05864L18.7998 2.55864C19.199 2.4481 19.6123 2.68209 19.7228 3.08128ZM8.375 10.4062C6.71815 10.4062 5.375 11.7494 5.375 13.4062C5.375 15.0631 6.71815 16.4062 8.375 16.4062C10.0319 16.4062 11.375 15.0631 11.375 13.4062C11.375 11.7494 10.0319 10.4062 8.375 10.4062ZM13.25 11.9062C13.25 12.3205 13.5858 12.6562 14 12.6562H18.25C18.6642 12.6562 19 12.3205 19 11.9062C19 11.492 18.6642 11.1562 18.25 11.1562H14C13.5858 11.1562 13.25 11.492 13.25 11.9062ZM13.25 14.9062C13.25 15.3205 13.5858 15.6562 14 15.6562H18.25C18.6642 15.6562 19 15.3205 19 14.9062C19 14.492 18.6642 14.1562 18.25 14.1562H14C13.5858 14.1562 13.25 14.492 13.25 14.9062Z" fill="#000000"/></svg>