<svg width="80" height="80" viewBox="0 0 24 25" fill="none" xmlns="http://www.w3.org/2000/svg" transform="rotate(0 0 0)"><path d="M6.38688 9.23329C6.45702 6.19302 8.94354 3.75 12.0007 3.75C15.0578 3.75 17.5444 6.19307 17.6144 9.23338C20.0688 9.42706 22.0001 11.4801 22.0001 13.9842C22.0001 16.2837 20.3716 18.2028 18.2049 18.6511V13.9199C18.2049 12.6773 17.1976 11.6699 15.9549 11.6699C15.225 11.6699 14.5763 12.0175 14.1652 12.5562C13.898 11.6118 13.0298 10.9199 11.9999 10.9199C10.7573 10.9199 9.74991 11.9273 9.74991 13.1699V13.2017C9.3373 12.723 8.7265 12.4199 8.04492 12.4199C6.80228 12.4199 5.79492 13.4273 5.79492 14.6699L5.79492 18.651C3.62842 18.2027 2 16.2836 2 13.9842C2 11.4797 3.93195 9.42638 6.38688 9.23329Z" fill="#000000"/><path d="M11.9999 12.4199C12.4141 12.4199 12.7499 12.7557 12.7499 13.1699V19.58C12.7499 19.9942 12.4141 20.33 11.9999 20.33C11.5857 20.33 11.2499 19.9942 11.2499 19.58V13.1699C11.2499 12.7557 11.5857 12.4199 11.9999 12.4199ZM15.9549 13.1699C16.3691 13.1699 16.7049 13.5057 16.7049 13.9199V20.33C16.7049 20.7442 16.3691 21.08 15.9549 21.08C15.5407 21.08 15.2049 20.7442 15.2049 20.33V13.9199C15.2049 13.5057 15.5407 13.1699 15.9549 13.1699ZM8.04492 13.9199C8.45914 13.9199 8.79492 14.2557 8.79492 14.6699V21.08C8.79492 21.4942 8.45914 21.83 8.04492 21.83C7.63071 21.83 7.29492 21.4942 7.29492 21.08V14.6699C7.29492 14.2557 7.63071 13.9199 8.04492 13.9199Z" fill="#000000"/></svg>