<svg width="80" height="80" viewBox="0 0 24 24" fill="none" xmlns="http://www.w3.org/2000/svg" transform="rotate(0 0 0)"><path d="M10 17.25V18.5C10 19.7426 11.0074 20.75 12.25 20.75L18.5 20.75C19.7426 20.75 20.75 19.7426 20.75 18.5L20.75 12.25C20.75 11.0074 19.7426 10 18.5 10H17.25V14C17.25 15.7949 15.7949 17.25 14 17.25H10Z" fill="#000000"/><path d="M3.25 5.5C3.25 4.25736 4.25736 3.25 5.5 3.25H14C15.2426 3.25 16.25 4.25736 16.25 5.5L16.25 14C16.25 15.2426 15.2426 16.25 14 16.25L5.5 16.25C4.25736 16.25 3.25 15.2426 3.25 14V5.5Z" fill="#000000"/></svg>