<svg width="80" height="80" viewBox="0 0 24 24" fill="none" xmlns="http://www.w3.org/2000/svg" transform="rotate(0 0 0)"><path d="M13.6025 4.5C13.18 4.88717 12.6183 5.125 12 5.125C10.8352 5.125 9.87714 6.01016 9.76172 7.14453L9.75 7.375C9.75 8.61764 10.7574 9.625 12 9.625L12.2432 9.6377C13.3606 9.75136 14.2486 10.6394 14.3623 11.7568L14.375 12C14.375 13.1648 15.2602 14.1229 16.3945 14.2383L16.625 14.25L16.8555 14.2383C17.9898 14.1229 18.875 13.1648 18.875 12L18.8877 11.7568C19.0095 10.5594 20.0204 9.625 21.25 9.625C21.5134 9.625 21.7651 9.57635 22 9.49316V15.3438C22 16.5864 20.9926 17.5938 19.75 17.5938H12.75V19.25H15C15.4142 19.25 15.75 19.5858 15.75 20C15.75 20.4142 15.4142 20.75 15 20.75H9C8.58579 20.75 8.25 20.4142 8.25 20C8.25 19.5858 8.58579 19.25 9 19.25H11.25V17.5938H4.25C3.00736 17.5938 2 16.5864 2 15.3438V6.75C2 5.50736 3.00736 4.5 4.25 4.5H13.6025Z" fill="#000000"/><path d="M16.625 2C17.0392 2 17.375 2.33579 17.375 2.75C17.375 4.8901 19.1099 6.625 21.25 6.625C21.6642 6.625 22 6.96079 22 7.375C22 7.78921 21.6642 8.125 21.25 8.125C19.1099 8.125 17.375 9.8599 17.375 12C17.375 12.4142 17.0392 12.75 16.625 12.75C16.2108 12.75 15.875 12.4142 15.875 12C15.875 9.8599 14.1401 8.125 12 8.125C11.5858 8.125 11.25 7.78921 11.25 7.375C11.25 6.96079 11.5858 6.625 12 6.625C14.1401 6.625 15.875 4.8901 15.875 2.75C15.875 2.33579 16.2108 2 16.625 2Z" fill="#000000"/></svg>