<svg width="80" height="80" viewBox="0 0 24 24" fill="none" xmlns="http://www.w3.org/2000/svg" transform="rotate(0 0 0)"><path d="M12.0002 2C10.3433 2 9.00017 3.34315 9.00017 5V5.38621L9.04952 5.36443C9.95533 4.96867 10.9545 4.75 12.0002 4.75C13.0458 4.75 14.045 4.96867 14.9508 5.36443L15.0002 5.38621V5C15.0002 3.34315 13.657 2 12.0002 2Z" fill="#000000"/><path d="M7.90402 7.23993C8.24128 6.95688 8.60843 6.70801 9.00017 6.49874C9.14672 6.42045 9.29672 6.3477 9.44989 6.28078C10.2318 5.93914 11.0949 5.75 12.0002 5.75C12.9054 5.75 13.7685 5.93914 14.5504 6.28079C14.7036 6.3477 14.8536 6.42045 15.0002 6.49874C15.3919 6.70801 15.7591 6.95688 16.0963 7.23993C16.246 7.36557 16.3898 7.49794 16.5273 7.63657C17.3261 8.44227 17.9122 9.46133 18.1919 10.6021C18.237 10.7859 18.2741 10.9727 18.3028 11.1622C18.3505 11.4765 18.3752 11.7981 18.3752 12.125V14.375C18.3752 14.8233 18.3288 15.2614 18.2404 15.6846C18.1987 15.8839 18.1478 16.0799 18.0879 16.2721C17.74 17.3897 17.0936 18.3741 16.2432 19.133C16.1063 19.2551 15.9641 19.3714 15.8169 19.4816C15.5715 19.6653 15.3123 19.8317 15.0412 19.9792C14.5287 20.2578 13.9734 20.4683 13.3877 20.5984L12.6097 21.6863C12.4689 21.8832 12.2417 22 11.9996 22C11.7576 22 11.5304 21.8832 11.3896 21.6863L10.6113 20.5981C10.0239 20.4675 9.46719 20.256 8.95348 19.9761C8.68439 19.8294 8.42711 19.664 8.1834 19.4816C8.03624 19.3714 7.89402 19.2551 7.75715 19.133C6.90675 18.3741 6.26036 17.3897 5.91242 16.2721C5.85258 16.0799 5.80161 15.8839 5.75997 15.6846C5.67156 15.2614 5.62517 14.8233 5.62517 14.375V12.125C5.62517 11.7981 5.64984 11.4765 5.69751 11.1622C5.72624 10.9727 5.76332 10.7859 5.80839 10.6021C6.08813 9.46133 6.67421 8.44227 7.47307 7.63657C7.61052 7.49794 7.75432 7.36557 7.90402 7.23993Z" fill="#000000"/><path d="M17.2374 6.93249C17.1632 6.85767 17.0874 6.78442 17.0101 6.7128C18.0808 6.11972 19.4336 6.49207 20.0481 7.55643C20.6694 8.63259 20.3007 10.0087 19.2246 10.63L19.2233 10.6307C19.2049 10.5412 19.1848 10.4523 19.1632 10.3639C18.8391 9.04254 18.1606 7.8636 17.2374 6.93249Z" fill="#000000"/><path d="M19.0427 16.5694C19.0799 16.4498 19.1142 16.329 19.1454 16.2071L19.2246 16.2528C20.3007 16.8741 20.6694 18.2502 20.0481 19.3264C19.4268 20.4025 18.0507 20.7713 16.9746 20.1499L16.7476 20.0189C16.8021 19.9731 16.8559 19.9265 16.909 19.8791C17.8917 19.0022 18.6397 17.8637 19.0427 16.5694Z" fill="#000000"/><path d="M7.09135 19.8791C7.14444 19.9265 7.19822 19.9731 7.25269 20.0189L7.02577 20.1499C5.94961 20.7713 4.57353 20.4025 3.95221 19.3264C3.33089 18.2502 3.69961 16.8741 4.77577 16.2528L4.85496 16.2071C4.88616 16.329 4.9204 16.4498 4.95762 16.5694C5.36059 17.8637 6.10866 19.0022 7.09135 19.8791Z" fill="#000000"/><path d="M4.83717 10.3639C4.8155 10.4523 4.79544 10.5412 4.777 10.6307L4.77577 10.63C3.69961 10.0087 3.33089 8.63259 3.95221 7.55643C4.56672 6.49207 5.91953 6.11972 6.99027 6.7128C6.91293 6.78442 6.83713 6.85767 6.76295 6.93249C5.83975 7.8636 5.1612 9.04254 4.83717 10.3639Z" fill="#000000"/></svg>