<svg width="80" height="80" viewBox="0 0 24 25" fill="none" xmlns="http://www.w3.org/2000/svg" transform="rotate(0 0 0)"><path d="M4.5 4.53125C4.5 3.28861 5.50736 2.28125 6.75 2.28125H17.25C18.4926 2.28125 19.5 3.28861 19.5 4.53125V20.0312C19.5 21.2739 18.4926 22.2812 17.25 22.2812H6.75C5.50736 22.2812 4.5 21.2739 4.5 20.0312V4.53125ZM10.125 7.53125C10.125 8.56678 10.9645 9.40625 12 9.40625C13.0355 9.40625 13.875 8.56678 13.875 7.53125C13.875 6.49572 13.0355 5.65625 12 5.65625C10.9645 5.65625 10.125 6.49572 10.125 7.53125ZM8.375 15.2812C8.375 17.2833 9.99797 18.9062 12 18.9062C14.002 18.9062 15.625 17.2833 15.625 15.2812C15.625 13.2792 14.002 11.6562 12 11.6562C9.99797 11.6562 8.375 13.2792 8.375 15.2812Z" fill="#000000"/></svg>