<svg width="80" height="80" viewBox="0 0 24 24" fill="none" xmlns="http://www.w3.org/2000/svg" transform="rotate(0 0 0)"><path d="M16 2C16.4142 2 16.75 2.33579 16.75 2.75V4.5H17.25C18.4926 4.5 19.5 5.50736 19.5 6.75V7.25H21.25C21.6642 7.25 22 7.58579 22 8C22 8.41421 21.6642 8.75 21.25 8.75H19.5V11.25H21.25C21.6642 11.25 22 11.5858 22 12C22 12.4142 21.6642 12.75 21.25 12.75H19.5V15.25H21.25C21.6642 15.25 22 15.5858 22 16C22 16.4142 21.6642 16.75 21.25 16.75H19.5V17.25C19.5 18.4926 18.4926 19.5 17.25 19.5H16.75V21.25C16.75 21.6642 16.4142 22 16 22C15.5858 22 15.25 21.6642 15.25 21.25V19.5H12.75V21.25C12.75 21.6642 12.4142 22 12 22C11.5858 22 11.25 21.6642 11.25 21.25V19.5H8.75V21.25C8.75 21.6642 8.41421 22 8 22C7.58579 22 7.25 21.6642 7.25 21.25V19.5H6.75C5.50737 19.5 4.5 18.4926 4.5 17.25V16.75H2.75C2.33579 16.75 2 16.4142 2 16C2 15.5858 2.33579 15.25 2.75 15.25H4.5V12.75H2.75C2.33579 12.75 2 12.4142 2 12C2 11.5858 2.33579 11.25 2.75 11.25H4.5V8.75H2.75C2.33579 8.75 2 8.41421 2 8C2 7.58579 2.33579 7.25 2.75 7.25H4.5V6.75C4.5 5.50737 5.50737 4.50002 6.75 4.5H7.25V2.75C7.25 2.33579 7.58579 2 8 2C8.41421 2 8.75 2.33579 8.75 2.75V4.5H11.25V2.75C11.25 2.33579 11.5858 2 12 2C12.4142 2.00001 12.75 2.33579 12.75 2.75V4.5H15.25V2.75C15.25 2.33579 15.5858 2 16 2ZM12 8C11.5858 8 11.25 8.33579 11.25 8.75C11.25 10.1307 10.1307 11.25 8.75 11.25C8.33579 11.25 8 11.5858 8 12C8 12.4142 8.33579 12.75 8.75 12.75C10.1307 12.75 11.25 13.8693 11.25 15.25C11.25 15.6642 11.5858 16 12 16C12.4142 16 12.75 15.6642 12.75 15.25C12.75 13.8693 13.8693 12.75 15.25 12.75C15.6642 12.75 16 12.4142 16 12C16 11.5858 15.6642 11.25 15.25 11.25C13.8693 11.25 12.75 10.1307 12.75 8.75C12.75 8.33579 12.4142 8 12 8Z" fill="#000000"/></svg>