<svg width="80" height="80" viewBox="0 0 24 24" fill="none" xmlns="http://www.w3.org/2000/svg" transform="rotate(0 0 0)"><path d="M3.25 4C3.25 3.58579 3.58579 3.25 4 3.25H20C20.4142 3.25 20.75 3.58579 20.75 4C20.75 4.41421 20.4142 4.75 20 4.75H18.75V6.00002C18.75 8.61223 17.2661 10.8779 15.0954 12C17.2661 13.1222 18.7499 15.3878 18.7499 18V19.25H20C20.4142 19.25 20.75 19.5858 20.75 20C20.75 20.4142 20.4142 20.75 20 20.75L4 20.75C3.58579 20.75 3.25 20.4142 3.25 20C3.25 19.5858 3.58579 19.25 4 19.25H5.24988L5.24988 18C5.24988 15.3878 6.73373 13.1221 8.90452 12C6.7338 10.8778 5.25 8.61218 5.25 6.00002V4.75H4C3.58579 4.75 3.25 4.41421 3.25 4ZM15.75 17.75C15.625 15.7962 13.9938 14.25 12 14.25C10.0062 14.25 8.37502 15.7962 8.25 17.75L15.75 17.75Z" fill="#000000"/></svg>