<svg width="80" height="80" viewBox="0 0 25 25" fill="none" xmlns="http://www.w3.org/2000/svg" transform="rotate(0 0 0)"><path d="M14.9952 5.12109H9.32831L9.32823 9.12109H14.9952V5.12109Z" fill="#000000"/><path d="M7.82831 5.12109H4.41211C3.16947 5.12109 2.16211 6.12845 2.16211 7.37109L2.16197 9.12109H7.82823L7.82831 5.12109Z" fill="#000000"/><path d="M2.16184 10.6211L2.16152 14.6211H7.82813L7.82821 10.6211H2.16184Z" fill="#000000"/><path d="M2.1614 16.1211L2.16113 19.3711C2.16113 19.7853 2.49692 20.1211 2.91113 20.1211H7.82802L7.8281 16.1211H2.1614Z" fill="#000000"/><path d="M9.32802 20.1211H14.9952V16.1211H9.3281L9.32802 20.1211Z" fill="#000000"/><path d="M16.4952 20.1211H21.4108C21.825 20.1211 22.1608 19.7853 22.1608 19.3711L22.1611 16.1211H16.4952V20.1211Z" fill="#000000"/><path d="M22.1612 14.6211L22.1615 10.6211H16.4952V14.6211H22.1612Z" fill="#000000"/><path d="M22.1616 9.12109L22.1618 7.37109C22.1618 6.12845 21.1544 5.12109 19.9118 5.12109H16.4952V9.12109H22.1616Z" fill="#000000"/><path d="M9.32813 14.6211L9.32821 10.6211H14.9952V14.6211H9.32813Z" fill="#000000"/></svg>