<svg width="80" height="80" viewBox="0 0 24 24" fill="none" xmlns="http://www.w3.org/2000/svg" transform="rotate(0 0 0)"><path d="M15.835 7.085C15.835 8.94636 14.509 10.498 12.75 10.8467V14.25H18.5C19.7426 14.25 20.75 15.2574 20.75 16.5V18.5C20.75 19.7426 19.7426 20.75 18.5 20.75H5.5C4.25736 20.75 3.25 19.7426 3.25 18.5V16.5C3.25 15.2574 4.25736 14.25 5.5 14.25H7.25V13.25C7.25 12.8358 7.58579 12.5 8 12.5C8.41421 12.5 8.75 12.8358 8.75 13.25V14.25H11.25V10.8467C9.49108 10.4979 8.16504 8.94633 8.16504 7.085C8.16504 4.96699 9.88203 3.25 12 3.25C14.1181 3.25 15.835 4.96699 15.835 7.085Z" fill="#000000"/></svg>