<svg width="80" height="80" viewBox="0 0 25 25" fill="none" xmlns="http://www.w3.org/2000/svg" transform="rotate(0 0 0)"><path d="M10.499 7.625H6.25C5.00736 7.625 4 8.63236 4 9.875V18.875C4 20.1176 5.00736 21.125 6.25 21.125H19.2509C20.4935 21.125 21.5009 20.1176 21.5009 18.875V9.875C21.5009 8.63236 20.4935 7.625 19.2509 7.625H14.999V10.81H16.0664C16.9765 10.81 17.7971 11.3583 18.1452 12.1993C18.4934 13.0403 18.3006 14.0082 17.6568 14.6515L14.3394 17.9665C13.4609 18.8445 12.0371 18.8445 11.1585 17.9665L7.8414 14.6515C7.19761 14.0081 7.00485 13.0402 7.35302 12.1993C7.70119 11.3583 8.52171 10.81 9.43188 10.81H10.499V7.625Z" fill="#000000"/><path d="M13.499 4.375C13.499 3.96079 13.1632 3.625 12.749 3.625C12.3348 3.625 11.999 3.96079 11.999 4.375V12.31H9.43191C9.12852 12.31 8.85501 12.4928 8.73895 12.7731C8.62289 13.0534 8.68715 13.376 8.90174 13.5905L12.2189 16.9055C12.5117 17.1982 12.9863 17.1982 13.2792 16.9055L16.5965 13.5905C16.8111 13.376 16.8754 13.0534 16.7593 12.7731C16.6433 12.4928 16.3698 12.31 16.0664 12.31H13.499V4.375Z" fill="#000000"/></svg>