<svg width="80" height="80" viewBox="0 0 25 25" fill="none" xmlns="http://www.w3.org/2000/svg" transform="rotate(0 0 0)"><path d="M10.6498 4.7679C11.4751 3.0956 13.8598 3.0956 14.6851 4.7679L16.0769 7.58792C16.1861 7.80928 16.3973 7.9627 16.6416 7.9982L19.7537 8.45041C21.5991 8.71858 22.336 10.9865 21.0006 12.2882L18.7487 14.4833C18.5719 14.6556 18.4913 14.9039 18.533 15.1471L19.0646 18.2466C19.3799 20.0847 17.4506 21.4863 15.8 20.6185L13.0165 19.1552C12.798 19.0403 12.5369 19.0403 12.3184 19.1552L9.53492 20.6185C7.88426 21.4863 5.95504 20.0847 6.27029 18.2466L6.80189 15.1471C6.84362 14.9039 6.76296 14.6556 6.58619 14.4833L4.33428 12.2882C2.99886 10.9865 3.73576 8.71858 5.58126 8.45041L8.69333 7.9982C8.93761 7.9627 9.14879 7.80928 9.25803 7.58792L10.6498 4.7679ZM12.6662 10.4442C13.1632 10.4442 13.5669 10.0412 13.5669 9.54418C13.5669 9.04712 13.164 8.64418 12.6669 8.64418C12.1699 8.64418 11.7662 9.04712 11.7662 9.54418C11.7662 10.0412 12.1691 10.4442 12.6662 10.4442ZM11.9169 16.3135C11.9169 16.7278 12.2527 17.0635 12.6669 17.0635C13.0811 17.0635 13.4169 16.7278 13.4169 16.3135V12.0892C13.4169 11.675 13.0811 11.3392 12.6669 11.3392C12.2527 11.3392 11.9169 11.675 11.9169 12.0892V16.3135Z" fill="#000000"/></svg>