<svg width="80" height="80" viewBox="0 0 24 24" fill="none" xmlns="http://www.w3.org/2000/svg" transform="rotate(0 0 0)"><path d="M10.219 4.50002H4.25C3.00736 4.50002 2 5.50737 2 6.75002V15.3438C2 16.5864 3.00736 17.5938 4.25 17.5938H11.25V19.25H9.00003C8.58582 19.25 8.25003 19.5858 8.25003 20C8.25003 20.4142 8.58582 20.75 9.00003 20.75H15C15.4142 20.75 15.75 20.4142 15.75 20C15.75 19.5858 15.4142 19.25 15 19.25H12.75V17.5938H19.75C20.9926 17.5938 22 16.5864 22 15.3438V10.9968C21.8595 11.0465 21.7126 11.0826 21.5608 11.1036C21.2564 11.5926 20.8426 12.0063 20.3536 12.3107C20.2019 13.4058 19.2619 14.249 18.125 14.249C17.5487 14.249 17.0231 14.0324 16.625 13.6761C16.2269 14.0324 15.7013 14.249 15.125 14.249C13.9881 14.249 13.0482 13.4058 12.8964 12.3107C12.4072 12.0062 11.9933 11.5923 11.6889 11.1031C10.5937 10.9514 9.75049 10.0114 9.75049 8.87454C9.75049 8.29827 9.96713 7.7726 10.3234 7.37453C9.96713 6.97646 9.75049 6.4508 9.75049 5.87454C9.75049 5.35695 9.92525 4.88017 10.219 4.50002Z" fill="#000000"/><path d="M15.875 2.75C15.875 2.33578 15.5392 2 15.125 2C14.7108 2 14.375 2.33579 14.375 2.75L14.375 3.43027C13.5338 3.62114 12.8716 4.28332 12.6808 5.12451L12.0005 5.12451C11.5863 5.12451 11.2505 5.4603 11.2505 5.87452C11.2505 6.28873 11.5863 6.62451 12.0005 6.62451L12.625 6.62451V8.12451L12.0005 8.12451C11.5863 8.12451 11.2505 8.4603 11.2505 8.87452C11.2505 9.28873 11.5863 9.62451 12.0005 9.62451L12.6808 9.62451C12.8716 10.4657 13.5338 11.1279 14.375 11.3188L14.375 11.999C14.375 12.4132 14.7108 12.749 15.125 12.749C15.5392 12.749 15.875 12.4132 15.875 11.999L15.875 11.3745H17.375L17.375 11.999C17.375 12.4132 17.7108 12.749 18.125 12.749C18.5392 12.749 18.875 12.4132 18.875 11.999L18.875 11.3188C19.716 11.1279 20.3781 10.466 20.5691 9.625L21.2495 9.62499C21.6637 9.62499 21.9995 9.2892 21.9995 8.87499C21.9995 8.46078 21.6637 8.12499 21.2495 8.12499L20.625 8.125V6.625L21.2495 6.62499C21.6637 6.62499 21.9995 6.2892 21.9995 5.87499C21.9995 5.46078 21.6637 5.12499 21.2495 5.12499L20.5694 5.125C20.3786 4.28358 19.7164 3.62118 18.875 3.43027L18.875 2.75C18.875 2.33578 18.5392 2 18.125 2C17.7108 2 17.375 2.33579 17.375 2.75L17.375 3.37451H15.875L15.875 2.75Z" fill="#000000"/></svg>