<svg width="80" height="80" viewBox="0 0 25 24" fill="none" xmlns="http://www.w3.org/2000/svg" transform="rotate(0 0 0)"><path d="M3.67188 5.5C3.67188 4.25736 4.67923 3.25 5.92188 3.25H18.9227C20.1654 3.25 21.1727 4.25736 21.1727 5.5V18.5C21.1727 19.7426 20.1654 20.75 18.9227 20.75H5.92188C4.67923 20.75 3.67188 19.7426 3.67188 18.5V5.5ZM12.4216 7.35059C12.0074 7.35059 11.6716 7.68637 11.6716 8.10059V11.5795H9.76858C9.46519 11.5795 9.19168 11.7623 9.07562 12.0426C8.95956 12.323 9.02382 12.6456 9.23842 12.86L11.8783 15.4982C12.0149 15.6418 12.2078 15.7312 12.4216 15.7312C12.6481 15.7312 12.8511 15.6308 12.9886 15.4721L15.6025 12.8601C15.8171 12.6456 15.8814 12.323 15.7654 12.0426C15.6493 11.7623 15.3758 11.5795 15.0724 11.5795H13.1716V8.10059C13.1716 7.68637 12.8358 7.35059 12.4216 7.35059Z" fill="#000000"/></svg>