<svg width="80" height="80" viewBox="0 0 25 25" fill="none" xmlns="http://www.w3.org/2000/svg" transform="rotate(0 0 0)"><path d="M3.90039 5.75V18.75C3.90039 19.9926 4.90775 21 6.15039 21H19.1489C20.3916 21 21.3989 19.9926 21.3989 18.75L21.3989 5.75C21.3989 4.50736 20.3916 3.5 19.1489 3.5H6.15039C4.90775 3.5 3.90039 4.50736 3.90039 5.75ZM13.3618 6.55711C13.6421 6.44102 13.9647 6.5052 14.1792 6.71972L15.6479 8.18859L17.1168 6.71969C17.4097 6.4268 17.8846 6.4268 18.1775 6.71969C18.4703 7.01259 18.4703 7.48746 18.1775 7.78035L16.7085 9.2493L18.1788 10.7197C18.3933 10.9342 18.4574 11.2568 18.3413 11.5371C18.2253 11.8173 17.9518 12 17.6484 12L13.6488 12C13.4499 12 13.2591 11.921 13.1185 11.7804C13.0528 11.7147 13.0006 11.6382 12.9636 11.555C12.9169 11.4505 12.8953 11.3375 12.8988 11.2252L12.8988 7.25002C12.8988 6.94667 13.0815 6.67319 13.3618 6.55711ZM6.95785 12.963C7.07394 12.6827 7.34741 12.5 7.65075 12.5H11.6504C11.8493 12.5 12.0401 12.579 12.1807 12.7197C12.3214 12.8603 12.4004 13.0511 12.4004 13.25V17.25C12.4004 17.5534 12.2177 17.8269 11.9374 17.9429C11.6571 18.059 11.3345 17.9948 11.12 17.7803L9.64882 16.309L8.17486 17.7829C7.88197 18.0758 7.40709 18.0758 7.1142 17.7829C6.82131 17.4901 6.82131 17.0152 7.1142 16.7223L8.58821 15.2483L7.1204 13.7803C6.90591 13.5658 6.84176 13.2432 6.95785 12.963Z" fill="#000000"/></svg>