<svg width="80" height="80" viewBox="0 0 24 24" fill="none" xmlns="http://www.w3.org/2000/svg" transform="rotate(0 0 0)"><path d="M14.3746 4.5H4.25C3.00736 4.5 2 5.50736 2 6.75V15.3438C2 16.5864 3.00736 17.5938 4.25 17.5938H11.25V19.25H9.00003C8.58582 19.25 8.25003 19.5858 8.25003 20C8.25003 20.4142 8.58582 20.75 9.00003 20.75H15C15.4142 20.75 15.75 20.4142 15.75 20C15.75 19.5858 15.4142 19.25 15 19.25H12.75V17.5938H19.75C20.9926 17.5938 22 16.5864 22 15.3438V9.4965C21.765 9.57976 21.512 9.62508 21.2484 9.62508H18.8746V11.9989C18.8746 13.2416 17.8672 14.2489 16.6246 14.2489C15.382 14.2489 14.3746 13.2416 14.3746 11.9989V9.62508H12.0015C10.7588 9.62508 9.75146 8.61772 9.75146 7.37508C9.75146 6.13244 10.7588 5.12508 12.0015 5.12508H14.3746V4.5Z" fill="#000000"/><path d="M16.6246 2.00195C16.2104 2.00195 15.8746 2.33774 15.8746 2.75195V6.62508H12.0015C11.5873 6.62508 11.2515 6.96087 11.2515 7.37508C11.2515 7.7893 11.5873 8.12508 12.0015 8.12508H15.8746V11.9989C15.8746 12.4131 16.2104 12.7489 16.6246 12.7489C17.0388 12.7489 17.3746 12.4131 17.3746 11.9989V8.12508H21.2484C21.6626 8.12508 21.9984 7.7893 21.9984 7.37508C21.9984 6.96087 21.6626 6.62508 21.2484 6.62508H17.3746V2.75195C17.3746 2.33774 17.0388 2.00195 16.6246 2.00195Z" fill="#000000"/></svg>