<svg width="80" height="80" viewBox="0 0 24 25" fill="none" xmlns="http://www.w3.org/2000/svg" transform="rotate(0 0 0)"><path d="M5.5 3.75C4.25736 3.75 3.25 4.75736 3.25 6V8.5C3.25 8.91421 3.58579 9.25 4 9.25C4.41421 9.25 4.75 8.91421 4.75 8.5V6C4.75 5.58579 5.08579 5.25 5.5 5.25H8C8.41421 5.25 8.75 4.91421 8.75 4.5C8.75 4.08579 8.41421 3.75 8 3.75H5.5Z" fill="#000000"/><path d="M16 3.75C15.5858 3.75 15.25 4.08579 15.25 4.5C15.25 4.91421 15.5858 5.25 16 5.25H18.5C18.9142 5.25 19.25 5.58579 19.25 6V8.5C19.25 8.91421 19.5858 9.25 20 9.25C20.4142 9.25 20.75 8.91421 20.75 8.5V6C20.75 4.75736 19.7426 3.75 18.5 3.75H16Z" fill="#000000"/><path d="M4.75 16.5C4.75 16.0858 4.41421 15.75 4 15.75C3.58579 15.75 3.25 16.0858 3.25 16.5V19C3.25 20.2426 4.25736 21.25 5.5 21.25H8C8.41421 21.25 8.75 20.9142 8.75 20.5C8.75 20.0858 8.41421 19.75 8 19.75H5.5C5.08579 19.75 4.75 19.4142 4.75 19V16.5Z" fill="#000000"/><path d="M20.75 16.5C20.75 16.0858 20.4142 15.75 20 15.75C19.5858 15.75 19.25 16.0858 19.25 16.5V19C19.25 19.4142 18.9142 19.75 18.5 19.75H16C15.5858 19.75 15.25 20.0858 15.25 20.5C15.25 20.9142 15.5858 21.25 16 21.25H18.5C19.7426 21.25 20.75 20.2426 20.75 19V16.5Z" fill="#000000"/><path d="M8.875 8.4707C7.63236 8.4707 6.625 9.47806 6.625 10.7207V14.2805C6.625 15.5232 7.63236 16.5305 8.875 16.5305H15.125C16.3676 16.5305 17.375 15.5232 17.375 14.2805V10.7207C17.375 9.47806 16.3676 8.4707 15.125 8.4707H8.875ZM9.075 11.7207C9.075 11.2789 9.43317 10.9207 9.875 10.9207H9.885C10.3268 10.9207 10.685 11.2789 10.685 11.7207C10.685 12.1625 10.3268 12.5207 9.885 12.5207H9.875C9.43317 12.5207 9.075 12.1625 9.075 11.7207ZM11.3348 11.7207C11.3348 11.2789 11.6929 10.9207 12.1348 10.9207H12.1448C12.5866 10.9207 12.9448 11.2789 12.9448 11.7207C12.9448 12.1625 12.5866 12.5207 12.1448 12.5207H12.1348C11.6929 12.5207 11.3348 12.1625 11.3348 11.7207Z" fill="#000000"/></svg>