<svg width="80" height="80" viewBox="0 0 24 25" fill="none" xmlns="http://www.w3.org/2000/svg" transform="rotate(0 0 0)"><path d="M7.50925 5.46035C8.11681 4.41006 9.25515 3.69934 10.5608 3.69934C12.5069 3.69934 14.0845 5.27693 14.0845 7.22299C14.0845 9.16905 12.5069 10.7466 10.5608 10.7466H3.125C2.50368 10.7466 2 10.243 2 9.62164C2 9.00032 2.50368 8.49664 3.125 8.49664H10.5608C11.2642 8.49664 11.8345 7.92641 11.8345 7.22299C11.8345 6.51957 11.2642 5.94934 10.5608 5.94934C10.0908 5.94934 9.67878 6.20335 9.45687 6.58698C9.14575 7.1248 8.45756 7.30858 7.91974 6.99747C7.38192 6.68636 7.19814 5.99817 7.50925 5.46035ZM15.4248 8.33873C16.0324 7.28844 17.1707 6.57772 18.4764 6.57772C20.4224 6.57772 22 8.15531 22 10.1014C22 12.0474 20.4224 13.625 18.4764 13.625H3.125C2.50368 13.625 2 13.1213 2 12.5C2 11.8787 2.50368 11.375 3.125 11.375H18.4764C19.1798 11.375 19.75 10.8048 19.75 10.1014C19.75 9.39795 19.1798 8.82772 18.4764 8.82772C18.0063 8.82772 17.5943 9.08173 17.3724 9.46536C17.0613 10.0032 16.3731 10.187 15.8353 9.87585C15.2975 9.56474 15.1137 8.87654 15.4248 8.33873ZM2 15.3784C2 14.7571 2.50368 14.2534 3.125 14.2534H15.598C17.544 14.2534 19.1216 15.831 19.1216 17.777C19.1216 19.7231 17.544 21.3007 15.598 21.3007C14.2923 21.3007 13.154 20.59 12.5464 19.5397C12.2353 19.0019 12.4191 18.3137 12.9569 18.0026C13.4947 17.6915 14.1829 17.8752 14.494 18.4131C14.7159 18.7967 15.128 19.0507 15.598 19.0507C16.3014 19.0507 16.8716 18.4805 16.8716 17.777C16.8716 17.0736 16.3014 16.5034 15.598 16.5034H3.125C2.50368 16.5034 2 15.9997 2 15.3784Z" fill="#000000"/></svg>