<svg width="80" height="80" viewBox="0 0 24 24" fill="none" xmlns="http://www.w3.org/2000/svg" transform="rotate(0 0 0)"><path d="M9.46553 20.7503L18.5 20.7503C19.7426 20.7503 20.75 19.743 20.75 18.5003V16.167C20.75 14.9244 19.7426 13.917 18.5 13.917L16.3299 13.917L9.78957 20.4573C9.77711 20.4698 9.76452 20.482 9.75179 20.494C9.66015 20.5835 9.56464 20.669 9.46553 20.7503Z" fill="#000000"/><path d="M17.4499 11.3818C18.3286 10.5031 18.3286 9.07845 17.4499 8.19978L15.8 6.54986C14.9213 5.67118 13.4967 5.67118 12.618 6.54986L11.0833 8.08452V17.3333C11.0833 17.4809 11.0761 17.6269 11.0619 17.7708L17.4499 11.3818Z" fill="#000000"/><path d="M10.0833 7.69531V5.5C10.0833 4.25736 9.07597 3.25 7.83333 3.25H5.5C4.25736 3.25 3.25 4.25736 3.25 5.5V7.69531H10.0833Z" fill="#000000"/><path d="M3.25 9.19531V12.1396H10.0833V9.19531H3.25Z" fill="#000000"/><path d="M3.25 13.6396V17.3333C3.25 19.1023 4.59435 20.5577 6.31731 20.7327C6.43218 20.7443 6.54872 20.7503 6.66667 20.7503C8.55376 20.7503 10.0833 19.2202 10.0833 17.3333V13.6396H3.25ZM6.66807 16.4336C7.16512 16.4336 7.56817 16.8365 7.56817 17.3336C7.56817 17.8307 7.16512 18.2336 6.66807 18.2336C6.17101 18.2336 5.76807 17.8307 5.76807 17.3336C5.76807 16.8365 6.17101 16.4336 6.66807 16.4336Z" fill="#000000"/></svg>