<svg width="80" height="80" viewBox="0 0 25 25" fill="none" xmlns="http://www.w3.org/2000/svg" transform="rotate(0 0 0)"><path d="M5 10.4315C5 6.28945 8.35781 2.93164 12.4999 2.93164C16.6419 2.93164 19.9997 6.28945 19.9997 10.4315C19.9997 12.5344 19.1333 14.4362 17.7399 15.7972C17.2091 16.3156 16.7442 16.8618 16.4194 17.4316H8.58065C8.25575 16.8618 7.79091 16.3158 7.26013 15.7975C5.86655 14.4365 5 12.5345 5 10.4315ZM9.5 10.4316C9.5 8.77479 10.8431 7.43164 12.5 7.43164C12.9142 7.43164 13.25 7.09585 13.25 6.68164C13.25 6.26743 12.9142 5.93164 12.5 5.93164C10.0147 5.93164 8 7.94636 8 10.4316C8 10.8459 8.33579 11.1816 8.75 11.1816C9.16422 11.1816 9.5 10.8459 9.5 10.4316Z" fill="#000000"/><path d="M9.06031 18.9316C9.06322 18.9831 9.06471 19.0347 9.06472 19.0865L9.0625 20.6816C9.0625 21.9243 10.0699 22.9316 11.3125 22.9316H13.6855C14.9282 22.9316 15.9355 21.9243 15.9355 20.6816V19.086C15.9355 19.0344 15.937 18.9829 15.9399 18.9316H9.06031Z" fill="#000000"/></svg>