<svg width="80" height="80" viewBox="0 0 24 24" fill="none" xmlns="http://www.w3.org/2000/svg" transform="rotate(0 0 0)"><path d="M15.594 20.5225L12.1044 17.0329C12.0706 17.0336 12.0367 17.0339 12.0027 17.0339C11.9676 17.0339 11.9326 17.0336 11.8976 17.0329L8.40758 20.5229C10.6997 21.488 13.3019 21.4878 15.594 20.5225Z" fill="#000000"/><path d="M3.46868 17.9401C3.46881 17.4492 3.6286 16.9583 3.94805 16.552C4.00323 16.4818 4.06298 16.4138 4.12769 16.3491L7.14332 13.3335C7.61312 15.0414 8.95487 16.3834 10.6626 16.8536L7.64742 19.8688C6.76874 20.7475 5.34412 20.7475 4.46544 19.8688L4.12769 19.5311C3.70208 19.1055 3.48263 18.5518 3.46933 17.9941C3.4689 17.9761 3.46868 17.9581 3.46868 17.9401Z" fill="#000000"/><path d="M3.47445 15.5881C2.51058 13.2967 2.51112 10.6957 3.47609 8.40459L6.96408 11.8926L6.96344 11.9322C6.96319 11.9529 6.96307 11.9736 6.96307 11.9943C6.96307 12.0291 6.96342 12.0638 6.96413 12.0985L3.47445 15.5881Z" fill="#000000"/><path d="M8.41145 3.47207C10.7014 2.50917 13.3003 2.50931 15.5901 3.4725L12.1069 6.95567C12.0723 6.95496 12.0375 6.95461 12.0027 6.95461C11.9668 6.95461 11.9309 6.95499 11.8951 6.95574L8.41145 3.47207Z" fill="#000000"/><path d="M16.554 3.94611C17.437 3.252 18.7195 3.31193 19.5334 4.12591L19.8712 4.46367C20.3109 4.90341 20.5306 5.4799 20.5302 6.05626C20.5297 6.63136 20.31 7.20629 19.8712 7.64508L16.8618 10.6544C16.3916 8.94668 15.0496 7.60493 13.3417 7.13513L16.3515 4.12535C16.416 4.06078 16.484 4.00119 16.554 3.94611Z" fill="#000000"/><path d="M20.5249 8.40562C21.4892 10.6962 21.4898 13.2962 20.5265 15.5871L17.0413 12.1019L17.0418 12.0697L17.0423 12.0222L17.0424 11.9993L17.0424 11.9943C17.0424 11.9653 17.0422 11.9363 17.0417 11.9074L17.0413 11.8892L20.5249 8.40562Z" fill="#000000"/><path d="M20.0532 16.5507C19.9981 16.4807 19.9383 16.4132 19.8738 16.3486L16.8614 13.3362C16.3907 15.0437 15.0483 16.3851 13.3401 16.8544L16.354 19.8683C17.2327 20.747 18.6573 20.747 19.536 19.8683L19.8738 19.5306C20.3119 19.0924 20.5316 18.5184 20.5328 17.9441C20.5336 17.4515 20.3739 16.9583 20.0532 16.5507Z" fill="#000000"/><path d="M8.06721 12.9091C8.41396 14.4061 9.59038 15.5828 11.0872 15.9299C11.2263 15.9621 11.3681 15.987 11.5119 16.0043C11.6441 16.0204 11.7781 16.03 11.9135 16.033C11.9432 16.0336 11.9729 16.0339 12.0027 16.0339C12.0233 16.0339 12.0439 16.0338 12.0644 16.0335L12.1115 16.0325C12.2393 16.0291 12.3656 16.0197 12.4904 16.0047C12.6341 15.9875 12.7758 15.9627 12.9148 15.9307C14.4121 15.5848 15.5894 14.4091 15.9375 12.9126C15.9544 12.8399 15.9693 12.7665 15.9822 12.6924C15.9919 12.6367 16.0005 12.5806 16.0079 12.5243L16.0125 12.4874C16.0181 12.442 16.0228 12.3964 16.0269 12.3506C16.0372 12.2331 16.0424 12.1142 16.0424 11.9943C16.0424 11.8906 16.0385 11.7877 16.0308 11.6858C16.028 11.6498 16.0248 11.6138 16.0212 11.578C16.0038 11.4086 15.9759 11.2421 15.938 11.079C15.5909 9.58219 14.4143 8.40577 12.9173 8.05902C12.6514 7.99742 12.3759 7.96194 12.0941 7.95562C12.0637 7.95495 12.0333 7.95461 12.0027 7.95461C11.9819 7.95461 11.9611 7.95477 11.9403 7.95508C11.9231 7.95534 11.9059 7.95572 11.8888 7.9562C11.6136 7.9639 11.3446 7.99938 11.0847 8.05982C9.5882 8.40786 8.41243 9.58517 8.06662 11.0825C8.02591 11.2588 7.99677 11.4391 7.97997 11.6228C7.96878 11.7452 7.96307 11.8692 7.96307 11.9943C7.96307 12.0978 7.96698 12.2005 7.97466 12.3022L7.97717 12.3337C7.98137 12.3841 7.98651 12.4343 7.99256 12.4843C7.99664 12.518 8.00114 12.5516 8.00605 12.5851C8.01424 12.6409 8.02357 12.6964 8.03402 12.7515C8.04405 12.8044 8.05512 12.8569 8.06721 12.9091Z" fill="#000000"/><path d="M3.94792 7.44653C4.003 7.51656 4.06282 7.58407 4.12738 7.64863L7.13975 10.661C7.61048 8.95348 8.95287 7.6121 10.661 7.14284L7.64711 4.1289C6.76843 3.25022 5.34381 3.25022 4.46513 4.1289L4.12738 4.46665C3.68919 4.90484 3.46952 5.4788 3.46837 6.05312C3.46751 6.54573 3.62724 7.03891 3.94792 7.44653Z" fill="#000000"/></svg>