<svg width="80" height="80" viewBox="0 0 24 25" fill="none" xmlns="http://www.w3.org/2000/svg" transform="rotate(0 0 0)"><path d="M12.6573 3.05529C12.4726 2.92239 12.246 2.84412 12.001 2.84412C11.3797 2.84412 10.876 3.3478 10.876 3.96912L10.876 10.6774L6.35573 7.4878C5.84807 7.12959 5.14614 7.25074 4.78792 7.7584C4.42971 8.26606 4.55086 8.96799 5.05852 9.32621L10.0486 12.8473L5.0792 16.3539C4.57154 16.7121 4.45039 17.414 4.8086 17.9217C5.16682 18.4293 5.86875 18.5505 6.37641 18.1923L10.876 15.0173L10.876 21.5004C10.8212 21.7892 10.8789 22.099 11.0616 22.3583C11.1844 22.5326 11.3476 22.6613 11.5296 22.7409C11.673 22.8071 11.8327 22.8441 12.001 22.8441C12.3159 22.8441 12.6005 22.7148 12.8047 22.5064L18.9234 18.195C19.2223 17.9843 19.4003 17.6415 19.4004 17.2757C19.4005 16.91 19.2228 16.567 18.924 16.3562L13.9513 12.8473L18.9447 9.32389C19.2435 9.11303 19.4212 8.77005 19.4211 8.40431C19.4209 8.03857 19.243 7.69572 18.9441 7.48505L12.6573 3.05529ZM13.126 10.6759V6.13799L16.3438 8.40534L13.126 10.6759ZM13.126 15.0188L16.3232 17.2747L13.126 19.5275L13.126 15.0188Z" fill="#000000"/></svg>