<svg width="80" height="80" viewBox="0 0 24 24" fill="none" xmlns="http://www.w3.org/2000/svg" transform="rotate(0 0 0)"><path d="M10.25 14.75C10.25 14.3358 9.91421 14 9.5 14H7.75V7.75H16.25V14H14.5C14.0858 14 13.75 14.3358 13.75 14.75V15.5C13.75 15.9142 13.4142 16.25 13 16.25H11C10.5858 16.25 10.25 15.9142 10.25 15.5V14.75ZM10.5 9.25C10.0858 9.25 9.75 9.58579 9.75 10V11.75C9.75 12.1642 10.0858 12.5 10.5 12.5C10.9142 12.5 11.25 12.1642 11.25 11.75V10C11.25 9.58579 10.9142 9.25 10.5 9.25ZM13.5 9.25C13.0858 9.25 12.75 9.58579 12.75 10V11.75C12.75 12.1642 13.0858 12.5 13.5 12.5C13.9142 12.5 14.25 12.1642 14.25 11.75V10C14.25 9.58579 13.9142 9.25 13.5 9.25Z" fill="#000000"/><path d="M3.25 5.5C3.25 4.25736 4.25736 3.25 5.5 3.25H18.5C19.7426 3.25 20.75 4.25736 20.75 5.5V18.5C20.75 19.7426 19.7426 20.75 18.5 20.75H5.5C4.25736 20.75 3.25 19.7426 3.25 18.5V5.5ZM6.25 7V14.75C6.25 15.1642 6.58579 15.5 7 15.5H8.75C8.75 16.7426 9.75736 17.75 11 17.75H13C14.2426 17.75 15.25 16.7426 15.25 15.5H17C17.4142 15.5 17.75 15.1642 17.75 14.75V7C17.75 6.58579 17.4142 6.25 17 6.25H7C6.58579 6.25 6.25 6.58579 6.25 7Z" fill="#000000"/></svg>