<svg width="80" height="80" viewBox="0 0 24 24" fill="none" xmlns="http://www.w3.org/2000/svg" transform="rotate(0 0 0)"><path d="M12.6722 2.04308C12.5459 1.78707 12.2851 1.625 11.9996 1.625C11.7142 1.625 11.4534 1.78707 11.3271 2.04308L8.67288 7.4211L2.73788 8.28351C2.45536 8.32456 2.22065 8.52244 2.13243 8.79395C2.04421 9.06546 2.11779 9.36351 2.32222 9.56278L6.61682 13.749L5.603 19.66C5.55475 19.9414 5.67041 20.2257 5.90137 20.3936C6.13233 20.5614 6.43853 20.5835 6.69122 20.4506L11.9996 17.6598L17.3081 20.4506C17.5608 20.5835 17.867 20.5614 18.0979 20.3936C18.3289 20.2257 18.4445 19.9414 18.3963 19.66L17.3825 13.749L21.6771 9.56278C21.8815 9.36351 21.9551 9.06546 21.8669 8.79395C21.7786 8.52244 21.5439 8.32456 21.2614 8.28351L15.3264 7.4211L12.6722 2.04308Z" fill="#000000"/></svg>