<svg width="80" height="80" viewBox="0 0 25 24" fill="none" xmlns="http://www.w3.org/2000/svg" transform="rotate(0 0 0)"><path d="M11.9653 2.85619C10.7482 3.58717 10.4419 5.16821 10.5798 6.72641C10.7252 8.36845 11.3764 10.316 12.4675 12.2059C13.5587 14.0957 14.9197 15.6334 16.269 16.5803C17.5626 17.4881 19.103 18.0148 20.3514 17.294C21.1296 16.8447 21.5447 16.0549 21.7132 15.1424C21.7475 14.957 21.7716 14.7664 21.7864 14.5726C21.8157 14.1903 21.8092 13.7954 21.7743 13.402C21.6289 11.7601 20.9776 9.81261 19.8865 7.92277C18.7954 6.03293 17.4345 4.49515 16.0852 3.54816C14.7917 2.64033 13.2514 2.11344 12.0029 2.83426C11.9903 2.84152 11.9778 2.84883 11.9653 2.85619Z" fill="#000000"/><path d="M16.784 18.0469C16.391 17.8542 16.0237 17.6299 15.6946 17.3989C14.2012 16.3509 12.7486 14.6927 11.6015 12.7059C10.4544 10.719 9.74465 8.63194 9.58374 6.81461C9.54829 6.41426 9.53764 5.98423 9.56723 5.5477L3.33094 15.0063C2.84312 15.7461 2.81488 16.6981 3.258 17.4656L3.30786 17.5519C3.75097 18.3194 4.58947 18.7709 5.47414 18.7184L7.02867 18.6261V19.1596C7.02867 20.5309 8.20183 21.6085 9.56813 21.4924L11.2274 21.3514C12.4392 21.2484 13.3703 20.2347 13.3703 19.0186V18.2495L16.784 18.0469ZM11.8703 18.3386V19.0186C11.8703 19.4555 11.5358 19.8197 11.1004 19.8567L9.44109 19.9978C8.95018 20.0395 8.52867 19.6523 8.52867 19.1596V18.537L11.8703 18.3386Z" fill="#000000"/></svg>