<svg width="80" height="80" viewBox="0 0 24 24" fill="none" xmlns="http://www.w3.org/2000/svg" transform="rotate(0 0 0)"><path d="M4.5 4.25C4.5 3.00736 5.50736 2 6.75 2H17.2501C18.4928 2 19.5001 3.00736 19.5001 4.25V19.75C19.5001 20.9926 18.4928 22 17.2501 22H6.75C5.50736 22 4.5 20.9926 4.5 19.75V4.25ZM6.75 3.5C6.33579 3.5 6 3.83579 6 4.25V10.5C6 10.9142 6.33579 11.25 6.75 11.25H17.2501C17.6643 11.25 18.0001 10.9142 18.0001 10.5V4.25C18.0001 3.83579 17.6643 3.5 17.2501 3.5H6.75ZM10.8113 14.8701C10.8113 14.4559 10.4755 14.1201 10.0613 14.1201C9.64705 14.1201 9.31126 14.4559 9.31126 14.8701V15.874H8.30581C7.8916 15.874 7.55581 16.2098 7.55581 16.624C7.55581 17.0382 7.8916 17.374 8.30581 17.374H9.31126V18.3809C9.31126 18.7951 9.64705 19.1309 10.0613 19.1309C10.4755 19.1309 10.8113 18.7951 10.8113 18.3809V17.374H11.8166C12.2308 17.374 12.5666 17.0382 12.5666 16.624C12.5666 16.2098 12.2308 15.874 11.8166 15.874H10.8113V14.8701ZM14.8166 14.3701C14.4024 14.3701 14.0666 14.7059 14.0666 15.1201C14.0666 15.5343 14.4024 15.8701 14.8166 15.8701H15.6943C16.1085 15.8701 16.4443 15.5343 16.4443 15.1201C16.4443 14.7059 16.1085 14.3701 15.6943 14.3701H14.8166ZM14.8166 17.377C14.4024 17.377 14.0666 17.7127 14.0666 18.127C14.0666 18.5412 14.4024 18.877 14.8166 18.877H15.6943C16.1085 18.877 16.4443 18.5412 16.4443 18.127C16.4443 17.7127 16.1085 17.377 15.6943 17.377H14.8166Z" fill="#000000"/></svg>