<svg width="80" height="80" viewBox="0 0 24 24" fill="none" xmlns="http://www.w3.org/2000/svg" transform="rotate(0 0 0)"><path d="M9.5 9H12V11.5H9.5V9Z" fill="#000000"/><path d="M7.25 4.5C6.00736 4.5 5 5.50736 5 6.75V17.25C5 17.6642 4.66421 18 4.25 18C3.83579 18 3.5 17.6642 3.5 17.25V6.75C3.5 6.33579 3.16421 6 2.75 6C2.33579 6 2 6.33579 2 6.75V17.25C2 18.4926 3.00736 19.5 4.25 19.5H19.75C20.9926 19.5 22 18.4926 22 17.25V6.75C22 5.50736 20.9926 4.5 19.75 4.5H7.25ZM8 15.3926C8 14.9784 8.33579 14.6426 8.75 14.6426H18.25C18.6642 14.6426 19 14.9784 19 15.3926C19 15.8068 18.6642 16.1426 18.25 16.1426H8.75C8.33579 16.1426 8 15.8068 8 15.3926ZM18.25 8.25C18.6642 8.25 19 8.58579 19 9C19 9.41421 18.6642 9.75 18.25 9.75H15.75C15.3358 9.75 15 9.41421 15 9C15 8.58579 15.3358 8.25 15.75 8.25L18.25 8.25ZM15 12C15 11.5858 15.3358 11.25 15.75 11.25H18.25C18.6642 11.25 19 11.5858 19 12C19 12.4142 18.6642 12.75 18.25 12.75H15.75C15.3358 12.75 15 12.4142 15 12ZM8.75 7.5H12.75C13.1642 7.5 13.5 7.83579 13.5 8.25V12.25C13.5 12.6642 13.1642 13 12.75 13H8.75C8.33579 13 8 12.6642 8 12.25V8.25C8 7.83579 8.33579 7.5 8.75 7.5Z" fill="#000000"/></svg>