<svg width="80" height="80" viewBox="0 0 25 24" fill="none" xmlns="http://www.w3.org/2000/svg" transform="rotate(0 0 0)"><path d="M5.5 3.25H6.83C7.7965 3.25 8.58 4.0335 8.58 5V6.33C8.58 7.2965 7.7965 8.08 6.83 8.08H5.5C4.5335 8.08 3.75 7.2965 3.75 6.33V5C3.75 4.0335 4.5335 3.25 5.5 3.25Z" fill="#000000"/><path d="M5.5 9.58008C4.5335 9.58008 3.75 10.3636 3.75 11.3301V12.6601C3.75 13.6266 4.5335 14.4101 5.5 14.4101H6.83C7.7965 14.4101 8.58 13.6266 8.58 12.6601V11.3301C8.58 10.3636 7.7965 9.58008 6.83 9.58008H5.5Z" fill="#000000"/><path d="M3.75 17.6602C3.75 16.6937 4.5335 15.9102 5.5 15.9102H6.83C7.7965 15.9102 8.58 16.6937 8.58 17.6602V18.9902C8.58 19.9567 7.7965 20.7402 6.83 20.7402H5.5C4.5335 20.7402 3.75 19.9567 3.75 18.9902V17.6602Z" fill="#000000"/><path d="M10.8301 4.91504C10.4159 4.91504 10.0801 5.25083 10.0801 5.66504C10.0801 6.07925 10.4159 6.41504 10.8301 6.41504H20.5C20.9142 6.41504 21.25 6.07925 21.25 5.66504C21.25 5.25083 20.9142 4.91504 20.5 4.91504H10.8301Z" fill="#000000"/><path d="M10.0801 11.9951C10.0801 11.5809 10.4159 11.2451 10.8301 11.2451H20.5C20.9142 11.2451 21.25 11.5809 21.25 11.9951C21.25 12.4093 20.9142 12.7451 20.5 12.7451H10.8301C10.4159 12.7451 10.0801 12.4093 10.0801 11.9951Z" fill="#000000"/><path d="M10.8301 17.5752C10.4159 17.5752 10.0801 17.911 10.0801 18.3252C10.0801 18.7394 10.4159 19.0752 10.8301 19.0752H20.5C20.9142 19.0752 21.25 18.7394 21.25 18.3252C21.25 17.911 20.9142 17.5752 20.5 17.5752H10.8301Z" fill="#000000"/></svg>