<svg width="80" height="80" viewBox="0 0 24 25" fill="none" xmlns="http://www.w3.org/2000/svg" transform="rotate(0 0 0)"><path d="M18.5009 21.125C19.7435 21.125 20.7509 20.1176 20.7509 18.875V5.875C20.7509 4.63236 19.7435 3.625 18.5009 3.625H5.5C4.25736 3.625 3.25 4.63236 3.25 5.875V18.875C3.25 20.1176 4.25736 21.125 5.5 21.125H11.251V12.44L8.68362 12.44C8.38022 12.44 8.10671 12.2572 7.99066 11.9769C7.8746 11.6966 7.93886 11.374 8.15347 11.1595L11.4708 7.84448C11.7637 7.55183 12.2383 7.55184 12.5311 7.8445L15.8482 11.1595C16.0628 11.374 16.1271 11.6966 16.011 11.9769C15.895 12.2572 15.6215 12.44 15.3181 12.44H12.751L12.751 21.125H18.5009Z" fill="#000000"/></svg>