<svg width="25" height="24" viewBox="0 0 25 24" fill="none" xmlns="http://www.w3.org/2000/svg">
<path d="M21.75 6C22.1642 6 22.5 5.66421 22.5 5.25C22.5 4.83579 22.1642 4.5 21.75 4.5H12.7139C12.2997 4.5 11.9639 4.83579 11.9639 5.25C11.9639 5.66421 12.2997 6 12.7139 6L21.75 6Z" fill="#323544"/>
<path d="M21.75 19.5C22.1642 19.5 22.5 19.1642 22.5 18.75C22.5 18.3358 22.1642 18 21.75 18H12.7139C12.2997 18 11.9639 18.3358 11.9639 18.75C11.9639 19.1642 12.2997 19.5 12.7139 19.5H21.75Z" fill="#323544"/>
<path d="M22.5 12C22.5 12.4142 22.1642 12.75 21.75 12.75L12.7139 12.75C12.2997 12.75 11.9639 12.4142 11.9639 12C11.9639 11.5858 12.2997 11.25 12.7139 11.25L21.75 11.25C22.1642 11.25 22.5 11.5858 22.5 12Z" fill="#323544"/>
<path d="M4.8286 8.04768C3.82125 7.40362 2.5 8.12709 2.5 9.32273V14.6772C2.5 15.8728 3.82124 16.5963 4.8286 15.9523L9.01598 13.275C9.94688 12.6798 9.94688 11.3201 9.01598 10.7249L4.8286 8.04768Z" fill="#323544"/>
</svg>
