<svg width="24" height="24" viewBox="0 0 24 24" fill="none" xmlns="http://www.w3.org/2000/svg">
<path d="M3.25 5.5C3.25 4.25736 4.25736 3.25 5.5 3.25H9C10.2426 3.25 11.25 4.25736 11.25 5.5V9C11.25 10.2426 10.2426 11.25 9 11.25H5.5C4.25736 11.25 3.25 10.2426 3.25 9V5.5Z" fill="#323544"/>
<path d="M3.25 15C3.25 13.7574 4.25736 12.75 5.5 12.75H9C10.2426 12.75 11.25 13.7574 11.25 15V18.5C11.25 19.7426 10.2426 20.75 9 20.75H5.5C4.25736 20.75 3.25 19.7426 3.25 18.5V15Z" fill="#323544"/>
<path d="M12.75 5.5C12.75 4.25736 13.7574 3.25 15 3.25H18.5C19.7426 3.25 20.75 4.25736 20.75 5.5V9C20.75 10.2426 19.7426 11.25 18.5 11.25H15C13.7574 11.25 12.75 10.2426 12.75 9V5.5Z" fill="#323544"/>
</svg>
