<svg width="80" height="80" viewBox="0 0 24 24" fill="none" xmlns="http://www.w3.org/2000/svg" transform="rotate(0 0 0)"><path d="M7.75 2.75C7.75 2.33579 7.41421 2 7 2C6.58579 2 6.25 2.33579 6.25 2.75V5.25C6.25 5.66421 6.58579 6 7 6C7.41421 6 7.75 5.66421 7.75 5.25V4.75L19.25 4.75V5.25C19.25 5.66421 19.5858 6 20 6C20.4142 6 20.75 5.66421 20.75 5.25V2.75C20.75 2.33579 20.4142 2 20 2C19.5858 2 19.25 2.33579 19.25 2.75V3.25L7.75 3.25V2.75Z" fill="#000000"/><path d="M2.75 6.25H5.25C5.66421 6.25 6 6.58579 6 7C6 7.41421 5.66421 7.75 5.25 7.75H4.75L4.75 19.25H5.25C5.66421 19.25 6 19.5858 6 20C6 20.4142 5.66421 20.75 5.25 20.75H2.75C2.33579 20.75 2 20.4142 2 20C2 19.5858 2.33579 19.25 2.75 19.25H3.25L3.25 7.75H2.75C2.33579 7.75 2 7.41421 2 7C2 6.58579 2.33579 6.25 2.75 6.25Z" fill="#000000"/><path d="M9.25 7C8.00736 7 7 8.00736 7 9.25L7 18.5C7 19.7426 8.00736 20.75 9.25 20.75L18.5 20.75C19.7426 20.75 20.75 19.7426 20.75 18.5V9.25C20.75 8.00736 19.7426 7 18.5 7L9.25 7Z" fill="#000000"/></svg>