<svg width="80" height="80" viewBox="0 0 24 25" fill="none" xmlns="http://www.w3.org/2000/svg" transform="rotate(0 0 0)"><path d="M11.249 3.625V12.31H8.68191C8.37852 12.31 8.10501 12.4928 7.98895 12.7731C7.87289 13.0534 7.93715 13.376 8.15174 13.5905L11.4689 16.9055C11.7617 17.1982 12.2363 17.1982 12.5292 16.9055L15.8465 13.5905C16.0611 13.376 16.1254 13.0534 16.0093 12.7731C15.8933 12.4928 15.6198 12.31 15.3164 12.31H12.749L12.749 3.625H18.5009C19.7435 3.625 20.7509 4.63236 20.7509 5.875V18.875C20.7509 20.1176 19.7435 21.125 18.5009 21.125H5.5C4.25736 21.125 3.25 20.1176 3.25 18.875V5.875C3.25 4.63236 4.25736 3.625 5.5 3.625H11.249Z" fill="#000000"/></svg>