<svg width="80" height="80" viewBox="0 0 24 24" fill="none" xmlns="http://www.w3.org/2000/svg" transform="rotate(0 0 0)"><path d="M4.37488 5C4.37488 3.82639 5.32627 2.875 6.49988 2.875H17.4999C18.6735 2.875 19.6249 3.8264 19.6249 5V5.625C19.6249 6.24632 19.1212 6.75 18.4999 6.75C17.8786 6.75 17.3749 6.24632 17.3749 5.625V5.125H13.1249V15.125H14.0311C14.6524 15.125 15.1561 15.6287 15.1561 16.25C15.1561 16.8713 14.6524 17.375 14.0311 17.375H9.96863C9.34731 17.375 8.84363 16.8713 8.84363 16.25C8.84363 15.6287 9.34731 15.125 9.96863 15.125H10.8749L10.8749 5.125H6.62488V5.625C6.62488 6.24632 6.1212 6.75 5.49988 6.75C4.87856 6.75 4.37488 6.24632 4.37488 5.625V5ZM6.42901 16.9606C6.84949 17.1346 7.12366 17.5449 7.12366 18V18.875H16.8762V18C16.8762 17.5449 17.1504 17.1346 17.5709 16.9606C17.9913 16.7865 18.4753 16.8829 18.797 17.2048L20.7956 19.2048C21.2346 19.644 21.2346 20.356 20.7956 20.7952L18.797 22.7952C18.4753 23.1171 17.9913 23.2135 17.5709 23.0394C17.1504 22.8654 16.8762 22.4551 16.8762 22V21.125H7.12366V22C7.12366 22.4551 6.84949 22.8654 6.42901 23.0394C6.00853 23.2135 5.52459 23.1171 5.2029 22.7952L3.20424 20.7952C2.76525 20.356 2.76525 19.644 3.20424 19.2048L5.2029 17.2048C5.52459 16.8829 6.00853 16.7865 6.42901 16.9606Z" fill="#000000"/></svg>