<svg width="80" height="80" viewBox="0 0 24 24" fill="none" xmlns="http://www.w3.org/2000/svg" transform="rotate(0 0 0)"><path d="M3.25 5.5C3.25 4.25736 4.25736 3.25 5.5 3.25H16C17.2426 3.25 18.25 4.25736 18.25 5.5V9.94481C18.155 9.9217 18.0594 9.90059 17.9632 9.8815C16.5542 9.6019 15.0931 9.77065 13.7849 10.3641C13.4979 10.4943 13.2213 10.6435 12.957 10.8102C12.6666 10.6736 12.3422 10.5972 12 10.5972C10.7574 10.5972 9.75 11.6045 9.75 12.8472V16.6354C9.75 18.1281 10.2372 19.5705 11.1234 20.75H5.5C4.25736 20.75 3.25 19.7426 3.25 18.5V5.5ZM7.5 7C7.08579 7 6.75 7.33579 6.75 7.75C6.75 8.16421 7.08579 8.5 7.5 8.5H14C14.4142 8.5 14.75 8.16421 14.75 7.75C14.75 7.33579 14.4142 7 14 7H7.5ZM6.75 11.25C6.75 11.6642 7.08579 12 7.5 12H9C9.41421 12 9.75 11.6642 9.75 11.25C9.75 10.8358 9.41421 10.5 9 10.5H7.5C7.08579 10.5 6.75 10.8358 6.75 11.25Z" fill="#000000"/><path d="M19.0049 21.4445C17.9979 21.9417 16.8605 22.111 15.7523 21.9287C14.6442 21.7463 13.621 21.2214 12.8265 20.4277C12.5334 20.135 12.5332 19.6601 12.8259 19.3671C13.1186 19.074 13.5935 19.0738 13.8866 19.3665C14.4594 19.9387 15.197 20.3171 15.9959 20.4486C16.7948 20.58 17.6148 20.458 18.3408 20.0995C19.0667 19.741 19.6622 19.1642 20.0435 18.45C20.4248 17.7357 20.5728 16.92 20.4667 16.1174C20.3607 15.3147 20.0059 14.5654 19.4521 13.9748C18.8984 13.3841 18.1735 12.9817 17.3794 12.8241C16.5852 12.6665 15.7617 12.7616 15.0243 13.0961C14.644 13.2686 14.2965 13.5004 13.9936 13.7806L14.5303 14.3173C14.7448 14.5318 14.809 14.8544 14.6929 15.1347C14.5768 15.4149 14.3033 15.5977 14 15.5977H12C11.5858 15.5977 11.25 15.2619 11.25 14.8477V12.8477C11.25 12.5443 11.4327 12.2709 11.713 12.1548C11.9932 12.0387 12.3158 12.1028 12.5303 12.3173L12.9323 12.7194C13.3624 12.3128 13.8592 11.9775 14.4047 11.7301C15.4274 11.2661 16.5698 11.1342 17.6714 11.3528C18.7729 11.5714 19.7783 12.1295 20.5464 12.9489C21.3145 13.7682 21.8067 14.8075 21.9538 15.9209C22.1009 17.0342 21.8956 18.1657 21.3667 19.1564C20.8378 20.1471 20.0119 20.9473 19.0049 21.4445Z" fill="#000000"/></svg>