<svg width="80" height="80" viewBox="0 0 24 24" fill="none" xmlns="http://www.w3.org/2000/svg" transform="rotate(0 0 0)"><path d="M12.6415 7.49922H11.3577L11.9994 6.21548L12.6415 7.49922Z" fill="#000000"/><path d="M7.25 5.5C7.25 4.25736 8.25736 3.25 9.5 3.25H14.5C15.7426 3.25 16.75 4.25736 16.75 5.5V11H7.25V5.5ZM12.3346 5.2092C12.2711 5.08216 12.1412 5.00193 11.9992 5.00195C11.8571 5.00197 11.7273 5.08225 11.6638 5.2093L9.78952 8.9593C9.69693 9.14456 9.77205 9.3698 9.95731 9.46239C10.1426 9.55498 10.3678 9.47986 10.4604 9.29461L10.9829 8.24922H13.0166L13.5396 9.29471C13.6322 9.47994 13.8575 9.55499 14.0427 9.46234C14.2279 9.36969 14.303 9.14442 14.2103 8.9592L12.3346 5.2092Z" fill="#000000"/><path d="M7.9375 16C8.24816 16 8.5 15.7482 8.5 15.4375C8.5 15.1268 8.24816 14.875 7.9375 14.875H6.25V16H7.9375Z" fill="#000000"/><path d="M6.25 16.75H7.9375C8.24816 16.75 8.5 17.0018 8.5 17.3125C8.5 17.6232 8.24816 17.875 7.9375 17.875H6.25V16.75Z" fill="#000000"/><path d="M5.5 12C4.25736 12 3.25 13.0074 3.25 14.25V18.5C3.25 19.7426 4.25736 20.75 5.5 20.75H11.5V12H5.5ZM5.5 14.5C5.5 14.2929 5.66789 14.125 5.875 14.125H7.9375C8.66237 14.125 9.25 14.7126 9.25 15.4375C9.25 15.8048 9.09916 16.1368 8.85606 16.375C9.09916 16.6132 9.25 16.9452 9.25 17.3125C9.25 18.0374 8.66237 18.625 7.9375 18.625H5.875C5.66789 18.625 5.5 18.4571 5.5 18.25V14.5Z" fill="#000000"/><path d="M18.5 20.75H12.5V12H18.5C19.7426 12 20.75 13.0074 20.75 14.25V18.5C20.75 19.7426 19.7426 20.75 18.5 20.75ZM16.75 14.125C15.7145 14.125 14.875 14.9645 14.875 16V16.75C14.875 17.7855 15.7145 18.625 16.75 18.625H18C18.2071 18.625 18.375 18.4571 18.375 18.25C18.375 18.0429 18.2071 17.875 18 17.875H16.75C16.1287 17.875 15.625 17.3713 15.625 16.75V16C15.625 15.3787 16.1287 14.875 16.75 14.875H18C18.2071 14.875 18.375 14.7071 18.375 14.5C18.375 14.2929 18.2071 14.125 18 14.125H16.75Z" fill="#000000"/></svg>