<svg width="80" height="80" viewBox="0 0 24 24" fill="none" xmlns="http://www.w3.org/2000/svg" transform="rotate(0 0 0)"><path d="M20.75 8.51807C20.7744 8.50594 20.7986 8.49337 20.8225 8.48039C21.5239 8.09938 22 7.35627 22 6.50195V5.50195C22 4.25931 20.9926 3.25195 19.75 3.25195H4.25C3.00736 3.25195 2 4.25931 2 5.50195V6.50195C2 7.38538 2.50914 8.1499 3.25 8.51807C3.55124 8.66778 3.89079 8.75195 4.25 8.75195H19.75C20.1092 8.75195 20.4488 8.66778 20.75 8.51807Z" fill="#000000"/><path d="M3.25 9.5952C3.56503 9.69697 3.9011 9.75195 4.25 9.75195H19.75C20.0989 9.75195 20.435 9.69697 20.75 9.5952V18.502C20.75 19.7446 19.7426 20.752 18.5 20.752H5.5C4.25736 20.752 3.25 19.7446 3.25 18.502V9.5952ZM9.25 13.252C9.25 13.6662 9.58579 14.002 10 14.002H14C14.4142 14.002 14.75 13.6662 14.75 13.252C14.75 12.8377 14.4142 12.502 14 12.502H10C9.58579 12.502 9.25 12.8377 9.25 13.252Z" fill="#000000"/></svg>