<svg width="80" height="80" viewBox="0 0 24 24" fill="none" xmlns="http://www.w3.org/2000/svg" transform="rotate(0 0 0)"><path d="M3.23172 12.5459C3.4233 12.4923 3.6287 12.5167 3.80203 12.6143L6.88211 14.3496C7.14643 14.4984 7.29541 14.7916 7.25907 15.0928C7.22267 15.3939 7.00819 15.6429 6.7161 15.7246L5.17215 16.1572C5.68257 16.996 6.34679 17.7391 7.13602 18.3447C8.53306 19.4167 10.2452 19.998 12.0061 19.998C13.7671 19.998 15.4792 19.4167 16.8763 18.3447C18.273 17.2728 19.2769 15.77 19.7327 14.0693C19.8399 13.6692 20.2515 13.4319 20.6516 13.5391C21.0516 13.6463 21.289 14.0571 21.1819 14.457C20.6407 16.4769 19.4483 18.2622 17.7893 19.5352C16.1303 20.8082 14.0973 21.498 12.0061 21.498C9.91501 21.498 7.88194 20.8082 6.22293 19.5352C5.17332 18.7297 4.31031 17.7193 3.68094 16.5742L1.90164 17.0713C1.60969 17.1529 1.29695 17.0508 1.10965 16.8125C0.922395 16.5739 0.897366 16.2458 1.04618 15.9814L2.78055 12.9004C2.8781 12.7271 3.04026 12.5995 3.23172 12.5459Z" fill="#000000"/><path d="M12.0003 7.25C12.4144 7.25016 12.7503 7.58588 12.7503 8C12.7505 9.79474 14.2055 11.2498 16.0003 11.25C16.4144 11.2502 16.7503 11.5859 16.7503 12C16.7502 12.414 16.4143 12.7498 16.0003 12.75C14.2054 12.7502 12.7503 14.2051 12.7503 16C12.7503 16.4141 12.4144 16.7498 12.0003 16.75C11.5861 16.7499 11.2503 16.4142 11.2503 16C11.2503 14.2051 9.79517 12.7502 8.00028 12.75C7.58612 12.75 7.25038 12.4141 7.25028 12C7.25028 11.5858 7.58606 11.25 8.00028 11.25C9.79505 11.2498 11.2501 9.79476 11.2503 8C11.2503 7.58585 11.5861 7.2501 12.0003 7.25Z" fill="#000000"/><path d="M12.0032 2.5C14.0943 2.5 16.1274 3.18989 17.7864 4.46289C18.8355 5.26787 19.6981 6.27756 20.3274 7.42188L22.0989 6.92676C22.391 6.84523 22.7037 6.94796 22.8909 7.18652C23.078 7.42515 23.1032 7.75332 22.9544 8.01758L21.22 11.0986C21.1224 11.272 20.9594 11.3996 20.7679 11.4531C20.5763 11.5066 20.3708 11.4814 20.1975 11.3838L17.1175 9.64941C16.8533 9.50065 16.7044 9.20724 16.7405 8.90625C16.7769 8.6051 16.9913 8.35512 17.2835 8.27344L18.8362 7.83887C18.3259 7.00084 17.662 6.25854 16.8733 5.65332C15.4763 4.58133 13.7641 4 12.0032 4C10.2424 4.00006 8.53103 4.58142 7.13407 5.65332C5.73709 6.72526 4.73244 8.22789 4.27664 9.92871C4.16944 10.3288 3.7578 10.5662 3.3577 10.459C2.95797 10.3516 2.72046 9.94087 2.82743 9.54102C3.36865 7.52113 4.56196 5.7359 6.22098 4.46289C7.87987 3.19008 9.91228 2.50006 12.0032 2.5Z" fill="#000000"/></svg>