<svg width="80" height="80" viewBox="0 0 24 24" fill="none" xmlns="http://www.w3.org/2000/svg" transform="rotate(0 0 0)"><path d="M10.4991 2C10.0849 2 9.74907 2.33579 9.74907 2.75C9.74907 3.16421 10.0849 3.5 10.4991 3.5H13.4991C13.9133 3.5 14.2491 3.16421 14.2491 2.75C14.2491 2.33579 13.9133 2 13.4991 2H10.4991Z" fill="#000000"/><path d="M11.999 4.50193C7.16707 4.50193 3.25 8.419 3.25 13.2509C3.25 18.0829 7.16707 22 11.999 22C16.831 22 20.748 18.0829 20.748 13.2509C20.748 11.1048 19.9753 9.13923 18.6929 7.61712L20.0317 6.27838C20.3246 5.98548 20.3246 5.51061 20.0317 5.21772C19.7388 4.92482 19.2639 4.92482 18.971 5.21772L17.6322 6.55651C16.1102 5.27443 14.1448 4.50193 11.999 4.50193ZM12.749 9.80859V16.6923C12.749 17.1065 12.4132 17.4423 11.999 17.4423C11.5848 17.4423 11.249 17.1065 11.249 16.6923L11.249 9.80859C11.249 9.39438 11.5848 9.05859 11.999 9.05859C12.4132 9.05859 12.749 9.39438 12.749 9.80859ZM9.30713 12.1029V14.3975C9.30713 14.8117 8.97134 15.1475 8.55713 15.1475C8.14292 15.1475 7.80713 14.8117 7.80713 14.3975V12.1029C7.80713 11.6887 8.14292 11.3529 8.55713 11.3529C8.97134 11.3529 9.30713 11.6887 9.30713 12.1029ZM16.1908 12.1029V14.3975C16.1908 14.8117 15.8551 15.1475 15.4408 15.1475C15.0266 15.1475 14.6908 14.8117 14.6908 14.3975V12.1029C14.6908 11.6887 15.0266 11.3529 15.4408 11.3529C15.8551 11.3529 16.1908 11.6887 16.1908 12.1029Z" fill="#000000"/></svg>