<svg width="80" height="80" viewBox="0 0 24 25" fill="none" xmlns="http://www.w3.org/2000/svg" transform="rotate(0 0 0)"><path d="M14.375 3.25V4H15.125C16.3676 4 17.375 5.00736 17.375 6.25V10.2904C17.1287 10.2637 16.8784 10.25 16.625 10.25C12.828 10.25 9.75 13.328 9.75 17.125C9.75 19.3006 10.7606 21.2403 12.338 22.5H8.875C7.63236 22.5 6.625 21.4926 6.625 20.25V6.25C6.625 5.00736 7.63236 4 8.875 4H9.625V3.25C9.625 2.83579 9.96079 2.5 10.375 2.5H13.625C14.0392 2.5 14.375 2.83579 14.375 3.25Z" fill="#000000"/><path d="M11.25 17.125C11.25 14.1565 13.6565 11.75 16.625 11.75C19.5935 11.75 22 14.1565 22 17.125C22 20.0935 19.5935 22.5 16.625 22.5C13.6565 22.5 11.25 20.0935 11.25 17.125ZM15.824 14.9992C15.824 15.441 16.1822 15.7992 16.624 15.7992H16.634C17.0759 15.7992 17.434 15.441 17.434 14.9992C17.434 14.5574 17.0759 14.1992 16.634 14.1992H16.624C16.1822 14.1992 15.824 14.5574 15.824 14.9992ZM16.625 16.7504C16.2108 16.7504 15.875 17.0862 15.875 17.5004V19.2487C15.875 19.6629 16.2108 19.9987 16.625 19.9987C17.0392 19.9987 17.375 19.6629 17.375 19.2487V17.5004C17.375 17.0862 17.0392 16.7504 16.625 16.7504Z" fill="#000000"/></svg>