<svg width="24" height="25" viewBox="0 0 24 25" fill="none" xmlns="http://www.w3.org/2000/svg">
<path d="M13.9673 15.153L12.7492 16.0113V14.2934L13.9673 15.153Z" fill="#323544"/>
<path d="M12.7492 9.66512L12.7492 11.3977L13.9777 10.5308L12.7492 9.66512Z" fill="#323544"/>
<path d="M2 12.8441C2 7.32182 6.47669 2.84412 11.9992 2.84412C17.5216 2.84412 21.9983 7.32181 21.9983 12.8441C21.9983 18.3664 17.5216 22.8441 11.9992 22.8441C6.47669 22.8441 2 18.3664 2 12.8441ZM12.4312 7.60604C12.2023 7.44471 11.9025 7.42439 11.6539 7.55334C11.4052 7.6823 11.2492 7.93904 11.2492 8.21912L11.2492 11.3992L9.15156 9.91906C8.81312 9.68025 8.34517 9.76102 8.10636 10.0995C7.86755 10.4379 7.94832 10.9059 8.28676 11.1447L10.6973 12.8456L8.29713 14.5392C7.95869 14.778 7.87792 15.2459 8.11673 15.5844C8.35554 15.9228 8.8235 16.0036 9.16194 15.7648L11.2492 14.292V17.3401C11.2175 17.5282 11.2571 17.7284 11.3757 17.8966C11.4581 18.0135 11.5678 18.0997 11.69 18.1526C11.7843 18.1953 11.889 18.2191 11.9992 18.2191C12.2034 18.2191 12.3886 18.1375 12.5239 18.005L15.7008 15.7665C15.9001 15.6261 16.0187 15.3975 16.0188 15.1537C16.0189 14.9098 15.9004 14.6812 15.7012 14.5406L13.299 12.8456L15.7116 11.1432C15.9108 11.0027 16.0293 10.774 16.0292 10.5302C16.0291 10.2864 15.9105 10.0578 15.7112 9.91736L12.4312 7.60604Z" fill="#323544"/>
</svg>
