<svg width="80" height="80" viewBox="0 0 24 25" fill="none" xmlns="http://www.w3.org/2000/svg" transform="rotate(0 0 0)"><path d="M3.25 6.45337C3.25 5.21073 4.25736 4.20337 5.5 4.20337H18.4985C19.7412 4.20337 20.7485 5.21073 20.7485 6.45337L20.7485 9.20337H3.25V6.45337Z" fill="#000000"/><path d="M16.4418 10.7034H3.25V19.4534C3.25 20.696 4.25736 21.7034 5.5 21.7034H11.3488C11.2897 21.3048 11.32 20.876 11.4635 20.4343L11.8187 19.3412L10.8889 18.6656C8.73365 17.0998 9.84128 13.6908 12.5053 13.6908H13.6546L14.0098 12.5977C14.3986 11.4013 15.4031 10.7698 16.4418 10.7034Z" fill="#000000"/><path d="M17.8151 13.0612C17.4409 11.9096 15.8116 11.9096 15.4374 13.0612L14.7455 15.1908H12.5063C11.2954 15.1908 10.7919 16.7403 11.7716 17.4521L13.5831 18.7683L12.8912 20.8978C12.517 22.0495 13.8351 23.0071 14.8147 22.2954L16.6262 20.9792L18.4378 22.2954C19.4174 23.0071 20.7355 22.0495 20.3613 20.8978L19.6694 18.7683L21.4809 17.4521C22.4606 16.7403 21.9571 15.1908 20.7462 15.1908H18.507L17.8151 13.0612Z" fill="#000000"/></svg>