<svg width="80" height="80" viewBox="0 0 24 24" fill="none" xmlns="http://www.w3.org/2000/svg" transform="rotate(0 0 0)"><path d="M4.25 3.75C3.00736 3.75 2 4.75736 2 6V18C2 19.2426 3.00736 20.25 4.25 20.25H12.441L10.4075 18.2151C9.52952 17.3365 9.52954 15.9127 10.4075 15.0342L12.9075 12.5326C13.7859 11.6536 15.2105 11.6532 16.0895 12.5316C16.3378 12.7797 16.5159 13.0713 16.624 13.382C16.7321 13.0713 16.9103 12.7797 17.1585 12.5316C18.0375 11.6532 19.4621 11.6536 20.3405 12.5326L22 14.1931V9C22 7.75736 20.9926 6.75 19.75 6.75H12.25C12.0139 6.75 11.7916 6.63885 11.65 6.45L10.3 4.65C9.87508 4.08344 9.2082 3.75 8.5 3.75H4.25Z" fill="#000000"/><path d="M15.0295 14.6532C15.3223 14.3602 15.3222 13.8853 15.0292 13.5925C14.7362 13.2997 14.2613 13.2999 13.9685 13.5929L11.4685 16.0945C11.1759 16.3873 11.1759 16.8619 11.4685 17.1548L13.9685 19.6565C14.2613 19.9495 14.7362 19.9497 15.0292 19.6569C15.3222 19.3641 15.3223 18.8892 15.0295 18.5962L13.0593 16.6247L15.0295 14.6532Z" fill="#000000"/><path d="M19.2795 13.5929C18.9867 13.2999 18.5118 13.2997 18.2189 13.5925C17.9259 13.8853 17.9257 14.3602 18.2185 14.6532L20.1887 16.6247L18.2185 18.5962C17.9257 18.8892 17.9259 19.3641 18.2189 19.6569C18.5119 19.9497 18.9867 19.9495 19.2795 19.6565L21.7795 17.1548C22.0722 16.8619 22.0722 16.3873 21.7795 16.0945L19.2795 13.5929Z" fill="#000000"/></svg>