<svg width="80" height="80" viewBox="0 0 24 25" fill="none" xmlns="http://www.w3.org/2000/svg" transform="rotate(0 0 0)"><path d="M5.5 4.20331C4.25736 4.20331 3.25 5.21067 3.25 6.45331V9.20331H20.7485L20.7485 6.45331C20.7485 5.21067 19.7412 4.20331 18.4985 4.20331H5.5Z" fill="#000000"/><path d="M20.7485 10.7033H3.25V19.4533C3.25 20.6959 4.25736 21.7033 5.5 21.7033H12.9423C12.9309 21.6924 12.9196 21.6813 12.9085 21.6701L10.4085 19.1684C9.5305 18.2898 9.53052 16.866 10.4085 15.9875L12.9085 13.4859C13.7869 12.6069 15.2115 12.6065 16.0905 13.4849C16.3387 13.733 16.5169 14.0246 16.625 14.3353C16.7331 14.0246 16.9113 13.733 17.1595 13.4849C18.0385 12.6065 19.4631 12.6069 20.3415 13.4859L20.7485 13.8932L20.7485 10.7033Z" fill="#000000"/><path d="M15.0305 15.6065C15.3233 15.3135 15.3231 14.8387 15.0302 14.5459C14.7372 14.2531 14.2623 14.2532 13.9695 14.5462L11.4695 17.0478C11.1768 17.3406 11.1768 17.8152 11.4695 18.1081L13.9695 20.6098C14.2623 20.9028 14.7371 20.903 15.0301 20.6102C15.3231 20.3174 15.3233 19.8425 15.0305 19.5496L13.0603 17.578L15.0305 15.6065Z" fill="#000000"/><path d="M19.2805 14.5462C18.9877 14.2532 18.5128 14.2531 18.2198 14.5459C17.9269 14.8387 17.9267 15.3135 18.2195 15.6065L20.1897 17.578L18.2195 19.5496C17.9267 19.8425 17.9269 20.3174 18.2199 20.6102C18.5129 20.903 18.9877 20.9028 19.2805 20.6098L21.7805 18.1081C22.0732 17.8152 22.0732 17.3406 21.7805 17.0478L19.2805 14.5462Z" fill="#000000"/></svg>