<svg width="80" height="80" viewBox="0 0 24 24" fill="none" xmlns="http://www.w3.org/2000/svg" transform="rotate(0 0 0)"><path d="M2.875 5C2.875 3.82639 3.82639 2.875 5 2.875H16C17.1736 2.875 18.125 3.8264 18.125 5V5.625C18.125 6.24632 17.6213 6.75 17 6.75C16.3787 6.75 15.875 6.24632 15.875 5.625V5.125H11.625V15.875H12.5312C13.1526 15.875 13.6562 16.3787 13.6562 17C13.6562 17.6213 13.1526 18.125 12.5312 18.125H8.46875C7.84743 18.125 7.34375 17.6213 7.34375 17C7.34375 16.3787 7.84743 15.875 8.46875 15.875H9.375L9.375 5.125H5.125V5.625C5.125 6.24632 4.62132 6.75 4 6.75C3.37868 6.75 2.875 6.24632 2.875 5.625V5Z" fill="#000000"/><path d="M15.6448 13.8206C15.9664 12.6203 17.2001 11.9079 18.4004 12.2296L20.3323 12.7472C21.5326 13.0688 22.2449 14.3026 21.9233 15.5029L21.2764 17.9172L20.5513 17.7229L14.9978 16.235L15.6448 13.8206Z" fill="#000000"/><path d="M14.6096 17.6839L14.3507 18.6502C14.029 19.8505 14.7414 21.0842 15.9417 21.4059L17.8735 21.9235C19.0738 22.2451 20.3076 21.5328 20.6292 20.3325L20.8881 19.3661L14.6096 17.6839Z" fill="#000000"/></svg>