<svg width="80" height="80" viewBox="0 0 24 25" fill="none" xmlns="http://www.w3.org/2000/svg" transform="rotate(0 0 0)"><path d="M4 3.99951C3.58579 3.99951 3.25 4.3353 3.25 4.74951C3.25 5.16373 3.58579 5.49951 4 5.49951H11.25C11.6642 5.49951 12 5.16373 12 4.74951C12 4.3353 11.6642 3.99951 11.25 3.99951H4Z" fill="#000000"/><path d="M15.9086 7.59436C15.6941 7.37976 15.3715 7.3155 15.0912 7.43155C14.8109 7.54761 14.6281 7.82112 14.6281 8.12451V11.9995L4 11.9995C3.58579 11.9995 3.25 12.3353 3.25 12.7495C3.25 13.1637 3.58579 13.4995 4 13.4995H14.6281L14.6281 17.3745C14.6281 17.6779 14.8109 17.9514 15.0912 18.0675C15.3715 18.1835 15.6941 18.1193 15.9086 17.9047L20.5305 13.2797C20.8232 12.9868 20.8232 12.5122 20.5305 12.2194L15.9086 7.59436Z" fill="#000000"/><path d="M4 19.9995C3.58579 19.9995 3.25 20.3353 3.25 20.7495C3.25 21.1637 3.58579 21.4995 4 21.4995H11.25C11.6642 21.4995 12 21.1637 12 20.7495C12 20.3353 11.6642 19.9995 11.25 19.9995H4Z" fill="#000000"/></svg>