<svg width="80" height="80" viewBox="0 0 24 24" fill="none" xmlns="http://www.w3.org/2000/svg" transform="rotate(0 0 0)"><path d="M4.25 3.75C3.00736 3.75 2 4.75736 2 6V18C2 19.2426 3.00736 20.25 4.25 20.25H19.75C20.9926 20.25 22 19.2426 22 18V9C22 7.75736 20.9926 6.75 19.75 6.75H12.25C12.0139 6.75 11.7916 6.63885 11.65 6.45L10.3 4.65C9.87508 4.08344 9.2082 3.75 8.5 3.75H4.25ZM6.5 12H14.5C14.9142 12 15.25 12.3358 15.25 12.75C15.25 13.1642 14.9142 13.5 14.5 13.5H6.5C6.08579 13.5 5.75 13.1642 5.75 12.75C5.75 12.3358 6.08579 12 6.5 12ZM6.5 15H10.5C10.9142 15 11.25 15.3358 11.25 15.75C11.25 16.1642 10.9142 16.5 10.5 16.5H6.5C6.08579 16.5 5.75 16.1642 5.75 15.75C5.75 15.3358 6.08579 15 6.5 15Z" fill="#000000"/></svg>