<svg width="80" height="80" viewBox="0 0 24 24" fill="none" xmlns="http://www.w3.org/2000/svg" transform="rotate(0 0 0)"><path d="M2 6C2 4.75736 3.00736 3.75 4.25 3.75H8.5C9.2082 3.75 9.87508 4.08344 10.3 4.65L11.65 6.45C11.7916 6.63885 12.0139 6.75 12.25 6.75H19.75C20.9926 6.75 22 7.75736 22 9V12.338C20.7403 10.7606 18.8006 9.75 16.625 9.75C12.828 9.75 9.75 12.828 9.75 16.625C9.75 17.9554 10.1279 19.1976 10.7822 20.25H4.25C3.00736 20.25 2 19.2426 2 18V6Z" fill="#000000"/><path d="M20.9189 19.8586C21.5976 18.9588 22 17.8389 22 16.625C22 13.6565 19.5935 11.25 16.625 11.25C15.4111 11.25 14.2912 11.6524 13.3914 12.3311L20.9189 19.8586Z" fill="#000000"/><path d="M12.3308 13.3918C11.6523 14.2915 11.25 15.4113 11.25 16.625C11.25 19.5935 13.6565 22 16.625 22C17.8387 22 18.9585 21.5977 19.8582 20.9192L12.3308 13.3918Z" fill="#000000"/></svg>