<svg width="80" height="80" viewBox="0 0 24 24" fill="none" xmlns="http://www.w3.org/2000/svg" transform="rotate(0 0 0)"><path d="M4.25 9.75C3.00736 9.75 2 10.7574 2 12C2 13.2426 3.00736 14.25 4.25 14.25H6.625V9.75H4.25Z" fill="#000000"/><path d="M8.125 9.75V14.25H11.25V9.75H8.125Z" fill="#000000"/><path d="M12.75 9.75V14.25H15.8749V9.75H12.75Z" fill="#000000"/><path d="M17.3749 9.75V14.25H19.75C20.9926 14.25 22 13.2426 22 12C22 10.7574 20.9926 9.75 19.75 9.75H17.3749Z" fill="#000000"/><path d="M7.3125 4.25C7.3125 5.22966 6.68639 6.06309 5.8125 6.37197V8.25H4.3125V6.37197C3.43861 6.06309 2.8125 5.22966 2.8125 4.25C2.8125 3.00736 3.81986 2 5.0625 2C6.30514 2 7.3125 3.00736 7.3125 4.25ZM5.0625 3.5C4.64829 3.5 4.3125 3.83579 4.3125 4.25C4.3125 4.66421 4.64829 5 5.0625 5C5.47671 5 5.8125 4.66421 5.8125 4.25C5.8125 3.83579 5.47671 3.5 5.0625 3.5Z" fill="#000000"/><path d="M16.5625 4.25C16.5625 5.22966 15.9364 6.06309 15.0625 6.37197V8.25H13.5625V6.37197C12.6886 6.06309 12.0625 5.22966 12.0625 4.25C12.0625 3.00736 13.0699 2 14.3125 2C15.5551 2 16.5625 3.00736 16.5625 4.25ZM14.3125 3.5C13.8983 3.5 13.5625 3.83579 13.5625 4.25C13.5625 4.66421 13.8983 5 14.3125 5C14.7267 5 15.0625 4.66421 15.0625 4.25C15.0625 3.83579 14.7267 3.5 14.3125 3.5Z" fill="#000000"/><path d="M7.4375 19.75C7.4375 18.7703 8.06361 17.9369 8.9375 17.628L8.9375 15.75H10.4375V17.628C11.3114 17.9369 11.9375 18.7703 11.9375 19.75C11.9375 20.9926 10.9301 22 9.6875 22C8.44486 22 7.4375 20.9926 7.4375 19.75ZM10.4375 19.75C10.4375 19.3358 10.1017 19 9.6875 19C9.27329 19 8.9375 19.3358 8.9375 19.75C8.9375 20.1642 9.27329 20.5 9.6875 20.5C10.1017 20.5 10.4375 20.1642 10.4375 19.75Z" fill="#000000"/></svg>