<svg width="80" height="80" viewBox="0 0 24 24" fill="none" xmlns="http://www.w3.org/2000/svg" transform="rotate(0 0 0)"><path d="M2 6C2 4.75736 3.00736 3.75 4.25 3.75H8.5C9.2082 3.75 9.87508 4.08344 10.3 4.65L11.65 6.45C11.7916 6.63885 12.0139 6.75 12.25 6.75H19.75C20.9926 6.75 22 7.75736 22 9V17.7477C21.5219 16.8534 20.7333 16.1496 19.7775 15.7817C20.1556 15.1963 20.375 14.4988 20.375 13.75C20.375 11.6789 18.6961 10 16.625 10C14.5539 10 12.875 11.6789 12.875 13.75C12.875 14.4988 13.0944 15.1963 13.4725 15.7817C11.8786 16.3952 10.75 17.9427 10.75 19.75V20.25H4.25C3.00736 20.25 2 19.2426 2 18V6Z" fill="#000000"/><path d="M16.625 11.5C15.3824 11.5 14.375 12.5074 14.375 13.75C14.375 14.9926 15.3824 16 16.625 16C17.8676 16 18.875 14.9926 18.875 13.75C18.875 12.5074 17.8676 11.5 16.625 11.5Z" fill="#000000"/><path d="M14.9964 17C13.4783 17 12.25 18.2325 12.25 19.75V21C12.25 21.4142 12.5858 21.75 13 21.75H20.25C20.6642 21.75 21 21.4142 21 21V19.75C21 18.2325 19.7717 17 18.2536 17H14.9964Z" fill="#000000"/></svg>