<svg width="80" height="80" viewBox="0 0 24 24" fill="none" xmlns="http://www.w3.org/2000/svg" transform="rotate(0 0 0)"><path d="M14.2539 15.9302C13.8738 14.886 14.8864 13.8734 15.9306 14.2536L21.1386 16.1496C22.2667 16.5602 22.2921 18.1464 21.1777 18.593L19.3328 19.3324L18.5934 21.1774C18.1468 22.2917 16.5606 22.2663 16.1499 21.1382L14.2539 15.9302Z" fill="#000000"/><path d="M7.375 6.625C4.40647 6.625 2 9.03147 2 12C2 14.9685 4.40647 17.375 7.375 17.375C10.3435 17.375 12.75 14.9685 12.75 12C12.75 9.03147 10.3435 6.625 7.375 6.625ZM4.97109 12C4.97109 11.5029 5.37404 11.1 5.87109 11.1C6.36815 11.1 6.77119 11.5029 6.77119 12C6.77119 12.4971 6.36825 12.9 5.87119 12.9C5.37414 12.9 4.97109 12.4971 4.97109 12ZM8.875 11.1C9.37206 11.1 9.7751 11.5029 9.7751 12C9.7751 12.4971 9.37206 12.9 8.875 12.9C8.37794 12.9 7.975 12.4971 7.975 12C7.975 11.5029 8.37794 11.1 8.875 11.1Z" fill="#000000"/><path d="M14.4999 4.5C12.7404 4.5 11.1224 5.1059 9.84322 6.12043C12.1383 7.08507 13.7499 9.35433 13.7499 12C13.7499 12.4829 13.6962 12.9534 13.5945 13.4056C13.925 13.1042 14.3258 12.8793 14.7662 12.7615C14.5138 12.6021 14.346 12.3206 14.346 12C14.346 11.5029 14.749 11.1 15.246 11.1C15.7431 11.1 16.1461 11.5029 16.1461 12C16.1461 12.2781 16.02 12.5267 15.8219 12.6918C16.0272 12.7183 16.2356 12.7684 16.4445 12.8444L21.5044 14.6865C21.8245 13.8525 21.9999 12.9467 21.9999 12C21.9999 7.85786 18.6421 4.5 14.4999 4.5ZM18.2499 11.1C18.747 11.1 19.15 11.5029 19.15 12C19.15 12.4971 18.747 12.9 18.2499 12.9C17.7529 12.9 17.3499 12.4971 17.3499 12C17.3499 11.5029 17.7529 11.1 18.2499 11.1Z" fill="#000000"/><path d="M13.9506 19.4802L12.8452 16.4438C12.7354 16.1421 12.6797 15.8417 12.671 15.5497C11.9805 16.5779 10.9984 17.394 9.84322 17.8796C10.9881 18.7876 12.4044 19.3683 13.9506 19.4802Z" fill="#000000"/></svg>