<svg width="80" height="80" viewBox="0 0 24 25" fill="none" xmlns="http://www.w3.org/2000/svg" transform="rotate(0 0 0)"><path d="M3.25 6.45331C3.25 5.21067 4.25736 4.20331 5.5 4.20331H18.4985C19.7412 4.20331 20.7485 5.21067 20.7485 6.45331L20.7485 9.20331H3.25V6.45331Z" fill="#000000"/><path d="M11.1245 21.7033H5.5C4.25736 21.7033 3.25 20.6959 3.25 19.4533V10.7033H16.625C12.828 10.7033 9.75 13.7814 9.75 17.5783C9.75 19.126 10.2614 20.5543 11.1245 21.7033Z" fill="#000000"/><path d="M20.9189 20.8119C21.5976 19.9121 22 18.7922 22 17.5783C22 14.6098 19.5935 12.2033 16.625 12.2033C15.4111 12.2033 14.2912 12.6057 13.3914 13.2844L20.9189 20.8119Z" fill="#000000"/><path d="M12.3308 14.3451C11.6523 15.2448 11.25 16.3646 11.25 17.5783C11.25 20.5468 13.6565 22.9533 16.625 22.9533C17.8387 22.9533 18.9585 22.551 19.8582 21.8725L12.3308 14.3451Z" fill="#000000"/></svg>