<svg width="80" height="80" viewBox="0 0 24 25" fill="none" xmlns="http://www.w3.org/2000/svg" transform="rotate(0 0 0)"><path d="M3.25 6.45331C3.25 5.21067 4.25736 4.20331 5.5 4.20331H18.4985C19.7412 4.20331 20.7485 5.21067 20.7485 6.45331L20.7485 9.20331H3.25V6.45331Z" fill="#000000"/><path d="M11.1245 21.7033H5.5C4.25736 21.7033 3.25 20.6959 3.25 19.4533V10.7033H16.625C12.828 10.7033 9.75 13.7814 9.75 17.5783C9.75 19.126 10.2614 20.5543 11.1245 21.7033Z" fill="#000000"/><path d="M16.1124 13.7374C16.9237 13.6291 17.7484 13.7805 18.4684 14.1697C18.7957 14.3467 19.0938 14.5687 19.3547 14.8277H19.0637C18.6495 14.8277 18.3137 15.1634 18.3137 15.5777C18.3137 15.9919 18.6495 16.3277 19.0637 16.3277H20.7335C20.8623 16.3387 20.9957 16.3165 21.1207 16.2566C21.4062 16.1198 21.5657 15.8258 21.545 15.5281C21.5376 15.4139 21.5045 15.3066 21.4516 15.212C20.9593 14.2082 20.166 13.3824 19.1818 12.8502C18.1832 12.3103 17.0393 12.1004 15.914 12.2506C14.7888 12.4007 13.7399 12.9033 12.9179 13.6861C12.3152 14.2601 11.857 14.9632 11.5747 15.7375C11.4328 16.1266 11.6332 16.5571 12.0224 16.699C12.4115 16.8409 12.842 16.6405 12.9839 16.2513C13.1875 15.693 13.5178 15.1862 13.9523 14.7724C14.545 14.2079 15.3012 13.8456 16.1124 13.7374ZM21.2276 18.4569C20.8383 18.3152 20.4079 18.5158 20.2662 18.9051C20.0627 19.4641 19.7322 19.9716 19.2972 20.3858C18.7045 20.9503 17.9483 21.3126 17.1371 21.4208C16.3258 21.5291 15.5011 21.3777 14.7811 20.9885C14.452 20.8106 14.1526 20.5871 13.8906 20.3264H14.1852C14.5994 20.3264 14.9352 19.9907 14.9352 19.5764C14.9352 19.1622 14.5994 18.8264 14.1852 18.8264H12.4529C12.0551 18.8264 11.7296 19.1362 11.7044 19.5276C11.6959 19.6525 11.7186 19.7812 11.7765 19.9021C12.267 20.9258 13.0691 21.768 14.0677 22.308C15.0663 22.8479 16.2102 23.0578 17.3355 22.9076C18.4607 22.7575 19.5096 22.2549 20.3316 21.472C20.935 20.8975 21.3935 20.1935 21.6757 19.4182C21.8174 19.029 21.6168 18.5986 21.2276 18.4569Z" fill="#000000"/></svg>