<svg width="80" height="80" viewBox="0 0 24 25" fill="none" xmlns="http://www.w3.org/2000/svg" transform="rotate(0 0 0)"><path d="M7.03122 7.97181C6.81676 7.75722 6.49413 7.69296 6.21382 7.80902C5.9335 7.92508 5.75072 8.19859 5.75072 8.50198L5.75072 11.752L2.75 11.752C2.33579 11.752 2 12.0878 2 12.502C2 12.9162 2.33579 13.252 2.75 13.252L5.75072 13.252L5.75072 16.502C5.75072 16.8054 5.93351 17.0789 6.21383 17.1949C6.49415 17.311 6.81678 17.2467 7.03123 17.0321L10.9962 13.0644C11.1518 12.927 11.25 12.726 11.25 12.502C11.25 12.2791 11.1528 12.0789 10.9984 11.9415L7.03122 7.97181Z" fill="#000000"/><path d="M17.7812 7.97181C17.5668 7.75722 17.2441 7.69296 16.9638 7.80902C16.6835 7.92508 16.5007 8.19859 16.5007 8.50198L16.5007 11.752L13.5 11.752C13.0858 11.752 12.75 12.0878 12.75 12.502C12.75 12.9162 13.0858 13.252 13.5 13.252L16.5007 13.252V16.502C16.5007 16.8054 16.6835 17.0789 16.9638 17.1949C17.2441 17.311 17.5668 17.2467 17.7812 17.0321L21.7462 13.0644C21.9018 12.927 22 12.7259 22 12.502C22 12.2791 21.9028 12.0789 21.7484 11.9415L17.7812 7.97181Z" fill="#000000"/></svg>