<svg width="80" height="80" viewBox="0 0 25 24" fill="none" xmlns="http://www.w3.org/2000/svg" transform="rotate(0 0 0)"><path d="M16.75 3.25C16.3358 3.25 16 3.58579 16 4C16 4.41421 16.3358 4.75 16.75 4.75H19C19.4142 4.75 19.75 5.08579 19.75 5.5V5.501H19C18.6966 5.501 18.4231 5.68379 18.3071 5.9641C18.191 6.24441 18.2553 6.56704 18.4699 6.7815L19.9698 8.2805C20.047 8.3576 20.1367 8.41439 20.2325 8.45087C20.3015 8.47723 20.3754 8.4937 20.4525 8.49852C20.4682 8.4995 20.4841 8.5 20.5 8.5C20.513 8.5 20.5258 8.49967 20.5386 8.49902C20.6358 8.4941 20.7282 8.47066 20.8122 8.43217C20.896 8.39376 20.9715 8.34037 21.0352 8.27542L22.5302 6.78152C22.7448 6.56706 22.809 6.24443 22.693 5.96411C22.5769 5.68379 22.3034 5.501 22 5.501H21.25V5.5C21.25 4.25736 20.2427 3.25 19 3.25H16.75Z" fill="#000000"/><path d="M8.25002 20.75C8.66424 20.75 9.00002 20.4142 9.00002 20C9.00002 19.5858 8.66424 19.25 8.25002 19.25H6.00002C5.58581 19.25 5.25002 18.9142 5.25002 18.5V18.499H6.00002C6.30341 18.499 6.57692 18.3162 6.69298 18.0359C6.80904 17.7556 6.74478 17.433 6.53018 17.2185L5.03023 15.7195C4.95309 15.6424 4.86333 15.5856 4.7676 15.5491C4.68449 15.5174 4.59429 15.5 4.50002 15.5C4.38864 15.5 4.28293 15.5243 4.18789 15.5678C4.12968 15.5945 4.07418 15.6289 4.02297 15.6712C4.00266 15.688 3.98324 15.7058 3.96481 15.7246L2.46988 17.2185C2.25527 17.4329 2.19101 17.7556 2.30706 18.0359C2.42312 18.3162 2.69663 18.499 3.00002 18.499H3.75002V18.5C3.75002 19.7426 4.75738 20.75 6.00002 20.75H8.25002Z" fill="#000000"/><path d="M3.75002 5.5C3.75002 4.25736 4.75738 3.25 6.00002 3.25H12.25C13.4927 3.25 14.5 4.25736 14.5 5.5V9.17383H13.4239C11.3528 9.17383 9.67385 10.8528 9.67385 12.9238V14H6.00002C4.75738 14 3.75002 12.9926 3.75002 11.75V5.5Z" fill="#000000"/><path d="M11.1739 12.9238C11.1739 11.6812 12.1812 10.6738 13.4239 10.6738H18.3265C19.5692 10.6738 20.5765 11.6812 20.5765 12.9238V17.8265C20.5765 19.0691 19.5692 20.0765 18.3265 20.0765H13.4238C12.1812 20.0765 11.1739 19.0691 11.1739 17.8265V12.9238ZM12.6739 16.7178V17.8265C12.6739 18.0731 12.7929 18.2919 12.9766 18.4286C13.1017 18.5215 13.2565 18.5765 13.4238 18.5765H18.3265C18.7407 18.5765 19.0765 18.2407 19.0765 17.8265V15.9657L18.2733 16.7089C17.7058 17.2342 16.8607 17.3246 16.1948 16.9313L15.401 16.4625C14.714 16.0568 13.8635 16.0452 13.1657 16.4321L13.1526 16.4396L12.6739 16.7178ZM14.5486 13.2449H14.5432C14.1014 13.2449 13.7432 13.603 13.7432 14.0449C13.7432 14.4867 14.1014 14.8449 14.5432 14.8449H14.5486C14.9904 14.8449 15.3486 14.4867 15.3486 14.0449C15.3486 13.603 14.9904 13.2449 14.5486 13.2449Z" fill="#000000"/></svg>