<svg width="80" height="80" viewBox="0 0 24 25" fill="none" xmlns="http://www.w3.org/2000/svg" transform="rotate(0 0 0)"><path d="M3.25 7.74999C3.25 5.54085 5.04087 3.75 7.25 3.75C9.45913 3.75 11.25 5.54085 11.25 7.74999C11.25 9.95913 9.45913 11.75 7.25 11.75C5.04087 11.75 3.25 9.95913 3.25 7.74999Z" fill="#000000"/><path d="M3.25 17.25C3.25 15.0409 5.04087 13.25 7.25 13.25C9.45913 13.25 11.25 15.0409 11.25 17.25C11.25 19.4591 9.45913 21.25 7.25 21.25C5.04087 21.25 3.25 19.4591 3.25 17.25Z" fill="#000000"/><path d="M12.75 17.25C12.75 15.0409 14.5409 13.25 16.75 13.25C18.9591 13.25 20.75 15.0409 20.75 17.25C20.75 19.4591 18.9591 21.25 16.75 21.25C14.5409 21.25 12.75 19.4591 12.75 17.25Z" fill="#000000"/><path d="M12.75 6C12.75 4.75736 13.7574 3.75 15 3.75H18.5C19.7426 3.75 20.75 4.75736 20.75 6V9.49998C20.75 10.7426 19.7426 11.75 18.5 11.75H15C13.7574 11.75 12.75 10.7426 12.75 9.49998V6Z" fill="#000000"/></svg>