<svg width="80" height="80" viewBox="0 0 24 24" fill="none" xmlns="http://www.w3.org/2000/svg" transform="rotate(0 0 0)"><path d="M3.25 5.5C3.25 4.25736 4.25736 3.25 5.5 3.25H18.5C19.7426 3.25 20.75 4.25736 20.75 5.5V18.5C20.75 19.7426 19.7426 20.75 18.5 20.75H5.5C4.25736 20.75 3.25 19.7426 3.25 18.5V5.5ZM7.5 6.25C6.80964 6.25 6.25 6.80964 6.25 7.5V8.25C6.25 8.66421 6.58579 9 7 9C7.41421 9 7.75 8.66421 7.75 8.25V7.75H11.25L11.25 16.25H10.125C9.71079 16.25 9.375 16.5858 9.375 17C9.375 17.4142 9.71079 17.75 10.125 17.75H13.875C14.2892 17.75 14.625 17.4142 14.625 17C14.625 16.5858 14.2892 16.25 13.875 16.25H12.75V7.75H16.25V8.25C16.25 8.66421 16.5858 9 17 9C17.4142 9 17.75 8.66421 17.75 8.25V7.5C17.75 6.80964 17.1904 6.25 16.5 6.25H7.5Z" fill="#000000"/></svg>