<svg width="80" height="80" viewBox="0 0 24 25" fill="none" xmlns="http://www.w3.org/2000/svg" transform="rotate(0 0 0)"><path d="M2.21948 12.7809C1.92683 12.488 1.92684 12.0134 2.2195 11.7206L5.53452 8.40343C5.82732 8.11045 6.30219 8.11029 6.59518 8.4031C6.88817 8.6959 6.88832 9.17077 6.59552 9.46376L3.81031 12.2507L6.59553 15.0379C6.88832 15.3309 6.88816 15.8058 6.59516 16.0986C6.30217 16.3914 5.82729 16.3912 5.5345 16.0982L2.21948 12.7809Z" fill="#000000"/><path d="M21.7805 11.7224C22.0732 12.0153 22.0732 12.4899 21.7805 12.7828L18.4655 16.0999C18.1727 16.3929 17.6978 16.393 17.4048 16.1002C17.1118 15.8074 17.1117 15.3325 17.4045 15.0396L20.1897 12.2526L17.4045 9.46539C17.1117 9.1724 17.1118 8.69752 17.4048 8.40473C17.6978 8.11194 18.1727 8.11211 18.4655 8.4051L21.7805 11.7224Z" fill="#000000"/><path d="M15.0664 12.2502C15.0664 10.5575 13.6942 9.18525 12.0014 9.18525C10.3087 9.18525 8.93641 10.5575 8.93641 12.2502C8.93641 13.943 10.3087 15.3152 12.0014 15.3152C13.6942 15.3152 15.0664 13.943 15.0664 12.2502Z" fill="#000000"/></svg>