<svg width="80" height="80" viewBox="0 0 25 24" fill="none" xmlns="http://www.w3.org/2000/svg" transform="rotate(0 0 0)"><path d="M13.85 3.70342C13.05 3.10342 11.95 3.10342 11.15 3.70342L4.65 8.57842C4.08344 9.00334 3.75 9.67021 3.75 10.3784V18.4998C3.75 19.7425 4.75736 20.7498 6 20.7498H15.0299C14.9299 20.4953 14.875 20.2182 14.875 19.9282C14.875 19.8893 14.876 19.8506 14.8779 19.8121C14.2113 19.8577 13.5313 19.6072 13.0499 19.0718C12.6553 18.633 12.4651 18.0817 12.4731 17.5348C11.9082 17.5267 11.3457 17.3071 10.9146 16.876C10.0359 15.9973 10.0359 14.5727 10.9146 13.694C13.7128 10.8958 17.9293 10.3805 21.25 12.1479V10.3784C21.25 9.67021 20.9166 9.00334 20.35 8.57842L13.85 3.70342Z" fill="#000000"/><path d="M13.0359 15.8153C15.2943 13.557 18.9558 13.557 21.2142 15.8153C21.5071 16.1082 21.9819 16.1082 22.2748 15.8153C22.5677 15.5225 22.5677 15.0476 22.2748 14.7547C19.4307 11.9105 14.8194 11.9105 11.9753 14.7547C11.6824 15.0476 11.6824 15.5225 11.9753 15.8153C12.2682 16.1082 12.7431 16.1082 13.0359 15.8153Z" fill="#000000"/><path d="M15.2244 18.125C16.3031 17.1549 17.9466 17.1549 19.0253 18.125C19.3333 18.402 19.8075 18.3768 20.0845 18.0688C20.3614 17.7608 20.3363 17.2866 20.0283 17.0097C18.3792 15.5267 15.8704 15.5267 14.2214 17.0097C13.9134 17.2866 13.8883 17.7608 14.1652 18.0688C14.4422 18.3768 14.9164 18.402 15.2244 18.125Z" fill="#000000"/><path d="M16.325 19.9282C16.325 19.4863 16.6831 19.1282 17.125 19.1282C17.5668 19.1282 17.926 19.4863 17.926 19.9282C17.926 20.37 17.5668 20.7282 17.125 20.7282C16.6831 20.7282 16.325 20.37 16.325 19.9282Z" fill="#000000"/></svg>