<svg width="80" height="80" viewBox="0 0 24 24" fill="none" xmlns="http://www.w3.org/2000/svg" transform="rotate(0 0 0)"><path d="M15.6478 1.21875C15.9319 1.21881 16.1915 1.37936 16.3185 1.63347L17.2117 3.42085L18.998 4.31481C19.252 4.44193 19.4123 4.70163 19.4123 4.98566C19.4122 5.2697 19.2517 5.52933 18.9977 5.65634L17.2111 6.54954L16.3171 8.33664C16.19 8.59071 15.9303 8.75116 15.6462 8.7511C15.3621 8.75104 15.1024 8.59048 14.9754 8.33636L14.0823 6.549L12.2945 5.65502C12.0404 5.52795 11.8799 5.26818 11.8799 4.98406C11.88 4.69993 12.0406 4.44024 12.2948 4.31327L14.0829 3.42005L14.9769 1.63319C15.104 1.37913 15.3637 1.21869 15.6478 1.21875Z" fill="#000000"/><path d="M20.5016 7.2832C20.7857 7.28326 21.0453 7.44382 21.1723 7.69793L21.5604 8.47444L22.3363 8.8628C22.5903 8.98992 22.7507 9.24962 22.7507 9.53365C22.7506 9.81768 22.5901 10.0773 22.3361 10.2043L21.5599 10.5923L21.1715 11.3687C21.0444 11.6228 20.7847 11.7833 20.5006 11.7832C20.2165 11.7831 19.9569 11.6226 19.8299 11.3685L19.4419 10.592L18.6652 10.2037C18.4111 10.0766 18.2506 9.81682 18.2507 9.53269C18.2507 9.24857 18.4114 8.98887 18.6655 8.8619L19.4424 8.47386L19.8307 7.69764C19.9578 7.44359 20.2175 7.28314 20.5016 7.2832Z" fill="#000000"/><path d="M8.17962 7.54379C8.97572 5.93072 11.2759 5.93071 12.072 7.54379L13.2507 9.93208C13.3483 10.1299 13.5371 10.267 13.7554 10.2988L16.391 10.6817C18.1712 10.9404 18.882 13.128 17.5939 14.3836L15.6867 16.2427C15.5287 16.3967 15.4566 16.6185 15.4939 16.836L15.9441 19.4609C16.2482 21.2339 14.3873 22.5859 12.7951 21.7488L10.4377 20.5095C10.2425 20.4068 10.0092 20.4068 9.81389 20.5095L7.45652 21.7488C5.86432 22.5859 4.00342 21.2339 4.3075 19.4609L4.75772 16.836C4.79501 16.6185 4.72292 16.3967 4.56494 16.2427L2.65778 14.3836C1.36966 13.128 2.08046 10.9404 3.8606 10.6817L6.49623 10.2988C6.71455 10.267 6.90329 10.1299 7.00093 9.93208L8.17962 7.54379Z" fill="#000000"/></svg>