<svg width="80" height="80" viewBox="0 0 24 24" fill="none" xmlns="http://www.w3.org/2000/svg" transform="rotate(0 0 0)"><path d="M20.367 1.11219C20.66 0.81933 21.1348 0.819379 21.4277 1.1123C21.7206 1.40523 21.7205 1.8801 21.4276 2.17296L17.0316 6.56806C16.7387 6.86093 16.2638 6.86088 15.9709 6.56795C15.6781 6.27503 15.6781 5.80016 15.971 5.50729L20.367 1.11219Z" fill="#000000"/><path d="M16.66 2.69603C16.9528 2.40311 16.9528 1.92823 16.6598 1.63537C16.3669 1.34251 15.892 1.34256 15.5992 1.63548L14.0995 3.13548C13.8066 3.4284 13.8067 3.90328 14.0996 4.19614C14.3925 4.489 14.8674 4.48896 15.1603 4.19603L16.66 2.69603Z" fill="#000000"/><path d="M8.52193 5.54211C9.34726 3.86981 11.7319 3.86981 12.5572 5.54211L13.8021 8.06439C13.9113 8.28575 14.1225 8.43917 14.3668 8.47467L17.1503 8.87913C18.9957 9.1473 19.7326 11.4152 18.3972 12.7169L16.3831 14.6803C16.2063 14.8526 16.1256 15.1008 16.1674 15.3441L16.6429 18.1164C16.9581 19.9544 15.0289 21.3561 13.3782 20.4883L10.8886 19.1794C10.6701 19.0645 10.4091 19.0645 10.1906 19.1794L7.70094 20.4883C6.05028 21.3561 4.12106 19.9544 4.43631 18.1164L4.91178 15.3441C4.95351 15.1008 4.87285 14.8526 4.69609 14.6803L2.68193 12.7169C1.34652 11.4152 2.08342 9.1473 3.92891 8.87913L6.71241 8.47467C6.95669 8.43917 7.16786 8.28575 7.27711 8.06439L8.52193 5.54211Z" fill="#000000"/><path d="M21.6522 5.12828C21.9451 5.42114 21.9452 5.89601 21.6523 6.18894L20.1526 7.68894C19.8597 7.98186 19.3849 7.98191 19.0919 7.68905C18.799 7.39618 18.799 6.92131 19.0918 6.62839L20.5915 5.12839C20.8844 4.83546 21.3593 4.83541 21.6522 5.12828Z" fill="#000000"/></svg>