<svg width="80" height="80" viewBox="0 0 24 24" fill="none" xmlns="http://www.w3.org/2000/svg" transform="rotate(0 0 0)"><path d="M14.5771 3.06043L14.0467 2.5301C13.1681 1.65142 11.7434 1.65142 10.8648 2.5301L5.56158 7.83327L16.1681 18.4397L21.4712 13.1366C22.3499 12.2579 22.3499 10.8333 21.4712 9.9546L17.759 6.24241L15.4609 8.54051C15.1681 8.8334 14.6932 8.8334 14.4003 8.54051C14.1074 8.24762 14.1074 7.77274 14.4003 7.47985L16.6984 5.18175L15.6377 4.12109L11.5719 8.18696C11.279 8.47985 10.8041 8.47985 10.5112 8.18696C10.2183 7.89406 10.2183 7.41919 10.5112 7.1263L14.5771 3.06043Z" fill="#000000"/><path d="M15.1074 19.5004L4.50092 8.89394L3.44026 9.9546C2.56158 10.8333 2.56158 12.2579 3.44026 13.1366L5.56158 15.2579L3.61691 17.2026C2.73823 18.0812 2.73823 19.5059 3.61691 20.3846C4.49559 21.2632 5.92021 21.2632 6.79889 20.3846L8.74356 18.4399L10.8648 20.5611C11.7434 21.4397 13.1681 21.4397 14.0467 20.5611L15.1074 19.5004Z" fill="#000000"/></svg>