<svg width="80" height="80" viewBox="0 0 24 24" fill="none" xmlns="http://www.w3.org/2000/svg" transform="rotate(0 0 0)"><path d="M16.625 11.25C17.0392 11.25 17.375 11.5858 17.375 12C17.375 14.1401 19.1099 15.875 21.25 15.875C21.6642 15.875 22 16.2108 22 16.625C22 17.0392 21.6642 17.375 21.25 17.375C19.1099 17.375 17.375 19.1099 17.375 21.25C17.375 21.6642 17.0392 22 16.625 22C16.2108 22 15.875 21.6642 15.875 21.25C15.875 19.1099 14.1401 17.375 12 17.375C11.5858 17.375 11.25 17.0392 11.25 16.625C11.25 16.2108 11.5858 15.875 12 15.875C14.1401 15.875 15.875 14.1401 15.875 12C15.875 11.5858 16.2108 11.25 16.625 11.25Z" fill="#000000"/><path d="M20.749 14.3213C19.678 14.0912 18.875 13.1398 18.875 12C18.875 10.8352 17.9898 9.87714 16.8555 9.76172L16.625 9.75C15.3824 9.75 14.375 10.7574 14.375 12L14.3623 12.2432C14.2486 13.3606 13.3606 14.2486 12.2432 14.3623L12 14.375C10.8352 14.375 9.87714 15.2602 9.76172 16.3945L9.75 16.625L9.76172 16.8555C9.87714 17.9898 10.8352 18.875 12 18.875L12.2432 18.8877C13.2734 18.9925 14.1071 19.7559 14.3203 20.75H5.5C4.25736 20.75 3.25 19.7426 3.25 18.5V9.75H20.749V14.3213Z" fill="#000000"/><path d="M18.499 3.25C19.7414 3.25026 20.749 4.25752 20.749 5.5V8.25H3.25V5.5C3.25 4.25736 4.25736 3.25 5.5 3.25H18.499Z" fill="#000000"/></svg>