<svg width="80" height="80" viewBox="0 0 24 24" fill="none" xmlns="http://www.w3.org/2000/svg" transform="rotate(0 0 0)"><path d="M8.7504 4.125C9.19499 4.125 9.59787 4.38683 9.77843 4.7931L15.7783 18.2931C16.0307 18.8609 15.775 19.5257 15.2072 19.778C14.6394 20.0304 13.9746 19.7747 13.7222 19.2069L12.0935 15.5422L5.40708 15.542L3.77831 19.2066C3.52596 19.7744 2.86113 20.0301 2.29336 19.7777C1.72559 19.5254 1.4699 18.8606 1.72225 18.2928L7.72236 4.79308C7.90293 4.38681 8.30582 4.125 8.7504 4.125ZM6.40711 13.2921L11.0935 13.2922L8.75036 8.01997L6.40711 13.2921ZM20.4548 4.4545C20.8941 4.01516 21.6064 4.01517 22.0458 4.4545C22.4851 4.89384 22.4851 5.60616 22.0458 6.0455L18.0339 10.0573C17.5946 10.4967 16.8823 10.4967 16.4429 10.0574L14.5013 8.11574C14.062 7.6764 14.062 6.96409 14.5013 6.52475C14.9406 6.08541 15.6529 6.0854 16.0923 6.52474L17.2384 7.67087L20.4548 4.4545Z" fill="#000000"/></svg>