<svg width="80" height="80" viewBox="0 0 24 24" fill="none" xmlns="http://www.w3.org/2000/svg" transform="rotate(0 0 0)"><path d="M12 2C6.47715 2 2 6.47715 2 12C2 17.5228 6.47715 22 12 22C17.5228 22 22 17.5228 22 12C22 6.47715 17.5228 2 12 2ZM8.12598 10.6236V11.2499H9.62813C10.457 11.2499 11.1288 11.9218 11.1288 12.7507L11.1288 14.6274C11.1288 15.4563 10.457 16.1282 9.62813 16.1282H8.12669C7.29787 16.1282 6.62598 15.4563 6.62598 14.6274V10.6236C6.62598 9.10378 7.85805 7.8717 9.37789 7.8717H9.62813C10.0423 7.8717 10.3781 8.20749 10.3781 8.6217C10.3781 9.03592 10.0423 9.3717 9.62813 9.3717H9.37789C8.68648 9.3717 8.12598 9.9322 8.12598 10.6236ZM14.3711 10.6236V11.2499H15.8733C16.7021 11.2499 17.374 11.9218 17.374 12.7507V14.6274C17.374 15.4563 16.7021 16.1282 15.8733 16.1282H14.3718C13.543 16.1282 12.8711 15.4563 12.8711 14.6274V10.6236C12.8711 9.10378 14.1032 7.8717 15.623 7.8717H15.8733C16.2875 7.8717 16.6233 8.20749 16.6233 8.6217C16.6233 9.03592 16.2875 9.3717 15.8733 9.3717H15.623C14.9316 9.3717 14.3711 9.9322 14.3711 10.6236Z" fill="#000000"/></svg>