<svg width="80" height="80" viewBox="0 0 24 25" fill="none" xmlns="http://www.w3.org/2000/svg" transform="rotate(0 0 0)"><path d="M2 12.3906C2 6.86778 6.47715 2.39062 12 2.39062C17.5228 2.39062 22 6.86778 22 12.3906C22 17.9135 17.5228 22.3906 12 22.3906C6.47715 22.3906 2 17.9135 2 12.3906ZM11.9993 9.96045C12.4964 9.96045 12.9001 9.5575 12.9001 9.06045C12.9001 8.56339 12.4971 8.16045 12.0001 8.16045C11.503 8.16045 11.0993 8.56339 11.0993 9.06045C11.0993 9.5575 11.5023 9.96045 11.9993 9.96045ZM11.2501 15.8298C11.2501 16.244 11.5859 16.5798 12.0001 16.5798C12.4143 16.5798 12.7501 16.244 12.7501 15.8298V11.6054C12.7501 11.1912 12.4143 10.8554 12.0001 10.8554C11.5858 10.8554 11.2501 11.1912 11.2501 11.6054V15.8298Z" fill="#000000"/></svg>