<svg width="80" height="80" viewBox="0 0 24 24" fill="none" xmlns="http://www.w3.org/2000/svg" transform="rotate(0 0 0)"><path d="M11.0617 2.35225C11.6559 2.0805 12.3389 2.0805 12.9332 2.35225L18.6572 4.96991C19.4579 5.33608 19.9714 6.13562 19.9714 7.01607L19.9715 12.4811C19.9715 14.0375 19.4942 15.5838 18.4908 16.8253C17.6905 17.8155 16.6044 19.0727 15.4933 20.089C14.9384 20.5966 14.3592 21.0609 13.7913 21.4022C13.238 21.7349 12.6173 21.999 11.9975 21.999C11.3778 21.999 10.7571 21.7349 10.2037 21.4022C9.63587 21.0608 9.05668 20.5966 8.50173 20.0889C7.39066 19.0726 6.30451 17.8154 5.50424 16.8252C4.50083 15.5837 4.02354 14.0376 4.02351 12.4813L4.02344 7.01612C4.02343 6.13565 4.53698 5.33607 5.33769 4.9699L11.0617 2.35225ZM11.998 7.05717C10.2178 7.05717 8.77456 8.50037 8.77456 10.2806C8.77456 11.3654 9.31037 12.325 10.1318 12.9092V13.5746C10.1318 14.6053 10.9673 15.4409 11.998 15.4409C13.0288 15.4409 13.8643 14.6053 13.8643 13.5746V12.9092C14.6857 12.325 15.2215 11.3654 15.2215 10.2806C15.2215 8.50037 13.7783 7.05717 11.998 7.05717Z" fill="#000000"/></svg>