<svg width="80" height="80" viewBox="0 0 24 25" fill="none" xmlns="http://www.w3.org/2000/svg" transform="rotate(0 0 0)"><path d="M15.6372 3.36366C15.6858 3.04681 15.5276 2.73412 15.2436 2.5855C14.9596 2.43688 14.6125 2.48519 14.3799 2.70572L4.62076 11.9571C4.39797 12.1683 4.32638 12.494 4.44007 12.7792C4.55375 13.0643 4.82975 13.2514 5.13675 13.2514H9.58866L8.30331 21.6364C8.25474 21.9532 8.4129 22.2659 8.69691 22.4145C8.98093 22.5632 9.328 22.5148 9.56063 22.2943L19.3197 13.0429C19.5425 12.8317 19.6141 12.506 19.5004 12.2209C19.3867 11.9357 19.1107 11.7486 18.8037 11.7486L14.3518 11.7486L15.6372 3.36366Z" fill="#000000"/></svg>