<svg width="80" height="80" viewBox="0 0 24 25" fill="none" xmlns="http://www.w3.org/2000/svg" transform="rotate(0 0 0)"><path d="M5.5 3.75C4.5335 3.75 3.75 4.5335 3.75 5.5C3.75 6.4665 4.5335 7.25 5.5 7.25C5.80406 7.25 6.09011 7.17245 6.33925 7.03606L10.2796 9.89659C10.2602 10.001 10.25 10.1087 10.25 10.2188C10.25 11.1852 11.0335 11.9688 12 11.9688C12.9204 11.9688 13.675 11.2582 13.7448 10.3557L17.2902 9.00272C17.6044 9.3035 18.0306 9.48828 18.5 9.48828C19.4665 9.48828 20.2501 8.70478 20.2501 7.73828C20.2501 6.77178 19.4666 5.98828 18.5001 5.98828C17.5797 5.98828 16.8251 6.69884 16.7553 7.60133L13.2099 8.95428C12.8956 8.65352 12.4694 8.46875 12.0001 8.46875C11.696 8.46875 11.4099 8.54631 11.1608 8.68272L7.2205 5.82222C7.23994 5.71778 7.2501 5.61008 7.2501 5.5C7.2501 4.5335 6.4665 3.75 5.5 3.75Z" fill="#000000"/><path d="M3.25 11.7578C3.25 10.5152 4.25736 9.50781 5.5 9.50781C6.74264 9.50781 7.75 10.5152 7.75 11.7578V20.5C7.75 20.9142 7.41421 21.25 7 21.25H4C3.58579 21.25 3.25 20.9142 3.25 20.5V11.7578Z" fill="#000000"/><path d="M12 14.2031C10.7574 14.2031 9.75 15.2105 9.75 16.4531V20.5C9.75 20.9142 10.0858 21.25 10.5 21.25H13.5C13.9142 21.25 14.25 20.9142 14.25 20.5V16.4531C14.25 15.2105 13.2426 14.2031 12 14.2031Z" fill="#000000"/><path d="M18.5 11.7188C17.2574 11.7188 16.25 12.7261 16.25 13.9688V20.5C16.25 20.9142 16.5858 21.25 17 21.25H20C20.4142 21.25 20.75 20.9142 20.75 20.5V13.9688C20.75 12.7261 19.7426 11.7188 18.5 11.7188Z" fill="#000000"/></svg>