<svg width="80" height="80" viewBox="0 0 24 24" fill="none" xmlns="http://www.w3.org/2000/svg" transform="rotate(0 0 0)"><path d="M7.04061 18.022C7.3335 17.7291 7.3335 17.2543 7.04061 16.9614C6.74771 16.6685 6.27284 16.6685 5.97995 16.9614L3.25052 19.6908C2.95762 19.9837 2.95762 20.4586 3.25052 20.7515C3.54341 21.0444 4.01828 21.0444 4.31118 20.7515L7.04061 18.022Z" fill="#000000"/><path d="M8.6285 19.6098C8.92139 19.9027 8.92139 20.3776 8.6285 20.6705L7.56784 21.7311C7.27495 22.024 6.80007 22.024 6.50718 21.7311C6.21428 21.4382 6.21428 20.9634 6.50718 20.6705L7.56784 19.6098C7.86073 19.3169 8.33561 19.3169 8.6285 19.6098Z" fill="#000000"/><path d="M4.38631 16.4283C4.6792 16.1354 4.6792 15.6605 4.38631 15.3676C4.09342 15.0747 3.61854 15.0747 3.32565 15.3676L2.26499 16.4283C1.9721 16.7212 1.9721 17.1961 2.26499 17.4889C2.55788 17.7818 3.03276 17.7818 3.32565 17.4889L4.38631 16.4283Z" fill="#000000"/><path d="M20.6216 4.04316C20.5821 3.69619 20.3083 3.4224 19.9614 3.38283C16.2551 2.96017 12.3947 4.17038 9.55023 7.01484C8.88176 7.6833 8.30341 8.40811 7.81526 9.174L7.81222 9.17412C7.73555 9.29444 7.6611 9.41579 7.58888 9.53809C6.86872 10.7576 6.37031 12.0714 6.09345 13.4211C6.0428 13.668 6.11958 13.9239 6.29782 14.1021L9.89702 17.7013C10.0752 17.8795 10.3311 17.9563 10.578 17.9057C11.9273 17.6291 13.2409 17.1311 14.4602 16.4114C15.3628 15.8787 16.2129 15.225 16.987 14.4509L16.9887 14.4525C19.8326 11.6087 21.0435 7.74873 20.6216 4.04316ZM16.0256 7.9789C16.9258 8.87906 16.9258 10.3385 16.0256 11.2387C15.1255 12.1388 13.666 12.1388 12.7659 11.2387C11.8657 10.3385 11.8657 8.87906 12.7659 7.9789C13.666 7.07874 15.1255 7.07874 16.0256 7.9789Z" fill="#000000"/><path d="M14.6579 17.4504C13.4302 18.1321 12.1206 18.6103 10.7788 18.8853C10.5634 18.9295 10.3452 18.9321 10.1346 18.8963C10.256 19.6277 10.2443 20.3772 10.0992 21.1059C10.0429 21.3884 10.1534 21.6782 10.3836 21.8515C10.6137 22.0248 10.9228 22.0509 11.1788 21.9188C11.7836 21.6065 12.3505 21.1972 12.856 20.6917C13.7817 19.766 14.3823 18.6383 14.6579 17.4504Z" fill="#000000"/><path d="M5.10306 13.866C5.06703 13.6549 5.06956 13.4361 5.11385 13.2201C5.38883 11.8796 5.86653 10.5713 6.54731 9.34479C5.36096 9.62075 4.23474 10.2211 3.31006 11.1457C2.80493 11.6509 2.39581 12.2173 2.08364 12.8217C1.95144 13.0776 1.97753 13.3867 2.15076 13.6169C2.324 13.847 2.61377 13.9577 2.89631 13.9015C3.62408 13.7567 4.37256 13.7449 5.10306 13.866Z" fill="#000000"/></svg>