<svg width="80" height="80" viewBox="0 0 24 25" fill="none" xmlns="http://www.w3.org/2000/svg" transform="rotate(0 0 0)"><path d="M14.3799 3.25V4H15.1299C16.3725 4 17.3799 5.00736 17.3799 6.25V10.291C17.132 10.2639 16.8801 10.25 16.625 10.25C12.828 10.25 9.75 13.328 9.75 17.125C9.75 19.3006 10.7606 21.2403 12.338 22.5H8.87988C7.63724 22.5 6.62988 21.4926 6.62988 20.25V6.25C6.62988 5.00736 7.63724 4 8.87988 4H9.62988V3.25C9.62988 2.83579 9.96567 2.5 10.3799 2.5H13.6299C14.0441 2.5 14.3799 2.83579 14.3799 3.25Z" fill="#000000"/><path d="M11.25 17.125C11.25 14.1565 13.6565 11.75 16.625 11.75C19.5935 11.75 22 14.1565 22 17.125C22 20.0935 19.5935 22.5 16.625 22.5C13.6565 22.5 11.25 20.0935 11.25 17.125ZM17.375 15.5029C17.375 15.0887 17.0392 14.7529 16.625 14.7529C16.2108 14.7529 15.875 15.0887 15.875 15.5029V17.4874C15.875 17.9017 16.2108 18.2374 16.625 18.2374H18.249C18.6632 18.2374 18.999 17.9017 18.999 17.4874C18.999 17.0732 18.6632 16.7374 18.249 16.7374H17.375V15.5029Z" fill="#000000"/></svg>