<svg width="80" height="80" viewBox="0 0 24 24" fill="none" xmlns="http://www.w3.org/2000/svg" transform="rotate(0 0 0)"><path d="M12 4.5C10.4812 4.5 9.25 5.73122 9.25 7.25C9.25 7.87576 9.4594 8.45275 9.81089 8.91448L5.3689 15H2.75C2.33579 15 2 15.3358 2 15.75V18.75C2 19.1642 2.33579 19.5 2.75 19.5H5.75C6.16421 19.5 6.5 19.1642 6.5 18.75V15.9946L11.0098 9.81613C11.3173 9.93485 11.6514 10 12 10C12.3486 10 12.6827 9.93485 12.9902 9.81613L17.5 15.9946V18.75C17.5 19.1642 17.8358 19.5 18.25 19.5H21.25C21.6642 19.5 22 19.1642 22 18.75V15.75C22 15.3358 21.6642 15 21.25 15H18.6311L14.1891 8.91448C14.5406 8.45275 14.75 7.87576 14.75 7.25C14.75 5.73122 13.5188 4.5 12 4.5Z" fill="#000000"/></svg>