<svg width="80" height="80" viewBox="0 0 24 24" fill="none" xmlns="http://www.w3.org/2000/svg" transform="rotate(0 0 0)"><path d="M12.0008 2C9.60139 2 7.65625 3.94514 7.65625 6.34459C7.65625 8.74404 9.60139 10.6892 12.0008 10.6892C14.4003 10.6892 16.3454 8.74404 16.3454 6.34459C16.3454 3.94514 14.4003 2 12.0008 2Z" fill="#000000"/><path d="M8.93359 12.189C6.0341 12.189 3.68359 14.5395 3.68359 17.439V18.75C3.68359 19.9926 4.69095 21 5.93359 21H11.4418C10.6456 20.2961 10.1758 19.2768 10.1758 18.1906V15.0726C10.1758 13.9476 10.6798 12.8943 11.5284 12.189H8.93359Z" fill="#000000"/><path d="M17.75 11.5651C17.0539 11.1632 16.1962 11.1632 15.5 11.5651L12.7998 13.1241C12.1037 13.526 11.6748 14.2688 11.6748 15.0726V18.1906C11.6748 18.9944 12.1037 19.7372 12.7998 20.1392L15.5 21.6981C16.1962 22.1001 17.0539 22.1001 17.75 21.6981L20.4502 20.1392C21.1464 19.7372 21.5752 18.9944 21.5752 18.1906V15.0726C21.5752 14.2688 21.1464 13.526 20.4502 13.1241L17.75 11.5651ZM16.625 18.3816C15.6585 18.3816 14.875 17.5981 14.875 16.6316C14.875 15.6651 15.6585 14.8816 16.625 14.8816C17.5915 14.8816 18.375 15.6651 18.375 16.6316C18.375 17.5981 17.5915 18.3816 16.625 18.3816Z" fill="#000000"/></svg>