<svg width="80" height="80" viewBox="0 0 24 25" fill="none" xmlns="http://www.w3.org/2000/svg" transform="rotate(0 0 0)"><path d="M3.25 6.45331C3.25 5.21067 4.25736 4.20331 5.5 4.20331H18.4985C19.7412 4.20331 20.7485 5.21067 20.7485 6.45331L20.7485 9.20331H3.25V6.45331Z" fill="#000000"/><path d="M3.25 10.7033H20.7485L20.7486 16.1284C20.66 15.987 20.5543 15.8533 20.4314 15.7303C20.0001 15.2987 19.4371 15.0789 18.8716 15.071V13.2834C18.8716 12.0407 17.8643 11.0334 16.6216 11.0334C15.379 11.0334 14.3716 12.0407 14.3716 13.2834V15.071C13.8063 15.0789 13.2433 15.2987 12.8121 15.7302C11.9337 16.6092 11.9341 18.0338 12.8131 18.9122L14.1856 20.2839H13.3438C12.3945 20.2839 11.5825 20.8718 11.252 21.7033H5.5C4.25736 21.7033 3.25 20.6959 3.25 19.4533V10.7033Z" fill="#000000"/><path d="M16.6216 12.5334C17.0358 12.5334 17.3716 12.8692 17.3716 13.2834V16.5707H18.8398C19.1432 16.5707 19.4167 16.7535 19.5328 17.0338C19.6489 17.3142 19.5846 17.6368 19.37 17.8512L17.1518 20.0679C16.8589 20.3606 16.3843 20.3605 16.0915 20.0679L13.8734 17.8512C13.6588 17.6368 13.5946 17.3141 13.7106 17.0338C13.8267 16.7535 14.1002 16.5707 14.4036 16.5707H15.8716V13.2834C15.8716 12.8692 16.2074 12.5334 16.6216 12.5334ZM12.5938 22.5339C12.5938 22.1197 12.9295 21.7839 13.3438 21.7839H19.9047C20.3189 21.7839 20.6547 22.1197 20.6547 22.5339C20.6547 22.9481 20.3189 23.2839 19.9047 23.2839H13.3438C12.9295 23.2839 12.5938 22.9481 12.5938 22.5339Z" fill="#000000"/></svg>