<svg width="80" height="80" viewBox="0 0 24 25" fill="none" xmlns="http://www.w3.org/2000/svg" transform="rotate(0 0 0)"><path d="M4.98393 4.25912C4.99145 3.44163 5.65647 2.78125 6.47573 2.78125H7.99183C8.81111 2.78125 9.47615 3.44166 9.48364 4.25917C10.1954 3.8569 11.0998 4.10264 11.5095 4.81216L12.2675 6.12514C12.6772 6.83464 12.4377 7.74076 11.7335 8.15601C12.4377 8.57125 12.6771 9.47736 12.2675 10.1869L11.5095 11.4998C11.0998 12.2094 10.1954 12.4551 9.48364 12.0528C9.47614 12.8703 8.81111 13.5307 7.99184 13.5307H6.47572C5.65647 13.5307 4.99145 12.8704 4.98394 12.0529C4.27222 12.4551 3.36782 12.2094 2.95819 11.4999L2.20013 10.1869C1.7905 9.47738 2.0299 8.57125 2.73413 8.15601C2.0299 7.74076 1.79048 6.83462 2.20012 6.1251L2.95817 4.81212C3.3678 4.10262 4.27222 3.85688 4.98393 4.25912ZM7.2334 9.65625C8.06183 9.65625 8.7334 8.98468 8.7334 8.15625C8.7334 7.32782 8.06183 6.65625 7.2334 6.65625C6.40497 6.65625 5.7334 7.32782 5.7334 8.15625C5.7334 8.98468 6.40497 9.65625 7.2334 9.65625Z" fill="#000000"/><path d="M11.1172 16.7019C10.3559 16.2624 10.0938 15.2883 10.5339 14.5261L11.3938 13.0367C11.8338 12.2746 12.8082 12.0142 13.5697 12.4539C13.5901 12.4656 13.6048 12.4677 13.616 12.4675C13.6295 12.4673 13.646 12.4633 13.6624 12.4538C13.6788 12.4444 13.6903 12.4322 13.6972 12.4208C13.7029 12.4113 13.7084 12.3977 13.7084 12.3742C13.7084 11.4949 14.4213 10.782 15.3007 10.782H17.0214C17.9008 10.782 18.6136 11.4949 18.6136 12.3742C18.6136 12.3977 18.6192 12.4114 18.6249 12.4209C18.6318 12.4324 18.6433 12.4445 18.6597 12.454C18.676 12.4634 18.6924 12.4673 18.7058 12.4676C18.7169 12.4678 18.7315 12.4658 18.7519 12.454C19.5134 12.0143 20.4873 12.2752 20.927 13.0368L21.7873 14.5269C22.2272 15.2889 21.9652 16.2628 21.2041 16.7022C21.1838 16.7139 21.1747 16.7256 21.1693 16.7353C21.1628 16.7471 21.158 16.7633 21.158 16.7821C21.158 16.801 21.1627 16.817 21.1691 16.8285C21.1744 16.8381 21.1832 16.8495 21.2034 16.8612C21.9647 17.3007 22.2255 18.2741 21.786 19.0353L20.925 20.5267C20.4855 21.2879 19.5121 21.5487 18.7509 21.1092C18.7307 21.0975 18.7163 21.0956 18.7053 21.0958C18.6921 21.096 18.6759 21.0999 18.6596 21.1093C18.6433 21.1187 18.6318 21.1309 18.6249 21.1424C18.6192 21.1519 18.6136 21.1655 18.6136 21.189C18.6136 22.0679 17.9012 22.7812 17.0216 22.7812H15.3005C14.4212 22.7812 13.7085 22.0684 13.7085 21.1892C13.7085 21.1656 13.7029 21.152 13.6972 21.1425C13.6903 21.1311 13.6787 21.1189 13.6624 21.1095C13.6461 21.1001 13.6298 21.0961 13.6165 21.0959C13.6054 21.0957 13.5908 21.0977 13.5705 21.1095C12.809 21.5491 11.8354 21.2882 11.3958 20.5268L10.5352 19.0361C10.0956 18.2747 10.3564 17.3011 11.1179 16.8615C11.1381 16.8498 11.147 16.8383 11.1523 16.8287C11.1587 16.8171 11.1635 16.801 11.1635 16.7821C11.1635 16.7632 11.1587 16.747 11.1521 16.7352C11.1467 16.7254 11.1376 16.7137 11.1172 16.7019ZM16.1605 14.4763C14.8875 14.4763 13.8555 15.5083 13.8555 16.7813C13.8555 18.0544 14.8875 19.0863 16.1605 19.0863C17.4335 19.0863 18.4655 18.0544 18.4655 16.7813C18.4655 15.5083 17.4335 14.4763 16.1605 14.4763Z" fill="#000000"/></svg>