<svg width="80" height="80" viewBox="0 0 24 24" fill="none" xmlns="http://www.w3.org/2000/svg" transform="rotate(0 0 0)"><path d="M11.2499 3.25586H7.87725C7.0644 3.25586 6.31475 3.69428 5.91623 4.40272L3.56133 8.58896H11.2499V3.25586Z" fill="#000000"/><path d="M3.25 10.089V18.505C3.25 19.7477 4.25736 20.755 5.5 20.755H11.2531C11.5838 19.9239 12.3955 19.3364 13.3445 19.3364H14.1863L12.8138 17.9648C11.9349 17.0864 11.9344 15.6618 12.8128 14.7828C13.2441 14.3513 13.807 14.1315 14.3724 14.1235V12.3359C14.3724 11.1328 15.3168 10.1502 16.5047 10.089H3.25Z" fill="#000000"/><path d="M18.0838 4.40272L20.4387 8.58896H12.7499V3.25586H16.1228C16.9356 3.25586 17.6852 3.69428 18.0838 4.40272Z" fill="#000000"/><path d="M16.6224 11.5859C17.0366 11.5859 17.3724 11.9217 17.3724 12.3359V15.6233H18.8406C19.144 15.6233 19.4175 15.8061 19.5335 16.0864C19.6496 16.3667 19.5853 16.6893 19.3707 16.9038L17.1525 19.1205C16.8597 19.4131 16.3851 19.4131 16.0922 19.1204L13.8741 16.9038C13.6595 16.6893 13.5953 16.3667 13.7113 16.0864C13.8274 15.8061 14.1009 15.6233 14.4043 15.6233H15.8724V12.3359C15.8724 11.9217 16.2082 11.5859 16.6224 11.5859ZM12.5945 21.5864C12.5945 21.1722 12.9303 20.8364 13.3445 20.8364H19.9054C20.3196 20.8364 20.6554 21.1722 20.6554 21.5864C20.6554 22.0006 20.3196 22.3364 19.9054 22.3364H13.3445C12.9303 22.3364 12.5945 22.0006 12.5945 21.5864Z" fill="#000000"/></svg>