<svg width="80" height="80" viewBox="0 0 24 24" fill="none" xmlns="http://www.w3.org/2000/svg" transform="rotate(0 0 0)"><path d="M8.25 2H6.75C5.50736 2 4.5 3.00736 4.5 4.25V19C4.5 20.6569 5.84315 22 7.5 22H18.75C19.1642 22 19.5 21.6642 19.5 21.25C19.5 20.8358 19.1642 20.5 18.75 20.5H18V17.5H18.75C19.1642 17.5 19.5 17.1642 19.5 16.75V4.25C19.5 3.00736 18.4926 2 17.25 2H13.75V7.92398C13.75 8.19663 13.602 8.44779 13.3636 8.57996C13.1251 8.71213 12.8337 8.70448 12.6025 8.55998L11 7.55842L9.3975 8.55998C9.1663 8.70448 8.87489 8.71213 8.63642 8.57996C8.39796 8.44779 8.25 8.19663 8.25 7.92398V2ZM6 19C6 18.1716 6.67157 17.5 7.5 17.5H16.5V20.5H7.5C6.67157 20.5 6 19.8284 6 19Z" fill="#000000"/><path d="M12.25 2H9.75V6.5708L10.6025 6.03798C10.8457 5.88598 11.1543 5.88598 11.3975 6.03798L12.25 6.5708V2Z" fill="#000000"/></svg>