<svg width="80" height="80" viewBox="0 0 25 25" fill="none" xmlns="http://www.w3.org/2000/svg" transform="rotate(0 0 0)"><path d="M10.6498 4.7679C11.4751 3.0956 13.8598 3.0956 14.6851 4.7679L16.0769 7.58792C16.1861 7.80928 16.3973 7.9627 16.6416 7.9982L19.7537 8.45041C21.5991 8.71858 22.336 10.9865 21.0006 12.2882L18.7487 14.4833C18.5719 14.6556 18.4913 14.9039 18.533 15.1471L19.0646 18.2466C19.3799 20.0847 17.4506 21.4863 15.8 20.6185L13.0165 19.1552C12.798 19.0403 12.5369 19.0403 12.3184 19.1552L9.53492 20.6185C7.88426 21.4863 5.95504 20.0847 6.27029 18.2466L6.80189 15.1471C6.84362 14.9039 6.76296 14.6556 6.58619 14.4833L4.33428 12.2882C2.99886 10.9865 3.73576 8.71858 5.58126 8.45041L8.69333 7.9982C8.93761 7.9627 9.14879 7.80928 9.25803 7.58792L10.6498 4.7679ZM11.9165 9.43377V12.1242H9.22606C8.81184 12.1242 8.47606 12.46 8.47606 12.8742C8.47606 13.2885 8.81184 13.6242 9.22606 13.6242H11.9165V16.3152C11.9165 16.7294 12.2523 17.0652 12.6665 17.0652C13.0807 17.0652 13.4165 16.7294 13.4165 16.3152V13.6242H16.1075C16.5217 13.6242 16.8575 13.2885 16.8575 12.8742C16.8575 12.46 16.5217 12.1242 16.1075 12.1242H13.4165V9.43377C13.4165 9.01956 13.0807 8.68377 12.6665 8.68377C12.2523 8.68377 11.9165 9.01956 11.9165 9.43377Z" fill="#000000"/></svg>