<svg width="80" height="80" viewBox="0 0 24 24" fill="none" xmlns="http://www.w3.org/2000/svg" transform="rotate(0 0 0)"><path d="M3.28033 2.21967C2.98744 1.92678 2.51256 1.92678 2.21967 2.21967C1.92678 2.51256 1.92678 2.98744 2.21967 3.28033L7.45618 8.51684L2.73788 9.20245C2.45536 9.2435 2.22065 9.44138 2.13243 9.71289C2.04421 9.9844 2.11779 10.2825 2.32222 10.4817L6.61682 14.6679L5.603 20.579C5.55475 20.8603 5.67041 21.1447 5.90137 21.3125C6.13233 21.4803 6.43853 21.5024 6.69122 21.3696L11.9996 18.5788L17.3081 21.3696C17.5608 21.5024 17.867 21.4803 18.0979 21.3125C18.3289 21.1447 18.4445 20.8603 18.3963 20.579L18.164 19.2247L20.7187 21.7794C21.0116 22.0722 21.4865 22.0722 21.7794 21.7794C22.0722 21.4865 22.0722 21.0116 21.7794 20.7187L3.28033 2.21967Z" fill="#000000"/><path d="M21.6771 10.4817L17.5717 14.4835L9.58337 6.49519L11.3271 2.96202C11.4534 2.70602 11.7142 2.54395 11.9996 2.54395C12.2851 2.54395 12.5459 2.70602 12.6722 2.96202L15.3264 8.34004L21.2614 9.20245C21.5439 9.2435 21.7786 9.44138 21.8669 9.71289C21.9551 9.9844 21.8815 10.2825 21.6771 10.4817Z" fill="#000000"/></svg>