<svg width="80" height="80" viewBox="0 0 24 24" fill="none" xmlns="http://www.w3.org/2000/svg" transform="rotate(0 0 0)"><path d="M15.647 1.21875C15.9311 1.21881 16.1907 1.37936 16.3177 1.63347L17.2109 3.42085L18.9972 4.31481C19.2512 4.44193 19.4116 4.70163 19.4115 4.98566C19.4114 5.2697 19.2509 5.52933 18.9969 5.65634L17.2103 6.54954L16.3163 8.33664C16.1892 8.59071 15.9295 8.75116 15.6454 8.7511C15.3613 8.75104 15.1016 8.59048 14.9746 8.33636L14.0815 6.549L12.2937 5.65502C12.0396 5.52795 11.8791 5.26818 11.8791 4.98406C11.8792 4.69993 12.0398 4.44024 12.294 4.31327L14.0821 3.42005L14.9761 1.63319C15.1032 1.37913 15.3629 1.21869 15.647 1.21875Z" fill="#000000"/><path d="M10.125 6.47266C10.4105 6.47266 10.6712 6.63473 10.7976 6.89073L12.9021 11.1549L17.6079 11.8387C17.8904 11.8798 18.1251 12.0776 18.2133 12.3491C18.3015 12.6207 18.228 12.9187 18.0235 13.118L14.6184 16.4372L15.4222 21.124C15.4705 21.4053 15.3548 21.6897 15.1239 21.8575C14.8929 22.0253 14.5867 22.0474 14.334 21.9146L10.125 19.7018L5.91603 21.9146C5.66334 22.0474 5.35714 22.0253 5.12618 21.8575C4.89522 21.6897 4.77956 21.4053 4.82781 21.124L5.63166 16.4372L2.22651 13.118C2.02208 12.9187 1.94851 12.6207 2.03673 12.3491C2.12495 12.0776 2.35966 11.8798 2.64217 11.8387L7.34797 11.1549L9.45247 6.89073C9.57881 6.63473 9.83954 6.47266 10.125 6.47266Z" fill="#000000"/><path d="M20.5008 7.2832C20.7849 7.28326 21.0445 7.44382 21.1715 7.69793L21.5596 8.47444L22.3356 8.8628C22.5896 8.98992 22.7499 9.24962 22.7499 9.53365C22.7498 9.81768 22.5893 10.0773 22.3353 10.2043L21.5591 10.5923L21.1707 11.3687C21.0436 11.6228 20.7839 11.7833 20.4998 11.7832C20.2157 11.7831 19.9561 11.6226 19.8291 11.3685L19.4411 10.592L18.6644 10.2037C18.4103 10.0766 18.2498 9.81682 18.2499 9.53269C18.2499 9.24857 18.4106 8.98887 18.6647 8.8619L19.4416 8.47386L19.8299 7.69764C19.957 7.44359 20.2167 7.28314 20.5008 7.2832Z" fill="#000000"/></svg>