<svg width="80" height="80" viewBox="0 0 24 24" fill="none" xmlns="http://www.w3.org/2000/svg" transform="rotate(0 0 0)"><path d="M15.0197 2.80891C15.228 2.45088 15.1066 1.99178 14.7486 1.78349C14.3906 1.5752 13.9315 1.69658 13.7232 2.05462L12.1946 4.682C12.1122 4.82379 11.9178 4.84906 11.8018 4.73306L10.1589 3.09016C9.86598 2.79727 9.39111 2.79727 9.09821 3.09016C8.80532 3.38305 8.80532 3.85793 9.09821 4.15082L9.76081 4.81342H5C3.75736 4.81342 2.75 5.82078 2.75 7.06342V16.9345C2.75 18.1772 3.75736 19.1845 5 19.1845H6.16748L5.79748 20.1712C5.65204 20.559 5.84854 20.9913 6.23638 21.1368C6.62422 21.2822 7.05653 21.0857 7.20197 20.6979L7.76948 19.1845H16.23L16.7975 20.6979C16.9429 21.0857 17.3752 21.2822 17.7631 21.1368C18.1509 20.9913 18.3474 20.559 18.202 20.1712L17.832 19.1845H19C20.2426 19.1845 21.25 18.1772 21.25 16.9345V7.06342C21.25 5.82077 20.2426 4.81342 19 4.81342H13.8536L15.0197 2.80891Z" fill="#000000"/></svg>