<svg width="80" height="80" viewBox="0 0 24 24" fill="none" xmlns="http://www.w3.org/2000/svg" transform="rotate(0 0 0)"><path d="M7.80589 4.32044C9.49763 3.39666 11.447 3.0573 13.3514 3.35504C15.2558 3.65279 17.0086 4.57098 18.3376 5.96704C19.6667 7.36311 20.4976 9.15893 20.7013 11.0756C20.7076 11.1344 20.7132 11.1931 20.7183 11.2519C20.6875 11.2506 20.6567 11.25 20.6256 11.25H20.2475C20.0292 10.6323 19.5488 10.1385 18.94 9.90195C18.6135 8.82226 18.0376 7.82733 17.2512 7.0013C16.15 5.84454 14.6977 5.08374 13.1197 4.83704C11.5418 4.59033 9.92652 4.87153 8.52478 5.63695C7.62713 6.12712 6.84921 6.7983 6.23626 7.60127L7.41378 8.28111C7.67648 8.43279 7.82196 8.72778 7.78236 9.02853C7.74277 9.32928 7.5259 9.57657 7.23289 9.65508L4.33415 10.4318C3.93405 10.539 3.5228 10.3016 3.41559 9.90146L2.63887 7.00272C2.56036 6.70971 2.66609 6.39826 2.90675 6.21359C3.14741 6.02893 3.47561 6.00741 3.73832 6.15909L4.92831 6.84613C5.68484 5.80828 6.66528 4.94328 7.80589 4.32044Z" fill="#000000"/><path d="M11.0977 19.195C10.7079 19.1461 10.3208 19.0654 9.9403 18.9527C8.40896 18.4991 7.07025 17.5525 6.13203 16.26C5.8887 15.9248 5.4197 15.8503 5.0845 16.0937C4.74929 16.337 4.67481 16.806 4.91813 17.1412C6.05045 18.7011 7.66611 19.8434 9.51425 20.3909C10.075 20.557 10.6476 20.6655 11.2235 20.7168C11.1414 20.4084 11.0977 20.0843 11.0977 19.75V19.195Z" fill="#000000"/><path d="M14.3752 12.0004C14.3752 11.5862 14.711 11.2504 15.1252 11.2504H18.1252C18.5394 11.2504 18.8752 11.5862 18.8752 12.0004V12.7504H20.6254C21.0396 12.7504 21.3754 13.0862 21.3754 13.5004C21.3754 13.9051 21.0548 14.2349 20.6538 14.2499V19.7504C20.6538 20.9931 19.6465 22.0004 18.4038 22.0004H14.8474C13.6047 22.0004 12.5974 20.9931 12.5974 19.7504V14.2499C12.1958 14.2356 11.8747 13.9055 11.8747 13.5004C11.8747 13.0862 12.2105 12.7504 12.6247 12.7504H14.3752V12.0004Z" fill="#000000"/></svg>