<svg width="80" height="80" viewBox="0 0 24 25" fill="none" xmlns="http://www.w3.org/2000/svg" transform="rotate(0 0 0)"><path d="M11.25 2.5C6.14154 2.5 2 6.64029 2 11.748C2 16.8556 6.14154 20.9959 11.25 20.9959C13.5334 20.9959 15.6237 20.1687 17.2372 18.7976L20.7184 22.2791C21.0113 22.572 21.4862 22.572 21.7791 22.2792C22.072 21.9863 22.072 21.5114 21.7791 21.2185L18.2983 17.7373C19.6714 16.1237 20.5 14.0326 20.5 11.748C20.5 6.64029 16.3585 2.5 11.25 2.5ZM7.21566 7.48074H7.22138C7.66321 7.48074 8.02138 7.83891 8.02138 8.28074C8.02138 8.72257 7.66321 9.08074 7.22138 9.08074H7.21566C6.77383 9.08074 6.41566 8.72257 6.41566 8.28074C6.41566 7.83891 6.77383 7.48074 7.21566 7.48074ZM10.2782 9.03074C9.86395 9.03074 9.52816 8.69495 9.52816 8.28074C9.52816 7.86652 9.86395 7.53074 10.2782 7.53074L15.2782 7.53074C15.6924 7.53074 16.0282 7.86652 16.0282 8.28074C16.0282 8.69495 15.6924 9.03074 15.2782 9.03074L10.2782 9.03074ZM16.0282 15.2182C16.0282 15.6325 15.6924 15.9682 15.2782 15.9682H10.2782C9.86395 15.9682 9.52816 15.6325 9.52816 15.2182C9.52816 14.804 9.86395 14.4682 10.2782 14.4682L15.2782 14.4682C15.6924 14.4682 16.0282 14.804 16.0282 15.2182ZM7.21566 14.4182H7.22138C7.66321 14.4182 8.02138 14.7764 8.02138 15.2182C8.02138 15.6601 7.66321 16.0182 7.22138 16.0182H7.21566C6.77383 16.0182 6.41566 15.6601 6.41566 15.2182C6.41566 14.7764 6.77383 14.4182 7.21566 14.4182ZM15.2782 12.4995L10.2782 12.4995C9.86395 12.4995 9.52816 12.1637 9.52816 11.7495C9.52816 11.3353 9.86395 10.9995 10.2782 10.9995L15.2782 10.9995C15.6924 10.9995 16.0282 11.3353 16.0282 11.7495C16.0282 12.1637 15.6924 12.4995 15.2782 12.4995ZM7.21566 10.9495H7.22138C7.66321 10.9495 8.02138 11.3077 8.02138 11.7495C8.02138 12.1913 7.66321 12.5495 7.22138 12.5495H7.21566C6.77383 12.5495 6.41566 12.1913 6.41566 11.7495C6.41566 11.3077 6.77383 10.9495 7.21566 10.9495Z" fill="#000000"/></svg>