<svg width="80" height="80" viewBox="0 0 25 24" fill="none" xmlns="http://www.w3.org/2000/svg" transform="rotate(0 0 0)"><path d="M5.8125 3.25C4.56986 3.25 3.5625 4.25736 3.5625 5.5V18.4995C3.5625 19.7422 4.56986 20.7495 5.8125 20.7495H18.8125C20.0551 20.7495 21.0625 19.7422 21.0625 18.4995L21.0625 5.5C21.0625 4.25736 20.0551 3.25 18.8125 3.25H5.8125ZM13.5625 6.25C13.9767 6.25 14.3125 6.58579 14.3125 7L14.3125 11C14.3125 11.4142 13.9767 11.75 13.5625 11.75C13.1483 11.75 12.8125 11.4142 12.8125 11L12.8125 9.75049H7.3125C6.89829 9.75049 6.5625 9.4147 6.5625 9.00049C6.5625 8.58627 6.89829 8.25049 7.3125 8.25049H12.8125L12.8125 7C12.8125 6.58579 13.1483 6.25 13.5625 6.25ZM18.0625 9.00049C18.0625 9.4147 17.7267 9.75049 17.3125 9.75049H15.8125L15.8125 8.25049H17.3125C17.7267 8.25049 18.0625 8.58627 18.0625 9.00049ZM8.81055 13C8.81055 12.5858 9.14633 12.25 9.56055 12.25C9.97476 12.25 10.3105 12.5858 10.3105 13L10.3105 17C10.3105 17.4142 9.97476 17.75 9.56054 17.75C9.14633 17.75 8.81054 17.4142 8.81054 17L8.81054 15.75H7.3125C6.89829 15.75 6.5625 15.4142 6.5625 15C6.5625 14.5858 6.89829 14.25 7.3125 14.25H8.81055L8.81055 13ZM18.0625 15C18.0625 15.4142 17.7267 15.75 17.3125 15.75H11.8086L11.8086 14.25H17.3125C17.7267 14.25 18.0625 14.5858 18.0625 15Z" fill="#000000"/></svg>