<svg width="80" height="80" viewBox="0 0 25 25" fill="none" xmlns="http://www.w3.org/2000/svg" transform="rotate(0 0 0)"><path d="M12.4999 2.93164C8.35781 2.93164 5 6.28945 5 10.4315C5 12.5345 5.86655 14.4365 7.26013 15.7975C7.79091 16.3158 8.25575 16.8618 8.58065 17.4316H16.4194C16.7442 16.8618 17.2091 16.3156 17.7399 15.7972C19.1333 14.4362 19.9997 12.5344 19.9997 10.4315C19.9997 6.28945 16.6419 2.93164 12.4999 2.93164ZM13.2501 6.49023V6.49768C13.2501 6.91189 12.9144 7.24768 12.5001 7.24768C12.0859 7.24768 11.7501 6.91189 11.7501 6.49768V6.49023C11.7501 6.07602 12.0859 5.74023 12.5001 5.74023C12.9144 5.74023 13.2501 6.07602 13.2501 6.49023ZM15.4642 8.02864L15.4589 8.0339C15.166 8.32679 14.6911 8.32679 14.3982 8.0339C14.1053 7.74101 14.1053 7.26615 14.3982 6.97326L14.4035 6.968C14.6964 6.67511 15.1713 6.67511 15.4642 6.968C15.7571 7.26089 15.7571 7.73575 15.4642 8.02864ZM15.942 10.6821H15.9346C15.5203 10.6821 15.1846 10.3463 15.1846 9.93209C15.1846 9.51788 15.5203 9.18209 15.9346 9.18209H15.942C16.3562 9.18209 16.692 9.51788 16.692 9.93209C16.692 10.3463 16.3562 10.6821 15.942 10.6821ZM14.4035 12.8962L14.3982 12.8909C14.1053 12.598 14.1053 12.1232 14.3982 11.8303C14.6911 11.5374 15.166 11.5374 15.4589 11.8303L15.4642 11.8356C15.7571 12.1284 15.7571 12.6033 15.4642 12.8962C15.1713 13.1891 14.6964 13.1891 14.4035 12.8962ZM13.2501 13.3667V13.3741C13.2501 13.7883 12.9144 14.1241 12.5001 14.1241C12.0859 14.1241 11.7501 13.7883 11.7501 13.3741V13.3667C11.7501 12.9525 12.0859 12.6167 12.5001 12.6167C12.9144 12.6167 13.2501 12.9525 13.2501 13.3667ZM10.6021 12.8909L10.5968 12.8962C10.3039 13.1891 9.82902 13.1891 9.53612 12.8962C9.24322 12.6033 9.24322 12.1284 9.53612 11.8355L9.54138 11.8303C9.83428 11.5374 10.3092 11.5374 10.6021 11.8303C10.895 12.1232 10.895 12.598 10.6021 12.8909ZM9.06573 10.6821H9.05829C8.64407 10.6821 8.30829 10.3463 8.30829 9.93209C8.30829 9.51788 8.64407 9.18209 9.05829 9.18209H9.06573C9.47994 9.18209 9.81573 9.51788 9.81573 9.93209C9.81573 10.3463 9.47994 10.6821 9.06573 10.6821ZM9.5414 8.03392L9.53613 8.02866C9.24324 7.73576 9.24324 7.26089 9.53613 6.968C9.82903 6.6751 10.3039 6.6751 10.5968 6.968L10.6021 6.97326C10.8949 7.26615 10.8949 7.74102 10.6021 8.03392C10.3092 8.32681 9.83429 8.32681 9.5414 8.03392ZM12.5001 11.6549C11.5487 11.6549 10.7774 10.8836 10.7774 9.93209C10.7774 8.98062 11.5487 8.2093 12.5001 8.2093C13.4516 8.2093 14.2229 8.98062 14.2229 9.93209C14.2229 10.8836 13.4516 11.6549 12.5001 11.6549Z" fill="#000000"/><path d="M9.06472 19.0865C9.06471 19.0347 9.06322 18.9831 9.06031 18.9316H15.9399C15.937 18.9829 15.9355 19.0344 15.9355 19.086V20.6816C15.9355 21.9243 14.9282 22.9316 13.6855 22.9316H11.3125C10.0699 22.9316 9.0625 21.9243 9.0625 20.6816L9.06472 19.0865Z" fill="#000000"/></svg>