<svg width="80" height="80" viewBox="0 0 24 24" fill="none" xmlns="http://www.w3.org/2000/svg" transform="rotate(0 0 0)"><path d="M20.7806 11.8379C21.1934 11.867 21.5046 12.2248 21.4759 12.6377C21.1414 17.439 17.2406 21.255 12.4046 21.458L11.9017 23.3359C11.8231 23.629 11.5755 23.8462 11.2748 23.8857C10.9738 23.925 10.678 23.7788 10.5267 23.5156L8.94272 20.7568C8.73687 20.3984 8.8594 19.9413 9.21714 19.7344L11.9671 18.1455C12.2297 17.9941 12.5576 18.0157 12.7982 18.2002C13.0388 18.3849 13.1452 18.6963 13.0667 18.9893L12.8148 19.9258C16.6649 19.5358 19.7093 16.4169 19.9798 12.5332C20.0089 12.1202 20.3676 11.8091 20.7806 11.8379Z" fill="#000000"/><path d="M6.17319 4.67871C6.38363 4.67887 6.58494 4.7675 6.7269 4.92285C6.85652 5.06483 6.92551 5.25054 6.92221 5.44141L6.92319 8.60938C6.92322 8.91262 6.7404 9.18655 6.4603 9.30273C6.18011 9.41871 5.85737 9.35405 5.64292 9.13965L4.86069 8.35742C4.31067 9.44249 3.99936 10.669 3.99936 11.9688C3.99936 14.6228 5.29127 16.9751 7.28354 18.4316C7.61759 18.676 7.69067 19.1452 7.44663 19.4795C7.20222 19.8138 6.73217 19.8869 6.3978 19.6426C4.03596 17.9158 2.49936 15.1215 2.49936 11.9688C2.49936 10.2514 2.95721 8.64112 3.75424 7.25098L2.46225 5.95801C2.24781 5.74349 2.18405 5.42084 2.30014 5.14062C2.4163 4.86052 2.6893 4.67773 2.99253 4.67773L6.17319 4.67871Z" fill="#000000"/><path d="M12.0003 7.25C12.4144 7.25017 12.7503 7.58589 12.7503 8C12.7504 9.79488 14.2055 11.2499 16.0003 11.25C16.4144 11.2502 16.7503 11.5859 16.7503 12C16.7503 12.4141 16.4144 12.7498 16.0003 12.75C14.2055 12.7501 12.7504 14.2051 12.7503 16L12.7464 16.0771C12.7079 16.4551 12.3884 16.7498 12.0003 16.75C11.5861 16.75 11.2503 16.4142 11.2503 16C11.2502 14.2052 9.79507 12.7503 8.00034 12.75C7.58612 12.75 7.25034 12.4142 7.25034 12C7.25034 11.6118 7.54513 11.2924 7.92319 11.2539L8.00034 11.25L8.16733 11.2461C9.88446 11.1589 11.2502 9.73877 11.2503 8C11.2503 7.58579 11.5861 7.25 12.0003 7.25Z" fill="#000000"/><path d="M11.9994 2.46875C15.2637 2.46886 18.143 4.11517 19.8529 6.62207L21.8216 6.09473C22.1145 6.01658 22.4262 6.12275 22.6107 6.36328C22.7949 6.60391 22.816 6.93188 22.6644 7.19434L21.0736 9.94922C20.8665 10.3074 20.4077 10.4301 20.0492 10.2236L20.0414 10.2188L17.2943 8.63379C17.0316 8.48225 16.8858 8.18736 16.9251 7.88672C16.9647 7.58594 17.1819 7.33828 17.4749 7.25977L18.2982 7.03809C16.8335 5.16991 14.5564 3.96885 11.9994 3.96875C10.9663 3.96878 9.98002 4.16427 9.07553 4.51953C8.69012 4.67074 8.25531 4.48105 8.10385 4.0957C7.95241 3.71017 8.14215 3.27449 8.52768 3.12305C9.60394 2.70035 10.7757 2.46878 11.9994 2.46875Z" fill="#000000"/></svg>