<svg width="80" height="80" viewBox="0 0 24 24" fill="none" xmlns="http://www.w3.org/2000/svg" transform="rotate(0 0 0)"><path d="M11.5879 2.12332C11.838 1.9589 12.162 1.95889 12.4121 2.12332L12.415 2.12429L12.4199 2.1282L12.4395 2.14089C12.4556 2.15173 12.4792 2.16754 12.5088 2.18777C12.5681 2.22832 12.6533 2.2878 12.7607 2.36453C12.9761 2.51834 13.2815 2.74356 13.6465 3.03152C14.3757 3.60685 15.3504 4.43943 16.3271 5.46609C18.2513 7.48869 20.318 10.4044 20.3184 13.6809C20.3184 13.8469 20.3113 14.0125 20.3018 14.1761C19.4624 13.8098 18.875 12.9736 18.875 11.9993C18.8747 10.8347 17.9896 9.87641 16.8555 9.76101L16.625 9.74929C15.3826 9.74929 14.3753 10.7569 14.375 11.9993L14.3623 12.2425C14.2486 13.3599 13.3606 14.2479 12.2432 14.3616L12 14.3743C10.8354 14.3743 9.87742 15.2597 9.76172 16.3938L9.75 16.6243L9.76172 16.8548C9.87714 17.9891 10.8352 18.8743 12 18.8743L12.2432 18.887C13.4404 19.0088 14.3747 20.02 14.375 21.2493C14.375 21.3835 14.3886 21.5151 14.4111 21.6428C13.6478 21.8737 12.8387 21.9993 12 21.9993C7.406 21.9993 3.68164 18.2749 3.68164 13.6809C3.68197 10.4045 5.74779 7.48868 7.67188 5.46609C8.64865 4.43935 9.62332 3.60688 10.3525 3.03152C10.7177 2.74342 11.0238 2.51839 11.2393 2.36453C11.3467 2.28778 11.432 2.2283 11.4912 2.18777C11.5208 2.16752 11.5444 2.15173 11.5605 2.14089L11.5791 2.1282L11.585 2.12429L11.5879 2.12332Z" fill="#000000"/><path d="M16.625 11.2493C17.0391 11.2493 17.3748 11.5853 17.375 11.9993C17.375 14.1394 19.1099 15.8743 21.25 15.8743C21.6641 15.8743 21.9998 16.2103 22 16.6243C22 17.0385 21.6642 17.3743 21.25 17.3743C19.11 17.3743 17.3752 19.1094 17.375 21.2493C17.375 21.6635 17.0392 21.9993 16.625 21.9993C16.2108 21.9993 15.875 21.6635 15.875 21.2493C15.8748 19.1094 14.14 17.3743 12 17.3743C11.5858 17.3743 11.25 17.0385 11.25 16.6243C11.2502 16.2103 11.5859 15.8743 12 15.8743C14.1401 15.8743 15.875 14.1394 15.875 11.9993C15.8752 11.5853 16.2109 11.2493 16.625 11.2493Z" fill="#000000"/></svg>