<svg width="80" height="80" viewBox="0 0 25 24" fill="none" xmlns="http://www.w3.org/2000/svg" transform="rotate(0 0 0)"><path d="M6.10713 3.19153C6.31424 2.83281 6.77293 2.70991 7.13165 2.91701L9.02412 4.00964C9.04608 4.02231 9.06715 4.03593 9.08732 4.05041L17.9079 9.14299L17.4621 9.83006C17.4413 9.86213 17.4215 9.89488 17.4029 9.92825C17.013 10.6251 16.4493 11.7715 16.2767 12.9805C16.1883 13.5998 16.1864 14.3412 16.4526 15.0798C16.5538 15.3607 16.6888 15.6265 16.8571 15.8729L14.4399 20.0596C13.8186 21.1358 12.4425 21.5045 11.3663 20.8832L3.62571 16.4141C3.087 16.1031 2.72503 15.6015 2.57671 15.0454C2.42883 14.491 2.49206 13.8776 2.80215 13.3406L7.64805 4.94721L6.38165 4.21605C6.02293 4.00894 5.90002 3.55025 6.10713 3.19153ZM8.94523 5.70043L4.25764 13.8196L17.0661 10.389L8.94523 5.70043Z" fill="#000000"/><path d="M17.4406 14.8621C17.6505 15.3639 18.0181 15.7957 18.5621 16.1097C19.8126 16.8317 21.4115 16.4032 22.1334 15.1528C22.4861 14.5419 22.5707 13.9153 22.4482 13.319C22.3298 12.7431 22.0284 12.2408 21.6843 11.8249C21.0032 11.0018 20.0276 10.3668 19.3834 9.99488L18.7751 9.64364L18.301 10.3743C18.2921 10.388 18.2836 10.4021 18.2756 10.4164C17.9024 11.0834 17.4127 12.0993 17.2667 13.1217C17.1928 13.6393 17.2 14.2041 17.3934 14.7406C17.4081 14.7816 17.4239 14.8221 17.4406 14.8621Z" fill="#000000"/></svg>