<svg width="80" height="80" viewBox="0 0 24 24" fill="none" xmlns="http://www.w3.org/2000/svg" transform="rotate(0 0 0)"><path d="M12 2C10.2051 2 8.75 3.45507 8.75 5.25V13.4073C8.75 13.6177 8.64553 13.8689 8.41561 14.1331C7.69008 14.9668 7.25 16.058 7.25 17.25C7.25 19.8734 9.37665 22 12 22C14.6234 22 16.75 19.8734 16.75 17.25C16.75 16.058 16.3099 14.9668 15.5844 14.1331C15.3545 13.8689 15.25 13.6177 15.25 13.4073V5.25C15.25 3.45507 13.7949 2 12 2ZM12.375 15.5403C13.1613 15.7119 13.7501 16.4122 13.7501 17.25C13.7501 18.2165 12.9666 19 12.0001 19C11.0336 19 10.25 18.2165 10.25 17.25C10.25 16.4122 10.8387 15.7119 11.625 15.5403L11.625 5.25C11.625 5.04289 11.7929 4.875 12 4.875C12.2071 4.875 12.375 5.04289 12.375 5.25L12.375 15.5403Z" fill="#000000"/><path d="M17.5 4.5C17.0858 4.5 16.75 4.83579 16.75 5.25C16.75 5.66421 17.0858 6 17.5 6H19C19.4142 6 19.75 5.66421 19.75 5.25C19.75 4.83579 19.4142 4.5 19 4.5H17.5Z" fill="#000000"/><path d="M17.5 7.5C17.0858 7.5 16.75 7.83579 16.75 8.25C16.75 8.66421 17.0858 9 17.5 9H19C19.4142 9 19.75 8.66421 19.75 8.25C19.75 7.83579 19.4142 7.5 19 7.5H17.5Z" fill="#000000"/><path d="M17.5 10.5C17.0858 10.5 16.75 10.8358 16.75 11.25C16.75 11.6642 17.0858 12 17.5 12H19C19.4142 12 19.75 11.6642 19.75 11.25C19.75 10.8358 19.4142 10.5 19 10.5H17.5Z" fill="#000000"/></svg>