<svg width="80" height="80" viewBox="0 0 24 25" fill="none" xmlns="http://www.w3.org/2000/svg" transform="rotate(0 0 0)"><path d="M3.25 6C3.25 4.75736 4.25736 3.75 5.5 3.75H8C8.41421 3.75 8.75 4.08579 8.75 4.5C8.75 4.91421 8.41421 5.25 8 5.25H5.5C5.08579 5.25 4.75 5.58579 4.75 6V8.5C4.75 8.91421 4.41421 9.25 4 9.25C3.58579 9.25 3.25 8.91421 3.25 8.5V6Z" fill="#000000"/><path d="M15.25 4.5C15.25 4.08579 15.5858 3.75 16 3.75H18.5C19.7426 3.75 20.75 4.75736 20.75 6V8.5C20.75 8.91421 20.4142 9.25 20 9.25C19.5858 9.25 19.25 8.91421 19.25 8.5V6C19.25 5.58579 18.9142 5.25 18.5 5.25H16C15.5858 5.25 15.25 4.91421 15.25 4.5Z" fill="#000000"/><path d="M4 15.75C4.41421 15.75 4.75 16.0858 4.75 16.5V19C4.75 19.4142 5.08579 19.75 5.5 19.75H8C8.41421 19.75 8.75 20.0858 8.75 20.5C8.75 20.9142 8.41421 21.25 8 21.25H5.5C4.25736 21.25 3.25 20.2426 3.25 19V16.5C3.25 16.0858 3.58579 15.75 4 15.75Z" fill="#000000"/><path d="M20 15.75C20.4142 15.75 20.75 16.0858 20.75 16.5V19C20.75 20.2426 19.7426 21.25 18.5 21.25H16C15.5858 21.25 15.25 20.9142 15.25 20.5C15.25 20.0858 15.5858 19.75 16 19.75H18.5C18.9142 19.75 19.25 19.4142 19.25 19V16.5C19.25 16.0858 19.5858 15.75 20 15.75Z" fill="#000000"/><path d="M10.824 15.7773C10.824 15.1284 11.3501 14.6023 11.999 14.6023H12C12.649 14.6023 13.175 15.1284 13.175 15.7773C13.175 16.4263 12.649 16.9523 12 16.9523H11.999C11.3501 16.9523 10.824 16.4263 10.824 15.7773Z" fill="#000000"/><path d="M8.17635 11.9296C10.2883 9.81773 13.7123 9.81773 15.8243 11.9296C16.2636 12.369 16.9759 12.369 17.4152 11.9296C17.8546 11.4903 17.8546 10.778 17.4152 10.3386C14.4247 7.34806 9.57595 7.34806 6.58536 10.3386C6.14602 10.778 6.14602 11.4903 6.58536 11.9296C7.0247 12.369 7.73701 12.369 8.17635 11.9296Z" fill="#000000"/><path d="M10.3504 14.253C11.2865 13.4111 12.7136 13.4111 13.6498 14.253C14.1118 14.6684 14.8231 14.6307 15.2385 14.1687C15.654 13.7067 15.6163 12.9954 15.1543 12.5799C13.3626 10.9688 10.6375 10.9688 8.8459 12.5799C8.3839 12.9954 8.34618 13.7067 8.76163 14.1687C9.17709 14.6307 9.8884 14.6684 10.3504 14.253Z" fill="#000000"/></svg>