<svg width="80" height="80" viewBox="0 0 25 24" fill="none" xmlns="http://www.w3.org/2000/svg" transform="rotate(0 0 0)"><path d="M12.4214 2.00098C6.89916 2.00098 2.42188 6.47766 2.42188 12C2.42188 17.5224 6.89916 21.9991 12.4214 21.9991C17.9437 21.9991 22.421 17.5224 22.421 12C22.421 6.47766 17.9437 2.00098 12.4214 2.00098ZM12.4231 7.80957C12.8373 7.80957 13.1731 8.14536 13.1731 8.55957V12.0385H15.0739C15.3773 12.0385 15.6508 12.2213 15.7668 12.5016C15.8829 12.782 15.8186 13.1046 15.604 13.319L12.9901 15.9311C12.8526 16.0898 12.6496 16.1902 12.4231 16.1902C12.2093 16.1902 12.0163 16.1007 11.8797 15.9572L9.23988 13.319C9.02528 13.1046 8.96103 12.7819 9.07709 12.5016C9.19314 12.2213 9.46665 12.0385 9.77004 12.0385H11.6731V8.55957C11.6731 8.14536 12.0089 7.80957 12.4231 7.80957Z" fill="#000000"/></svg>