<svg width="80" height="80" viewBox="0 0 24 24" fill="none" xmlns="http://www.w3.org/2000/svg" transform="rotate(0 0 0)"><path d="M11.664 2.31941C11.8751 2.21384 12.1236 2.21384 12.3348 2.31941L16.9074 4.60567L12.0001 7.05889L7.09154 4.60557L11.664 2.31941Z" fill="#000000"/><path d="M6.62305 5.48936V9.86387L11.5001 12.3012V7.92695L6.62305 5.48936Z" fill="#000000"/><path d="M5.97456 10.6577L2.46793 12.4109L7.3745 14.8641L10.8819 13.1102L5.97456 10.6577Z" fill="#000000"/><path d="M1.99805 13.294V18.6036C1.99805 18.8877 2.15855 19.1474 2.41264 19.2744L6.87318 21.5046V15.7315L1.99805 13.294Z" fill="#000000"/><path d="M7.87318 21.5058L11.5001 19.6922V13.9191L7.87318 15.7328V21.5058Z" fill="#000000"/><path d="M12.5001 19.6922L16.1271 21.5054V15.7326L12.5001 13.9191V19.6922Z" fill="#000000"/><path d="M17.1271 21.5052L21.5881 19.2745C21.8422 19.1474 22.0027 18.8877 22.0027 18.6037V13.2941L17.1271 15.7325V21.5052Z" fill="#000000"/><path d="M21.5329 12.411L18.0244 10.6576L13.1183 13.1101L16.6271 14.8645L21.5329 12.411Z" fill="#000000"/><path d="M17.3757 9.86387V5.48957L12.5001 7.92691V12.3011L17.3757 9.86387Z" fill="#000000"/></svg>