<svg width="80" height="80" viewBox="0 0 24 25" fill="none" xmlns="http://www.w3.org/2000/svg" transform="rotate(0 0 0)"><path d="M11.5 5.83167C11.0506 5.48086 10.4591 5.1066 9.71726 4.80836C8.98063 4.51221 7.8392 4.41963 6.98579 4.38659C6.53797 4.36925 6.13022 4.36753 5.83471 4.37009C5.68668 4.37137 5.56613 4.37374 5.48198 4.37581C5.43989 4.37684 5.40686 4.3778 5.38401 4.37852L5.3502 4.37964L5.34703 4.37975C4.94438 4.39478 4.62564 4.72524 4.625 5.12802V16.1309C4.62515 16.2324 4.64591 16.3328 4.68602 16.4261C4.72613 16.5194 4.78476 16.6035 4.85836 16.6735C4.93195 16.7434 5.01897 16.7977 5.11416 16.833C5.20934 16.8683 5.31071 16.8839 5.41211 16.8789C6.37623 16.8325 7.50232 16.8369 8.4082 17.2011C9.86494 17.7868 11.418 19.6035 11.418 19.6035C11.4431 19.6344 11.4705 19.6631 11.5 19.6895V5.83167Z" fill="#000000"/><path d="M3.625 7.11127C3.33223 7.11165 3.03055 7.11822 2.71884 7.13118C2.31709 7.14789 2 7.47844 2 7.88053V19.1305C2 19.3638 2.10857 19.5839 2.29374 19.7258C2.47891 19.8677 2.71958 19.9154 2.94487 19.8548C5.55651 19.1521 7.9332 19.0626 10.4357 20.008C10.4316 20.0036 10.4275 19.9992 10.4232 19.9947C9.74621 19.273 8.96377 18.5023 8.03519 18.129C7.25601 17.8157 6.28882 17.8581 5.46013 17.8778C5.22399 17.8892 4.98796 17.8528 4.7663 17.7705C4.54422 17.6881 4.34117 17.5615 4.16946 17.3983C3.99776 17.2351 3.86097 17.0388 3.76738 16.8212C3.67379 16.6036 3.62535 16.3692 3.625 16.1323L3.625 7.11127Z" fill="#000000"/><path d="M12.5 5.83167C12.9494 5.48086 13.5409 5.1066 14.2827 4.80836C15.0194 4.51221 16.1608 4.41963 17.0142 4.38659C17.462 4.36925 17.8698 4.36753 18.1653 4.37009C18.3133 4.37137 18.4339 4.37374 18.518 4.37581C18.5601 4.37684 18.5931 4.3778 18.616 4.37852L18.6498 4.37964L18.653 4.37975C19.0556 4.39478 19.3744 4.72524 19.375 5.12802V16.1309C19.3748 16.2324 19.3541 16.3328 19.314 16.4261C19.2739 16.5194 19.2152 16.6035 19.1416 16.6735C19.0681 16.7434 18.981 16.7977 18.8858 16.833C18.7907 16.8683 18.6893 16.8839 18.5879 16.8789C17.6238 16.8325 16.4977 16.8369 15.5918 17.2011C14.1351 17.7868 12.582 19.6035 12.582 19.6035C12.5569 19.6344 12.5295 19.6631 12.5 19.6895V5.83167Z" fill="#000000"/><path d="M20.375 7.11127C20.6678 7.11165 20.9695 7.11822 21.2812 7.13118C21.6829 7.14789 22 7.47844 22 7.88053V19.1305C22 19.3638 21.8914 19.5839 21.7063 19.7258C21.5211 19.8677 21.2804 19.9154 21.0551 19.8548C18.4435 19.1521 16.0668 19.0626 13.5643 20.008C13.5684 20.0036 13.5725 19.9992 13.5768 19.9947C14.2538 19.273 15.0362 18.5023 15.9648 18.129C16.744 17.8157 17.7112 17.8581 18.5399 17.8778C18.776 17.8892 19.012 17.8528 19.2337 17.7705C19.4558 17.6881 19.6588 17.5615 19.8305 17.3983C20.0022 17.2351 20.139 17.0388 20.2326 16.8212C20.3262 16.6036 20.3746 16.3692 20.375 16.1323L20.375 7.11127Z" fill="#000000"/></svg>