<svg width="80" height="80" viewBox="0 0 24 24" fill="none" xmlns="http://www.w3.org/2000/svg" transform="rotate(0 0 0)"><path d="M10.1834 21.3632C9.19366 21.8154 8.05634 21.8154 7.06662 21.3632L6.69162 21.1919C5.35647 20.5819 4.5 19.2489 4.5 17.781V9.5C4.5 5.35786 7.85787 2 12 2C16.1421 2 19.5 5.35787 19.5 9.5L19.5 17.781C19.5 19.2489 18.6435 20.5819 17.3084 21.1919L16.9334 21.3632C15.9437 21.8154 14.8063 21.8154 13.8166 21.3632L12.935 20.9604C12.3412 20.6891 11.6588 20.6891 11.065 20.9604L10.1834 21.3632ZM8.28711 9.00065C8.28711 9.69101 8.84675 10.2507 9.53711 10.2507C10.2275 10.2507 10.7872 9.69101 10.7872 9.00065C10.7872 8.3103 10.2275 7.75065 9.53711 7.75065C8.84675 7.75065 8.28711 8.3103 8.28711 9.00065ZM14.4619 7.75065C13.7716 7.75065 13.2119 8.3103 13.2119 9.00065C13.2119 9.69101 13.7717 10.2507 14.462 10.2507C15.1524 10.2507 15.712 9.69101 15.712 9.00065C15.712 8.3103 15.1523 7.75065 14.4619 7.75065ZM9.25 13.4753C9.25 14.1656 9.80964 14.7253 10.5 14.7253H13.5C14.1904 14.7253 14.75 14.1656 14.75 13.4753C14.75 12.7849 14.1904 12.2253 13.5 12.2253H10.5C9.80964 12.2253 9.25 12.7849 9.25 13.4753Z" fill="#000000"/></svg>