<svg width="80" height="80" viewBox="0 0 24 24" fill="none" xmlns="http://www.w3.org/2000/svg" transform="rotate(0 0 0)"><path d="M11.875 1.99414H8C6.75736 1.99414 5.75 3.0015 5.75 4.24414V6.24414H12.25C14.0449 6.24414 15.5 7.69921 15.5 9.49414V11.2441H19.5V4.24414C19.5 3.0015 18.4926 1.99414 17.25 1.99414H13.375V3.99414C13.375 4.40835 13.0392 4.74414 12.625 4.74414C12.2108 4.74414 11.875 4.40835 11.875 3.99414V1.99414Z" fill="#000000"/><path d="M19.75 12.2441H15.5V20.7441H19.75C20.9926 20.7441 22 19.7368 22 18.4941V14.4941C22 13.2515 20.9926 12.2441 19.75 12.2441Z" fill="#000000"/><path d="M14.5 20.7441V9.49414C14.5 8.2515 13.4926 7.24414 12.25 7.24414H9V10.4316C9 10.8459 8.66421 11.1816 8.25 11.1816C7.83579 11.1816 7.5 10.8459 7.5 10.4316V7.24414H4.25C3.00736 7.24414 2 8.2515 2 9.49414V18.4941C2 19.7368 3.00736 20.7441 4.25 20.7441H14.5Z" fill="#000000"/></svg>