<svg width="80" height="80" viewBox="0 0 24 24" fill="none" xmlns="http://www.w3.org/2000/svg" transform="rotate(0 0 0)"><path d="M6.25 3.25H5.5C4.25736 3.25 3.25 4.25736 3.25 5.5V18.5C3.25 19.7426 4.25736 20.75 5.5 20.75L7.25001 20.75L7.25 16.25C7.25 15.0074 8.25736 14 9.5 14L14.5 14C15.7426 14 16.75 15.0074 16.75 16.25V20.75H18.4999C19.7425 20.75 20.7499 19.7426 20.7499 18.5L20.7499 8.61418C20.7499 8.01685 20.5124 7.44403 20.0897 7.02197L16.9707 3.90779C16.5488 3.48658 15.977 3.25 15.3809 3.25H13.75L13.75 4.75C13.75 5.99264 12.7426 7 11.5 7H8.5C7.25736 7 6.25 5.99264 6.25 4.75V3.25Z" fill="#000000"/><path d="M12.25 3.25H7.75V4.75C7.75 5.16421 8.08579 5.5 8.5 5.5H11.5C11.9142 5.5 12.25 5.16421 12.25 4.75L12.25 3.25Z" fill="#000000"/><path d="M15.25 20.75V16.25C15.25 15.8358 14.9142 15.5 14.5 15.5L9.5 15.5C9.08579 15.5 8.75 15.8358 8.75 16.25L8.75001 20.75L15.25 20.75Z" fill="#000000"/></svg>