<svg width="80" height="80" viewBox="0 0 25 24" fill="none" xmlns="http://www.w3.org/2000/svg" transform="rotate(0 0 0)"><path d="M3.79883 5.5C3.79883 4.25736 4.80619 3.25 6.04883 3.25H19.0488C20.2915 3.25 21.2988 4.25736 21.2988 5.5V18.5C21.2988 19.7426 20.2915 20.75 19.0488 20.75H6.04883C4.80619 20.75 3.79883 19.7426 3.79883 18.5V5.5ZM8.45418 8.09469C8.1613 7.80179 7.68643 7.80177 7.39352 8.09465C7.10062 8.38753 7.10059 8.8624 7.39347 9.15531L10.2381 12.0002L7.3935 14.8448C7.1006 15.1377 7.1006 15.6126 7.3935 15.9054C7.68639 16.1983 8.16126 16.1983 8.45416 15.9054L11.8291 12.5305C12.1219 12.2377 12.122 11.7628 11.8291 11.4699L8.45418 8.09469ZM12.1776 14.625C11.7634 14.625 11.4276 14.9608 11.4276 15.375C11.4276 15.7892 11.7634 16.125 12.1776 16.125H17.1738C17.588 16.125 17.9238 15.7892 17.9238 15.375C17.9238 14.9608 17.588 14.625 17.1738 14.625H12.1776Z" fill="#000000"/></svg>