<svg width="80" height="80" viewBox="0 0 24 25" fill="none" xmlns="http://www.w3.org/2000/svg" transform="rotate(0 0 0)"><path d="M4.5 4.5C4.5 3.25736 5.50736 2.25 6.75 2.25H12.75C13.9926 2.25 15 3.25736 15 4.5V10.9675C13.7026 11.4546 12.6787 12.5006 12.2213 13.8123C11.6159 14.0816 11.0867 14.4913 10.675 15H4.5V4.5ZM11.2451 7C11.2451 6.17157 10.5735 5.5 9.74512 5.5C8.91669 5.5 8.24512 6.17157 8.24512 7C8.24512 7.82843 8.91669 8.5 9.74512 8.5C10.5735 8.5 11.2451 7.82843 11.2451 7ZM11.2451 11.625C11.2451 10.7966 10.5735 10.125 9.74512 10.125C8.91669 10.125 8.24512 10.7966 8.24512 11.625C8.24512 12.4534 8.91669 13.125 9.74512 13.125C10.5735 13.125 11.2451 12.4534 11.2451 11.625Z" fill="#000000"/><path d="M4.5 16.5H9.90135C9.80271 16.8552 9.75 17.2294 9.75 17.616C9.75 19.0106 10.4361 20.245 11.4891 21H7.5V21.5C7.5 21.9142 7.16421 22.25 6.75 22.25C6.33579 22.25 6 21.9142 6 21.5V21H5.25C4.83579 21 4.5 20.6642 4.5 20.25V16.5Z" fill="#000000"/><path d="M13.4821 14.9892C13.6637 13.4024 15.0113 12.1699 16.6467 12.1699C18.2848 12.1699 19.634 13.4063 19.8122 14.9968C21.0561 15.2201 22 16.3078 22 17.616C22 19.0857 20.8086 20.2771 19.3388 20.2771H13.9112C12.4414 20.2771 11.25 19.0857 11.25 17.616C11.25 16.2923 12.2164 15.1944 13.4821 14.9892Z" fill="#000000"/></svg>