<svg width="80" height="80" viewBox="0 0 24 24" fill="none" xmlns="http://www.w3.org/2000/svg" transform="rotate(0 0 0)"><path d="M6.25 3.25C5.00736 3.25 4 4.25736 4 5.5V13.6743C3.87079 13.8515 3.76613 14.0495 3.69188 14.264L2.48034 17.764C1.97441 19.2256 3.05991 20.75 4.60656 20.75H12.9423C12.9309 20.7391 12.9196 20.728 12.9085 20.7168L10.4085 18.2151C9.5305 17.3365 9.53052 15.9127 10.4085 15.0342L12.6912 12.75H5.8181C5.71053 12.75 5.60429 12.7577 5.5 12.7725V5.5C5.5 5.08579 5.83579 4.75 6.25 4.75H17.7499C18.1641 4.75 18.4999 5.08579 18.4999 5.5V11.8869C19.0173 11.8294 19.5508 11.951 19.9999 12.2517V5.5C19.9999 4.25736 18.9926 3.25 17.7499 3.25H6.25Z" fill="#000000"/><path d="M15.0305 14.6532C15.3233 14.3602 15.3231 13.8853 15.0302 13.5925C14.7372 13.2997 14.2623 13.2999 13.9695 13.5929L11.4695 16.0945C11.1768 16.3873 11.1768 16.8619 11.4695 17.1548L13.9695 19.6565C14.2623 19.9495 14.7371 19.9497 15.0301 19.6569C15.3231 19.3641 15.3233 18.8892 15.0305 18.5962L13.0603 16.6247L15.0305 14.6532Z" fill="#000000"/><path d="M19.2805 13.5929C18.9877 13.2999 18.5128 13.2997 18.2198 13.5925C17.9269 13.8853 17.9267 14.3602 18.2195 14.6532L20.1897 16.6247L18.2195 18.5962C17.9267 18.8892 17.9269 19.3641 18.2199 19.6569C18.5129 19.9497 18.9877 19.9495 19.2805 19.6565L21.7805 17.1548C22.0732 16.8619 22.0732 16.3873 21.7805 16.0945L19.2805 13.5929Z" fill="#000000"/></svg>