<svg width="80" height="80" viewBox="0 0 25 24" fill="none" xmlns="http://www.w3.org/2000/svg" transform="rotate(0 0 0)"><path d="M17.75 3C18.1642 3 18.5 3.33579 18.5 3.75V4.5H20C21.2426 4.5 22.25 5.50736 22.25 6.75V17.25C22.25 18.4926 21.2426 19.5 20 19.5H4.5C3.25736 19.5 2.25 18.4926 2.25 17.25V6.75C2.25 5.50736 3.25736 4.5 4.5 4.5H6V3.75C6 3.33579 6.33579 3 6.75 3H9.75C10.1642 3 10.5 3.33579 10.5 3.75V4.5H14V3.75C14 3.33579 14.3358 3 14.75 3H17.75ZM13.2583 7.85172C12.9854 7.7544 12.6809 7.82295 12.476 8.02781L8.7764 11.7274C8.5619 11.9419 8.49774 12.2645 8.61382 12.5448C8.72991 12.825 9.00338 13.0078 9.30673 13.0078H10.7474V15.5169C10.7764 15.8052 10.9688 16.051 11.2417 16.1483C11.5146 16.2456 11.8191 16.177 12.024 15.9722L15.7236 12.2726C15.9381 12.0581 16.0023 11.7355 15.8862 11.4552C15.7701 11.175 15.4966 10.9922 15.1933 10.9922H13.7526V8.48309C13.7236 8.19483 13.5312 7.94904 13.2583 7.85172Z" fill="#000000"/></svg>