<svg width="80" height="80" viewBox="0 0 24 25" fill="none" xmlns="http://www.w3.org/2000/svg" transform="rotate(0 0 0)"><path d="M17.45 4.23077C17.3386 3.94112 17.0603 3.75 16.75 3.75C16.4397 3.75 16.1614 3.94112 16.05 4.23077L15.2669 6.26687L13.2308 7.04999C12.9411 7.16139 12.75 7.43967 12.75 7.75C12.75 8.06033 12.9411 8.33861 13.2308 8.45001L15.2669 9.23313L16.05 11.2692C16.1614 11.5589 16.4397 11.75 16.75 11.75C17.0603 11.75 17.3386 11.5589 17.45 11.2692L18.2331 9.23313L20.2692 8.45001C20.5589 8.33861 20.75 8.06033 20.75 7.75C20.75 7.43967 20.5589 7.16139 20.2692 7.04999L18.2331 6.26687L17.45 4.23077Z" fill="#000000"/><path d="M9.07501 8.23077C8.96361 7.94112 8.68533 7.75 8.375 7.75C8.06467 7.75 7.78639 7.94112 7.67499 8.23077L6.57937 11.0794L3.73077 12.175C3.44112 12.2864 3.25 12.5647 3.25 12.875C3.25 13.1853 3.44112 13.4636 3.73077 13.575L6.57937 14.6706L7.67499 17.5192C7.78639 17.8089 8.06467 18 8.375 18C8.68533 18 8.96361 17.8089 9.07501 17.5192L10.1706 14.6706L13.0192 13.575C13.3089 13.4636 13.5 13.1853 13.5 12.875C13.5 12.5647 13.3089 12.2864 13.0192 12.175L10.1706 11.0794L9.07501 8.23077Z" fill="#000000"/><path d="M16.575 14.9808C16.4636 14.6911 16.1853 14.5 15.875 14.5C15.5647 14.5 15.2864 14.6911 15.175 14.9808L14.5655 16.5655L12.9808 17.175C12.6911 17.2864 12.5 17.5647 12.5 17.875C12.5 18.1853 12.6911 18.4636 12.9808 18.575L14.5655 19.1845L15.175 20.7692C15.2864 21.0589 15.5647 21.25 15.875 21.25C16.1853 21.25 16.4636 21.0589 16.575 20.7692L17.1845 19.1845L18.7692 18.575C19.0589 18.4636 19.25 18.1853 19.25 17.875C19.25 17.5647 19.0589 17.2864 18.7692 17.175L17.1845 16.5655L16.575 14.9808Z" fill="#000000"/></svg>