<svg width="80" height="80" viewBox="0 0 24 25" fill="none" xmlns="http://www.w3.org/2000/svg" transform="rotate(0 0 0)"><path d="M5.5 3.94629C4.25736 3.94629 3.25 4.95365 3.25 6.19629V13.9463H7.55159C8.40585 13.9463 9.22576 14.2826 9.83392 14.8825L10.4007 15.4416H13.5989L14.1656 14.8825C14.7738 14.2826 15.5937 13.9463 16.4479 13.9463H20.75V6.19629C20.75 4.95365 19.7426 3.94629 18.5 3.94629H5.5ZM11.0009 8.68765L10.4538 9.84694C10.2685 10.2396 9.87323 10.4901 9.43903 10.4901H8.55859C8.14438 10.4901 7.80859 10.1543 7.80859 9.74011C7.80859 9.32589 8.14438 8.99011 8.55859 8.99011H9.19951L10.0992 7.08382C10.5503 6.12811 11.9518 6.26894 12.2037 7.29529L13.0243 10.6385L13.5546 9.60132C13.7465 9.22617 14.1323 8.99011 14.5537 8.99011H15.4423C15.8565 8.99011 16.1923 9.32589 16.1923 9.74011C16.1923 10.1543 15.8565 10.4901 15.4423 10.4901H14.7849L13.898 12.2244C13.4249 13.1496 12.0569 12.9901 11.8092 11.981L11.0009 8.68765Z" fill="#000000"/><path d="M2 17.9438L2.0075 15.6963H2.00977C2.00977 15.2821 2.34555 14.9463 2.75977 14.9463H7.55159C7.8681 14.9463 8.1778 15.013 8.46186 15.1386C8.70858 15.2478 8.93596 15.4014 9.13167 15.5945L9.77143 16.2255C9.91177 16.364 10.101 16.4416 10.2981 16.4416H13.7014C13.8984 16.4416 14.0878 16.3637 14.2281 16.2255L14.8681 15.5942C14.8922 15.5705 14.9167 15.5474 14.9416 15.5249C15.1197 15.3644 15.3209 15.2346 15.5369 15.139C15.8212 15.0131 16.1312 14.9463 16.4479 14.9463H21.2398C21.654 14.9463 21.9898 15.2821 21.9898 15.6963H21.9925L22 17.9463C22 19.1889 20.9926 20.1963 19.75 20.1963H4.25C3.00736 20.1963 2 19.1889 2 17.9463L2 17.9438Z" fill="#000000"/></svg>