<svg width="80" height="80" viewBox="0 0 24 24" fill="none" xmlns="http://www.w3.org/2000/svg" transform="rotate(0 0 0)"><path d="M10.3782 4.5C9.97492 5.37473 9.75 6.3486 9.75 7.375C9.75 11.172 12.828 14.25 16.625 14.25C18.8006 14.25 20.7403 13.2394 22 11.662V15.3438C22 16.5864 20.9926 17.5938 19.75 17.5938H12.75V19.25H15C15.4142 19.25 15.75 19.5858 15.75 20C15.75 20.4142 15.4142 20.75 15 20.75H9.00003C8.58582 20.75 8.25003 20.4142 8.25003 20C8.25003 19.5858 8.58582 19.25 9.00003 19.25H11.25V17.5938H4.25C3.00736 17.5938 2 16.5864 2 15.3438V6.75C2 5.50736 3.00736 4.5 4.25 4.5H10.3782Z" fill="#000000"/><path d="M16.625 2C13.6565 2 11.25 4.40647 11.25 7.375C11.25 10.3435 13.6565 12.75 16.625 12.75C19.5935 12.75 22 10.3435 22 7.375C22 4.40647 19.5935 2 16.625 2ZM14.6728 5.42304C14.9657 5.13015 15.4406 5.13015 15.7335 5.42304L16.6247 6.31432L17.516 5.42307C17.8089 5.13018 18.2837 5.13018 18.5766 5.42307C18.8695 5.71597 18.8695 6.19084 18.5766 6.48374L17.6854 7.37498L18.5766 8.26622C18.8695 8.55912 18.8695 9.03399 18.5766 9.32689C18.2837 9.61978 17.8089 9.61978 17.516 9.32689L16.6247 8.43564L15.7335 9.32692C15.4406 9.61981 14.9657 9.61981 14.6728 9.32692C14.3799 9.03403 14.3799 8.55915 14.6728 8.26626L15.5641 7.37498L14.6728 6.4837C14.3799 6.19081 14.3799 5.71593 14.6728 5.42304Z" fill="#000000"/></svg>