<svg width="80" height="80" viewBox="0 0 24 24" fill="none" xmlns="http://www.w3.org/2000/svg" transform="rotate(0 0 0)"><path d="M10.3782 4.5C9.97492 5.37473 9.75 6.3486 9.75 7.375C9.75 11.172 12.828 14.25 16.625 14.25C18.8006 14.25 20.7403 13.2394 22 11.662V15.3438C22 16.5864 20.9926 17.5938 19.75 17.5938H12.75V19.25H15C15.4142 19.25 15.75 19.5858 15.75 20C15.75 20.4142 15.4142 20.75 15 20.75H9.00003C8.58582 20.75 8.25003 20.4142 8.25003 20C8.25003 19.5858 8.58582 19.25 9.00003 19.25H11.25V17.5938H4.25C3.00736 17.5938 2 16.5864 2 15.3438V6.75C2 5.50736 3.00736 4.5 4.25 4.5H10.3782Z" fill="#000000"/><path d="M16.625 2C13.6565 2 11.25 4.40647 11.25 7.375C11.25 10.3435 13.6565 12.75 16.625 12.75C19.5935 12.75 22 10.3435 22 7.375C22 4.40647 19.5935 2 16.625 2ZM18.6553 6.95147L16.7477 8.85914C16.607 8.99979 16.4162 9.07881 16.2173 9.07881C16.0184 9.07881 15.8277 8.99979 15.687 8.85914L14.5947 7.76681C14.3018 7.47392 14.3018 6.99905 14.5947 6.70615C14.8876 6.41326 15.3624 6.41326 15.6553 6.70615L16.2173 7.26815L17.5947 5.89081C17.8876 5.59792 18.3624 5.59792 18.6553 5.89081C18.9482 6.18371 18.9482 6.65858 18.6553 6.95147Z" fill="#000000"/></svg>